<?xml version="1.0" encoding="utf-8"?>
<!-- Generator: Adobe Illustrator 25.0.1, SVG Export Plug-In . SVG Version: 6.00 Build 0)  -->
<svg version="1.1" id="Capa_1" xmlns="http://www.w3.org/2000/svg" xmlns:xlink="http://www.w3.org/1999/xlink" x="0px" y="0px"
	 viewBox="0 0 247.3 47.4" style="enable-background:new 0 0 247.3 47.4;" xml:space="preserve">
<style type="text/css">
	.st0{fill:#002D5D;}
	.st1{fill:none;}
	.st2{fill:#FFFFFF;}
	.st3{font-family:'Avenir-Black';}
	.st4{font-size:7.8313px;}
</style>
<g>
	<g>
		<path class="st1" d="M61,13.3L61,13.3C60.9,13.3,60.9,13.3,61,13.3c-0.1,0-0.1,0-0.2,0l0,0c-4.6,0-6.9,0-7.6,0.1
			c-0.4,0.9-2.5,7.7-2.8,12.1c0.1,0.1,0.2,0.2,0.4,0.2c1.8,0.1,5.3,0.1,10.1,0.2c4.8,0,8.3-0.1,10.1-0.2c0.1,0,0.3-0.2,0.4-0.2
			C71,21.2,69,14.3,68.5,13.4C67.9,13.3,65.6,13.3,61,13.3z M52.1,23.5l1.6-8.7H68l1.6,8.7H52.1z"/>
		<path class="st0" d="M53.7,14.8l-1.6,8.7h17.6l-1.6-8.7C68.1,14.8,53.7,14.8,53.7,14.8z"/>
		<path class="st1" d="M52.8,12.9L52.8,12.9c0.1-0.1-0.2-0.1,1.8-0.2c1.6-0.1,3.8,0,6.2,0c2.4,0,4.6,0,6.2,0
			c1.9,0.1,1.7,0.1,1.8,0.2l0,0c0.1,0.1,0.2,0.2,0.6,1.5c0.2,0.7,0.5,1.5,0.7,2.4v-5.5c0-0.2-0.2-0.4-0.4-0.4H51.9
			c-0.2,0-0.4,0.2-0.4,0.4v5.5c0.3-0.8,0.5-1.6,0.7-2.4C52.7,13.1,52.8,13,52.8,12.9z"/>
		<path class="st0" d="M70.9,19.5v-8.2c0-0.6-0.5-1.1-1.1-1.1H51.9c-0.6,0-1.1,0.5-1.1,1.1v8.2c-0.4,1.8-0.9,4.1-1,6
			c0,0.1,0.1,0.3,0.2,0.4c0.2,0.2,0.4,0.4,0.7,0.4c1.7,0.1,5.4,0.1,10,0.2l0,0h0.1h0.1l0,0c4.6,0,8.3-0.1,10-0.2
			c0.3,0,0.6-0.2,0.7-0.4c0.1-0.1,0.2-0.3,0.2-0.4C71.8,23.6,71.3,21.4,70.9,19.5z M51.5,11.3c0-0.2,0.2-0.4,0.4-0.4h17.9
			c0.2,0,0.4,0.2,0.4,0.4v5.5c-0.2-0.9-0.5-1.7-0.7-2.4C69.1,13,69,13,68.9,12.9l0,0c-0.1-0.1,0.1-0.1-1.8-0.2c-1.6-0.1-3.8,0-6.2,0
			s-4.6,0-6.2,0c-2,0.1-1.7,0.1-1.8,0.2l0,0c-0.1,0.1-0.2,0.2-0.7,1.5c-0.2,0.7-0.5,1.5-0.7,2.4C51.5,16.8,51.5,11.3,51.5,11.3z
			 M71,25.7c-1.8,0.1-5.3,0.1-10.1,0.2c-4.8,0-8.3-0.1-10.1-0.2c-0.1,0-0.3-0.2-0.4-0.2c0.1-1.5,0.4-3.2,0.8-4.9
			c0.1-0.5,0.2-0.9,0.3-1.3c0.7-2.9,1.5-5.4,1.7-5.9c0.7-0.1,2.9-0.1,7.6-0.1l0,0c0,0,0,0,0.1,0c0,0,0,0,0.1,0l0,0
			c4.6,0,6.9,0,7.6,0.1c0.2,0.5,1,3,1.7,5.8c0.1,0.4,0.2,0.9,0.3,1.3c0.4,1.7,0.7,3.5,0.8,4.9C71.3,25.6,71.1,25.7,71,25.7z"/>
		<text transform="matrix(1 0 0 1 55.5119 21.7958)" class="st2 st3 st4">TV</text>
	</g>
	<g>
		<g>
			<path class="st0" d="M137.5,13.6h2.8l1,5.3l1.5-5.3h2.8l1.5,5.3l1-5.3h2.8l-2.1,9.4h-2.9l-1.7-5.9l-1.6,5.9h-2.9L137.5,13.6z"/>
			<path class="st0" d="M157.7,19.2l2.6,0.8c-0.2,0.7-0.4,1.3-0.8,1.8c-0.4,0.5-0.8,0.8-1.4,1.1c-0.5,0.2-1.2,0.4-2.1,0.4
				c-1,0-1.9-0.2-2.5-0.4c-0.7-0.3-1.2-0.8-1.7-1.6c-0.5-0.7-0.7-1.7-0.7-2.9c0-1.6,0.4-2.8,1.2-3.6c0.8-0.8,2-1.3,3.5-1.3
				c1.2,0,2.1,0.2,2.8,0.7c0.7,0.5,1.2,1.2,1.5,2.2l-2.6,0.6c-0.1-0.3-0.2-0.5-0.3-0.6c-0.2-0.2-0.4-0.4-0.6-0.5
				c-0.2-0.1-0.5-0.2-0.8-0.2c-0.7,0-1.2,0.3-1.5,0.8c-0.3,0.4-0.4,1-0.4,1.9c0,1,0.2,1.8,0.5,2.1c0.3,0.4,0.8,0.6,1.3,0.6
				c0.6,0,1-0.2,1.3-0.5C157.3,20.2,157.5,19.8,157.7,19.2z"/>
		</g>
	</g>
	<g>
		<g>
			<path class="st0" d="M169.4,13.6h2.8l1,5.3l1.5-5.3h2.8l1.5,5.3l1-5.3h2.8l-2.1,9.4h-2.9l-1.7-5.9l-1.6,5.9h-2.9L169.4,13.6z"/>
			<path class="st0" d="M189.6,19.2l2.6,0.8c-0.2,0.7-0.4,1.3-0.8,1.8c-0.4,0.5-0.8,0.8-1.4,1.1c-0.5,0.2-1.2,0.4-2.1,0.4
				c-1,0-1.9-0.2-2.5-0.4c-0.7-0.3-1.2-0.8-1.7-1.6c-0.5-0.7-0.7-1.7-0.7-2.9c0-1.6,0.4-2.8,1.2-3.6c0.8-0.8,2-1.3,3.5-1.3
				c1.2,0,2.1,0.2,2.8,0.7c0.7,0.5,1.2,1.2,1.5,2.2l-2.6,0.6c-0.1-0.3-0.2-0.5-0.3-0.6c-0.2-0.2-0.4-0.4-0.6-0.5
				c-0.2-0.1-0.5-0.2-0.8-0.2c-0.7,0-1.2,0.3-1.5,0.8c-0.3,0.4-0.4,1-0.4,1.9c0,1,0.2,1.8,0.5,2.1c0.3,0.4,0.8,0.6,1.3,0.6
				c0.6,0,1-0.2,1.3-0.5C189.3,20.2,189.5,19.8,189.6,19.2z"/>
		</g>
	</g>
	<g>
		<path class="st0" d="M120,26.4c-0.2-0.1-0.4-0.2-0.5-0.4c-0.1-0.4,0-0.7,0.3-0.9c0.4-0.2,0.7-0.5,1-0.9c0.4-0.6,0.4-1.2,0.2-1.8
			c0,0,0-0.1,0-0.1c-0.3,0.1-0.6,0.2-0.9,0.3c-0.4,0.1-0.8,0.1-1.1-0.1c-0.1,0-0.1-0.1-0.2-0.1c-0.1-0.1-0.2-0.1-0.3-0.1
			c-0.5,0.1-1,0.1-1.5-0.1c-0.3-0.2-0.6-0.4-0.8-0.7c-0.3-0.4-0.5-0.8-0.7-1.2c-0.4-0.7-0.8-1.4-1.2-2.1c-0.1-0.2-0.2-0.4-0.2-0.6
			c0-0.4,0.2-0.6,0.5-0.8c1.1-0.6,2.2-1.3,3.3-1.9c0.9-0.5,1.8-1.1,2.7-1.6c0.4-0.2,0.9-0.1,1.2,0.3c0.4,0.6,0.8,1.3,1.1,1.9
			c0.3,0.4,0.5,0.9,0.8,1.3c0.3,0.5,0.4,1.1,0.2,1.7c-0.1,0.3-0.3,0.6-0.5,0.9c-0.1,0.1-0.2,0.2-0.1,0.4c0.1,0.5-0.1,0.8-0.4,1.1
			c-0.2,0.2-0.4,0.4-0.6,0.5c-0.1,0.1-0.1,0.1,0,0.2c0.3,0.7,0.4,1.4,0.3,2.1c-0.2,0.8-0.7,1.5-1.3,2c-0.2,0.1-0.4,0.3-0.6,0.4
			c-0.1,0.1-0.2,0.1-0.3,0.2C120.1,26.4,120.1,26.4,120,26.4z M118.9,21.3c0.1,0,0.4-0.1,0.6-0.2c0.4-0.1,0.7-0.3,1.1-0.5
			c0.5-0.3,1-0.6,1.4-1c0.4-0.4,0.6-0.9,0.3-1.4c-0.2-0.5-0.5-1-0.8-1.4c-0.2-0.3-0.5-0.3-0.8-0.2c-0.4,0.3-0.9,0.5-1.3,0.8
			c-0.8,0.4-1.5,0.9-2.3,1.3c-0.3,0.2-0.4,0.4-0.2,0.7c0,0.1,0.1,0.2,0.2,0.3c0.2,0.4,0.4,0.8,0.7,1.1
			C118.1,21.1,118.4,21.3,118.9,21.3z"/>
		<path class="st0" d="M118.1,10.2c0.3,0.1,0.4,0.3,0.6,0.5c0.4,0.8,0.9,1.5,1.3,2.3c0,0,0,0.1,0.1,0.1c-0.2,0.1-0.3,0.2-0.5,0.3
			c-0.2,0.1-0.3,0.2-0.5,0.3c-0.1,0-0.1,0-0.2,0c-0.5-0.8-1-1.6-1.4-2.5c-0.2-0.4-0.1-0.9,0.4-1c0,0,0,0,0,0
			C117.9,10.2,118,10.2,118.1,10.2z"/>
		<path class="st0" d="M115.8,15.6c-0.4,0.2-0.8,0.4-1.1,0.7c-0.1-0.2-0.2-0.4-0.4-0.6c-0.4-0.6-0.7-1.3-1.1-1.9
			c-0.2-0.3-0.2-0.6,0.1-0.9c0.3-0.3,0.8-0.2,1,0.1c0.3,0.6,0.7,1.2,1,1.8C115.5,15.1,115.6,15.3,115.8,15.6z"/>
		<path class="st0" d="M118.4,20.6c0-0.1-0.1-0.1-0.1-0.2c0,0,0-0.1,0.1-0.1c0.3-0.2,0.7-0.4,1-0.6c0.8-0.4,1.5-0.9,2.3-1.3
			c0,0,0.1,0,0.1-0.1c0,0.1,0.1,0.2,0.1,0.3C120.8,19.3,119.6,20,118.4,20.6z"/>
		<path class="st0" d="M121.1,17.2c0.2,0.2,0.2,0.3-0.1,0.4c-1.1,0.6-2.1,1.2-3.2,1.9c0,0,0,0-0.1,0c0-0.1-0.1-0.2-0.1-0.3
			C118.7,18.5,119.9,17.8,121.1,17.2z"/>
		<path class="st0" d="M118.1,20C118.1,20,118.1,20,118.1,20c-0.2-0.2-0.2-0.2,0-0.4c0.5-0.3,1-0.6,1.6-0.9c0.6-0.3,1.1-0.7,1.7-1
			c0,0.1,0.1,0.2,0.1,0.3C120.4,18.7,119.2,19.4,118.1,20z"/>
	</g>
	<g>
		<path class="st1" d="M91.9,26.8c0.1,0.2,2.9-0.1,2.8-0.4c-0.1-0.4-0.9-2.6-1.2-2.6c-0.3,0-2.9,0.1-2.9,0.1
			C90.6,24.1,91.8,26.6,91.9,26.8z"/>
		<path class="st0" d="M90.5,23.2c0,0.2,1.4,4,1.9,4c0.5,0,3.2,0,3.4-0.5c0.1-0.5-1.4-3.3-1.3-3.6c-0.7,0.1-1.4,0.1-2,0.1
			 M95.4,26.4c0.1,0.2-2.7,0.5-2.8,0.3c-0.1-0.2-0.8-1.7-0.9-1.8c0,0,2.5-0.3,2.9-0.3C94.9,24.6,95.2,26,95.4,26.4z"/>
		<path class="st0" d="M87.4,22.4c-0.6-0.1-1-0.2-1.5-0.8c-0.3-0.4-0.5-0.6-0.3-1.1c-0.7,1-4.2,5-4.4,5.2c-0.2,0.4,1.3,0.8,1.7,0.7
			c1.3-0.5,4.3-3.9,4.4-3.9"/>
		<path class="st0" d="M100.4,10.4c0,0-1-1.1-1.7-1c-0.3,0-0.5,0.1-0.8,0.3c-0.3,0.2-1.3,1.4-1.5,2.1c-0.3,0.8,0.1,1.1,0,1.7
			c-0.1,0.6-1.6,2.9-2.6,4c0,0,0,0,0,0c-0.3-0.1-1.4-0.7-2.9-0.8c-1.5,0-2.2,0.2-2.4,0.3c-0.2,0.1-0.2,0.2-0.2,0.3
			c0,0.2-0.1,0.5,0.2,0.5c0.3,0,2.1,0.2,2.3,0.3c0.2,0.1,1.1,0.4,1.7,1l-0.2,0.3c-1.9-0.5-5.9-0.8-6.6,0.3c0,0-0.1,0.3-0.1,0.3
			l0.1-0.2c0,0-0.4,0.8,0.2,1.6c0.6,0.8,6.3,2.2,8.5,1.3c0.3-0.2,0.7-0.6,1.2-1.3c1.2-2,2.2-3.5,3.5-6.2
			C100.1,13.2,101.2,11.4,100.4,10.4z"/>
	</g>
</g>
</svg>
