<?xml version="1.0" encoding="utf-8"?>
<!-- Generator: Adobe Illustrator 25.0.1, SVG Export Plug-In . SVG Version: 6.00 Build 0)  -->
<svg version="1.1" id="Capa_1" xmlns="http://www.w3.org/2000/svg" xmlns:xlink="http://www.w3.org/1999/xlink" x="0px" y="0px"
	 viewBox="0 0 247.3 47.4" style="enable-background:new 0 0 247.3 47.4;" xml:space="preserve">
<style type="text/css">
	.st0{fill:#002D5D;}
	.st1{fill:none;}
</style>
<g>
	<g>
		<g>
			<path class="st0" d="M153.2,16.7h2.8l1,5.3l1.5-5.3h2.8l1.5,5.3l1-5.3h2.8l-2.1,9.4h-2.9l-1.7-5.9l-1.6,5.9h-2.9L153.2,16.7z"/>
			<path class="st0" d="M173.4,22.2L176,23c-0.2,0.7-0.4,1.3-0.8,1.8c-0.4,0.5-0.8,0.8-1.4,1.1c-0.5,0.2-1.2,0.4-2.1,0.4
				c-1,0-1.9-0.2-2.5-0.4c-0.7-0.3-1.2-0.8-1.7-1.6c-0.5-0.7-0.7-1.7-0.7-2.9c0-1.6,0.4-2.8,1.2-3.6s2-1.3,3.5-1.3
				c1.2,0,2.1,0.2,2.8,0.7c0.7,0.5,1.2,1.2,1.5,2.2l-2.6,0.6c-0.1-0.3-0.2-0.5-0.3-0.6c-0.2-0.2-0.4-0.4-0.6-0.5
				c-0.2-0.1-0.5-0.2-0.8-0.2c-0.7,0-1.2,0.3-1.5,0.8c-0.3,0.4-0.4,1-0.4,1.9c0,1,0.2,1.8,0.5,2.1c0.3,0.4,0.8,0.6,1.3,0.6
				c0.6,0,1-0.2,1.3-0.5C173.1,23.3,173.3,22.8,173.4,22.2z"/>
		</g>
	</g>
	<g>
		<g>
			<path class="st0" d="M185.2,16.7h2.8l1,5.3l1.5-5.3h2.8l1.5,5.3l1-5.3h2.8l-2.1,9.4h-2.9l-1.7-5.9l-1.6,5.9h-2.9L185.2,16.7z"/>
			<path class="st0" d="M205.4,22.2l2.6,0.8c-0.2,0.7-0.4,1.3-0.8,1.8c-0.4,0.5-0.8,0.8-1.4,1.1c-0.5,0.2-1.2,0.4-2.1,0.4
				c-1,0-1.9-0.2-2.5-0.4c-0.7-0.3-1.2-0.8-1.7-1.6c-0.5-0.7-0.7-1.7-0.7-2.9c0-1.6,0.4-2.8,1.2-3.6c0.8-0.8,2-1.3,3.5-1.3
				c1.2,0,2.1,0.2,2.8,0.7c0.7,0.5,1.2,1.2,1.5,2.2l-2.6,0.6c-0.1-0.3-0.2-0.5-0.3-0.6c-0.2-0.2-0.4-0.4-0.6-0.5
				c-0.2-0.1-0.5-0.2-0.8-0.2c-0.7,0-1.2,0.3-1.5,0.8c-0.3,0.4-0.4,1-0.4,1.9c0,1,0.2,1.8,0.5,2.1c0.3,0.4,0.8,0.6,1.3,0.6
				c0.6,0,1-0.2,1.3-0.5C205.1,23.3,205.3,22.8,205.4,22.2z"/>
		</g>
	</g>
	<g>
		<path class="st0" d="M135.8,29.5c-0.2-0.1-0.4-0.2-0.5-0.4c-0.1-0.4,0-0.7,0.3-0.9c0.4-0.2,0.7-0.5,1-0.9c0.4-0.6,0.4-1.2,0.2-1.8
			c0,0,0-0.1,0-0.1c-0.3,0.1-0.6,0.2-0.9,0.3c-0.4,0.1-0.8,0.1-1.1-0.1c-0.1,0-0.1-0.1-0.2-0.1c-0.1-0.1-0.2-0.1-0.3-0.1
			c-0.5,0.1-1,0.1-1.5-0.1c-0.3-0.2-0.6-0.4-0.8-0.7c-0.3-0.4-0.5-0.8-0.7-1.2c-0.4-0.7-0.8-1.4-1.2-2.1c-0.1-0.2-0.2-0.4-0.2-0.6
			c0-0.4,0.2-0.6,0.5-0.8c1.1-0.6,2.2-1.3,3.3-1.9c0.9-0.5,1.8-1.1,2.7-1.6c0.4-0.2,0.9-0.1,1.2,0.3c0.4,0.6,0.8,1.3,1.1,1.9
			c0.3,0.4,0.5,0.9,0.8,1.3c0.3,0.5,0.4,1.1,0.2,1.7c-0.1,0.3-0.3,0.6-0.5,0.9c-0.1,0.1-0.2,0.2-0.1,0.4c0.1,0.5-0.1,0.8-0.4,1.1
			c-0.2,0.2-0.4,0.4-0.6,0.5c-0.1,0.1-0.1,0.1,0,0.2c0.3,0.7,0.4,1.4,0.3,2.1c-0.2,0.8-0.7,1.5-1.3,2c-0.2,0.1-0.4,0.3-0.6,0.4
			c-0.1,0.1-0.2,0.1-0.3,0.2C135.9,29.5,135.8,29.5,135.8,29.5z M134.7,24.3c0.1,0,0.4-0.1,0.6-0.2c0.4-0.1,0.7-0.3,1.1-0.5
			c0.5-0.3,1-0.6,1.4-1c0.4-0.4,0.6-0.9,0.3-1.4c-0.2-0.5-0.5-1-0.8-1.4c-0.2-0.3-0.5-0.3-0.8-0.2c-0.4,0.3-0.9,0.5-1.3,0.8
			c-0.8,0.4-1.5,0.9-2.3,1.3c-0.3,0.2-0.4,0.4-0.2,0.7c0,0.1,0.1,0.2,0.2,0.3c0.2,0.4,0.4,0.8,0.7,1.1
			C133.8,24.1,134.2,24.3,134.7,24.3z"/>
		<path class="st0" d="M133.8,13.3c0.3,0.1,0.4,0.3,0.6,0.5c0.4,0.8,0.9,1.5,1.3,2.3c0,0,0,0.1,0.1,0.1c-0.2,0.1-0.3,0.2-0.5,0.3
			c-0.2,0.1-0.3,0.2-0.5,0.3c-0.1,0-0.1,0-0.2,0c-0.5-0.8-1-1.6-1.4-2.5c-0.2-0.4-0.1-0.9,0.4-1c0,0,0,0,0,0
			C133.7,13.3,133.8,13.3,133.8,13.3z"/>
		<path class="st0" d="M131.5,18.7c-0.4,0.2-0.8,0.4-1.1,0.7c-0.1-0.2-0.2-0.4-0.4-0.6c-0.4-0.6-0.7-1.3-1.1-1.9
			c-0.2-0.3-0.2-0.6,0.1-0.9c0.3-0.3,0.8-0.2,1,0.1c0.3,0.6,0.7,1.2,1,1.8C131.2,18.1,131.4,18.4,131.5,18.7z"/>
		<path class="st0" d="M134.2,23.7c0-0.1-0.1-0.1-0.1-0.2c0,0,0-0.1,0.1-0.1c0.3-0.2,0.7-0.4,1-0.6c0.8-0.4,1.5-0.9,2.3-1.3
			c0,0,0.1,0,0.1-0.1c0,0.1,0.1,0.2,0.1,0.3C136.5,22.3,135.4,23,134.2,23.7z"/>
		<path class="st0" d="M136.8,20.2c0.2,0.2,0.2,0.3-0.1,0.4c-1.1,0.6-2.1,1.2-3.2,1.9c0,0,0,0-0.1,0c0-0.1-0.1-0.2-0.1-0.3
			C134.5,21.5,135.7,20.9,136.8,20.2z"/>
		<path class="st0" d="M133.9,23.1C133.8,23.1,133.8,23.1,133.9,23.1c-0.2-0.2-0.2-0.2,0-0.4c0.5-0.3,1-0.6,1.6-0.9
			c0.6-0.3,1.1-0.7,1.7-1c0,0.1,0.1,0.2,0.1,0.3C136.2,21.7,135,22.4,133.9,23.1z"/>
	</g>
	<g>
		<path class="st1" d="M81.3,29.9c0.1,0.2,2.9-0.1,2.8-0.4c-0.1-0.4-0.9-2.6-1.2-2.6c-0.3,0-2.9,0.1-2.9,0.1
			C80,27.1,81.2,29.7,81.3,29.9z"/>
		<path class="st0" d="M79.9,26.2c0,0.2,1.4,4,1.9,4s3.2,0,3.4-0.5c0.1-0.5-1.4-3.3-1.3-3.6c-0.7,0.1-1.4,0.1-2,0.1 M84.7,29.4
			c0.1,0.2-2.7,0.5-2.8,0.3c-0.1-0.2-0.8-1.7-0.9-1.8c0,0,2.5-0.3,2.9-0.3C84.3,27.6,84.6,29,84.7,29.4z"/>
		<path class="st0" d="M76.8,25.5c-0.6-0.1-1-0.2-1.5-0.8c-0.3-0.4-0.5-0.6-0.3-1.1c-0.7,1-4.2,5-4.4,5.2c-0.2,0.4,1.3,0.8,1.7,0.7
			c1.3-0.5,4.3-3.9,4.4-3.9"/>
		<path class="st0" d="M89.8,13.5c0,0-1-1.1-1.7-1c-0.3,0-0.5,0.1-0.8,0.3c-0.3,0.2-1.3,1.4-1.5,2.1c-0.3,0.8,0.1,1.1,0,1.7
			c-0.1,0.6-1.6,2.9-2.6,4c0,0,0,0,0,0c-0.3-0.1-1.4-0.7-2.9-0.8c-1.5,0-2.2,0.2-2.4,0.3c-0.2,0.1-0.2,0.2-0.2,0.3
			c0,0.2-0.1,0.5,0.2,0.5c0.3,0,2.1,0.2,2.3,0.3c0.2,0.1,1.1,0.4,1.7,1l-0.2,0.3c-1.9-0.5-5.9-0.8-6.6,0.3c0,0-0.1,0.3-0.1,0.3
			l0.1-0.2c0,0-0.4,0.8,0.2,1.6c0.6,0.8,6.3,2.2,8.5,1.3c0.3-0.2,0.7-0.6,1.2-1.3c1.2-2,2.2-3.5,3.5-6.2
			C89.5,16.3,90.6,14.5,89.8,13.5z"/>
	</g>
	<g>
		<path class="st0" d="M42.8,17.9l-1.6,8.5h17.2l-1.6-8.5H42.8z M49.1,24.7h-1.3v-2.2h-2.1v2.2h-1.3v-5.2h1.3v2h2.1v-2h1.3V24.7z
			 M54.3,24.1c-0.6,0.5-1.5,0.7-2.6,0.7c-0.7,0-1.1,0-1.4-0.1v-5.1c0.5-0.1,1.1-0.1,1.7-0.1c1.1,0,1.8,0.2,2.3,0.6
			c0.6,0.4,1,1,1,1.9C55.2,23,54.8,23.7,54.3,24.1z"/>
		<path class="st0" d="M52.1,20.4c-0.3,0-0.5,0-0.6,0v3.4c0.1,0,0.3,0,0.4,0c1.2,0,1.9-0.6,1.9-1.8C53.9,20.9,53.2,20.4,52.1,20.4z"
			/>
		<path class="st0" d="M59.6,22.5v-8c0-0.6-0.5-1.1-1.1-1.1H41.1c-0.6,0-1.1,0.5-1.1,1.1v8c-0.4,1.8-0.8,4-1,5.8
			c0,0.1,0.1,0.3,0.2,0.4c0.2,0.2,0.4,0.4,0.7,0.4c1.7,0.1,5.3,0.1,9.8,0.1v0c0,0,0,0,0.1,0s0,0,0.1,0v0c4.5,0,8.1-0.1,9.8-0.1
			c0.3,0,0.6-0.2,0.7-0.4c0.1-0.1,0.2-0.3,0.2-0.4C60.5,26.5,60,24.3,59.6,22.5z M40.7,14.5c0-0.2,0.2-0.4,0.4-0.4h17.5
			c0.2,0,0.4,0.2,0.4,0.4v5.4c-0.2-0.8-0.5-1.7-0.7-2.4c-0.4-1.3-0.5-1.4-0.6-1.5c-0.1-0.1,0.1-0.1-1.8-0.2c-1.6,0-3.7,0-6.1,0
			c-2.3,0-4.5,0-6.1,0c-1.9,0.1-1.7,0.1-1.8,0.2c-0.1,0.1-0.2,0.1-0.6,1.5c-0.2,0.7-0.5,1.5-0.7,2.4V14.5z M59.7,28.6
			c-1.8,0.1-5.2,0.1-9.8,0.1c-4.7,0-8.1-0.1-9.8-0.1c-0.1,0-0.3-0.1-0.4-0.2c0.1-1.4,0.4-3.2,0.7-4.8c0.1-0.4,0.2-0.9,0.3-1.3
			c0.7-2.8,1.4-5.1,1.7-5.7c0.7-0.1,2.9-0.1,7.4-0.1v0c0,0,0,0,0.1,0c0,0,0,0,0.1,0v0c4.5,0,6.7,0,7.4,0.1c0.2,0.5,1,2.9,1.7,5.7
			c0.1,0.4,0.2,0.9,0.3,1.3c0.4,1.7,0.7,3.4,0.7,4.8C59.9,28.4,59.8,28.6,59.7,28.6z"/>
	</g>
	<g>
		<g>
			<g>
				<path class="st0" d="M100,20.1v2.5c0,0.9,0.8,1.7,1.7,1.7h0.7v-5.9h-0.7C100.8,18.4,100,19.2,100,20.1L100,20.1z M100,20.1"/>
				<path class="st0" d="M109.1,15.1c-0.2-0.1-0.5-0.1-0.8,0l-4.9,3v6.6l4.9,2.9c0.1,0,0.1,0.1,0.2,0.1c0.1,0,0.1,0,0.2,0
					c0.1,0,0.3,0,0.4-0.1c0.2-0.1,0.4-0.4,0.4-0.7V15.8C109.5,15.5,109.3,15.3,109.1,15.1L109.1,15.1z M109.1,15.1"/>
			</g>
			<path class="st0" d="M110.9,23.3c-0.3,0-0.5,0.2-0.5,0.5c0,0.3,0.2,0.5,0.5,0.5c1.6,0,2.9-1.3,2.9-2.9c0-1.6-1.3-2.9-2.9-2.9
				c-0.3,0-0.5,0.2-0.5,0.5c0,0.3,0.2,0.5,0.5,0.5c1.1,0,1.9,0.9,1.9,1.9C112.8,22.4,112,23.3,110.9,23.3L110.9,23.3z M110.9,23.3"
				/>
			<path class="st0" d="M110.9,16.3c-0.3,0-0.5,0.2-0.5,0.5c0,0.3,0.2,0.5,0.5,0.5c2.3,0,4.1,1.9,4.1,4.1s-1.9,4.1-4.1,4.1
				c-0.3,0-0.5,0.2-0.5,0.5c0,0.3,0.2,0.5,0.5,0.5c2.8,0,5.1-2.3,5.1-5.1C116,18.6,113.7,16.3,110.9,16.3L110.9,16.3z M110.9,16.3"
				/>
		</g>
	</g>
</g>
</svg>
