<?xml version="1.0" encoding="utf-8"?>
<!-- Generator: Adobe Illustrator 25.0.1, SVG Export Plug-In . SVG Version: 6.00 Build 0)  -->
<svg version="1.1" id="Capa_1" xmlns="http://www.w3.org/2000/svg" xmlns:xlink="http://www.w3.org/1999/xlink" x="0px" y="0px"
	 viewBox="0 0 247.3 47.4" style="enable-background:new 0 0 247.3 47.4;" xml:space="preserve">
<style type="text/css">
	.st0{fill:#002D5D;}
	.st1{fill:none;}
	.st2{fill:#FFFFFF;}
	.st3{font-family:'Avenir-Black';}
	.st4{font-size:7.8313px;}
</style>
<g>
	<g>
		<path class="st1" d="M73.3,12.7L73.3,12.7C73.2,12.7,73.2,12.7,73.3,12.7c-0.1,0-0.1,0-0.2,0l0,0c-4.6,0-6.9,0-7.6,0.1
			c-0.4,0.9-2.5,7.7-2.8,12.1c0.1,0.1,0.2,0.2,0.4,0.2c1.8,0.1,5.3,0.1,10.1,0.2c4.8,0,8.3-0.1,10.1-0.2c0.1,0,0.3-0.2,0.4-0.2
			c-0.4-4.3-2.4-11.2-2.9-12.1C80.2,12.7,77.9,12.7,73.3,12.7z M64.4,22.9l1.6-8.7h14.3l1.6,8.7H64.4z"/>
		<path class="st0" d="M66,14.2l-1.6,8.7H82l-1.6-8.7C80.4,14.2,66,14.2,66,14.2z"/>
		<path class="st1" d="M65.1,12.3L65.1,12.3c0.1-0.1-0.2-0.1,1.8-0.2c1.6-0.1,3.8,0,6.2,0s4.6,0,6.2,0c1.9,0.1,1.7,0.1,1.8,0.2l0,0
			c0.1,0.1,0.2,0.2,0.6,1.5c0.2,0.7,0.5,1.5,0.7,2.4v-5.5c0-0.2-0.2-0.4-0.4-0.4H64.2c-0.2,0-0.4,0.2-0.4,0.4v5.5
			c0.3-0.8,0.5-1.6,0.7-2.4C65,12.5,65.1,12.4,65.1,12.3z"/>
		<path class="st0" d="M83.2,18.9v-8.2c0-0.6-0.5-1.1-1.1-1.1H64.2c-0.6,0-1.1,0.5-1.1,1.1v8.2c-0.4,1.8-0.9,4.1-1,6
			c0,0.1,0.1,0.3,0.2,0.4c0.2,0.2,0.4,0.4,0.7,0.4c1.7,0.1,5.4,0.1,10,0.2l0,0h0.1h0.1l0,0c4.6,0,8.3-0.1,10-0.2
			c0.3,0,0.6-0.2,0.7-0.4c0.1-0.1,0.2-0.3,0.2-0.4C84.1,23,83.6,20.8,83.2,18.9z M63.8,10.7c0-0.2,0.2-0.4,0.4-0.4h17.9
			c0.2,0,0.4,0.2,0.4,0.4v5.5c-0.2-0.9-0.5-1.7-0.7-2.4c-0.4-1.4-0.5-1.4-0.6-1.5l0,0c-0.1-0.1,0.1-0.1-1.8-0.2
			c-1.6-0.1-3.8,0-6.2,0s-4.6,0-6.2,0c-2,0.1-1.7,0.1-1.8,0.2l0,0c-0.1,0.1-0.2,0.2-0.7,1.5c-0.2,0.7-0.5,1.5-0.7,2.4
			C63.8,16.2,63.8,10.7,63.8,10.7z M83.3,25.1c-1.8,0.1-5.3,0.1-10.1,0.2c-4.8,0-8.3-0.1-10.1-0.2c-0.1,0-0.3-0.2-0.4-0.2
			c0.1-1.5,0.4-3.2,0.8-4.9c0.1-0.5,0.2-0.9,0.3-1.3c0.7-2.9,1.5-5.4,1.7-5.9c0.7-0.1,2.9-0.1,7.6-0.1l0,0c0,0,0,0,0.1,0
			c0,0,0,0,0.1,0l0,0c4.6,0,6.9,0,7.6,0.1c0.2,0.5,1,3,1.7,5.8c0.1,0.4,0.2,0.9,0.3,1.3c0.4,1.7,0.7,3.5,0.8,4.9
			C83.6,25,83.4,25.1,83.3,25.1z"/>
		<text transform="matrix(1 0 0 1 67.8058 21.1943)" class="st2 st3 st4">TV</text>
	</g>
	<g>
		<g>
			<path class="st0" d="M149.8,13h2.8l1,5.3L155,13h2.8l1.5,5.3l1-5.3h2.8l-2.1,9.4H158l-1.7-5.9l-1.6,5.9h-2.9L149.8,13z"/>
			<path class="st0" d="M169.9,18.6l2.6,0.8c-0.2,0.7-0.4,1.3-0.8,1.8c-0.4,0.5-0.8,0.8-1.4,1.1c-0.5,0.2-1.2,0.4-2.1,0.4
				c-1,0-1.9-0.2-2.5-0.4c-0.7-0.3-1.2-0.8-1.7-1.6c-0.5-0.7-0.7-1.7-0.7-2.9c0-1.6,0.4-2.8,1.2-3.6s2-1.3,3.5-1.3
				c1.2,0,2.1,0.2,2.8,0.7s1.2,1.2,1.5,2.2l-2.6,0.6c-0.1-0.3-0.2-0.5-0.3-0.6c-0.2-0.2-0.4-0.4-0.6-0.5c-0.2-0.1-0.5-0.2-0.8-0.2
				c-0.7,0-1.2,0.3-1.5,0.8c-0.3,0.4-0.4,1-0.4,1.9c0,1,0.2,1.8,0.5,2.1c0.3,0.4,0.8,0.6,1.3,0.6c0.6,0,1-0.2,1.3-0.5
				C169.6,19.6,169.8,19.2,169.9,18.6z"/>
		</g>
	</g>
	<g>
		<path class="st0" d="M132.3,25.8c-0.2-0.1-0.4-0.2-0.5-0.4c-0.1-0.4,0-0.7,0.3-0.9c0.4-0.2,0.7-0.5,1-0.9c0.4-0.6,0.4-1.2,0.2-1.8
			c0,0,0-0.1,0-0.1c-0.3,0.1-0.6,0.2-0.9,0.3c-0.4,0.1-0.8,0.1-1.1-0.1c-0.1,0-0.1-0.1-0.2-0.1c-0.1-0.1-0.2-0.1-0.3-0.1
			c-0.5,0.1-1,0.1-1.5-0.1c-0.3-0.2-0.6-0.4-0.8-0.7c-0.3-0.4-0.5-0.8-0.7-1.2c-0.4-0.7-0.8-1.4-1.2-2.1c-0.1-0.2-0.2-0.4-0.2-0.6
			c0-0.4,0.2-0.6,0.5-0.8c1.1-0.6,2.2-1.3,3.3-1.9c0.9-0.5,1.8-1.1,2.7-1.6c0.4-0.2,0.9-0.1,1.2,0.3c0.4,0.6,0.8,1.3,1.1,1.9
			c0.3,0.4,0.5,0.9,0.8,1.3c0.3,0.5,0.4,1.1,0.2,1.7c-0.1,0.3-0.3,0.6-0.5,0.9c-0.1,0.1-0.2,0.2-0.1,0.4c0.1,0.5-0.1,0.8-0.4,1.1
			c-0.2,0.2-0.4,0.4-0.6,0.5c-0.1,0.1-0.1,0.1,0,0.2c0.3,0.7,0.4,1.4,0.3,2.1c-0.2,0.8-0.7,1.5-1.3,2c-0.2,0.1-0.4,0.3-0.6,0.4
			c-0.1,0.1-0.2,0.1-0.3,0.2C132.4,25.8,132.4,25.8,132.3,25.8z M131.2,20.7c0.1,0,0.4-0.1,0.6-0.2c0.4-0.1,0.7-0.3,1.1-0.5
			c0.5-0.3,1-0.6,1.4-1c0.4-0.4,0.6-0.9,0.3-1.4c-0.2-0.5-0.5-1-0.8-1.4c-0.2-0.3-0.5-0.3-0.8-0.2c-0.4,0.3-0.9,0.5-1.3,0.8
			c-0.8,0.4-1.5,0.9-2.3,1.3c-0.3,0.2-0.4,0.4-0.2,0.7c0,0.1,0.1,0.2,0.2,0.3c0.2,0.4,0.4,0.8,0.7,1.1
			C130.4,20.5,130.7,20.7,131.2,20.7z"/>
		<path class="st0" d="M130.4,9.6c0.3,0.1,0.4,0.3,0.6,0.5c0.4,0.8,0.9,1.5,1.3,2.3c0,0,0,0.1,0.1,0.1c-0.2,0.1-0.3,0.2-0.5,0.3
			c-0.2,0.1-0.3,0.2-0.5,0.3c-0.1,0-0.1,0-0.2,0c-0.5-0.8-1-1.6-1.4-2.5c-0.2-0.4-0.1-0.9,0.4-1c0,0,0,0,0,0
			C130.2,9.6,130.3,9.6,130.4,9.6z"/>
		<path class="st0" d="M128.1,15c-0.4,0.2-0.8,0.4-1.1,0.7c-0.1-0.2-0.2-0.4-0.4-0.6c-0.4-0.6-0.7-1.3-1.1-1.9
			c-0.2-0.3-0.2-0.6,0.1-0.9c0.3-0.3,0.8-0.2,1,0.1c0.3,0.6,0.7,1.2,1,1.8C127.8,14.5,127.9,14.7,128.1,15z"/>
		<path class="st0" d="M130.7,20c0-0.1-0.1-0.1-0.1-0.2c0,0,0-0.1,0.1-0.1c0.3-0.2,0.7-0.4,1-0.6c0.8-0.4,1.5-0.9,2.3-1.3
			c0,0,0.1,0,0.1-0.1c0,0.1,0.1,0.2,0.1,0.3C133,18.7,131.9,19.4,130.7,20z"/>
		<path class="st0" d="M133.4,16.6c0.2,0.2,0.2,0.3-0.1,0.4c-1.1,0.6-2.1,1.2-3.2,1.9c0,0,0,0-0.1,0c0-0.1-0.1-0.2-0.1-0.3
			C131,17.9,132.2,17.2,133.4,16.6z"/>
		<path class="st0" d="M130.4,19.4C130.4,19.4,130.4,19.4,130.4,19.4c-0.2-0.2-0.2-0.2,0-0.4c0.5-0.3,1-0.6,1.6-0.9
			c0.6-0.3,1.1-0.7,1.7-1c0,0.1,0.1,0.2,0.1,0.3C132.7,18.1,131.5,18.8,130.4,19.4z"/>
	</g>
	<g>
		<path class="st1" d="M104.2,26.2c0.1,0.2,2.9-0.1,2.8-0.4c-0.1-0.4-0.9-2.6-1.2-2.6c-0.3,0-2.9,0.1-2.9,0.1
			C102.9,23.5,104.1,26,104.2,26.2z"/>
		<path class="st0" d="M102.8,22.6c0,0.2,1.4,4,1.9,4c0.5,0,3.2,0,3.4-0.5c0.1-0.5-1.4-3.3-1.3-3.6c-0.7,0.1-1.4,0.1-2,0.1
			 M107.6,25.8c0.1,0.2-2.7,0.5-2.8,0.3c-0.1-0.2-0.8-1.7-0.9-1.8c0,0,2.5-0.3,2.9-0.3C107.2,24,107.5,25.4,107.6,25.8z"/>
		<path class="st0" d="M99.7,21.8c-0.6-0.1-1-0.2-1.5-0.8c-0.3-0.4-0.5-0.6-0.3-1.1c-0.7,1-4.2,5-4.4,5.2c-0.2,0.4,1.3,0.8,1.7,0.7
			c1.3-0.5,4.3-3.9,4.4-3.9"/>
		<path class="st0" d="M112.7,9.8c0,0-1-1.1-1.7-1c-0.3,0-0.5,0.1-0.8,0.3c-0.3,0.2-1.3,1.4-1.5,2.1c-0.3,0.8,0.1,1.1,0,1.7
			c-0.1,0.6-1.6,2.9-2.6,4c0,0,0,0,0,0c-0.3-0.1-1.4-0.7-2.9-0.8c-1.5,0-2.2,0.2-2.4,0.3c-0.2,0.1-0.2,0.2-0.2,0.3
			c0,0.2-0.1,0.5,0.2,0.5c0.3,0,2.1,0.2,2.3,0.3c0.2,0.1,1.1,0.4,1.7,1l-0.2,0.3c-1.9-0.5-5.9-0.8-6.6,0.3c0,0-0.1,0.3-0.1,0.3
			l0.1-0.2c0,0-0.4,0.8,0.2,1.6c0.6,0.8,6.3,2.2,8.5,1.3c0.3-0.2,0.7-0.6,1.2-1.3c1.2-2,2.2-3.5,3.5-6.2
			C112.4,12.6,113.5,10.8,112.7,9.8z"/>
	</g>
</g>
</svg>
