<?xml version="1.0" encoding="utf-8"?>
<!-- Generator: Adobe Illustrator 25.0.1, SVG Export Plug-In . SVG Version: 6.00 Build 0)  -->
<svg version="1.1" id="Capa_1" xmlns="http://www.w3.org/2000/svg" xmlns:xlink="http://www.w3.org/1999/xlink" x="0px" y="0px"
	 viewBox="0 0 247.3 47.4" style="enable-background:new 0 0 247.3 47.4;" xml:space="preserve">
<style type="text/css">
	.st0{fill:#002D5D;}
	.st1{fill:none;}
	.st2{fill:#FFFFFF;}
	.st3{font-family:'Avenir-Black';}
	.st4{font-size:7.8313px;}
	.st5{font-family:'Futura-Medium';}
	.st6{font-size:3.6px;}
</style>
<g>
	<g>
		<path class="st1" d="M57.3,12.4L57.3,12.4C57.2,12.4,57.2,12.4,57.3,12.4c-0.1,0-0.1,0-0.2,0l0,0c-4.6,0-6.9,0-7.6,0.1
			c-0.4,0.9-2.5,7.7-2.8,12.1c0.1,0.1,0.2,0.2,0.4,0.2c1.8,0.1,5.3,0.1,10.1,0.2c4.8,0,8.3-0.1,10.1-0.2c0.1,0,0.3-0.2,0.4-0.2
			c-0.4-4.3-2.4-11.2-2.9-12.1C64.2,12.4,61.9,12.4,57.3,12.4z M48.4,22.6l1.6-8.7h14.3l1.6,8.7H48.4z"/>
		<path class="st0" d="M50,13.9l-1.6,8.7H66l-1.6-8.7C64.4,13.9,50,13.9,50,13.9z"/>
		<path class="st1" d="M49.1,12L49.1,12c0.1-0.1-0.2-0.1,1.8-0.2c1.6-0.1,3.8,0,6.2,0c2.4,0,4.6,0,6.2,0c1.9,0.1,1.7,0.1,1.8,0.2
			l0,0c0.1,0.1,0.2,0.2,0.6,1.5c0.2,0.7,0.5,1.5,0.7,2.4v-5.5c0-0.2-0.2-0.4-0.4-0.4H48.2c-0.2,0-0.4,0.2-0.4,0.4v5.5
			c0.3-0.8,0.5-1.6,0.7-2.4C49,12.2,49.1,12.1,49.1,12z"/>
		<path class="st0" d="M67.2,18.6v-8.2c0-0.6-0.5-1.1-1.1-1.1H48.2c-0.6,0-1.1,0.5-1.1,1.1v8.2c-0.4,1.8-0.9,4.1-1,6
			c0,0.1,0.1,0.3,0.2,0.4c0.2,0.2,0.4,0.4,0.7,0.4c1.7,0.1,5.4,0.1,10,0.2l0,0h0.1h0.1l0,0c4.6,0,8.3-0.1,10-0.2
			c0.3,0,0.6-0.2,0.7-0.4c0.1-0.1,0.2-0.3,0.2-0.4C68.1,22.7,67.6,20.5,67.2,18.6z M47.8,10.4c0-0.2,0.2-0.4,0.4-0.4h17.9
			c0.2,0,0.4,0.2,0.4,0.4v5.5c-0.2-0.9-0.5-1.7-0.7-2.4c-0.4-1.4-0.5-1.4-0.6-1.5l0,0c-0.1-0.1,0.1-0.1-1.8-0.2
			c-1.6-0.1-3.8,0-6.2,0c-2.4,0-4.6,0-6.2,0c-2,0.1-1.7,0.1-1.8,0.2l0,0c-0.1,0.1-0.2,0.2-0.7,1.5c-0.2,0.7-0.5,1.5-0.7,2.4
			C47.8,15.9,47.8,10.4,47.8,10.4z M67.3,24.8c-1.8,0.1-5.3,0.1-10.1,0.2c-4.8,0-8.3-0.1-10.1-0.2c-0.1,0-0.3-0.2-0.4-0.2
			c0.1-1.5,0.4-3.2,0.8-4.9c0.1-0.5,0.2-0.9,0.3-1.3c0.7-2.9,1.5-5.4,1.7-5.9c0.7-0.1,2.9-0.1,7.6-0.1l0,0c0,0,0,0,0.1,0
			c0,0,0,0,0.1,0l0,0c4.6,0,6.9,0,7.6,0.1c0.2,0.5,1,3,1.7,5.8c0.1,0.4,0.2,0.9,0.3,1.3c0.4,1.7,0.7,3.5,0.8,4.9
			C67.6,24.7,67.4,24.8,67.3,24.8z"/>
		<text transform="matrix(1 0 0 1 51.8003 20.8401)" class="st2 st3 st4">TV</text>
	</g>
	<g>
		<text transform="matrix(1.0667 0 0 1 136.7754 31.8529)" class="st0 st5 st6">HOMBRE</text>
		<g>
			<g>
				<path class="st0" d="M133.8,12.7h2.8l1,5.3l1.5-5.3h2.8l1.5,5.3l1-5.3h2.8l-2.1,9.4H142l-1.7-5.9l-1.6,5.9h-2.9L133.8,12.7z"/>
				<path class="st0" d="M153.9,18.2l2.6,0.8c-0.2,0.7-0.4,1.3-0.8,1.8c-0.4,0.5-0.8,0.8-1.4,1.1c-0.5,0.2-1.2,0.4-2.1,0.4
					c-1,0-1.9-0.2-2.5-0.4c-0.7-0.3-1.2-0.8-1.7-1.6c-0.5-0.7-0.7-1.7-0.7-2.9c0-1.6,0.4-2.8,1.2-3.6s2-1.3,3.5-1.3
					c1.2,0,2.1,0.2,2.8,0.7c0.7,0.5,1.2,1.2,1.5,2.2l-2.6,0.6c-0.1-0.3-0.2-0.5-0.3-0.6c-0.2-0.2-0.4-0.4-0.6-0.5
					c-0.2-0.1-0.5-0.2-0.8-0.2c-0.7,0-1.2,0.3-1.5,0.8c-0.3,0.4-0.4,1-0.4,1.9c0,1,0.2,1.8,0.5,2.1c0.3,0.4,0.8,0.6,1.3,0.6
					c0.6,0,1-0.2,1.3-0.5C153.6,19.3,153.8,18.8,153.9,18.2z"/>
			</g>
		</g>
	</g>
	<g>
		<text transform="matrix(1.0667 0 0 1 170.8096 31.8529)" class="st0 st5 st6">MUJER</text>
		<g>
			<g>
				<path class="st0" d="M165.7,12.7h2.8l1,5.3l1.5-5.3h2.8l1.5,5.3l1-5.3h2.8l-2.1,9.4H174l-1.7-5.9l-1.6,5.9h-2.9L165.7,12.7z"/>
				<path class="st0" d="M185.9,18.2l2.6,0.8c-0.2,0.7-0.4,1.3-0.8,1.8c-0.4,0.5-0.8,0.8-1.4,1.1c-0.5,0.2-1.2,0.4-2.1,0.4
					c-1,0-1.9-0.2-2.5-0.4c-0.7-0.3-1.2-0.8-1.7-1.6c-0.5-0.7-0.7-1.7-0.7-2.9c0-1.6,0.4-2.8,1.2-3.6s2-1.3,3.5-1.3
					c1.2,0,2.1,0.2,2.8,0.7c0.7,0.5,1.2,1.2,1.5,2.2l-2.6,0.6c-0.1-0.3-0.2-0.5-0.3-0.6c-0.2-0.2-0.4-0.4-0.6-0.5
					c-0.2-0.1-0.5-0.2-0.8-0.2c-0.7,0-1.2,0.3-1.5,0.8c-0.3,0.4-0.4,1-0.4,1.9c0,1,0.2,1.8,0.5,2.1c0.3,0.4,0.8,0.6,1.3,0.6
					c0.6,0,1-0.2,1.3-0.5C185.6,19.3,185.8,18.8,185.9,18.2z"/>
			</g>
		</g>
	</g>
	<g>
		<rect x="105.2" y="28.7" class="st1" width="19.4" height="9.1"/>
		<text transform="matrix(1 0 0 1 105.2624 31.6523)"><tspan x="0" y="0" class="st0 st5 st6">Conexiones</tspan><tspan x="2" y="4.3" class="st0 st5 st6">eléctricas</tspan></text>
		<g>
			<path class="st0" d="M116.3,25.5c-0.2-0.1-0.4-0.2-0.5-0.4c-0.1-0.4,0-0.7,0.3-0.9c0.4-0.2,0.7-0.5,1-0.9
				c0.4-0.6,0.4-1.2,0.2-1.8c0,0,0-0.1,0-0.1c-0.3,0.1-0.6,0.2-0.9,0.3c-0.4,0.1-0.8,0.1-1.1-0.1c-0.1,0-0.1-0.1-0.2-0.1
				c-0.1-0.1-0.2-0.1-0.3-0.1c-0.5,0.1-1,0.1-1.5-0.1c-0.3-0.2-0.6-0.4-0.8-0.7c-0.3-0.4-0.5-0.8-0.7-1.2c-0.4-0.7-0.8-1.4-1.2-2.1
				c-0.1-0.2-0.2-0.4-0.2-0.6c0-0.4,0.2-0.6,0.5-0.8c1.1-0.6,2.2-1.3,3.3-1.9c0.9-0.5,1.8-1.1,2.7-1.6c0.4-0.2,0.9-0.1,1.2,0.3
				c0.4,0.6,0.8,1.3,1.1,1.9c0.3,0.4,0.5,0.9,0.8,1.3c0.3,0.5,0.4,1.1,0.2,1.7c-0.1,0.3-0.3,0.6-0.5,0.9c-0.1,0.1-0.2,0.2-0.1,0.4
				c0.1,0.5-0.1,0.8-0.4,1.1c-0.2,0.2-0.4,0.4-0.6,0.5c-0.1,0.1-0.1,0.1,0,0.2c0.3,0.7,0.4,1.4,0.3,2.1c-0.2,0.8-0.7,1.5-1.3,2
				c-0.2,0.1-0.4,0.3-0.6,0.4c-0.1,0.1-0.2,0.1-0.3,0.2C116.4,25.5,116.4,25.5,116.3,25.5z M115.2,20.3c0.1,0,0.4-0.1,0.6-0.2
				c0.4-0.1,0.7-0.3,1.1-0.5c0.5-0.3,1-0.6,1.4-1c0.4-0.4,0.6-0.9,0.3-1.4c-0.2-0.5-0.5-1-0.8-1.4c-0.2-0.3-0.5-0.3-0.8-0.2
				c-0.4,0.3-0.9,0.5-1.3,0.8c-0.8,0.4-1.5,0.9-2.3,1.3c-0.3,0.2-0.4,0.4-0.2,0.7c0,0.1,0.1,0.2,0.2,0.3c0.2,0.4,0.4,0.8,0.7,1.1
				C114.3,20.2,114.7,20.3,115.2,20.3z"/>
			<path class="st0" d="M114.4,9.3c0.3,0.1,0.4,0.3,0.6,0.5c0.4,0.8,0.9,1.5,1.3,2.3c0,0,0,0.1,0.1,0.1c-0.2,0.1-0.3,0.2-0.5,0.3
				c-0.2,0.1-0.3,0.2-0.5,0.3c-0.1,0-0.1,0-0.2,0c-0.5-0.8-1-1.6-1.4-2.5c-0.2-0.4-0.1-0.9,0.4-1c0,0,0,0,0,0
				C114.2,9.3,114.3,9.3,114.4,9.3z"/>
			<path class="st0" d="M112.1,14.7c-0.4,0.2-0.8,0.4-1.1,0.7c-0.1-0.2-0.2-0.4-0.4-0.6c-0.4-0.6-0.7-1.3-1.1-1.9
				c-0.2-0.3-0.2-0.6,0.1-0.9c0.3-0.3,0.8-0.2,1,0.1c0.3,0.6,0.7,1.2,1,1.8C111.8,14.1,111.9,14.4,112.1,14.7z"/>
			<path class="st0" d="M114.7,19.7c0-0.1-0.1-0.1-0.1-0.2c0,0,0-0.1,0.1-0.1c0.3-0.2,0.7-0.4,1-0.6c0.8-0.4,1.5-0.9,2.3-1.3
				c0,0,0.1,0,0.1-0.1c0,0.1,0.1,0.2,0.1,0.3C117,18.3,115.9,19,114.7,19.7z"/>
			<path class="st0" d="M117.4,16.2c0.2,0.2,0.2,0.3-0.1,0.4c-1.1,0.6-2.1,1.2-3.2,1.9c0,0,0,0-0.1,0c0-0.1-0.1-0.2-0.1-0.3
				C115,17.5,116.2,16.9,117.4,16.2z"/>
			<path class="st0" d="M114.4,19.1C114.4,19.1,114.4,19.1,114.4,19.1c-0.2-0.2-0.2-0.2,0-0.4c0.5-0.3,1-0.6,1.6-0.9
				c0.6-0.3,1.1-0.7,1.7-1c0,0.1,0.1,0.2,0.1,0.3C116.7,17.7,115.5,18.4,114.4,19.1z"/>
		</g>
	</g>
	<g>
		<rect x="76.7" y="28.7" class="st1" width="21" height="9.1"/>
		<text transform="matrix(1 0 0 1 80.4016 31.6518)"><tspan x="0" y="0" class="st0 st5 st6">Asientos </tspan><tspan x="-3.2" y="4.3" class="st0 st5 st6">confortables</tspan></text>
		<g>
			<path class="st1" d="M88.2,25.9c0.1,0.2,2.9-0.1,2.8-0.4c-0.1-0.4-0.9-2.6-1.2-2.6c-0.3,0-2.9,0.1-2.9,0.1
				C86.9,23.1,88.1,25.7,88.2,25.9z"/>
			<path class="st0" d="M86.8,22.2c0,0.2,1.4,4,1.9,4c0.5,0,3.2,0,3.4-0.5c0.1-0.5-1.4-3.3-1.3-3.6c-0.7,0.1-1.4,0.1-2,0.1
				 M91.6,25.4c0.1,0.2-2.7,0.5-2.8,0.3c-0.1-0.2-0.8-1.7-0.9-1.8c0,0,2.5-0.3,2.9-0.3C91.2,23.6,91.5,25,91.6,25.4z"/>
			<path class="st0" d="M83.7,21.5c-0.6-0.1-1-0.2-1.5-0.8c-0.3-0.4-0.5-0.6-0.3-1.1c-0.7,1-4.2,5-4.4,5.2c-0.2,0.4,1.3,0.8,1.7,0.7
				c1.3-0.5,4.3-3.9,4.4-3.9"/>
			<path class="st0" d="M96.7,9.5c0,0-1-1.1-1.7-1c-0.3,0-0.5,0.1-0.8,0.3c-0.3,0.2-1.3,1.4-1.5,2.1c-0.3,0.8,0.1,1.1,0,1.7
				c-0.1,0.6-1.6,2.9-2.6,4c0,0,0,0,0,0c-0.3-0.1-1.4-0.7-2.9-0.8c-1.5,0-2.2,0.2-2.4,0.3c-0.2,0.1-0.2,0.2-0.2,0.3
				c0,0.2-0.1,0.5,0.2,0.5c0.3,0,2.1,0.2,2.3,0.3c0.2,0.1,1.1,0.4,1.7,1l-0.2,0.3c-1.9-0.5-5.9-0.8-6.6,0.3c0,0-0.1,0.3-0.1,0.3
				l0.1-0.2c0,0-0.4,0.8,0.2,1.6c0.6,0.8,6.3,2.2,8.5,1.3c0.3-0.2,0.7-0.6,1.2-1.3c1.2-2,2.2-3.5,3.5-6.2
				C96.4,12.3,97.5,10.5,96.7,9.5z"/>
		</g>
	</g>
	<g>
		<rect x="46.2" y="28.7" class="st1" width="21.1" height="9.1"/>
		<text transform="matrix(1 0 0 1 49.4026 31.6518)"><tspan x="0" y="0" class="st0 st5 st6">Pantallas</tspan><tspan x="-2.3" y="4.3" class="st0 st5 st6">individuales</tspan></text>
	</g>
</g>
</svg>
