<?xml version="1.0" encoding="utf-8"?>
<!-- Generator: Adobe Illustrator 25.0.1, SVG Export Plug-In . SVG Version: 6.00 Build 0)  -->
<svg version="1.1" id="Capa_1" xmlns="http://www.w3.org/2000/svg" xmlns:xlink="http://www.w3.org/1999/xlink" x="0px" y="0px"
	 viewBox="0 0 284.8 58.6" style="enable-background:new 0 0 284.8 58.6;" xml:space="preserve">
<style type="text/css">
	.st0{fill:none;}
	.st1{fill:#002D5D;}
	.st2{fill:#FFFFFF;}
	.st3{font-family:'Avenir-Black';}
	.st4{font-size:15.6626px;}
	.st5{font-family:'Futura-Medium';}
	.st6{font-size:7.2px;}
</style>
<g>
	<g>
		<path class="st0" d="M22.4,7.8L22.4,7.8C22.2,7.8,22.2,7.8,22.4,7.8c-0.2,0-0.2,0-0.4,0l0,0c-9.2,0-13.8,0-15.2,0.2
			C6,9.8,1.8,23.4,1.2,32.2c0.2,0.2,0.4,0.4,0.8,0.4c3.6,0.2,10.6,0.2,20.2,0.4c9.6,0,16.6-0.2,20.2-0.4c0.2,0,0.6-0.4,0.8-0.4
			C42.4,23.6,38.4,9.8,37.4,8C36.2,7.8,31.6,7.8,22.4,7.8z M4.6,28.2l3.2-17.4h28.6l3.2,17.4H4.6z"/>
		<path class="st1" d="M7.8,10.8L4.6,28.2h35.2l-3.2-17.4C36.6,10.8,7.8,10.8,7.8,10.8z"/>
		<path class="st0" d="M6,7L6,7c0.2-0.2-0.4-0.2,3.6-0.4c3.2-0.2,7.6,0,12.4,0s9.2,0,12.4,0C38.2,6.8,37.8,6.8,38,7l0,0
			c0.2,0.2,0.4,0.4,1.2,3c0.4,1.4,1,3,1.4,4.8v-11c0-0.4-0.4-0.8-0.8-0.8H4.2C3.8,3,3.4,3.4,3.4,3.8v11c0.6-1.6,1-3.2,1.4-4.8
			C5.8,7.4,6,7.2,6,7z"/>
		<path class="st1" d="M42.2,20.2V3.8c0-1.2-1-2.2-2.2-2.2H4.2C3,1.6,2,2.6,2,3.8v16.4c-0.8,3.6-1.8,8.2-2,12c0,0.2,0.2,0.6,0.4,0.8
			c0.4,0.4,0.8,0.8,1.4,0.8c3.4,0.2,10.8,0.2,20,0.4l0,0H22h0.2l0,0c9.2,0,16.6-0.2,20-0.4c0.6,0,1.2-0.4,1.4-0.8
			c0.2-0.2,0.4-0.6,0.4-0.8C44,28.4,43,24,42.2,20.2z M3.4,3.8C3.4,3.4,3.8,3,4.2,3H40c0.4,0,0.8,0.4,0.8,0.8v11
			c-0.4-1.8-1-3.4-1.4-4.8c-0.8-2.8-1-2.8-1.2-3l0,0c-0.2-0.2,0.2-0.2-3.6-0.4c-3.2-0.2-7.6,0-12.4,0s-9.2,0-12.4,0
			C5.8,6.8,6.4,6.8,6.2,7l0,0C6,7.2,5.8,7.4,4.8,10c-0.4,1.4-1,3-1.4,4.8C3.4,14.8,3.4,3.8,3.4,3.8z M42.4,32.6
			c-3.6,0.2-10.6,0.2-20.2,0.4C12.6,33,5.6,32.8,2,32.6c-0.2,0-0.6-0.4-0.8-0.4c0.2-3,0.8-6.4,1.6-9.8c0.2-1,0.4-1.8,0.6-2.6
			C4.8,14,6.4,9,6.8,8C8.2,7.8,12.6,7.8,22,7.8l0,0c0,0,0,0,0.2,0c0,0,0,0,0.2,0l0,0c9.2,0,13.8,0,15.2,0.2c0.4,1,2,6,3.4,11.6
			c0.2,0.8,0.4,1.8,0.6,2.6c0.8,3.4,1.4,7,1.6,9.8C43,32.4,42.6,32.6,42.4,32.6z"/>
		<text transform="matrix(1 0 0 1 11.4004 24.6931)" class="st2 st3 st4">TV</text>
	</g>
	<g>
		<text transform="matrix(1.0667 0 0 1 181.3506 46.7175)" class="st1 st5 st6">HOMBRE</text>
		<g>
			<g>
				<path class="st1" d="M175.4,8.4h5.6l2,10.6l3-10.6h5.6l3,10.6l2-10.6h5.6L198,27.2h-6.2l-3.4-11.8l-3.2,11.8h-5.8L175.4,8.4z"/>
				<path class="st1" d="M215.6,19.4l5.2,1.6c-0.4,1.4-0.8,2.6-1.6,3.6c-0.8,1-1.6,1.6-2.8,2.2c-1,0.4-2.4,0.8-4.2,0.8
					c-2,0-3.8-0.4-5-0.8c-1.4-0.6-2.4-1.6-3.4-3.2c-1-1.4-1.4-3.4-1.4-5.8c0-3.2,0.8-5.6,2.4-7.2s4-2.6,7-2.6c2.4,0,4.2,0.4,5.6,1.4
					s2.4,2.4,3,4.4l-5.2,1.2c-0.2-0.6-0.4-1-0.6-1.2c-0.4-0.4-0.8-0.8-1.2-1c-0.4-0.2-1-0.4-1.6-0.4c-1.4,0-2.4,0.6-3,1.6
					c-0.6,0.8-0.8,2-0.8,3.8c0,2,0.4,3.6,1,4.2c0.6,0.8,1.6,1.2,2.6,1.2c1.2,0,2-0.4,2.6-1C215,21.6,215.4,20.6,215.6,19.4z"/>
			</g>
		</g>
	</g>
	<g>
		<text transform="matrix(1.0667 0 0 1 249.418 46.7175)" class="st1 st5 st6">MUJER</text>
		<g>
			<g>
				<path class="st1" d="M239.2,8.4h5.6l2,10.6l3-10.6h5.6l3,10.6l2-10.6h5.6l-4.2,18.8h-6l-3.4-11.8l-3.2,11.8h-5.8L239.2,8.4z"/>
				<path class="st1" d="M279.6,19.4l5.2,1.6c-0.4,1.4-0.8,2.6-1.6,3.6c-0.8,1-1.6,1.6-2.8,2.2c-1,0.4-2.4,0.8-4.2,0.8
					c-2,0-3.8-0.4-5-0.8c-1.4-0.6-2.4-1.6-3.4-3.2c-1-1.4-1.4-3.4-1.4-5.8c0-3.2,0.8-5.6,2.4-7.2s4-2.6,7-2.6c2.4,0,4.2,0.4,5.6,1.4
					s2.4,2.4,3,4.4l-5.2,1.2c-0.2-0.6-0.4-1-0.6-1.2c-0.4-0.4-0.8-0.8-1.2-1c-0.4-0.2-1-0.4-1.6-0.4c-1.4,0-2.4,0.6-3,1.6
					c-0.6,0.8-0.8,2-0.8,3.8c0,2,0.4,3.6,1,4.2c0.6,0.8,1.6,1.2,2.6,1.2c1.2,0,2-0.4,2.6-1C279,21.6,279.4,20.6,279.6,19.4z"/>
			</g>
		</g>
	</g>
	<g>
		<rect x="118.2" y="40.4" class="st0" width="38.8" height="18.2"/>
		<text transform="matrix(1 0 0 1 118.3242 46.3171)" class="st1 st5 st6">Conexiones</text>
		<text transform="matrix(1 0 0 1 122.3242 54.9177)" class="st1 st5 st6">eléctricas</text>
		<g>
			<path class="st1" d="M140.4,34c-0.4-0.2-0.8-0.4-1-0.8c-0.2-0.8,0-1.4,0.6-1.8c0.8-0.4,1.4-1,2-1.8c0.8-1.2,0.8-2.4,0.4-3.6v-0.2
				c-0.6,0.2-1.2,0.4-1.8,0.6c-0.8,0.2-1.6,0.2-2.2-0.2c-0.2,0-0.2-0.2-0.4-0.2c-0.2-0.2-0.4-0.2-0.6-0.2c-1,0.2-2,0.2-3-0.2
				c-0.6-0.4-1.2-0.8-1.6-1.4c-0.6-0.8-1-1.6-1.4-2.4c-0.8-1.4-1.6-2.8-2.4-4.2c-0.2-0.4-0.4-0.8-0.4-1.2c0-0.8,0.4-1.2,1-1.6
				c2.2-1.2,4.4-2.6,6.6-3.8c1.8-1,3.6-2.2,5.4-3.2c0.8-0.4,1.8-0.2,2.4,0.6c0.8,1.2,1.6,2.6,2.2,3.8c0.6,0.8,1,1.8,1.6,2.6
				c0.6,1,0.8,2.2,0.4,3.4c-0.2,0.6-0.6,1.2-1,1.8c-0.2,0.2-0.4,0.4-0.2,0.8c0.2,1-0.2,1.6-0.8,2.2c-0.4,0.4-0.8,0.8-1.2,1
				c-0.2,0.2-0.2,0.2,0,0.4c0.6,1.4,0.8,2.8,0.6,4.2c-0.4,1.6-1.4,3-2.6,4c-0.4,0.2-0.8,0.6-1.2,0.8c-0.2,0.2-0.4,0.2-0.6,0.4
				C140.6,34,140.6,34,140.4,34z M138.2,23.6c0.2,0,0.8-0.2,1.2-0.4c0.8-0.2,1.4-0.6,2.2-1c1-0.6,2-1.2,2.8-2s1.2-1.8,0.6-2.8
				c-0.4-1-1-2-1.6-2.8c-0.4-0.6-1-0.6-1.6-0.4c-0.8,0.6-1.8,1-2.6,1.6c-1.6,0.8-3,1.8-4.6,2.6c-0.6,0.4-0.8,0.8-0.4,1.4
				c0,0.2,0.2,0.4,0.4,0.6c0.4,0.8,0.8,1.6,1.4,2.2C136.4,23.4,137.2,23.6,138.2,23.6z"/>
			<path class="st1" d="M136.6,1.6c0.6,0.2,0.8,0.6,1.2,1c0.8,1.6,1.8,3,2.6,4.6c0,0,0,0.2,0.2,0.2c-0.4,0.2-0.6,0.4-1,0.6
				c-0.4,0.2-0.6,0.4-1,0.6c-0.2,0-0.2,0-0.4,0c-1-1.6-2-3.2-2.8-5c-0.4-0.8-0.2-1.8,0.8-2l0,0C136.2,1.6,136.4,1.6,136.6,1.6z"/>
			<path class="st1" d="M132,12.4c-0.8,0.4-1.6,0.8-2.2,1.4c-0.2-0.4-0.4-0.8-0.8-1.2c-0.8-1.2-1.4-2.6-2.2-3.8
				c-0.4-0.6-0.4-1.2,0.2-1.8c0.6-0.6,1.6-0.4,2,0.2c0.6,1.2,1.4,2.4,2,3.6C131.4,11.2,131.6,11.8,132,12.4z"/>
			<path class="st1" d="M137.2,22.4c0-0.2-0.2-0.2-0.2-0.4c0,0,0-0.2,0.2-0.2c0.6-0.4,1.4-0.8,2-1.2c1.6-0.8,3-1.8,4.6-2.6
				c0,0,0.2,0,0.2-0.2c0,0.2,0.2,0.4,0.2,0.6C141.8,19.6,139.6,21,137.2,22.4z"/>
			<path class="st1" d="M142.6,15.4c0.4,0.4,0.4,0.6-0.2,0.8c-2.2,1.2-4.2,2.4-6.4,3.8c0,0,0,0-0.2,0c0-0.2-0.2-0.4-0.2-0.6
				C137.8,18,140.2,16.8,142.6,15.4z"/>
			<path class="st1" d="M136.6,21.2L136.6,21.2c-0.4-0.4-0.4-0.4,0-0.8c1-0.6,2-1.2,3.2-1.8s2.2-1.4,3.4-2c0,0.2,0.2,0.4,0.2,0.6
				C141.2,18.4,138.8,19.8,136.6,21.2z"/>
		</g>
	</g>
	<g>
		<rect x="61.2" y="40.4" class="st0" width="42" height="18.2"/>
		<text transform="matrix(1 0 0 1 68.6025 46.3161)" class="st1 st5 st6">Asientos </text>
		<text transform="matrix(1 0 0 1 62.2031 54.9148)" class="st1 st5 st6">confortables</text>
		<g>
			<path class="st0" d="M84.2,34.8c0.2,0.4,5.8-0.2,5.6-0.8c-0.2-0.8-1.8-5.2-2.4-5.2c-0.6,0-5.8,0.2-5.8,0.2
				C81.6,29.2,84,34.4,84.2,34.8z"/>
			<path class="st1" d="M81.4,27.4c0,0.4,2.8,8,3.8,8s6.4,0,6.8-1c0.2-1-2.8-6.6-2.6-7.2c-1.4,0.2-2.8,0.2-4,0.2 M91,33.8
				c0.2,0.4-5.4,1-5.6,0.6c-0.2-0.4-1.6-3.4-1.8-3.6c0,0,5-0.6,5.8-0.6S90.8,33,91,33.8z"/>
			<path class="st1" d="M75.2,26c-1.2-0.2-2-0.4-3-1.6c-0.6-0.8-1-1.2-0.6-2.2c-1.4,2-8.4,10-8.8,10.4c-0.4,0.8,2.6,1.6,3.4,1.4
				c2.6-1,8.6-7.8,8.8-7.8"/>
			<path class="st1" d="M101.2,2c0,0-2-2.2-3.4-2c-0.6,0-1,0.2-1.6,0.6s-2.6,2.8-3,4.2c-0.6,1.6,0.2,2.2,0,3.4C93,9.4,90,14,88,16.2
				l0,0c-0.6-0.2-2.8-1.4-5.8-1.6c-3,0-4.4,0.4-4.8,0.6C77,15.4,77,15.6,77,15.8c0,0.4-0.2,1,0.4,1c0.6,0,4.2,0.4,4.6,0.6
				c0.4,0.2,2.2,0.8,3.4,2L85,20c-3.8-1-11.8-1.6-13.2,0.6l-0.2,0.6l0.2-0.4c0,0-0.8,1.6,0.4,3.2c1.2,1.6,12.6,4.4,17,2.6
				c0.6-0.4,1.4-1.2,2.4-2.6c2.4-4,4.4-7,7-12.4C100.6,7.6,102.8,4,101.2,2z"/>
		</g>
	</g>
	<g>
		<rect x="0.2" y="40.4" class="st0" width="42.2" height="18.2"/>
		<text transform="matrix(1 0 0 1 6.6045 46.3161)" class="st1 st5 st6">Pantallas</text>
		<text transform="matrix(1 0 0 1 2.0049 54.9148)" class="st1 st5 st6">individuales</text>
	</g>
</g>
</svg>
