<?xml version="1.0" encoding="utf-8"?>
<!-- Generator: Adobe Illustrator 25.0.1, SVG Export Plug-In . SVG Version: 6.00 Build 0)  -->
<svg version="1.1" id="Capa_1" xmlns="http://www.w3.org/2000/svg" xmlns:xlink="http://www.w3.org/1999/xlink" x="0px" y="0px"
	 viewBox="0 0 284.8 75.5" style="enable-background:new 0 0 284.8 75.5;" xml:space="preserve">
<style type="text/css">
	.st0{fill:none;}
	.st1{fill:#002D5D;}
	.st2{fill:#FFFFFF;}
	.st3{font-family:'Avenir-Black';}
	.st4{font-size:20.1842px;}
	.st5{font-family:'Futura-Medium';}
	.st6{font-size:9.2786px;}
</style>
<g>
	<g>
		<path class="st0" d="M28.9,10.1L28.9,10.1C28.6,10.1,28.6,10.1,28.9,10.1c-0.3,0-0.3,0-0.5,0l0,0c-11.9,0-17.8,0-19.6,0.3
			c-1,2.3-6.4,19.8-7.2,31.2c0.3,0.3,0.5,0.5,1,0.5c4.6,0.3,13.7,0.3,26,0.5c12.4,0,21.4-0.3,26-0.5c0.3,0,0.8-0.5,1-0.5
			c-1-11.1-6.2-28.9-7.5-31.2C46.7,10.1,40.7,10.1,28.9,10.1z M5.9,36.4l4.1-22.4h36.9L51,36.4H5.9z"/>
		<path class="st1" d="M10.1,13.9L5.9,36.4h45.4l-4.1-22.4H10.1z"/>
		<path class="st0" d="M7.7,9L7.7,9C8,8.8,7.2,8.8,12.4,8.5c4.1-0.3,9.8,0,16,0c6.2,0,11.9,0,16,0C49.2,8.8,48.7,8.8,49,9l0,0
			c0.3,0.3,0.5,0.5,1.5,3.9c0.5,1.8,1.3,3.9,1.8,6.2V4.9c0-0.5-0.5-1-1-1H5.4c-0.5,0-1,0.5-1,1v14.2C5.2,17,5.7,15,6.2,12.9
			C7.5,9.6,7.7,9.3,7.7,9z"/>
		<path class="st1" d="M54.4,26V4.9c0-1.5-1.3-2.8-2.8-2.8H5.4c-1.5,0-2.8,1.3-2.8,2.8V26c-1,4.6-2.3,10.6-2.6,15.5
			c0,0.3,0.3,0.8,0.5,1c0.5,0.5,1,1,1.8,1c4.4,0.3,13.9,0.3,25.8,0.5l0,0h0.3h0.3l0,0c11.9,0,21.4-0.3,25.8-0.5c0.8,0,1.5-0.5,1.8-1
			c0.3-0.3,0.5-0.8,0.5-1C56.7,36.6,55.4,30.9,54.4,26z M4.4,4.9c0-0.5,0.5-1,1-1h46.1c0.5,0,1,0.5,1,1v14.2
			c-0.5-2.3-1.3-4.4-1.8-6.2c-1-3.6-1.3-3.6-1.5-3.9l0,0c-0.3-0.3,0.3-0.3-4.6-0.5c-4.1-0.3-9.8,0-16,0c-6.2,0-11.9,0-16,0
			C7.5,8.8,8.2,8.8,8,9l0,0c-0.3,0.3-0.5,0.5-1.8,3.9c-0.5,1.8-1.3,3.9-1.8,6.2C4.4,19.1,4.4,4.9,4.4,4.9z M54.6,42
			c-4.6,0.3-13.7,0.3-26,0.5c-12.4,0-21.4-0.3-26-0.5c-0.3,0-0.8-0.5-1-0.5c0.3-3.9,1-8.2,2.1-12.6c0.3-1.3,0.5-2.3,0.8-3.4
			c1.8-7.5,3.9-13.9,4.4-15.2c1.8-0.3,7.5-0.3,19.6-0.3l0,0c0,0,0,0,0.3,0c0,0,0,0,0.3,0l0,0c11.9,0,17.8,0,19.6,0.3
			c0.5,1.3,2.6,7.7,4.4,14.9c0.3,1,0.5,2.3,0.8,3.4c1,4.4,1.8,9,2.1,12.6C55.4,41.8,54.9,42,54.6,42z"/>
		<text transform="matrix(1 0 0 1 14.748 31.9614)" class="st2 st3 st4">TV</text>
	</g>
	<g>
		<text transform="matrix(1.0667 0 0 1 235.0967 60.3452)" class="st1 st5 st6">Sanitario</text>
		<g>
			<g>
				<path class="st1" d="M226,10.8h7.2l2.6,13.7l3.6-13.7h7.2l3.9,13.7l2.6-13.7h7.2l-5.4,24.2h-7.7l-4.4-15.2l-4.1,15.2h-7.5
					L226,10.8z"/>
				<path class="st1" d="M278.1,25.3l6.7,2.1c-0.5,1.8-1,3.4-2.1,4.6c-1,1.3-2.1,2.1-3.6,2.8c-1.3,0.5-3.1,1-5.4,1
					c-2.6,0-4.9-0.5-6.4-1c-1.8-0.8-3.1-2.1-4.4-4.1c-1.3-1.8-1.8-4.4-1.8-7.5c0-4.1,1-7.2,3.1-9.3c2.1-2.1,5.2-3.4,9-3.4
					c3.1,0,5.4,0.5,7.2,1.8s3.1,3.1,3.9,5.7l-6.7,1.5c-0.3-0.8-0.5-1.3-0.8-1.5c-0.5-0.5-1-1-1.5-1.3c-0.5-0.3-1.3-0.5-2.1-0.5
					c-1.8,0-3.1,0.8-3.9,2.1c-0.8,1-1,2.6-1,4.9c0,2.6,0.5,4.6,1.3,5.4c0.8,1,2.1,1.5,3.4,1.5c1.5,0,2.6-0.5,3.4-1.3
					C277.1,27.9,277.6,26.8,278.1,25.3z"/>
			</g>
		</g>
	</g>
	<g>
		<rect x="152.3" y="52.1" class="st0" width="50" height="23.5"/>
		<text transform="matrix(1 0 0 1 152.54 59.8295)" class="st1 st5 st6">Conexiones</text>
		<text transform="matrix(1 0 0 1 157.6943 70.9125)" class="st1 st5 st6">eléctricas</text>
		<g>
			<path class="st1" d="M180.9,43.8c-0.5-0.3-1-0.5-1.3-1c-0.3-1,0-1.8,0.8-2.3c1-0.5,1.8-1.3,2.6-2.3c1-1.5,1-3.1,0.5-4.6v-0.3
				c-0.8,0.3-1.5,0.5-2.3,0.8c-1,0.3-2.1,0.3-2.8-0.3c-0.3,0-0.3-0.3-0.5-0.3c-0.3-0.3-0.5-0.3-0.8-0.3c-1.3,0.3-2.6,0.3-3.9-0.3
				c-0.8-0.5-1.5-1-2.1-1.8c-0.8-1-1.3-2.1-1.8-3.1c-1-1.8-2.1-3.6-3.1-5.4c-0.3-0.5-0.5-1-0.5-1.5c0-1,0.5-1.5,1.3-2.1
				c2.8-1.5,5.7-3.4,8.5-4.9c2.3-1.3,4.6-2.8,7-4.1c1-0.5,2.3-0.3,3.1,0.8c1,1.5,2.1,3.4,2.8,4.9c0.8,1,1.3,2.3,2.1,3.4
				c0.8,1.3,1,2.8,0.5,4.4c-0.3,0.8-0.8,1.5-1.3,2.3c-0.3,0.3-0.5,0.5-0.3,1c0.3,1.3-0.3,2.1-1,2.8c-0.5,0.5-1,1-1.5,1.3
				c-0.3,0.3-0.3,0.3,0,0.5c0.8,1.8,1,3.6,0.8,5.4c-0.5,2.1-1.8,3.9-3.4,5.2c-0.5,0.3-1,0.8-1.5,1c-0.3,0.3-0.5,0.3-0.8,0.5
				C181.4,43.8,181.2,43.8,180.9,43.8z M178.1,30.7c0.3,0,1-0.3,1.5-0.5c1-0.3,1.8-0.8,2.8-1.3c1.3-0.8,2.6-1.5,3.6-2.6
				c1-1,1.5-2.3,0.8-3.6c-0.5-1.3-1.3-2.6-2.1-3.6c-0.5-0.8-1.3-0.8-2.1-0.5c-1,0.8-2.3,1.3-3.4,2.1c-2.1,1-3.9,2.3-5.9,3.4
				c-0.8,0.5-1,1-0.5,1.8c0,0.3,0.3,0.5,0.5,0.8c0.5,1,1,2.1,1.8,2.8C176,30.2,176.8,30.7,178.1,30.7z"/>
			<path class="st1" d="M176,2.1c0.8,0.3,1,0.8,1.5,1.3c1,2.1,2.3,3.9,3.4,5.9c0,0,0,0.3,0.3,0.3c-0.5,0.3-0.8,0.5-1.3,0.8
				c-0.5,0.3-0.8,0.5-1.3,0.8c-0.3,0-0.3,0-0.5,0c-1.3-2.1-2.6-4.1-3.6-6.4c-0.5-1-0.3-2.3,1-2.6l0,0C175.5,2.1,175.8,2.1,176,2.1z"
				/>
			<path class="st1" d="M170.1,16c-1,0.5-2.1,1-2.8,1.8c-0.3-0.5-0.5-1-1-1.5c-1-1.5-1.8-3.4-2.8-4.9c-0.5-0.8-0.5-1.5,0.3-2.3
				c0.8-0.8,2.1-0.5,2.6,0.3c0.8,1.5,1.8,3.1,2.6,4.6C169.3,14.7,169.6,15.2,170.1,16z"/>
			<path class="st1" d="M176.8,28.9c0-0.3-0.3-0.3-0.3-0.5c0,0,0-0.3,0.3-0.3c0.8-0.5,1.8-1,2.6-1.5c2.1-1,3.9-2.3,5.9-3.4
				c0,0,0.3,0,0.3-0.3c0,0.3,0.3,0.5,0.3,0.8C183,25.5,179.9,27.3,176.8,28.9z"/>
			<path class="st1" d="M183.8,20.1c0.5,0.5,0.5,0.8-0.3,1c-2.8,1.5-5.4,3.1-8.2,4.9c0,0,0,0-0.3,0c0-0.3-0.3-0.5-0.3-0.8
				C177.8,23.5,180.7,21.7,183.8,20.1z"/>
			<path class="st1" d="M176,27.3L176,27.3c-0.5-0.5-0.5-0.5,0-1c1.3-0.8,2.6-1.5,4.1-2.3c1.5-0.8,2.8-1.8,4.4-2.6
				c0,0.3,0.3,0.5,0.3,0.8C182,24,179.1,25.8,176,27.3z"/>
		</g>
	</g>
	<g>
		<rect x="78.9" y="52.1" class="st0" width="54.1" height="23.5"/>
		<text transform="matrix(1 0 0 1 88.4648 59.8276)" class="st1 st5 st6">Asientos </text>
		<text transform="matrix(1 0 0 1 80.2168 70.9106)" class="st1 st5 st6">confortables</text>
		<g>
			<path class="st0" d="M108.5,44.9c0.3,0.5,7.5-0.3,7.2-1c-0.3-1-2.3-6.7-3.1-6.7c-0.8,0-7.5,0.3-7.5,0.3
				C105.2,37.9,108.2,44.3,108.5,44.9z"/>
			<path class="st1" d="M104.9,35.6c0,0.5,3.6,10.3,4.9,10.3s8.2,0,8.8-1.3c0.3-1.3-3.6-8.5-3.4-9.3c-1.8,0.3-3.6,0.3-5.2,0.3
				 M117.5,43.8c0.3,0.5-7,1.3-7.2,0.8c-0.3-0.5-2.1-4.4-2.3-4.6c0,0,6.4-0.8,7.5-0.8C116.2,39.2,117,42.8,117.5,43.8z"/>
			<path class="st1" d="M96.9,33.5c-1.5-0.3-2.6-0.5-3.9-2.1c-0.8-1-1.3-1.5-0.8-2.8C90.5,31.2,81.4,41.5,80.9,42
				c-0.5,1,3.4,2.1,4.4,1.8c3.4-1.3,11.1-10.1,11.3-10.1"/>
			<path class="st1" d="M130.4,2.6c0,0-2.6-2.8-4.4-2.6c-0.8,0-1.3,0.3-2.1,0.8c-0.8,0.5-3.4,3.6-3.9,5.4c-0.8,2.1,0.3,2.8,0,4.4
				c-0.3,1.5-4.1,7.5-6.7,10.3l0,0c-0.8-0.3-3.6-1.8-7.5-2.1c-3.9,0-5.7,0.5-6.2,0.8c-0.5,0.3-0.5,0.5-0.5,0.8
				c0,0.5-0.3,1.3,0.5,1.3c0.8,0,5.4,0.5,5.9,0.8c0.5,0.3,2.8,1,4.4,2.6l-0.5,0.8c-4.9-1.3-15.2-2.1-17,0.8l-0.3,0.8l0.3-0.5
				c0,0-1,2.1,0.5,4.1c1.5,2.1,16.2,5.7,21.9,3.4c0.8-0.5,1.8-1.5,3.1-3.4c3.1-5.2,5.7-9,9-16C129.6,9.8,132.5,5.2,130.4,2.6z"/>
		</g>
	</g>
	<g>
		<rect x="0.3" y="52.1" class="st0" width="54.4" height="23.5"/>
		<text transform="matrix(1 0 0 1 8.5684 59.8276)" class="st1 st5 st6">Pantallas</text>
		<text transform="matrix(1 0 0 1 2.6406 70.9106)" class="st1 st5 st6">individuales</text>
	</g>
</g>
</svg>
