<?xml version="1.0" encoding="utf-8"?>
<!-- Generator: Adobe Illustrator 25.0.1, SVG Export Plug-In . SVG Version: 6.00 Build 0)  -->
<svg version="1.1" id="Capa_1" xmlns="http://www.w3.org/2000/svg" xmlns:xlink="http://www.w3.org/1999/xlink" x="0px" y="0px"
	 viewBox="0 0 169 29.3" style="enable-background:new 0 0 169 29.3;" xml:space="preserve">
<style type="text/css">
	.st0{fill:#002D5D;}
	.st1{font-family:'Futura-Medium';}
	.st2{font-size:3.6px;}
	.st3{fill:none;}
</style>
<g>
	<g>
		<text transform="matrix(1.0667 0 0 1 117.2638 23.3574)" class="st0 st1 st2">HOMBRE</text>
		<g>
			<g>
				<path class="st0" d="M114.2,4.2h2.8l1,5.3l1.5-5.3h2.8l1.5,5.3l1-5.3h2.8l-2.1,9.4h-2.9l-1.7-5.9l-1.6,5.9h-2.9L114.2,4.2z"/>
				<path class="st0" d="M134.4,9.7l2.6,0.8c-0.2,0.7-0.4,1.3-0.8,1.8c-0.4,0.5-0.8,0.8-1.4,1.1c-0.5,0.2-1.2,0.4-2.1,0.4
					c-1,0-1.9-0.2-2.5-0.4c-0.7-0.3-1.2-0.8-1.7-1.6c-0.5-0.7-0.7-1.7-0.7-2.9c0-1.6,0.4-2.8,1.2-3.6s2-1.3,3.5-1.3
					c1.2,0,2.1,0.2,2.8,0.7s1.2,1.2,1.5,2.2l-2.6,0.6c-0.1-0.3-0.2-0.5-0.3-0.6c-0.2-0.2-0.4-0.4-0.6-0.5c-0.2-0.1-0.5-0.2-0.8-0.2
					c-0.7,0-1.2,0.3-1.5,0.8c-0.3,0.4-0.4,1-0.4,1.9c0,1,0.2,1.8,0.5,2.1c0.3,0.4,0.8,0.6,1.3,0.6c0.6,0,1-0.2,1.3-0.5
					C134.1,10.8,134.3,10.3,134.4,9.7z"/>
			</g>
		</g>
	</g>
	<g>
		<text transform="matrix(1.0667 0 0 1 151.2979 23.3574)" class="st0 st1 st2">MUJER</text>
		<g>
			<g>
				<path class="st0" d="M146.2,4.2h2.8l1,5.3l1.4-5.3h2.8l1.5,5.3l1-5.3h2.8l-2.1,9.4h-2.9l-1.7-5.9l-1.6,5.9h-2.9L146.2,4.2z"/>
				<path class="st0" d="M166.4,9.7l2.6,0.8c-0.2,0.7-0.4,1.3-0.8,1.8c-0.4,0.5-0.8,0.8-1.4,1.1s-1.2,0.4-2.1,0.4
					c-1,0-1.9-0.2-2.5-0.4c-0.7-0.3-1.2-0.8-1.7-1.6c-0.5-0.7-0.7-1.7-0.7-2.9c0-1.6,0.4-2.8,1.2-3.6s2-1.3,3.5-1.3
					c1.2,0,2.1,0.2,2.8,0.7s1.2,1.2,1.5,2.2l-2.6,0.6c-0.1-0.3-0.2-0.5-0.3-0.6c-0.2-0.2-0.4-0.4-0.6-0.5c-0.2-0.1-0.5-0.2-0.8-0.2
					c-0.7,0-1.2,0.3-1.5,0.8c-0.3,0.4-0.4,1-0.4,1.9c0,1,0.2,1.8,0.5,2.1c0.3,0.4,0.8,0.6,1.3,0.6c0.6,0,1-0.2,1.3-0.5
					C166.1,10.8,166.3,10.3,166.4,9.7z"/>
			</g>
		</g>
	</g>
	<g>
		<rect x="85.6" y="20.2" class="st3" width="19.4" height="9.1"/>
		<text transform="matrix(1 0 0 1 85.7509 23.157)" class="st0 st1 st2">Conexiones</text>
		<text transform="matrix(1 0 0 1 87.7509 27.4569)" class="st0 st1 st2">eléctricas</text>
		<g>
			<path class="st0" d="M96.8,17c-0.2-0.1-0.4-0.2-0.5-0.4c-0.1-0.4,0-0.7,0.3-0.9c0.4-0.2,0.7-0.5,1-0.9c0.4-0.6,0.4-1.2,0.2-1.8
				v-0.1c-0.3,0.1-0.6,0.2-0.9,0.3c-0.4,0.1-0.8,0.1-1.1-0.1c-0.1,0-0.1-0.1-0.2-0.1c-0.1-0.1-0.2-0.1-0.3-0.1
				c-0.5,0.1-1,0.1-1.5-0.1c-0.3-0.2-0.6-0.4-0.8-0.7c-0.3-0.4-0.5-0.8-0.7-1.2c-0.4-0.7-0.8-1.4-1.2-2.1c-0.1-0.2-0.2-0.4-0.2-0.6
				c0-0.4,0.2-0.6,0.5-0.8c1.1-0.6,2.2-1.3,3.3-1.9c0.9-0.5,1.8-1.1,2.7-1.6c0.4-0.2,0.9-0.1,1.2,0.3c0.4,0.6,0.8,1.3,1.1,1.9
				c0.3,0.4,0.5,0.9,0.8,1.3c0.3,0.5,0.4,1.1,0.2,1.7c-0.1,0.3-0.3,0.6-0.5,0.9c-0.1,0.1-0.2,0.2-0.1,0.4c0.1,0.5-0.1,0.8-0.4,1.1
				c-0.2,0.2-0.4,0.4-0.6,0.5c-0.1,0.1-0.1,0.1,0,0.2c0.3,0.7,0.4,1.4,0.3,2.1c-0.2,0.8-0.7,1.5-1.3,2c-0.2,0.1-0.4,0.3-0.6,0.4
				c-0.1,0.1-0.2,0.1-0.3,0.2C96.9,17,96.8,17,96.8,17z M95.7,11.8c0.1,0,0.4-0.1,0.6-0.2c0.4-0.1,0.7-0.3,1.1-0.5
				c0.5-0.3,1-0.6,1.4-1s0.6-0.9,0.3-1.4c-0.2-0.5-0.5-1-0.8-1.4C98.1,7,97.8,7,97.5,7.1c-0.4,0.3-0.9,0.5-1.3,0.8
				c-0.8,0.4-1.5,0.9-2.3,1.3c-0.3,0.2-0.4,0.4-0.2,0.7c0,0.1,0.1,0.2,0.2,0.3c0.2,0.4,0.4,0.8,0.7,1.1
				C94.8,11.7,95.2,11.8,95.7,11.8z"/>
			<path class="st0" d="M94.9,0.8c0.3,0.1,0.4,0.3,0.6,0.5c0.4,0.8,0.9,1.5,1.3,2.3c0,0,0,0.1,0.1,0.1c-0.2,0.1-0.3,0.2-0.5,0.3
				s-0.3,0.2-0.5,0.3c-0.1,0-0.1,0-0.2,0c-0.5-0.8-1-1.6-1.4-2.5c-0.2-0.4-0.1-0.9,0.4-1l0,0C94.7,0.8,94.8,0.8,94.9,0.8z"/>
			<path class="st0" d="M92.6,6.2c-0.4,0.2-0.8,0.4-1.1,0.7c-0.1-0.2-0.2-0.4-0.4-0.6C90.7,5.7,90.4,5,90,4.4
				c-0.2-0.3-0.2-0.6,0.1-0.9c0.3-0.3,0.8-0.2,1,0.1c0.3,0.6,0.7,1.2,1,1.8C92.2,5.6,92.4,5.9,92.6,6.2z"/>
			<path class="st0" d="M95.2,11.2c0-0.1-0.1-0.1-0.1-0.2c0,0,0-0.1,0.1-0.1c0.3-0.2,0.7-0.4,1-0.6C97,9.9,97.7,9.4,98.5,9
				c0,0,0.1,0,0.1-0.1c0,0.1,0.1,0.2,0.1,0.3C97.5,9.8,96.4,10.5,95.2,11.2z"/>
			<path class="st0" d="M97.8,7.7C98,7.9,98,8,97.7,8.1c-1.1,0.6-2.1,1.2-3.2,1.9c0,0,0,0-0.1,0c0-0.1-0.1-0.2-0.1-0.3
				C95.5,9,96.7,8.4,97.8,7.7z"/>
			<path class="st0" d="M94.9,10.6C94.8,10.6,94.8,10.6,94.9,10.6c-0.2-0.2-0.2-0.2,0-0.4c0.5-0.3,1-0.6,1.6-0.9s1.1-0.7,1.7-1
				c0,0.1,0.1,0.2,0.1,0.3C97.2,9.2,96,9.9,94.9,10.6z"/>
		</g>
	</g>
	<g>
		<rect x="30.8" y="20.2" class="st3" width="21" height="9.1"/>
		<text transform="matrix(1 0 0 1 34.5165 23.1564)" class="st0 st1 st2">Asientos </text>
		<text transform="matrix(1 0 0 1 31.3164 27.4564)" class="st0 st1 st2">confortables</text>
		<g>
			<path class="st3" d="M42.3,17.4c0.1,0.2,2.9-0.1,2.8-0.4c-0.1-0.4-0.9-2.6-1.2-2.6c-0.3,0-2.9,0.1-2.9,0.1
				C41,14.6,42.2,17.2,42.3,17.4z"/>
			<path class="st0" d="M40.9,13.7c0,0.2,1.4,4,1.9,4s3.2,0,3.4-0.5c0.1-0.5-1.4-3.3-1.3-3.6c-0.7,0.1-1.4,0.1-2,0.1 M45.8,16.9
				c0.1,0.2-2.7,0.5-2.8,0.3c-0.1-0.2-0.8-1.7-0.9-1.8c0,0,2.5-0.3,2.9-0.3C45.3,15.1,45.6,16.5,45.8,16.9z"/>
			<path class="st0" d="M37.8,13c-0.6-0.1-1-0.2-1.5-0.8c-0.3-0.4-0.5-0.6-0.3-1.1c-0.7,1-4.2,5-4.4,5.2c-0.2,0.4,1.3,0.8,1.7,0.7
				c1.3-0.5,4.3-3.9,4.4-3.9"/>
			<path class="st0" d="M50.8,1c0,0-1-1.1-1.7-1c-0.3,0-0.5,0.1-0.8,0.3S47,1.7,46.8,2.4c-0.3,0.8,0.1,1.1,0,1.7
				c-0.1,0.6-1.6,2.9-2.6,4l0,0c-0.3-0.1-1.4-0.7-2.9-0.8c-1.5,0-2.2,0.2-2.4,0.3c-0.2,0.1-0.2,0.2-0.2,0.3c0,0.2-0.1,0.5,0.2,0.5
				c0.3,0,2.1,0.2,2.3,0.3c0.2,0.1,1.1,0.4,1.7,1L42.7,10c-1.9-0.5-5.9-0.8-6.6,0.3L36,10.6l0.1-0.2c0,0-0.4,0.8,0.2,1.6
				c0.6,0.8,6.3,2.2,8.5,1.3c0.3-0.2,0.7-0.6,1.2-1.3c1.2-2,2.2-3.5,3.5-6.2C50.5,3.8,51.6,2,50.8,1z"/>
		</g>
	</g>
	<g>
		<g>
			<rect x="0.3" y="20.2" class="st3" width="21.1" height="9.1"/>
			<text transform="matrix(1 0 0 1 3.5173 23.1564)" class="st0 st1 st2">Pantallas</text>
			<text transform="matrix(1 0 0 1 1.2173 27.4564)" class="st0 st1 st2">individuales</text>
		</g>
		<g>
			<path class="st0" d="M3.8,5.4l-1.6,8.5h17.2l-1.6-8.5C17.8,5.4,3.8,5.4,3.8,5.4z M10.1,12.2H8.8V10H6.7v2.2H5.4V7h1.3v2h2.1V7
				h1.3V12.2z M15.3,11.6c-0.6,0.5-1.5,0.7-2.6,0.7c-0.7,0-1.1,0-1.4-0.1V7.1C11.8,7,12.4,7,13,7c1.1,0,1.8,0.2,2.3,0.6
				c0.6,0.4,1,1,1,1.9C16.2,10.5,15.8,11.2,15.3,11.6z"/>
			<path class="st0" d="M13.1,7.9c-0.3,0-0.5,0-0.6,0v3.4c0.1,0,0.3,0,0.4,0c1.2,0,1.9-0.6,1.9-1.8C14.9,8.5,14.2,7.9,13.1,7.9z"/>
			<path class="st0" d="M20.6,10V2c0-0.6-0.5-1.1-1.1-1.1H2.1C1.5,0.9,1,1.4,1,2v8c-0.4,1.8-0.8,4-1,5.8c0,0.1,0.1,0.3,0.2,0.4
				c0.2,0.2,0.4,0.4,0.7,0.4c1.7,0.1,5.3,0.1,9.8,0.1l0,0c0,0,0,0,0.1,0s0,0,0.1,0l0,0c4.5,0,8.1-0.1,9.8-0.1c0.3,0,0.6-0.2,0.7-0.4
				c0.1-0.1,0.2-0.3,0.2-0.4C21.5,14,21,11.8,20.6,10z M1.7,2c0-0.2,0.2-0.4,0.4-0.4h17.5C19.8,1.6,20,1.8,20,2v5.4
				c-0.2-0.8-0.5-1.7-0.7-2.4c-0.4-1.3-0.5-1.4-0.6-1.5s0.1-0.1-1.8-0.2c-1.6,0-3.7,0-6.1,0c-2.3,0-4.5,0-6.1,0
				C2.8,3.4,3,3.4,2.9,3.5C2.8,3.6,2.7,3.6,2.3,5C2.1,5.7,1.8,6.5,1.6,7.4L1.7,2L1.7,2z M20.7,16.1c-1.8,0.1-5.2,0.1-9.9,0.1
				S2.7,16.1,1,16.1c-0.1,0-0.3-0.1-0.4-0.2c0.1-1.4,0.4-3.2,0.7-4.8c0.1-0.4,0.2-0.9,0.3-1.3C2.3,7,3,4.7,3.3,4.1C4,4,6.2,4,10.7,4
				l0,0c0,0,0,0,0.1,0c0,0,0,0,0.1,0l0,0c4.5,0,6.7,0,7.4,0.1c0.2,0.5,1,2.9,1.7,5.7c0.1,0.4,0.2,0.9,0.3,1.3
				c0.4,1.7,0.7,3.4,0.7,4.8C21,15.9,20.8,16.1,20.7,16.1z"/>
		</g>
	</g>
	<g>
		<g>
			<text transform="matrix(1 0 0 1 64.0891 23.3575)" class="st0 st1 st2">Audio</text>
			<text transform="matrix(1 0 0 1 61.0891 27.6575)" class="st0 st1 st2">individual</text>
		</g>
		<g>
			<g>
				<g>
					<path class="st0" d="M61,7.6v2.5c0,0.9,0.8,1.7,1.7,1.7h0.7V5.9h-0.7C61.8,5.9,61,6.7,61,7.6L61,7.6z"/>
					<path class="st0" d="M70.1,2.6c-0.2-0.1-0.5-0.1-0.8,0l-4.9,3v6.6l4.9,2.9c0.1,0,0.1,0.1,0.2,0.1c0.1,0,0.1,0,0.2,0
						c0.1,0,0.3,0,0.4-0.1c0.2-0.1,0.4-0.4,0.4-0.7V3.3C70.5,3,70.3,2.8,70.1,2.6L70.1,2.6z"/>
				</g>
				<path class="st0" d="M71.9,10.8c-0.3,0-0.5,0.2-0.5,0.5s0.2,0.5,0.5,0.5c1.6,0,2.9-1.3,2.9-2.9S73.5,6,71.9,6
					c-0.3,0-0.5,0.2-0.5,0.5S71.6,7,71.9,7c1.1,0,1.9,0.9,1.9,1.9S73,10.8,71.9,10.8L71.9,10.8z"/>
				<path class="st0" d="M71.9,3.8c-0.3,0-0.5,0.2-0.5,0.5s0.2,0.5,0.5,0.5c2.3,0,4.1,1.9,4.1,4.1S74.1,13,71.9,13
					c-0.3,0-0.5,0.2-0.5,0.5s0.2,0.5,0.5,0.5c2.8,0,5.1-2.3,5.1-5.1S74.7,3.8,71.9,3.8L71.9,3.8z"/>
			</g>
		</g>
	</g>
</g>
</svg>
