<?xml version="1.0" encoding="utf-8"?>
<!-- Generator: Adobe Illustrator 25.0.1, SVG Export Plug-In . SVG Version: 6.00 Build 0)  -->
<svg version="1.1" id="Capa_1" xmlns="http://www.w3.org/2000/svg" xmlns:xlink="http://www.w3.org/1999/xlink" x="0px" y="0px"
	 viewBox="0 0 284.8 42.3" style="enable-background:new 0 0 284.8 42.3;" xml:space="preserve">
<style type="text/css">
	.st0{fill:none;}
	.st1{fill:#002D5D;}
	.st2{fill:#FFFFFF;}
	.st3{font-family:'Avenir-Black';}
	.st4{font-size:15.6708px;}
</style>
<g>
	<g>
		<path class="st0" d="M22.4,11.3L22.4,11.3C22.2,11.3,22.2,11.3,22.4,11.3c-0.2,0-0.2,0-0.4,0l0,0c-9.2,0-13.8,0-15.2,0.2
			c-0.8,1.8-5,15.4-5.6,24.2c0.2,0.2,0.4,0.4,0.8,0.4c3.6,0.2,10.6,0.2,20.2,0.4c9.6,0,16.6-0.2,20.2-0.4c0.2,0,0.6-0.4,0.8-0.4
			c-0.8-8.6-4.8-22.4-5.8-24.2C36.2,11.3,31.6,11.3,22.4,11.3z M4.6,31.7l3.2-17.4h28.6l3.2,17.4H4.6z"/>
		<path class="st1" d="M7.8,14.3L4.6,31.7h35.2l-3.2-17.4C36.6,14.3,7.8,14.3,7.8,14.3z"/>
		<path class="st0" d="M6,10.5L6,10.5c0.2-0.2-0.4-0.2,3.6-0.4c3.2-0.2,7.6,0,12.4,0s9.2,0,12.4,0c3.8,0.2,3.4,0.2,3.6,0.4l0,0
			c0.2,0.2,0.4,0.4,1.2,3c0.4,1.4,1,3,1.4,4.8v-11c0-0.4-0.4-0.8-0.8-0.8H4.2c-0.4,0-0.8,0.4-0.8,0.8v11c0.6-1.6,1-3.2,1.4-4.8
			C5.8,10.9,6,10.7,6,10.5z"/>
		<path class="st1" d="M42.2,23.7V7.3c0-1.2-1-2.2-2.2-2.2H4.2C3,5.1,2,6.1,2,7.3v16.4c-0.8,3.6-1.8,8.2-2,12c0,0.2,0.2,0.6,0.4,0.8
			c0.4,0.4,0.8,0.8,1.4,0.8c3.4,0.2,10.8,0.2,20,0.4l0,0H22h0.2l0,0c9.2,0,16.6-0.2,20-0.4c0.6,0,1.2-0.4,1.4-0.8
			c0.2-0.2,0.4-0.6,0.4-0.8C44,31.9,43,27.5,42.2,23.7z M3.4,7.3c0-0.4,0.4-0.8,0.8-0.8H40c0.4,0,0.8,0.4,0.8,0.8v11
			c-0.4-1.8-1-3.4-1.4-4.8c-0.8-2.8-1-2.8-1.2-3l0,0c-0.2-0.2,0.2-0.2-3.6-0.4c-3.2-0.2-7.6,0-12.4,0s-9.2,0-12.4,0
			c-4,0.2-3.4,0.2-3.6,0.4l0,0c-0.2,0.2-0.4,0.4-1.4,3c-0.4,1.4-1,3-1.4,4.8C3.4,18.3,3.4,7.3,3.4,7.3z M42.4,36.1
			c-3.6,0.2-10.6,0.2-20.2,0.4c-9.6,0-16.6-0.2-20.2-0.4c-0.2,0-0.6-0.4-0.8-0.4c0.2-3,0.8-6.4,1.6-9.8c0.2-1,0.4-1.8,0.6-2.6
			c1.4-5.8,3-10.8,3.4-11.8c1.4-0.2,5.8-0.2,15.2-0.2l0,0c0,0,0,0,0.2,0c0,0,0,0,0.2,0l0,0c9.2,0,13.8,0,15.2,0.2
			c0.4,1,2,6,3.4,11.6c0.2,0.8,0.4,1.8,0.6,2.6c0.8,3.4,1.4,7,1.6,9.8C43,35.9,42.6,36.1,42.4,36.1z"/>
		<text transform="matrix(1 0 0 1 11.3799 28.2804)" class="st2 st3 st4">TV</text>
	</g>
	<g>
		<g>
			<path class="st1" d="M175.4,11.9h5.6l2,10.6l3-10.6h5.6l3,10.6l2-10.6h5.6l-4.2,18.8h-5.8l-3.4-11.8l-3.2,11.8h-5.8L175.4,11.9z"
				/>
			<path class="st1" d="M215.9,23.1l5.2,1.6c-0.4,1.4-0.8,2.6-1.6,3.6c-0.8,1-1.6,1.6-2.8,2.2c-1,0.4-2.4,0.8-4.2,0.8
				c-2,0-3.8-0.4-5-0.8c-1.4-0.6-2.4-1.6-3.4-3.2c-1-1.4-1.4-3.4-1.4-5.8c0-3.2,0.8-5.6,2.4-7.2s4-2.6,7-2.6c2.4,0,4.2,0.4,5.6,1.4
				c1.4,1,2.4,2.4,3,4.4l-5.2,1.2c-0.2-0.6-0.4-1-0.6-1.2c-0.4-0.4-0.8-0.8-1.2-1c-0.4-0.2-1-0.4-1.6-0.4c-1.4,0-2.4,0.6-3,1.6
				c-0.6,0.8-0.8,2-0.8,3.8c0,2,0.4,3.6,1,4.2c0.6,0.8,1.6,1.2,2.6,1.2c1.2,0,2-0.4,2.6-1C215.1,25.1,215.5,24.3,215.9,23.1z"/>
		</g>
	</g>
	<g>
		<g>
			<path class="st1" d="M239.3,11.9h5.6l2,10.6l3-10.6h5.6l3,10.6l2-10.6h5.6l-4.2,18.8h-5.8l-3.4-11.8l-3.2,11.8h-5.8L239.3,11.9z"
				/>
			<path class="st1" d="M279.7,23.1l5.2,1.6c-0.4,1.4-0.8,2.6-1.6,3.6c-0.8,1-1.6,1.6-2.8,2.2c-1,0.4-2.4,0.8-4.2,0.8
				c-2,0-3.8-0.4-5-0.8c-1.4-0.6-2.4-1.6-3.4-3.2c-1-1.4-1.4-3.4-1.4-5.8c0-3.2,0.8-5.6,2.4-7.2s4-2.6,7-2.6c2.4,0,4.2,0.4,5.6,1.4
				s2.4,2.4,3,4.4l-5.2,1.2c-0.2-0.6-0.4-1-0.6-1.2c-0.4-0.4-0.8-0.8-1.2-1c-0.4-0.2-1-0.4-1.6-0.4c-1.4,0-2.4,0.6-3,1.6
				c-0.6,0.8-0.8,2-0.8,3.8c0,2,0.4,3.6,1,4.2c0.6,0.8,1.6,1.2,2.6,1.2c1.2,0,2-0.4,2.6-1C279.1,25.1,279.5,24.3,279.7,23.1z"/>
		</g>
	</g>
	<g>
		<path class="st1" d="M140.4,37.5c-0.4-0.2-0.8-0.4-1-0.8c-0.2-0.8,0-1.4,0.6-1.8c0.8-0.4,1.4-1,2-1.8c0.8-1.2,0.8-2.4,0.4-3.6
			v-0.2c-0.6,0.2-1.2,0.4-1.8,0.6c-0.8,0.2-1.6,0.2-2.2-0.2c-0.2,0-0.2-0.2-0.4-0.2c-0.2-0.2-0.4-0.2-0.6-0.2c-1,0.2-2,0.2-3-0.2
			c-0.6-0.4-1.2-0.8-1.6-1.4c-0.6-0.8-1-1.6-1.4-2.4c-0.8-1.4-1.6-2.8-2.4-4.2c-0.2-0.4-0.4-0.8-0.4-1.2c0-0.8,0.4-1.2,1-1.6
			c2.2-1.2,4.4-2.6,6.6-3.8c1.8-1,3.6-2.2,5.4-3.2c0.8-0.4,1.8-0.2,2.4,0.6c0.8,1.2,1.6,2.6,2.2,3.8c0.6,0.8,1,1.8,1.6,2.6
			c0.6,1,0.8,2.2,0.4,3.4c-0.2,0.6-0.6,1.2-1,1.8c-0.2,0.2-0.4,0.4-0.2,0.8c0.2,1-0.2,1.6-0.8,2.2c-0.4,0.4-0.8,0.8-1.2,1
			c-0.2,0.2-0.2,0.2,0,0.4c0.6,1.4,0.8,2.8,0.6,4.2c-0.4,1.6-1.4,3-2.6,4c-0.4,0.2-0.8,0.6-1.2,0.8c-0.2,0.2-0.4,0.2-0.6,0.4
			C140.6,37.5,140.6,37.5,140.4,37.5z M138.2,27.3c0.2,0,0.8-0.2,1.2-0.4c0.8-0.2,1.4-0.6,2.2-1c1-0.6,2-1.2,2.8-2
			c0.8-0.8,1.2-1.8,0.6-2.8c-0.4-1-1-2-1.6-2.8c-0.4-0.6-1-0.6-1.6-0.4c-0.8,0.6-1.8,1-2.6,1.6c-1.6,0.8-3,1.8-4.6,2.6
			c-0.6,0.4-0.8,0.8-0.4,1.4c0,0.2,0.2,0.4,0.4,0.6c0.4,0.8,0.8,1.6,1.4,2.2C136.6,26.9,137.2,27.3,138.2,27.3z"/>
		<path class="st1" d="M136.6,5.1c0.6,0.2,0.8,0.6,1.2,1c0.8,1.6,1.8,3,2.6,4.6c0,0,0,0.2,0.2,0.2c-0.4,0.2-0.6,0.4-1,0.6
			c-0.4,0.2-0.6,0.4-1,0.6c-0.2,0-0.2,0-0.4,0c-1-1.6-2-3.2-2.8-5c-0.4-0.8-0.2-1.8,0.8-2l0,0C136.2,5.1,136.4,5.1,136.6,5.1z"/>
		<path class="st1" d="M132,15.9c-0.8,0.4-1.6,0.8-2.2,1.4c-0.2-0.4-0.4-0.8-0.8-1.2c-0.8-1.2-1.4-2.6-2.2-3.8
			c-0.4-0.6-0.4-1.2,0.2-1.8c0.6-0.6,1.6-0.4,2,0.2c0.6,1.2,1.4,2.4,2,3.6C131.4,14.9,131.6,15.3,132,15.9z"/>
		<path class="st1" d="M137.2,25.9c0-0.2-0.2-0.2-0.2-0.4c0,0,0-0.2,0.2-0.2c0.6-0.4,1.4-0.8,2-1.2c1.6-0.8,3-1.8,4.6-2.6
			c0,0,0.2,0,0.2-0.2c0,0.2,0.2,0.4,0.2,0.6C142,23.3,139.6,24.7,137.2,25.9z"/>
		<path class="st1" d="M142.6,19.1c0.4,0.4,0.4,0.6-0.2,0.8c-2.2,1.2-4.2,2.4-6.4,3.8c0,0,0,0-0.2,0c0-0.2-0.2-0.4-0.2-0.6
			C137.8,21.7,140.2,20.3,142.6,19.1z"/>
		<path class="st1" d="M136.6,24.7L136.6,24.7c-0.4-0.4-0.4-0.4,0-0.8c1-0.6,2-1.2,3.2-1.8c1.2-0.6,2.2-1.4,3.4-2
			c0,0.2,0.2,0.4,0.2,0.6C141.2,22.1,138.8,23.5,136.6,24.7z"/>
	</g>
	<g>
		<path class="st0" d="M84.2,38.3c0.2,0.4,5.8-0.2,5.6-0.8c-0.2-0.8-1.8-5.2-2.4-5.2c-0.6,0-5.8,0.2-5.8,0.2
			C81.6,32.9,84,37.9,84.2,38.3z"/>
		<path class="st1" d="M81.4,31.1c0,0.4,2.8,8,3.8,8s6.4,0,6.8-1c0.2-1-2.8-6.6-2.6-7.2c-1.4,0.2-2.8,0.2-4,0.2 M91.2,37.5
			c0.2,0.4-5.4,1-5.6,0.6c-0.2-0.4-1.6-3.4-1.8-3.6c0,0,5-0.6,5.8-0.6C90.2,33.9,90.8,36.7,91.2,37.5z"/>
		<path class="st1" d="M75.2,29.5c-1.2-0.2-2-0.4-3-1.6c-0.6-0.8-1-1.2-0.6-2.2c-1.4,2-8.4,10-8.8,10.4c-0.4,0.8,2.6,1.6,3.4,1.4
			c2.6-1,8.6-7.8,8.8-7.8"/>
		<path class="st1" d="M101.2,5.5c0,0-2-2.2-3.4-2c-0.6,0-1,0.2-1.6,0.6c-0.6,0.4-2.6,2.8-3,4.2c-0.6,1.6,0.2,2.2,0,3.4
			c-0.2,1.2-3.2,5.8-5.2,8l0,0c-0.6-0.2-2.8-1.4-5.8-1.6c-3,0-4.4,0.4-4.8,0.6C77,18.9,77,19.1,77,19.3c0,0.4-0.2,1,0.4,1
			c0.6,0,4.2,0.4,4.6,0.6c0.4,0.2,2.2,0.8,3.4,2L85,23.5c-3.8-1-11.8-1.6-13.2,0.6l-0.2,0.6l0.2-0.4c0,0-0.8,1.6,0.4,3.2
			c1.2,1.6,12.6,4.4,17,2.6c0.6-0.4,1.4-1.2,2.4-2.6c2.4-4,4.4-7,7-12.4C100.6,11.1,102.8,7.5,101.2,5.5z"/>
	</g>
</g>
</svg>
