<?xml version="1.0" encoding="utf-8"?>
<!-- Generator: Adobe Illustrator 25.0.1, SVG Export Plug-In . SVG Version: 6.00 Build 0)  -->
<svg version="1.1" id="Capa_1" xmlns="http://www.w3.org/2000/svg" xmlns:xlink="http://www.w3.org/1999/xlink" x="0px" y="0px"
	 viewBox="0 0 284.8 45.9" style="enable-background:new 0 0 284.8 45.9;" xml:space="preserve">
<style type="text/css">
	.st0{fill:none;}
	.st1{fill:#002D5D;}
	.st2{fill:#FFFFFF;}
	.st3{font-family:'Avenir-Black';}
	.st4{font-size:20.2025px;}
</style>
<g>
	<g>
		<path class="st0" d="M28.9,10.1L28.9,10.1C28.6,10.1,28.6,10.1,28.9,10.1c-0.3,0-0.3,0-0.5,0l0,0c-11.9,0-17.8,0-19.6,0.3
			c-1,2.3-6.4,19.9-7.2,31.2c0.3,0.3,0.5,0.5,1,0.5c4.6,0.3,13.7,0.3,26.1,0.5c12.4,0,21.4-0.3,26.1-0.5c0.3,0,0.8-0.5,1-0.5
			c-1-11.1-6.2-28.9-7.5-31.2C46.7,10.1,40.8,10.1,28.9,10.1z M5.9,36.4l4.1-22.4H47l4.1,22.4H5.9z"/>
		<path class="st1" d="M10.1,13.9L5.9,36.4h45.4l-4.1-22.4H10.1z"/>
		<path class="st0" d="M7.7,9L7.7,9C8,8.8,7.2,8.8,12.4,8.5c4.1-0.3,9.8,0,16,0s11.9,0,16,0C49.3,8.8,48.8,8.8,49,9l0,0
			c0.3,0.3,0.5,0.5,1.5,3.9c0.5,1.8,1.3,3.9,1.8,6.2V4.9c0-0.5-0.5-1-1-1H5.4c-0.5,0-1,0.5-1,1v14.2C5.2,17,5.7,15,6.2,12.9
			C7.5,9.6,7.7,9.3,7.7,9z"/>
		<path class="st1" d="M54.4,26.1V4.9c0-1.5-1.3-2.8-2.8-2.8H5.4c-1.5,0-2.8,1.3-2.8,2.8v21.2c-1,4.6-2.3,10.6-2.6,15.5
			c0,0.3,0.3,0.8,0.5,1c0.5,0.5,1,1,1.8,1c4.4,0.3,13.9,0.3,25.8,0.5l0,0h0.3h0.3l0,0c11.9,0,21.4-0.3,25.8-0.5c0.8,0,1.5-0.5,1.8-1
			c0.3-0.3,0.5-0.8,0.5-1C56.8,36.6,55.5,31,54.4,26.1z M4.4,4.9c0-0.5,0.5-1,1-1h46.2c0.5,0,1,0.5,1,1v14.2
			c-0.5-2.3-1.3-4.4-1.8-6.2c-1-3.6-1.3-3.6-1.5-3.9l0,0c-0.3-0.3,0.3-0.3-4.6-0.5c-4.1-0.3-9.8,0-16,0s-11.9,0-16,0
			C7.5,8.8,8.3,8.8,8,9l0,0c-0.3,0.3-0.5,0.5-1.8,3.9c-0.5,1.8-1.3,3.9-1.8,6.2C4.4,19.1,4.4,4.9,4.4,4.9z M54.7,42.1
			C50,42.3,41,42.3,28.6,42.6c-12.4,0-21.4-0.3-26.1-0.5c-0.3,0-0.8-0.5-1-0.5c0.3-3.9,1-8.3,2.1-12.6c0.3-1.3,0.5-2.3,0.8-3.4
			c1.8-7.5,3.9-13.9,4.4-15.2c1.8-0.3,7.5-0.3,19.6-0.3l0,0c0,0,0,0,0.3,0c0,0,0,0,0.3,0l0,0c11.9,0,17.8,0,19.6,0.3
			c0.5,1.3,2.6,7.7,4.4,15c0.3,1,0.5,2.3,0.8,3.4c1,4.4,1.8,9,2.1,12.6C55.5,41.8,54.9,42.1,54.7,42.1z"/>
		<text transform="matrix(1 0 0 1 14.7197 31.9904)" class="st2 st3 st4">TV</text>
	</g>
	<g>
		<g>
			<path class="st1" d="M226.2,10.9h7.2l2.6,13.7l3.6-13.7h7.2l3.9,13.7l2.6-13.7h7.2l-5.4,24.2h-7.7L243,19.9l-4.1,15.2h-7.5
				L226.2,10.9z"/>
			<path class="st1" d="M278.1,25.3l6.7,2.1c-0.5,1.8-1,3.4-2.1,4.6c-1,1.3-2.1,2.1-3.6,2.8c-1.3,0.5-3.1,1-5.4,1
				c-2.6,0-4.9-0.5-6.4-1c-1.8-0.8-3.1-2.1-4.4-4.1c-1.3-1.8-1.8-4.4-1.8-7.5c0-4.1,1-7.2,3.1-9.3c2.1-2.1,5.2-3.4,9-3.4
				c3.1,0,5.4,0.5,7.2,1.8s3.1,3.1,3.9,5.7l-6.7,1.5c-0.3-0.8-0.5-1.3-0.8-1.5c-0.5-0.5-1-1-1.5-1.3c-0.5-0.3-1.3-0.5-2.1-0.5
				c-1.8,0-3.1,0.8-3.9,2.1c-0.8,1-1,2.6-1,4.9c0,2.6,0.5,4.6,1.3,5.4c0.8,1,2.1,1.5,3.4,1.5c1.5,0,2.6-0.5,3.4-1.3
				C277.3,27.9,277.8,26.8,278.1,25.3z"/>
		</g>
	</g>
	<g>
		<path class="st1" d="M181.1,43.9c-0.5-0.3-1-0.5-1.3-1c-0.3-1,0-1.8,0.8-2.3c1-0.5,1.8-1.3,2.6-2.3c1-1.5,1-3.1,0.5-4.6v-0.3
			c-0.8,0.3-1.5,0.5-2.3,0.8c-1,0.3-2.1,0.3-2.8-0.3c-0.3,0-0.3-0.3-0.5-0.3c-0.3-0.3-0.5-0.3-0.8-0.3c-1.3,0.3-2.6,0.3-3.9-0.3
			c-0.8-0.5-1.5-1-2.1-1.8c-0.8-1-1.3-2.1-1.8-3.1c-1-1.8-2.1-3.6-3.1-5.4c-0.3-0.5-0.5-1-0.5-1.5c0-1,0.5-1.5,1.3-2.1
			c2.8-1.5,5.7-3.4,8.5-4.9c2.3-1.3,4.6-2.8,7-4.1c1-0.5,2.3-0.3,3.1,0.8c1,1.5,2.1,3.4,2.8,4.9c0.8,1,1.3,2.3,2.1,3.4
			c0.8,1.3,1,2.8,0.5,4.4c-0.3,0.8-0.8,1.5-1.3,2.3c-0.3,0.3-0.5,0.5-0.3,1c0.3,1.3-0.3,2.1-1,2.8c-0.5,0.5-1,1-1.5,1.3
			c-0.3,0.3-0.3,0.3,0,0.5c0.8,1.8,1,3.6,0.8,5.4c-0.5,2.1-1.8,3.9-3.4,5.2c-0.5,0.3-1,0.8-1.5,1c-0.3,0.3-0.5,0.3-0.8,0.5
			C181.4,43.9,181.4,43.9,181.1,43.9z M178.3,30.7c0.3,0,1-0.3,1.5-0.5c1-0.3,1.8-0.8,2.8-1.3c1.3-0.8,2.6-1.5,3.6-2.6
			c1-1,1.5-2.3,0.8-3.6c-0.5-1.3-1.3-2.6-2.1-3.6c-0.5-0.8-1.3-0.8-2.1-0.5c-1,0.8-2.3,1.3-3.4,2.1c-2.1,1-3.9,2.3-5.9,3.4
			c-0.8,0.5-1,1-0.5,1.8c0,0.3,0.3,0.5,0.5,0.8c0.5,1,1,2.1,1.8,2.8C176.2,30.2,177,30.7,178.3,30.7z"/>
		<path class="st1" d="M176.2,2.1c0.8,0.3,1,0.8,1.5,1.3c1,2.1,2.3,3.9,3.4,5.9c0,0,0,0.3,0.3,0.3c-0.5,0.3-0.8,0.5-1.3,0.8
			c-0.5,0.3-0.8,0.5-1.3,0.8c-0.3,0-0.3,0-0.5,0C177,9,175.7,7,174.6,4.7c-0.5-1-0.3-2.3,1-2.6l0,0C175.7,2.1,175.9,2.1,176.2,2.1z"
			/>
		<path class="st1" d="M170.3,16c-1,0.5-2.1,1-2.8,1.8c-0.3-0.5-0.5-1-1-1.5c-1-1.5-1.8-3.4-2.8-4.9c-0.5-0.8-0.5-1.5,0.3-2.3
			c0.8-0.8,2.1-0.5,2.6,0.3c0.8,1.5,1.8,3.1,2.6,4.6C169.5,14.7,169.7,15.2,170.3,16z"/>
		<path class="st1" d="M177,28.9c0-0.3-0.3-0.3-0.3-0.5c0,0,0-0.3,0.3-0.3c0.8-0.5,1.8-1,2.6-1.5c2.1-1,3.9-2.3,5.9-3.4
			c0,0,0.3,0,0.3-0.3c0,0.3,0.3,0.5,0.3,0.8C182.9,25.6,180.1,27.4,177,28.9z"/>
		<path class="st1" d="M183.9,20.1c0.5,0.5,0.5,0.8-0.3,1c-2.8,1.5-5.4,3.1-8.3,4.9c0,0,0,0-0.3,0c0-0.3-0.3-0.5-0.3-0.8
			C177.7,23.5,180.8,21.7,183.9,20.1z"/>
		<path class="st1" d="M176.2,27.4L176.2,27.4c-0.5-0.5-0.5-0.5,0-1c1.3-0.8,2.6-1.5,4.1-2.3c1.5-0.8,2.8-1.8,4.4-2.6
			c0,0.3,0.3,0.5,0.3,0.8C182.1,24,179,25.8,176.2,27.4z"/>
	</g>
	<g>
		<path class="st0" d="M108.6,44.9c0.3,0.5,7.5-0.3,7.2-1c-0.3-1-2.3-6.7-3.1-6.7c-0.8,0-7.5,0.3-7.5,0.3
			C105.3,37.9,108.3,44.4,108.6,44.9z"/>
		<path class="st1" d="M105,35.6c0,0.5,3.6,10.3,4.9,10.3s8.3,0,8.8-1.3c0.3-1.3-3.6-8.5-3.4-9.3c-1.8,0.3-3.6,0.3-5.2,0.3
			 M117.4,43.9c0.3,0.5-7,1.3-7.2,0.8c-0.3-0.5-2.1-4.4-2.3-4.6c0,0,6.4-0.8,7.5-0.8C116.3,39.2,117.1,42.8,117.4,43.9z"/>
		<path class="st1" d="M97,33.6c-1.5-0.3-2.6-0.5-3.9-2.1c-0.8-1-1.3-1.5-0.8-2.8C90.5,31.2,81.5,41.5,81,42.1
			c-0.5,1,3.4,2.1,4.4,1.8c3.4-1.3,11.1-10.1,11.4-10.1"/>
		<path class="st1" d="M130.5,2.6c0,0-2.6-2.8-4.4-2.6c-0.8,0-1.3,0.3-2.1,0.8c-0.8,0.5-3.4,3.6-3.9,5.4c-0.8,2.1,0.3,2.8,0,4.4
			c-0.3,1.5-4.1,7.5-6.7,10.3l0,0c-0.8-0.3-3.6-1.8-7.5-2.1c-3.9,0-5.7,0.5-6.2,0.8c-0.5,0.3-0.5,0.5-0.5,0.8c0,0.5-0.3,1.3,0.5,1.3
			c0.8,0,5.4,0.5,5.9,0.8c0.5,0.3,2.8,1,4.4,2.6l-0.5,0.8c-4.9-1.3-15.2-2.1-17,0.8l-0.3,0.8l0.3-0.5c0,0-1,2.1,0.5,4.1
			c1.5,2.1,16.3,5.7,21.9,3.4c0.8-0.5,1.8-1.5,3.1-3.4c3.1-5.2,5.7-9,9-16C129.8,9.8,132.6,5.2,130.5,2.6z"/>
	</g>
</g>
</svg>
