<?xml version="1.0" encoding="utf-8" ?>
<!-- Generator: Adobe Illustrator 25.0.1, SVG Export Plug-In . SVG Version: 6.00 Build 0)  -->
<svg version="1.1" id="Capa_1" xmlns="http://www.w3.org/2000/svg" xmlns:xlink="http://www.w3.org/1999/xlink" x="0px" y="0px"
	 viewBox="0 0 61.2 60.4" style="enable-background:new 0 0 61.2 60.4;" xml:space="preserve">
<style type="text/css">
	
	.st1{fill:#fff;}
</style>
<g>
	
<g>
<g>
<path class="st1" d="M46,31.4v-3.1c0-0.5-0.4-1-1-1c-2,0-3.9,0.2-5.7,0.5c-1-1-2.3-1.7-3.7-2.1c1.5-1.3,2.5-3.2,2.5-5.3
				c0-3.8-3.1-7-6.9-7s-6.9,3.1-6.9,7c0,2.1,1,4,2.5,5.3c-1.4,0.4-2.7,1.1-3.7,2.1c-1.8-0.4-3.7-0.5-5.7-0.5c-0.5,0-1,0.4-1,1v3.1
				c-1.1,0.4-2,1.5-2,2.8v2c0,1.3,0.8,2.4,2,2.8V42c0,0.5,0.4,1,1,1c5.1,0,9.4,1.2,13.3,3.8c0.3,0.2,0.8,0.2,1.1,0
				C35.7,44.2,39.9,43,45,43c0.5,0,1-0.4,1-1v-3.1c1.1-0.4,2-1.5,2-2.8v-2C48,32.9,47.2,31.8,46,31.4z M26.3,20.4c0-2.8,2.2-5,4.9-5
				s4.9,2.2,4.9,5c0,2.7-2.2,4.9-4.9,4.9S26.3,23.1,26.3,20.4z M17.3,37.1c-0.5,0-1-0.4-1-1v-2c0-0.5,0.4-1,1-1c0.5,0,1,0.4,1,1v2
				C18.3,36.7,17.9,37.1,17.3,37.1z M30.2,44.3c-3.6-2-7.4-3.1-11.9-3.2v-2.2c1.1-0.4,2-1.5,2-2.8v-2c0-1.3-0.8-2.4-2-2.8v-2.1
				c4.6,0.1,8.3,1.2,11.9,3.5V44.3z M31.2,31c-1.8-1.1-3.7-2-5.7-2.6c1.1-0.7,2.4-1.1,3.8-1.1h3.9c1.3,0,2.6,0.4,3.8,1.1
				C34.9,29,33,29.9,31.2,31z M44.1,41c-4.5,0.1-8.3,1.2-11.9,3.2V32.7c3.5-2.3,7.3-3.3,11.9-3.5v2.1c-1.1,0.4-2,1.5-2,2.8v2
				c0,1.3,0.8,2.4,2,2.8V41z M46,36.1c0,0.5-0.4,1-1,1c-0.5,0-1-0.4-1-1v-2c0-0.5,0.4-1,1-1c0.5,0,1,0.4,1,1V36.1z" />

		</g>
	</g>
</g>
</svg>
