<?xml version="1.0" encoding="utf-8" ?>
<!-- Generator: Adobe Illustrator 25.0.1, SVG Export Plug-In . SVG Version: 6.00 Build 0)  -->
<svg version="1.1" id="Capa_1" xmlns="http://www.w3.org/2000/svg" xmlns:xlink="http://www.w3.org/1999/xlink" x="0px" y="0px"
     viewBox="0 0 61.2 60.4" style="enable-background:new 0 0 61.2 60.4;" xml:space="preserve">
<style type="text/css">
    .st0 {
        fill: #fff;
    }
</style>
<g>
<path class="st0" d="M35.8,24.8c0-1.4-1.1-2.5-2.5-2.5h-5.4c-1.4,0-2.5,1.1-2.5,2.5v12.8h2v10.3h6.3V37.6h2.1V24.8z" />

<path class="st0" d="M30.4,14.9c-1.8,0-3.2,1.4-3.2,3.2s1.4,3.2,3.2,3.2c1.8,0,3.2-1.4,3.2-3.2S32.2,14.9,30.4,14.9z" />

<path class="st0" d="M26.8,12.1l1.3,0.5v2c0,0.1,0,0.2,0.1,0.2c0.6-0.6,1.4-1,2.3-1s1.8,0.4,2.4,1.1H33c0.1,0,0.1-0.1,0.1-0.2v-2
		l0.9-0.4v2.3c-0.3,0.2-0.4,0.6-0.3,0.9c0.1,0.4,0.5,0.5,0.8,0.4c0-0.1,0.2-0.5,0.1-0.9c-0.1-0.2-0.2-0.3-0.3-0.4v-2.5
		c0-0.1,0-0.1,0.1-0.2c0-0.1-0.1-0.2-0.1-0.3l-3.7-2c-0.1,0-0.1,0-0.2,0l-3.7,2c-0.1,0-0.1,0.2-0.1,0.3C26.6,12,26.7,12.1,26.8,12.1
		z" />

</g>
</svg>
