<?xml version="1.0" encoding="utf-8" ?>
<!-- Generator: Adobe Illustrator 25.0.1, SVG Export Plug-In . SVG Version: 6.00 Build 0)  -->
<svg version="1.1" id="Capa_1" xmlns="http://www.w3.org/2000/svg" xmlns:xlink="http://www.w3.org/1999/xlink" x="0px" y="0px"
     viewBox="0 0 61.2 60.4" style="enable-background:new 0 0 61.2 60.4;" xml:space="preserve">
<style type="text/css">
    .st0 {
        fill: #fff;
    }
</style>
<g>
<circle class="st0" cx="24.3" cy="18.1" r="3.2" />

<path class="st0" d="M42,34.8c0-1.4-1.1-2.5-2.5-2.5h-1.3c-0.6,0-1.1,0.2-1.6,0.6l0-0.1l-2,1.2l-1.7-1.3c-0.1-0.1-0.2-0.1-0.4-0.2
		c0,0,0,0,0.1,0c0.5-0.3,0.7-0.9,0.4-1.3l-3.6-7c-0.2-1.1-1.2-2-2.4-2h-5.4c-1.4,0-2.5,1.1-2.5,2.5v12.8h2.1v9.7h6.3v-9.7h2v-8.8
		l1.7,3.4c0.2,0.3,0.4,0.4,0.7,0.5c0,0-0.1,0.1-0.1,0.1c-0.2,0.3-0.1,0.8,0.3,1.1l1.7,1.3c0,0,0,0,0,0c0.2,0.2,0.4,0.3,0.7,0.3
		c0,0,0.1,0,0.1,0c0,0,0.1,0,0.1,0l0.9-0.5v6.7h1.2v6.2h3.8v-6.2H42V34.8z" />

<circle class="st0" cx="38.9" cy="29.9" r="2" />

</g>
</svg>
