<?xml version="1.0" encoding="utf-8" ?>
<!-- Generator: Adobe Illustrator 25.0.1, SVG Export Plug-In . SVG Version: 6.00 Build 0)  -->
<svg version="1.1" id="Capa_1" xmlns="http://www.w3.org/2000/svg" xmlns:xlink="http://www.w3.org/1999/xlink" x="0px" y="0px"
     viewBox="0 0 61.2 60.4" style="enable-background:new 0 0 61.2 60.4;" xml:space="preserve">
<style type="text/css">
    .st0 {
        fill: none;
        stroke: #fff;
        stroke-width: 2;
        stroke-miterlimit: 10;
    }

    .st1 {
        fill: #fff;
    }

    .st2 {
        fill: #acacac;
    }
</style>
<g>
<path class="st0" d="M44.2,33.3H20.7c-1.4,0-2.5-1.1-2.5-2.5V13.1c0-1.4,1.1-2.5,2.5-2.5h23.5c1.4,0,2.5,1.1,2.5,2.5v17.7
		C46.7,32.2,45.6,33.3,44.2,33.3z" />

<g>
<path class="st1" d="M31.5,26.6c0-1.4-1.1-2.5-2.5-2.5h-5.4c-1.4,0-2.5,1.1-2.5,2.5v12.8h2.1v10.4h6.3V39.4h2V26.6z" />

<circle class="st1" cx="26.3" cy="19.9" r="3.2" />

	</g>
<path class="st2" d="M27.4,25.2c0,0.6-0.5,1.1-1.1,1.1c-0.2,0-0.3,0-0.4-0.1c-0.4-0.2-0.7-0.6-0.7-1c0-0.6,0.5-1.1,1.1-1.1
		C26.9,24.2,27.4,24.6,27.4,25.2z" />

<path class="st2" d="M25.9,26.6l-1.3,3.1c-0.1,0.3-0.1,0.6,0,0.8l1.6,3.2c0.1,0.1,0.3,0.1,0.3,0l1.5-3.2c0.1-0.2,0.1-0.5,0-0.7
		l-1.1-3.2C26.9,26.6,25.9,26.6,25.9,26.6z" />

</g>
</svg>