<?xml version="1.0" encoding="utf-8"?>
<!-- Generator: Adobe Illustrator 24.0.1, SVG Export Plug-In . SVG Version: 6.00 Build 0)  -->
<svg version="1.1" id="Capa_1" xmlns="http://www.w3.org/2000/svg" xmlns:xlink="http://www.w3.org/1999/xlink" x="0px" y="0px"
	 viewBox="0 0 284.8 42.3" style="enable-background:new 0 0 284.8 42.3;" xml:space="preserve">
<style type="text/css">
	.st0{fill:#003565;}
</style>
<g>
	<g>
		<path class="st0" d="M62.2,12.3l-4.1,21.4h43.4l-4.1-21.4H62.2z M78,29.5h-3.2v-5.5h-5.3v5.5h-3.2V16.5h3.2v5h5.3v-5H78V29.5z
			 M91,28c-1.5,1.1-3.8,1.7-6.6,1.7c-1.7,0-2.9-0.1-3.7-0.2V16.7c1.2-0.2,2.7-0.3,4.4-0.3c2.7,0,4.5,0.4,5.8,1.4
			c1.5,1,2.4,2.6,2.4,4.9C93.4,25.2,92.4,26.9,91,28z"/>
		<path class="st0" d="M85.5,18.7c-0.7,0-1.2,0.1-1.5,0.1v8.5c0.3,0.1,0.7,0.1,1.1,0.1c2.9,0,4.8-1.5,4.8-4.6
			C90,20.1,88.3,18.7,85.5,18.7z"/>
		<path class="st0" d="M104.6,24V3.8c0-1.5-1.2-2.7-2.7-2.7H57.7c-1.5,0-2.7,1.2-2.7,2.7V24c-1,4.5-2.1,10.1-2.4,14.7
			c0,0.3,0.1,0.6,0.4,1c0.4,0.5,1.1,0.9,1.8,1c4.3,0.2,13.4,0.3,24.7,0.4v0c0.1,0,0.1,0,0.2,0s0.1,0,0.2,0v0
			c11.3,0,20.4-0.2,24.7-0.4c0.7,0,1.4-0.5,1.8-1c0.3-0.4,0.5-0.7,0.4-1C106.7,34.1,105.6,28.5,104.6,24z M56.7,3.8c0-0.5,0.4-1,1-1
			h44.2c0.5,0,1,0.4,1,1v13.6c-0.6-2.1-1.2-4.2-1.8-5.9c-1.1-3.3-1.3-3.6-1.5-3.7c-0.3-0.3,0.2-0.4-4.5-0.5c-4-0.1-9.5-0.1-15.3-0.1
			c-5.9,0-11.3-0.1-15.3,0.1c-4.9,0.2-4.2,0.2-4.5,0.5c-0.2,0.1-0.4,0.4-1.5,3.7c-0.6,1.7-1.2,3.8-1.8,5.9V3.8z M104.6,39.3
			c-4.5,0.2-13,0.3-24.8,0.4c-11.8,0-20.3-0.1-24.8-0.4c-0.3,0-0.7-0.4-0.9-0.6c0.2-3.6,1-8,1.9-12.2c0.2-1.1,0.5-2.2,0.8-3.3
			c1.7-6.9,3.6-13,4.2-14.3c1.6-0.2,7.2-0.3,18.7-0.3v0c0.1,0,0.1,0,0.2,0c0.1,0,0.1,0,0.2,0v0c11.4,0,17,0.1,18.7,0.3
			c0.6,1.3,2.5,7.3,4.2,14.3c0.3,1.1,0.5,2.2,0.8,3.3c0.9,4.2,1.7,8.6,1.9,12.2C105.4,38.9,104.9,39.3,104.6,39.3z"/>
	</g>
	<g>
		<g>
			<path class="st0" d="M213.7,6.4h8.7l3.1,16.5l4.6-16.5h8.6l4.6,16.5l3.1-16.5h8.6l-6.5,29.5h-8.9l-5.2-18.6l-5.1,18.6h-8.9
				L213.7,6.4z"/>
			<path class="st0" d="M276.9,23.8l8,2.4c-0.5,2.2-1.4,4.1-2.5,5.6c-1.1,1.5-2.6,2.6-4.3,3.4c-1.7,0.8-3.9,1.2-6.5,1.2
				c-3.2,0-5.8-0.5-7.8-1.4c-2-0.9-3.8-2.6-5.3-4.9c-1.5-2.3-2.2-5.3-2.2-9c0-4.9,1.3-8.6,3.9-11.2s6.3-3.9,11-3.9
				c3.7,0,6.6,0.8,8.7,2.3s3.7,3.8,4.7,6.9l-8,1.8c-0.3-0.9-0.6-1.6-0.9-2c-0.5-0.7-1.1-1.2-1.9-1.6c-0.7-0.4-1.6-0.6-2.5-0.6
				c-2.1,0-3.6,0.8-4.7,2.5c-0.8,1.2-1.2,3.2-1.2,5.8c0,3.3,0.5,5.5,1.5,6.7c1,1.2,2.4,1.8,4.2,1.8c1.7,0,3.1-0.5,3.9-1.5
				C275.8,27.1,276.5,25.7,276.9,23.8z"/>
		</g>
	</g>
	<g>
		<path class="st0" d="M194.4,42.3c-0.5-0.2-1-0.4-1.2-1c-0.4-0.9-0.1-1.8,0.9-2.4c1-0.6,1.9-1.3,2.6-2.3c1-1.5,1.2-3,0.5-4.7
			c0-0.1-0.1-0.1-0.1-0.2c-0.8,0.3-1.5,0.6-2.2,0.8c-1,0.3-2,0.3-2.9-0.3c-0.2-0.1-0.3-0.2-0.5-0.3c-0.2-0.2-0.4-0.2-0.7-0.1
			c-1.3,0.3-2.6,0.3-3.9-0.3c-0.9-0.4-1.6-1-2.2-1.8c-0.7-1-1.3-2.1-1.9-3.1c-1.1-1.8-2.1-3.6-3.2-5.5c-0.3-0.5-0.5-0.9-0.6-1.5
			c0-1,0.4-1.7,1.2-2.2c2.9-1.7,5.8-3.3,8.7-5c2.4-1.4,4.7-2.7,7.1-4.1c1.1-0.6,2.5-0.3,3.1,0.8c1,1.7,2,3.4,2.9,5.1
			c0.7,1.2,1.4,2.3,2,3.5c0.7,1.4,1,2.9,0.6,4.4c-0.3,0.9-0.8,1.6-1.4,2.3c-0.3,0.3-0.4,0.6-0.4,1c0.2,1.2-0.3,2.2-1.1,3
			c-0.5,0.5-1.1,0.9-1.7,1.3c-0.2,0.1-0.2,0.2-0.1,0.5c0.9,1.7,1.1,3.6,0.7,5.5c-0.5,2.1-1.7,3.8-3.4,5.1c-0.5,0.4-1,0.7-1.5,1
			c-0.3,0.2-0.6,0.3-0.8,0.4C194.8,42.3,194.6,42.3,194.4,42.3z M191.6,28.8c0.3-0.1,1-0.2,1.6-0.5c0.9-0.4,1.9-0.8,2.7-1.3
			c1.3-0.7,2.6-1.5,3.7-2.6c1-1.1,1.5-2.3,0.9-3.7c-0.6-1.3-1.3-2.5-2-3.7c-0.4-0.7-1.2-0.9-2-0.4c-1.1,0.7-2.3,1.3-3.4,2
			c-2,1.2-4,2.3-6,3.5c-0.7,0.4-0.9,1.2-0.6,1.9c0.1,0.3,0.3,0.5,0.4,0.7c0.6,1,1.2,2,1.8,2.9C189.4,28.4,190.2,28.8,191.6,28.8z"/>
		<path class="st0" d="M189.4,0c0.7,0.2,1.1,0.7,1.5,1.3c1.1,2,2.3,4,3.5,6.1c0,0.1,0.1,0.2,0.1,0.3c-0.5,0.3-0.9,0.5-1.4,0.8
			c-0.4,0.3-0.9,0.5-1.3,0.8c-0.2,0.1-0.3,0.1-0.4-0.1c-1.2-2.1-2.5-4.3-3.7-6.4c-0.6-1.1-0.2-2.2,1-2.7c0,0,0.1,0,0.1-0.1
			C189,0,189.2,0,189.4,0z"/>
		<path class="st0" d="M183.4,14.1c-1,0.6-2,1.1-3,1.7c-0.3-0.5-0.6-1.1-0.9-1.6c-1-1.7-1.9-3.3-2.9-5c-0.5-0.8-0.4-1.7,0.2-2.3
			c0.8-0.8,2.1-0.6,2.7,0.3c0.9,1.5,1.8,3.1,2.7,4.7C182.6,12.6,183,13.3,183.4,14.1z"/>
		<path class="st0" d="M190.3,27.2c-0.1-0.2-0.3-0.4-0.3-0.5c0-0.1,0.1-0.2,0.1-0.3c0.8-0.5,1.7-1,2.6-1.5c2-1.2,4-2.3,6.1-3.5
			c0.1,0,0.2-0.1,0.3-0.1c0.1,0.2,0.2,0.4,0.4,0.7C196.4,23.7,193.4,25.4,190.3,27.2z"/>
		<path class="st0" d="M197.2,18.1c0.4,0.6,0.4,0.7-0.2,1c-2.8,1.6-5.6,3.2-8.4,4.9c0,0-0.1,0-0.1,0.1c-0.1-0.2-0.2-0.4-0.4-0.7
			C191.1,21.6,194.2,19.8,197.2,18.1z"/>
		<path class="st0" d="M189.4,25.6C189.4,25.5,189.4,25.5,189.4,25.6c-0.4-0.6-0.5-0.6,0.1-1c1.4-0.8,2.7-1.6,4.1-2.4
			c1.5-0.9,3-1.7,4.5-2.6c0.1,0.2,0.2,0.4,0.4,0.7C195.5,22.1,192.5,23.8,189.4,25.6z"/>
	</g>
	<g>
		<path class="st0" d="M24.2,40.3c0.2,0.4,6.5-0.3,6.3-0.8c-0.3-0.8-2.1-5.9-2.8-5.9c-0.7,0-6.6,0.2-6.6,0.2
			C21.3,34.1,24,39.9,24.2,40.3z"/>
		<path class="st0" d="M21.1,32.1c0,0.4,3.3,9.1,4.3,9.1c1.1,0,7.3,0,7.6-1.2c0.3-1.1-3.2-7.3-2.9-8.1c-1.6,0.1-3.1,0.2-4.5,0.2
			 M32,39.2c0.2,0.5-6.1,1.2-6.3,0.8c-0.3-0.4-1.8-3.8-2-4.2c0,0,5.7-0.6,6.4-0.6C30.9,35.2,31.7,38.4,32,39.2z"/>
		<path class="st0" d="M14,30.4c-1.3-0.2-2.3-0.5-3.3-1.9C10.1,27.6,9.4,27,9.9,26c-1.6,2.3-9.5,11.3-9.8,11.8
			c-0.5,0.9,2.9,1.9,3.8,1.5c2.9-1.2,9.8-8.7,9.9-8.7"/>
		<path class="st0" d="M43.3,3.3c0,0-2.2-2.4-3.8-2.2c-0.7,0.1-1.2,0.2-1.8,0.6c-0.8,0.5-2.8,3.1-3.4,4.8c-0.6,1.8,0.2,2.5,0,3.8
			c-0.2,1.2-3.5,6.6-5.8,9c0,0,0,0,0,0c-0.7-0.3-3.2-1.7-6.5-1.7c-3.3-0.1-5,0.5-5.4,0.6c-0.4,0.2-0.4,0.4-0.4,0.7
			c0,0.4-0.1,1.2,0.5,1.1c0.6,0,4.7,0.6,5.3,0.7c0.5,0.1,2.6,1,3.9,2.2l-0.4,0.7c-4.3-1.1-13.2-1.8-14.8,0.6c0,0.1-0.3,0.6-0.3,0.7
			l0.2-0.4c0,0.1-0.8,1.7,0.5,3.6c1.3,1.8,14.2,5,19.2,2.9c0.7-0.6,1.7-1.4,2.7-3c2.8-4.6,5-7.8,7.9-13.9
			C42.7,9.7,45.1,5.6,43.3,3.3z"/>
	</g>
	<g>
		<g>
			<g>
				<path class="st0" d="M115.4,17.1v8.1c0,3.1,2.5,5.6,5.6,5.6h2.3V11.4H121C117.9,11.4,115.4,14,115.4,17.1L115.4,17.1z
					 M115.4,17.1"/>
				<path class="st0" d="M145.1,0.6c-0.8-0.5-1.8-0.4-2.6,0l-16.2,9.8v21.7l16.2,9.5c0.2,0.1,0.4,0.2,0.6,0.3
					c0.2,0.1,0.4,0.1,0.7,0.1c0.4,0,0.9-0.1,1.3-0.3c0.8-0.5,1.3-1.3,1.3-2.2V2.8C146.4,1.9,145.9,1.1,145.1,0.6L145.1,0.6z
					 M145.1,0.6"/>
			</g>
			<path class="st0" d="M151.2,27.5c-0.9,0-1.5,0.7-1.5,1.5c0,0.9,0.7,1.5,1.5,1.5c5.2,0,9.4-4.2,9.4-9.4c0-5.2-4.2-9.4-9.4-9.4
				c-0.9,0-1.5,0.7-1.5,1.5c0,0.8,0.7,1.5,1.5,1.5c3.5,0,6.4,2.9,6.4,6.4C157.6,24.6,154.7,27.5,151.2,27.5L151.2,27.5z M151.2,27.5
				"/>
			<path class="st0" d="M151.2,4.5c-0.9,0-1.5,0.7-1.5,1.5c0,0.8,0.7,1.5,1.5,1.5c7.5,0,13.6,6.1,13.6,13.6s-6.1,13.6-13.6,13.6
				c-0.9,0-1.5,0.7-1.5,1.5c0,0.9,0.7,1.5,1.5,1.5c9.2,0,16.7-7.5,16.7-16.7S160.4,4.5,151.2,4.5L151.2,4.5z M151.2,4.5"/>
		</g>
	</g>
</g>
</svg>
