<?xml version="1.0" encoding="utf-8"?>
<!-- Generator: Adobe Illustrator 25.0.1, SVG Export Plug-In . SVG Version: 6.00 Build 0)  -->
<svg version="1.1" id="Capa_1" xmlns="http://www.w3.org/2000/svg" xmlns:xlink="http://www.w3.org/1999/xlink" x="0px" y="0px"
	 viewBox="0 0 247.3 47.4" style="enable-background:new 0 0 247.3 47.4;" xml:space="preserve">
<style type="text/css">
	.st0{fill:#002D5D;}
	.st1{font-family:'Futura-Medium';}
	.st2{font-size:3.6px;}
	.st3{fill:none;}
</style>
<g>
	<g>
		<text transform="matrix(1.0667 0 0 1 150.8638 33.1511)" class="st0 st1 st2">HOMBRE</text>
		<g>
			<g>
				<path class="st0" d="M147.8,14h2.8l1,5.3l1.5-5.3h2.8l1.5,5.3l1-5.3h2.8l-2.1,9.4h-2.9l-1.7-5.9l-1.6,5.9h-2.9L147.8,14z"/>
				<path class="st0" d="M168,19.5l2.6,0.8c-0.2,0.7-0.4,1.3-0.8,1.8c-0.4,0.5-0.8,0.8-1.4,1.1c-0.5,0.2-1.2,0.4-2.1,0.4
					c-1,0-1.9-0.2-2.5-0.4c-0.7-0.3-1.2-0.8-1.7-1.6c-0.5-0.7-0.7-1.7-0.7-2.9c0-1.6,0.4-2.8,1.2-3.6s2-1.3,3.5-1.3
					c1.2,0,2.1,0.2,2.8,0.7c0.7,0.5,1.2,1.2,1.5,2.2l-2.6,0.6c-0.1-0.3-0.2-0.5-0.3-0.6c-0.2-0.2-0.4-0.4-0.6-0.5
					c-0.2-0.1-0.5-0.2-0.8-0.2c-0.7,0-1.2,0.3-1.5,0.8c-0.3,0.4-0.4,1-0.4,1.9c0,1,0.2,1.8,0.5,2.1c0.3,0.4,0.8,0.6,1.3,0.6
					c0.6,0,1-0.2,1.3-0.5C167.7,20.6,167.9,20.1,168,19.5z"/>
			</g>
		</g>
	</g>
	<g>
		<text transform="matrix(1.0667 0 0 1 184.8981 33.1511)" class="st0 st1 st2">MUJER</text>
		<g>
			<g>
				<path class="st0" d="M179.8,14h2.8l1,5.3L185,14h2.8l1.5,5.3l1-5.3h2.8l-2.1,9.4h-2.9l-1.7-5.9l-1.6,5.9h-2.9L179.8,14z"/>
				<path class="st0" d="M200,19.5l2.6,0.8c-0.2,0.7-0.4,1.3-0.8,1.8c-0.4,0.5-0.8,0.8-1.4,1.1s-1.2,0.4-2.1,0.4
					c-1,0-1.9-0.2-2.5-0.4c-0.7-0.3-1.2-0.8-1.7-1.6c-0.5-0.7-0.7-1.7-0.7-2.9c0-1.6,0.4-2.8,1.2-3.6s2-1.3,3.5-1.3
					c1.2,0,2.1,0.2,2.8,0.7c0.7,0.5,1.2,1.2,1.5,2.2l-2.6,0.6c-0.1-0.3-0.2-0.5-0.3-0.6c-0.2-0.2-0.4-0.4-0.6-0.5
					c-0.2-0.1-0.5-0.2-0.8-0.2c-0.7,0-1.2,0.3-1.5,0.8c-0.3,0.4-0.4,1-0.4,1.9c0,1,0.2,1.8,0.5,2.1c0.3,0.4,0.8,0.6,1.3,0.6
					c0.6,0,1-0.2,1.3-0.5C199.7,20.6,199.9,20.1,200,19.5z"/>
			</g>
		</g>
	</g>
	<g>
		<rect x="119.2" y="30" class="st3" width="19.4" height="9.1"/>
		<text transform="matrix(1 0 0 1 119.3509 32.9505)"><tspan x="0" y="0" class="st0 st1 st2">Conexiones</tspan><tspan x="2" y="4.3" class="st0 st1 st2">eléctricas</tspan></text>
		<g>
			<path class="st0" d="M130.4,26.8c-0.2-0.1-0.4-0.2-0.5-0.4c-0.1-0.4,0-0.7,0.3-0.9c0.4-0.2,0.7-0.5,1-0.9
				c0.4-0.6,0.4-1.2,0.2-1.8c0,0,0-0.1,0-0.1c-0.3,0.1-0.6,0.2-0.9,0.3c-0.4,0.1-0.8,0.1-1.1-0.1c-0.1,0-0.1-0.1-0.2-0.1
				c-0.1-0.1-0.2-0.1-0.3-0.1c-0.5,0.1-1,0.1-1.5-0.1c-0.3-0.2-0.6-0.4-0.8-0.7c-0.3-0.4-0.5-0.8-0.7-1.2c-0.4-0.7-0.8-1.4-1.2-2.1
				c-0.1-0.2-0.2-0.4-0.2-0.6c0-0.4,0.2-0.6,0.5-0.8c1.1-0.6,2.2-1.3,3.3-1.9c0.9-0.5,1.8-1.1,2.7-1.6c0.4-0.2,0.9-0.1,1.2,0.3
				c0.4,0.6,0.8,1.3,1.1,1.9c0.3,0.4,0.5,0.9,0.8,1.3c0.3,0.5,0.4,1.1,0.2,1.7c-0.1,0.3-0.3,0.6-0.5,0.9c-0.1,0.1-0.2,0.2-0.1,0.4
				c0.1,0.5-0.1,0.8-0.4,1.1c-0.2,0.2-0.4,0.4-0.6,0.5c-0.1,0.1-0.1,0.1,0,0.2c0.3,0.7,0.4,1.4,0.3,2.1c-0.2,0.8-0.7,1.5-1.3,2
				c-0.2,0.1-0.4,0.3-0.6,0.4c-0.1,0.1-0.2,0.1-0.3,0.2C130.5,26.8,130.4,26.8,130.4,26.8z M129.3,21.6c0.1,0,0.4-0.1,0.6-0.2
				c0.4-0.1,0.7-0.3,1.1-0.5c0.5-0.3,1-0.6,1.4-1c0.4-0.4,0.6-0.9,0.3-1.4c-0.2-0.5-0.5-1-0.8-1.4c-0.2-0.3-0.5-0.3-0.8-0.2
				c-0.4,0.3-0.9,0.5-1.3,0.8c-0.8,0.4-1.5,0.9-2.3,1.3c-0.3,0.2-0.4,0.4-0.2,0.7c0,0.1,0.1,0.2,0.2,0.3c0.2,0.4,0.4,0.8,0.7,1.1
				C128.4,21.5,128.8,21.6,129.3,21.6z"/>
			<path class="st0" d="M128.5,10.6c0.3,0.1,0.4,0.3,0.6,0.5c0.4,0.8,0.9,1.5,1.3,2.3c0,0,0,0.1,0.1,0.1c-0.2,0.1-0.3,0.2-0.5,0.3
				c-0.2,0.1-0.3,0.2-0.5,0.3c-0.1,0-0.1,0-0.2,0c-0.5-0.8-1-1.6-1.4-2.5c-0.2-0.4-0.1-0.9,0.4-1c0,0,0,0,0,0
				C128.3,10.6,128.4,10.6,128.5,10.6z"/>
			<path class="st0" d="M126.2,16c-0.4,0.2-0.8,0.4-1.1,0.7c-0.1-0.2-0.2-0.4-0.4-0.6c-0.4-0.6-0.7-1.3-1.1-1.9
				c-0.2-0.3-0.2-0.6,0.1-0.9c0.3-0.3,0.8-0.2,1,0.1c0.3,0.6,0.7,1.2,1,1.8C125.8,15.4,126,15.7,126.2,16z"/>
			<path class="st0" d="M128.8,21c0-0.1-0.1-0.1-0.1-0.2c0,0,0-0.1,0.1-0.1c0.3-0.2,0.7-0.4,1-0.6c0.8-0.4,1.5-0.9,2.3-1.3
				c0,0,0.1,0,0.1-0.1c0,0.1,0.1,0.2,0.1,0.3C131.1,19.6,130,20.3,128.8,21z"/>
			<path class="st0" d="M131.4,17.5c0.2,0.2,0.2,0.3-0.1,0.4c-1.1,0.6-2.1,1.2-3.2,1.9c0,0,0,0-0.1,0c0-0.1-0.1-0.2-0.1-0.3
				C129.1,18.8,130.3,18.2,131.4,17.5z"/>
			<path class="st0" d="M128.5,20.4C128.4,20.4,128.4,20.4,128.5,20.4c-0.2-0.2-0.2-0.2,0-0.4c0.5-0.3,1-0.6,1.6-0.9
				c0.6-0.3,1.1-0.7,1.7-1c0,0.1,0.1,0.2,0.1,0.3C130.8,19,129.6,19.7,128.5,20.4z"/>
		</g>
	</g>
	<g>
		<rect x="64.4" y="30" class="st3" width="21" height="9.1"/>
		<text transform="matrix(1 0 0 1 68.1164 32.95)"><tspan x="0" y="0" class="st0 st1 st2">Asientos </tspan><tspan x="-3.2" y="4.3" class="st0 st1 st2">confortables</tspan></text>
		<g>
			<path class="st3" d="M75.9,27.2c0.1,0.2,2.9-0.1,2.8-0.4c-0.1-0.4-0.9-2.6-1.2-2.6c-0.3,0-2.9,0.1-2.9,0.1
				C74.6,24.4,75.8,27,75.9,27.2z"/>
			<path class="st0" d="M74.5,23.5c0,0.2,1.4,4,1.9,4c0.5,0,3.2,0,3.4-0.5c0.1-0.5-1.4-3.3-1.3-3.6c-0.7,0.1-1.4,0.1-2,0.1
				 M79.4,26.7c0.1,0.2-2.7,0.5-2.8,0.3c-0.1-0.2-0.8-1.7-0.9-1.8c0,0,2.5-0.3,2.9-0.3C78.9,24.9,79.2,26.3,79.4,26.7z"/>
			<path class="st0" d="M71.4,22.8c-0.6-0.1-1-0.2-1.5-0.8c-0.3-0.4-0.5-0.6-0.3-1.1c-0.7,1-4.2,5-4.4,5.2c-0.2,0.4,1.3,0.8,1.7,0.7
				c1.3-0.5,4.3-3.9,4.4-3.9"/>
			<path class="st0" d="M84.4,10.8c0,0-1-1.1-1.7-1c-0.3,0-0.5,0.1-0.8,0.3c-0.3,0.2-1.3,1.4-1.5,2.1c-0.3,0.8,0.1,1.1,0,1.7
				c-0.1,0.6-1.6,2.9-2.6,4c0,0,0,0,0,0c-0.3-0.1-1.4-0.7-2.9-0.8c-1.5,0-2.2,0.2-2.4,0.3c-0.2,0.1-0.2,0.2-0.2,0.3
				c0,0.2-0.1,0.5,0.2,0.5c0.3,0,2.1,0.2,2.3,0.3c0.2,0.1,1.1,0.4,1.7,1l-0.2,0.3c-1.9-0.5-5.9-0.8-6.6,0.3c0,0-0.1,0.3-0.1,0.3
				l0.1-0.2c0,0-0.4,0.8,0.2,1.6c0.6,0.8,6.3,2.2,8.5,1.3c0.3-0.2,0.7-0.6,1.2-1.3c1.2-2,2.2-3.5,3.5-6.2
				C84.1,13.6,85.2,11.8,84.4,10.8z"/>
		</g>
	</g>
	<g>
		<g>
			<rect x="33.9" y="30" class="st3" width="21.1" height="9.1"/>
			<text transform="matrix(1 0 0 1 37.1173 32.95)"><tspan x="0" y="0" class="st0 st1 st2">Pantallas</tspan><tspan x="-2.3" y="4.3" class="st0 st1 st2">individuales</tspan></text>
		</g>
		<g>
			<path class="st0" d="M37.4,15.2l-1.6,8.5H53l-1.6-8.5H37.4z M43.7,22h-1.3v-2.2h-2.1V22h-1.3v-5.2h1.3v2h2.1v-2h1.3V22z
				 M48.9,21.4c-0.6,0.5-1.5,0.7-2.6,0.7c-0.7,0-1.1,0-1.4-0.1v-5.1c0.5-0.1,1.1-0.1,1.7-0.1c1.1,0,1.8,0.2,2.3,0.6
				c0.6,0.4,1,1,1,1.9C49.8,20.3,49.4,21,48.9,21.4z"/>
			<path class="st0" d="M46.7,17.7c-0.3,0-0.5,0-0.6,0v3.4c0.1,0,0.3,0,0.4,0c1.2,0,1.9-0.6,1.9-1.8C48.5,18.3,47.8,17.7,46.7,17.7z
				"/>
			<path class="st0" d="M54.2,19.8v-8c0-0.6-0.5-1.1-1.1-1.1H35.7c-0.6,0-1.1,0.5-1.1,1.1v8c-0.4,1.8-0.8,4-1,5.8
				c0,0.1,0.1,0.3,0.2,0.4c0.2,0.2,0.4,0.4,0.7,0.4c1.7,0.1,5.3,0.1,9.8,0.1v0c0,0,0,0,0.1,0s0,0,0.1,0v0c4.5,0,8.1-0.1,9.8-0.1
				c0.3,0,0.6-0.2,0.7-0.4c0.1-0.1,0.2-0.3,0.2-0.4C55.1,23.8,54.6,21.6,54.2,19.8z M35.3,11.8c0-0.2,0.2-0.4,0.4-0.4h17.5
				c0.2,0,0.4,0.2,0.4,0.4v5.4c-0.2-0.8-0.5-1.7-0.7-2.4c-0.4-1.3-0.5-1.4-0.6-1.5c-0.1-0.1,0.1-0.1-1.8-0.2c-1.6,0-3.7,0-6.1,0
				c-2.3,0-4.5,0-6.1,0c-1.9,0.1-1.7,0.1-1.8,0.2c-0.1,0.1-0.2,0.1-0.6,1.5c-0.2,0.7-0.5,1.5-0.7,2.4V11.8z M54.3,25.9
				C52.5,26,49.1,26,44.4,26c-4.7,0-8.1-0.1-9.8-0.1c-0.1,0-0.3-0.1-0.4-0.2c0.1-1.4,0.4-3.2,0.7-4.8c0.1-0.4,0.2-0.9,0.3-1.3
				c0.7-2.8,1.4-5.1,1.7-5.7c0.7-0.1,2.9-0.1,7.4-0.1v0c0,0,0,0,0.1,0c0,0,0,0,0.1,0v0c4.5,0,6.7,0,7.4,0.1c0.2,0.5,1,2.9,1.7,5.7
				c0.1,0.4,0.2,0.9,0.3,1.3c0.4,1.7,0.7,3.4,0.7,4.8C54.6,25.7,54.4,25.9,54.3,25.9z"/>
		</g>
	</g>
	<g>
		<g>
			<text transform="matrix(1 0 0 1 97.6891 33.1511)"><tspan x="0" y="0" class="st0 st1 st2">Audio</tspan><tspan x="-3" y="4.3" class="st0 st1 st2">individual</tspan></text>
		</g>
		<g>
			<g>
				<g>
					<path class="st0" d="M94.6,17.4v2.5c0,0.9,0.8,1.7,1.7,1.7H97v-5.9h-0.7C95.4,15.7,94.6,16.5,94.6,17.4L94.6,17.4z M94.6,17.4"
						/>
					<path class="st0" d="M103.7,12.4c-0.2-0.1-0.5-0.1-0.8,0l-4.9,3V22l4.9,2.9c0.1,0,0.1,0.1,0.2,0.1c0.1,0,0.1,0,0.2,0
						c0.1,0,0.3,0,0.4-0.1c0.2-0.1,0.4-0.4,0.4-0.7V13.1C104.1,12.8,103.9,12.6,103.7,12.4L103.7,12.4z M103.7,12.4"/>
				</g>
				<path class="st0" d="M105.5,20.6c-0.3,0-0.5,0.2-0.5,0.5c0,0.3,0.2,0.5,0.5,0.5c1.6,0,2.9-1.3,2.9-2.9s-1.3-2.9-2.9-2.9
					c-0.3,0-0.5,0.2-0.5,0.5c0,0.3,0.2,0.5,0.5,0.5c1.1,0,1.9,0.9,1.9,1.9S106.6,20.6,105.5,20.6L105.5,20.6z M105.5,20.6"/>
				<path class="st0" d="M105.5,13.6c-0.3,0-0.5,0.2-0.5,0.5c0,0.3,0.2,0.5,0.5,0.5c2.3,0,4.1,1.9,4.1,4.1s-1.9,4.1-4.1,4.1
					c-0.3,0-0.5,0.2-0.5,0.5c0,0.3,0.2,0.5,0.5,0.5c2.8,0,5.1-2.3,5.1-5.1S108.3,13.6,105.5,13.6L105.5,13.6z M105.5,13.6"/>
			</g>
		</g>
	</g>
</g>
</svg>
