<svg enable-background="new 0 0 175.3 22" viewBox="0 0 175.3 22" xmlns="http://www.w3.org/2000/svg"><g fill="#003565"><path d="m14.5 5.4h4l.4 3.9c.1.6.2 1.4.1 2.5l2.5-6.4h4l-4.8 12.3h-4l-.6-6.4c-.2.9-.6 1.8-1 2.9l-1.3 3.5h-4z"/><path d="m25.2 16.6c-.8-1-1.1-2.6-.7-4.3.4-1.8 1.3-3.5 2.6-4.8 1.5-1.5 3.4-2.4 5.4-2.4 3.3 0 5 2.4 4.3 5.8-.4 1.8-1.3 3.5-2.6 4.8-1.5 1.6-3.4 2.4-5.4 2.4-1.6 0-2.8-.5-3.6-1.5zm3.4-4.8c-.3 1.3.2 2.2 1.3 2.2 1.2 0 2.4-1.2 2.8-2.7.3-1.2-.3-2.1-1.4-2.1-1.2 0-2.4 1.1-2.7 2.6z"/><path d="m40.6 5.4h4.2c3.2 0 4.5 1.3 4 3.7-.5 2.1-1.8 3.5-3.6 3.9l.5 4.7h-4.1l-.2-4.5-1.7 4.5h-4zm2.1 5.5c1.2 0 1.9-.4 2.1-1.4.2-.7-.2-1-1.2-1-.1 0-.2 0-.2 0l-.9 2.4z"/><path d="m52 5.4h7.5l-1.3 3.3h-3.6l-.5 1.2h3.4l-1.1 3.1h-3.4l-.5 1.3h3.9l-1.3 3.4h-7.9z"/><path d="m59.2 12.5c.6 1.2 1.5 1.9 2.5 1.9.5 0 .8-.2.8-.5.1-.4-.3-.5-1-.9-1.6-.8-2.3-1.9-1.9-3.6.6-2.5 2.7-4.4 5.5-4.4 1.6 0 2.8.5 3.6 1.6l-2.2 3c-.7-.9-1.3-1.3-1.9-1.3-.4 0-.7.2-.7.5-.1.6.4.8 1.1 1.2 1.4.8 2 1.7 1.6 3.5-.5 2.5-2.9 4.5-5.7 4.5-1.7 0-3.2-.8-4.4-2.2z"/><path d="m70.6 9.1h-2.4l1.5-3.7h8.6l-1.4 3.7h-2.3l-3.3 8.6h-4z"/><path d="m79.6 5.4h7.5l-1.3 3.3h-3.6l-.5 1.2h3.4l-1.1 3.1h-3.4l-.5 1.3h3.9l-1.3 3.4h-7.9z"/></g></svg>