<?xml version="1.0" encoding="utf-8"?>
<!-- Generator: Adobe Illustrator 24.2.3, SVG Export Plug-In . SVG Version: 6.00 Build 0)  -->
<svg version="1.1" id="Capa_1" xmlns="http://www.w3.org/2000/svg" xmlns:xlink="http://www.w3.org/1999/xlink" x="0px" y="0px"
	 viewBox="0 0 175.3 22" style="enable-background:new 0 0 175.3 22;" xml:space="preserve">
<style type="text/css">
	.st0{fill:#003565;}
	.st1{fill:#E63137;}
	.st2{fill:#004A92;}
	.st3{fill:#0C92D1;}
	.st4{fill:#88C1EA;}
	.st5{fill:#BCDAF4;}
</style>
<g>
	<g>
		<path class="st0" d="M20.7,16.6c0.1,0,0.2,0,0.2,0c0,0,0,0,0.1,0c0,0,0,0,0-0.1h0.1l0,0.6H21c0-0.1-0.1-0.2-0.1-0.3
			c-0.1-0.1-0.2-0.2-0.4-0.2c-0.2,0-0.3,0.1-0.4,0.2c-0.1,0.1-0.2,0.3-0.2,0.6c0,0.2,0.1,0.4,0.2,0.5c0.1,0.1,0.3,0.2,0.5,0.2
			c0.1,0,0.3,0,0.4-0.1c0.1,0,0.1-0.1,0.2-0.2l0,0c-0.1,0.1-0.1,0.1-0.2,0.2c-0.1,0.1-0.3,0.1-0.5,0.1c-0.3,0-0.5-0.1-0.7-0.3
			c-0.1-0.2-0.2-0.4-0.2-0.6c0-0.2,0.1-0.5,0.2-0.6c0.2-0.2,0.4-0.3,0.6-0.3C20.5,16.5,20.6,16.5,20.7,16.6"/>
		<path class="st0" d="M21.8,17.2c0.1,0,0.2,0.1,0.3,0.2c0.1,0.1,0.1,0.3,0.1,0.4c0,0.1,0,0.2-0.1,0.3c-0.1,0.1-0.1,0.1-0.2,0.1
			c-0.1,0-0.2-0.1-0.3-0.2c-0.1-0.1-0.1-0.3-0.1-0.4c0-0.2,0-0.3,0.1-0.4C21.7,17.2,21.7,17.2,21.8,17.2 M21.3,17.7
			c0,0.2,0.1,0.3,0.2,0.4c0.1,0.1,0.2,0.2,0.4,0.2c0.2,0,0.3-0.1,0.4-0.2c0.1-0.1,0.2-0.3,0.2-0.4c0-0.2-0.1-0.3-0.2-0.4
			c-0.1-0.1-0.2-0.2-0.4-0.2c-0.2,0-0.3,0.1-0.4,0.2C21.3,17.4,21.3,17.5,21.3,17.7"/>
		<path class="st0" d="M22.5,18.2c0.1,0,0.1,0,0.1,0c0,0,0-0.1,0-0.1v-0.6c0-0.1,0-0.1,0-0.1c0,0,0,0-0.1,0c0,0,0,0,0,0c0,0,0,0,0,0
			v0c0,0,0.1,0,0.2-0.1l0.1,0c0,0,0,0,0,0c0,0,0,0,0,0v0.2c0.1-0.1,0.1-0.1,0.2-0.1c0.1,0,0.1-0.1,0.2-0.1c0.1,0,0.1,0,0.2,0
			c0.1,0.1,0.1,0.2,0.1,0.3V18c0,0.1,0,0.1,0,0.1c0,0,0.1,0,0.1,0v0h-0.5v0c0.1,0,0.1,0,0.1,0c0,0,0-0.1,0-0.2v-0.5
			c0-0.1,0-0.1,0-0.2c0,0-0.1-0.1-0.1-0.1c0,0-0.1,0-0.1,0.1c0,0-0.1,0-0.1,0.1v0.7c0,0.1,0,0.1,0,0.1c0,0,0.1,0,0.1,0v0L22.5,18.2
			L22.5,18.2z"/>
		<path class="st0" d="M23.8,18.2c0.1,0,0.1,0,0.2,0c0,0,0-0.1,0-0.2v-0.8h-0.2v-0.1H24c0-0.1,0-0.2,0.1-0.3
			c0.1-0.2,0.2-0.3,0.4-0.3c0.1,0,0.1,0,0.2,0c0.1,0,0.1,0.1,0.1,0.1c0,0,0,0.1,0,0.1c0,0,0,0-0.1,0c0,0,0,0-0.1,0c0,0,0,0-0.1-0.1
			l0,0c0,0,0,0,0,0c0,0,0,0-0.1,0c-0.1,0-0.1,0-0.1,0.1c0,0,0,0.1,0,0.1v0.3h0.3v0.1h-0.3V18c0,0.1,0,0.2,0,0.2c0,0,0.1,0,0.2,0v0
			L23.8,18.2L23.8,18.2z"/>
		<path class="st0" d="M24.9,16.6C24.9,16.5,24.9,16.5,24.9,16.6c0.1,0,0.2,0,0.2,0c0,0,0,0.1,0,0.1c0,0,0,0.1,0,0.1
			c0,0-0.1,0-0.1,0c0,0-0.1,0-0.1,0C24.8,16.7,24.8,16.7,24.9,16.6C24.8,16.6,24.8,16.6,24.9,16.6 M24.7,18.2c0.1,0,0.1,0,0.2,0
			c0,0,0-0.1,0-0.2v-0.6c0-0.1,0-0.1,0-0.1c0,0,0-0.1-0.1-0.1c0,0,0,0,0,0c0,0,0,0-0.1,0v0l0.1,0c0.1,0,0.2-0.1,0.3-0.1c0,0,0,0,0,0
			c0,0,0,0,0,0V18c0,0.1,0,0.2,0,0.2c0,0,0.1,0,0.2,0v0L24.7,18.2L24.7,18.2z"/>
		<path class="st0" d="M26.1,18c0,0,0,0.1-0.1,0.1c-0.1,0-0.1,0-0.2,0c0,0-0.1,0-0.1,0c-0.1,0-0.1-0.1-0.1-0.2
			c0-0.1,0.1-0.2,0.2-0.3c0.1,0,0.1-0.1,0.2-0.1V18z M25.4,18c0,0.1,0,0.1,0.1,0.2c0.1,0.1,0.1,0.1,0.2,0.1c0.1,0,0.1,0,0.2-0.1
			c0,0,0.1-0.1,0.2-0.1c0,0,0,0.1,0,0.1c0,0,0.1,0.1,0.1,0.1c0,0,0.1,0,0.1,0c0,0,0.1,0,0.1-0.1v-0.1c0,0-0.1,0-0.1,0c0,0,0,0,0,0
			c0,0-0.1,0-0.1,0c0,0,0-0.1,0-0.1v-0.5c0-0.1,0-0.2,0-0.2c-0.1-0.1-0.2-0.2-0.3-0.2c-0.1,0-0.2,0-0.3,0.1
			c-0.1,0.1-0.1,0.1-0.1,0.2c0,0,0,0.1,0,0.1c0,0,0,0,0.1,0c0,0,0,0,0.1,0c0,0,0-0.1,0-0.1c0,0,0,0,0,0c0,0,0,0,0-0.1
			c0,0,0-0.1,0.1-0.1c0,0,0.1,0,0.1,0c0.1,0,0.1,0,0.2,0.1c0,0,0,0.1,0,0.2v0.1c-0.2,0.1-0.4,0.2-0.5,0.2
			C25.5,17.8,25.4,17.9,25.4,18"/>
		<path class="st0" d="M26.5,18.2c0.1,0,0.1,0,0.1,0c0,0,0-0.1,0-0.1v-0.6c0-0.1,0-0.1,0-0.1c0,0,0,0-0.1,0c0,0,0,0,0,0c0,0,0,0,0,0
			v0c0,0,0.1,0,0.2-0.1l0.1,0c0,0,0,0,0,0c0,0,0,0,0,0v0.2c0.1-0.1,0.1-0.1,0.2-0.1c0.1,0,0.1-0.1,0.2-0.1c0.1,0,0.1,0,0.2,0
			c0.1,0.1,0.1,0.2,0.1,0.3V18c0,0.1,0,0.1,0,0.1c0,0,0.1,0,0.1,0v0h-0.5v0c0.1,0,0.1,0,0.1,0c0,0,0-0.1,0-0.2v-0.5
			c0-0.1,0-0.1,0-0.2c0,0-0.1-0.1-0.1-0.1c0,0-0.1,0-0.1,0.1c0,0-0.1,0-0.1,0.1v0.7c0,0.1,0,0.1,0,0.1c0,0,0.1,0,0.1,0v0L26.5,18.2
			L26.5,18.2z"/>
		<path class="st0" d="M28.8,17.1L28.8,17.1l-0.7,1.1h0.4c0.1,0,0.2,0,0.2,0c0,0,0.1-0.1,0.1-0.2l0,0l0,0.3h-1v0l0.7-1h-0.3
			c-0.1,0-0.2,0-0.2,0c0,0,0,0.1-0.1,0.2h0l0-0.3H28.8z"/>
		<path class="st0" d="M29.6,18c0,0,0,0.1-0.1,0.1c-0.1,0-0.1,0-0.2,0c0,0-0.1,0-0.1,0c-0.1,0-0.1-0.1-0.1-0.2
			c0-0.1,0.1-0.2,0.2-0.3c0.1,0,0.1-0.1,0.2-0.1V18z M29,18c0,0.1,0,0.1,0.1,0.2c0.1,0.1,0.1,0.1,0.2,0.1c0.1,0,0.1,0,0.2-0.1
			c0,0,0.1-0.1,0.2-0.1c0,0,0,0.1,0,0.1c0,0,0.1,0.1,0.1,0.1c0,0,0.1,0,0.1,0c0,0,0.1,0,0.1-0.1v-0.1c0,0-0.1,0-0.1,0c0,0,0,0,0,0
			c0,0-0.1,0-0.1,0c0,0,0-0.1,0-0.1v-0.5c0-0.1,0-0.2,0-0.2c-0.1-0.1-0.2-0.2-0.3-0.2c-0.1,0-0.2,0-0.3,0.1
			c-0.1,0.1-0.1,0.1-0.1,0.2c0,0,0,0.1,0,0.1c0,0,0.1,0,0.1,0c0,0,0,0,0.1,0c0,0,0-0.1,0-0.1c0,0,0,0,0,0c0,0,0,0,0-0.1
			c0,0,0-0.1,0.1-0.1c0,0,0.1,0,0.1,0c0.1,0,0.1,0,0.2,0.1c0,0,0,0.1,0,0.2v0.1c-0.2,0.1-0.4,0.2-0.5,0.2C29,17.8,29,17.9,29,18"/>
		<path class="st0" d="M31.2,17.2c0.1,0,0.2,0,0.2,0.1c0,0,0,0.1,0,0.2h-0.5c0-0.1,0-0.1,0.1-0.2C31,17.2,31.1,17.2,31.2,17.2
			 M31.2,17.1c-0.2,0-0.3,0.1-0.4,0.2c-0.1,0.1-0.1,0.3-0.1,0.4c0,0.2,0,0.3,0.1,0.4c0.1,0.1,0.2,0.2,0.4,0.2c0.1,0,0.3,0,0.3-0.1
			c0.1-0.1,0.2-0.2,0.2-0.3l0,0c-0.1,0.1-0.1,0.1-0.2,0.2c-0.1,0-0.1,0.1-0.2,0.1c-0.1,0-0.2,0-0.3-0.1c-0.1-0.1-0.1-0.2-0.1-0.4
			h0.8c0-0.1,0-0.3-0.1-0.3C31.5,17.1,31.4,17.1,31.2,17.1"/>
		<path class="st0" d="M31.8,18.2c0.1,0,0.1,0,0.1,0c0,0,0-0.1,0-0.1v-0.6c0-0.1,0-0.1,0-0.1c0,0,0,0-0.1,0c0,0,0,0,0,0c0,0,0,0,0,0
			v0c0,0,0.1,0,0.2-0.1l0.1,0c0,0,0,0,0,0c0,0,0,0,0,0v0.2c0.1-0.1,0.1-0.1,0.2-0.1c0.1,0,0.1-0.1,0.2-0.1c0.1,0,0.1,0,0.2,0
			c0.1,0.1,0.1,0.2,0.1,0.3V18c0,0.1,0,0.1,0,0.1c0,0,0.1,0,0.1,0v0h-0.5v0c0.1,0,0.1,0,0.1,0c0,0,0-0.1,0-0.2v-0.5
			c0-0.1,0-0.1,0-0.2c0,0-0.1-0.1-0.1-0.1c0,0-0.1,0-0.1,0.1c0,0-0.1,0-0.1,0.1v0.7c0,0.1,0,0.1,0,0.1c0,0,0.1,0,0.1,0v0L31.8,18.2
			L31.8,18.2z"/>
		<path class="st0" d="M34.2,17.2c0.1,0,0.2,0,0.2,0.1c0,0,0,0.1,0,0.2H34c0-0.1,0-0.1,0.1-0.2C34.1,17.2,34.1,17.2,34.2,17.2
			 M34.3,17.1c-0.2,0-0.3,0.1-0.4,0.2c-0.1,0.1-0.1,0.3-0.1,0.4c0,0.2,0,0.3,0.1,0.4c0.1,0.1,0.2,0.2,0.4,0.2c0.1,0,0.2,0,0.3-0.1
			c0.1-0.1,0.2-0.2,0.2-0.3l0,0c-0.1,0.1-0.1,0.1-0.2,0.2c-0.1,0-0.1,0.1-0.2,0.1c-0.1,0-0.2,0-0.3-0.1C34,17.9,34,17.7,34,17.5h0.8
			c0-0.1,0-0.3-0.1-0.3C34.5,17.1,34.4,17.1,34.3,17.1"/>
		<path class="st0" d="M34.9,18.2c0.1,0,0.1,0,0.2,0c0,0,0-0.1,0-0.1v-1.2c0-0.1,0-0.1,0-0.1c0,0-0.1-0.1-0.1-0.1c0,0,0,0,0,0
			c0,0,0,0-0.1,0v0c0.1,0,0.2-0.1,0.4-0.1c0,0,0,0,0,0c0,0,0,0,0,0V18c0,0.1,0,0.1,0,0.1c0,0,0.1,0,0.2,0v0L34.9,18.2L34.9,18.2z"/>
		<path class="st0" d="M37.1,17.2c0.1,0.1,0.1,0.1,0.1,0.2c0,0,0,0.1,0,0.1c0,0,0,0-0.1,0c0,0-0.1,0-0.1,0c0,0,0,0,0-0.1l0-0.1
			c0,0,0-0.1-0.1-0.1c0,0-0.1,0-0.1,0c-0.1,0-0.2,0-0.2,0.1c-0.1,0.1-0.1,0.2-0.1,0.3c0,0.1,0,0.2,0.1,0.3c0.1,0.1,0.2,0.1,0.3,0.1
			c0.1,0,0.2,0,0.2-0.1c0,0,0.1-0.1,0.1-0.2l0,0c0,0.1-0.1,0.2-0.1,0.2c-0.1,0.1-0.2,0.2-0.3,0.2c-0.1,0-0.2-0.1-0.3-0.2
			c-0.1-0.1-0.1-0.2-0.1-0.4c0-0.2,0.1-0.3,0.2-0.4c0.1-0.1,0.2-0.2,0.4-0.2C36.9,17.1,37,17.1,37.1,17.2"/>
		<path class="st0" d="M38.1,18c0,0,0,0.1-0.1,0.1c-0.1,0-0.1,0-0.2,0c0,0-0.1,0-0.1,0c0,0-0.1-0.1-0.1-0.2c0-0.1,0.1-0.2,0.2-0.3
			c0.1,0,0.1-0.1,0.2-0.1V18z M37.4,18c0,0.1,0,0.1,0.1,0.2c0.1,0.1,0.1,0.1,0.2,0.1c0.1,0,0.1,0,0.2-0.1c0,0,0.1-0.1,0.2-0.1
			c0,0,0,0.1,0,0.1c0,0,0.1,0.1,0.1,0.1c0,0,0.1,0,0.1,0c0,0,0.1,0,0.1-0.1v-0.1c0,0-0.1,0-0.1,0c0,0,0,0,0,0c0,0-0.1,0-0.1,0
			c0,0,0-0.1,0-0.1v-0.5c0-0.1,0-0.2,0-0.2c-0.1-0.1-0.2-0.2-0.3-0.2c-0.1,0-0.2,0-0.3,0.1c-0.1,0.1-0.1,0.1-0.1,0.2
			c0,0,0,0.1,0,0.1c0,0,0,0,0.1,0c0,0,0,0,0.1,0c0,0,0-0.1,0-0.1c0,0,0,0,0,0c0,0,0,0,0-0.1c0,0,0-0.1,0.1-0.1c0,0,0.1,0,0.1,0
			c0.1,0,0.1,0,0.2,0.1c0,0,0,0.1,0,0.2v0.1c-0.2,0.1-0.4,0.2-0.5,0.2C37.5,17.8,37.4,17.9,37.4,18"/>
		<path class="st0" d="M38.5,18.2c0.1,0,0.1,0,0.1,0c0,0,0.1-0.1,0.1-0.1v-0.6c0-0.1,0-0.1,0-0.1c0,0,0,0-0.1,0c0,0,0,0,0,0
			c0,0,0,0,0,0v0l0.1,0c0,0,0.1,0,0.2-0.1c0.1,0,0.1,0,0.1,0c0,0,0,0,0,0c0,0,0,0,0,0v0.2c0.1-0.1,0.2-0.1,0.2-0.2
			c0.1,0,0.1,0,0.2,0c0.1,0,0.2,0,0.2,0.1c0,0,0,0.1,0.1,0.1c0.1-0.1,0.1-0.1,0.2-0.1c0.1-0.1,0.2-0.1,0.2-0.1
			c0.1,0,0.2,0.1,0.3,0.2c0,0.1,0,0.2,0,0.3v0.5c0,0.1,0,0.1,0,0.1c0,0,0.1,0,0.1,0v0h-0.6v0c0.1,0,0.1,0,0.1,0c0,0,0-0.1,0-0.1
			v-0.5c0-0.1,0-0.1,0-0.2c0-0.1-0.1-0.1-0.2-0.1c-0.1,0-0.1,0-0.2,0.1c0,0-0.1,0.1-0.1,0.1V18c0,0.1,0,0.1,0,0.1
			c0,0,0.1,0.1,0.1,0.1v0h-0.6v0c0.1,0,0.1,0,0.2-0.1c0,0,0-0.1,0-0.2v-0.3c0-0.1,0-0.2,0-0.3c0-0.1-0.1-0.1-0.2-0.1
			c-0.1,0-0.1,0-0.1,0c0,0-0.1,0.1-0.1,0.1v0.7c0,0.1,0,0.1,0,0.1c0,0,0.1,0,0.1,0v0L38.5,18.2L38.5,18.2z"/>
		<path class="st0" d="M40.7,16.6C40.7,16.5,40.8,16.5,40.7,16.6c0.1,0,0.2,0,0.2,0c0,0,0,0.1,0,0.1c0,0,0,0.1,0,0.1
			c0,0-0.1,0-0.1,0c0,0-0.1,0-0.1,0C40.7,16.7,40.7,16.7,40.7,16.6C40.7,16.6,40.7,16.6,40.7,16.6 M40.5,18.2c0.1,0,0.1,0,0.2,0
			c0,0,0-0.1,0-0.2v-0.6c0-0.1,0-0.1,0-0.1c0,0,0-0.1-0.1-0.1c0,0,0,0,0,0c0,0,0,0-0.1,0v0l0.1,0c0.1,0,0.2-0.1,0.3-0.1c0,0,0,0,0,0
			c0,0,0,0,0,0V18c0,0.1,0,0.2,0,0.2c0,0,0.1,0,0.2,0v0L40.5,18.2L40.5,18.2z"/>
		<path class="st0" d="M41.2,18.2c0.1,0,0.1,0,0.1,0c0,0,0-0.1,0-0.1v-0.6c0-0.1,0-0.1,0-0.1c0,0,0,0-0.1,0c0,0,0,0,0,0c0,0,0,0,0,0
			v0c0,0,0.1,0,0.2-0.1l0.1,0c0,0,0,0,0,0c0,0,0,0,0,0v0.2c0.1-0.1,0.1-0.1,0.2-0.1c0.1,0,0.1-0.1,0.2-0.1c0.1,0,0.1,0,0.2,0
			c0.1,0.1,0.1,0.2,0.1,0.3V18c0,0.1,0,0.1,0,0.1c0,0,0.1,0,0.1,0v0h-0.5v0c0.1,0,0.1,0,0.1,0c0,0,0-0.1,0-0.2v-0.5
			c0-0.1,0-0.1,0-0.2c0,0-0.1-0.1-0.1-0.1c-0.1,0-0.1,0-0.1,0.1c0,0-0.1,0-0.1,0.1v0.7c0,0.1,0,0.1,0,0.1c0,0,0.1,0,0.1,0v0
			L41.2,18.2L41.2,18.2z"/>
		<path class="st0" d="M43.1,17.2c0.1,0,0.2,0.1,0.3,0.2c0.1,0.1,0.1,0.3,0.1,0.4c0,0.1,0,0.2-0.1,0.3c-0.1,0.1-0.1,0.1-0.2,0.1
			c-0.1,0-0.2-0.1-0.3-0.2c-0.1-0.1-0.1-0.3-0.1-0.4c0-0.2,0-0.3,0.1-0.4C42.9,17.2,43,17.2,43.1,17.2 M42.5,17.7
			c0,0.2,0.1,0.3,0.2,0.4c0.1,0.1,0.2,0.2,0.4,0.2c0.2,0,0.3-0.1,0.4-0.2c0.1-0.1,0.2-0.3,0.2-0.4c0-0.2-0.1-0.3-0.2-0.4
			c-0.1-0.1-0.2-0.2-0.4-0.2c-0.2,0-0.3,0.1-0.4,0.2C42.6,17.4,42.5,17.5,42.5,17.7"/>
		<path class="st0" d="M44,18.2C43.9,18.2,43.9,18.2,44,18.2c0-0.1,0-0.2,0-0.2c0,0,0.1,0,0.1,0c0,0,0.1,0,0.1,0c0,0,0,0.1,0,0.1
			c0,0,0,0.1,0,0.1c0,0-0.1,0-0.1,0C44,18.3,44,18.3,44,18.2"/>
		<rect x="7.1" y="15.7" class="st1" width="49.5" height="0.3"/>
		<path class="st0" d="M44.4,11.6c0.1,0,0.3,0,0.4,0c0.2,0,0.3-0.1,0.5-0.2c0.1-0.1,0.3-0.2,0.4-0.3l-0.8-0.5c0,0.2,0,0.4-0.1,0.6
			C44.7,11.4,44.6,11.5,44.4,11.6"/>
		<path class="st0" d="M35.6,12.5c-0.1-0.1-0.2-0.3-0.3-0.3C35.2,12.1,35,12,34.9,12c-0.2,0-0.4,0-0.6,0.1c-0.2,0-0.4,0.2-0.5,0.3
			c-0.1,0.1-0.3,0.2-0.4,0.3s-0.2,0.2-0.3,0.4c-0.1,0.2-0.2,0.5-0.4,0.7c-0.1,0.2-0.2,0.2-0.3,0.3c-0.1,0.1-0.2,0.2-0.3,0.2
			c-0.1,0-0.1,0-0.1,0c0,0,0-0.1,0-0.2c0.1-0.1,0.2-0.3,0.3-0.5l1.8-3.3h-0.8l-1.1,2.1c-0.1-0.1-0.2-0.2-0.3-0.2
			c-0.1,0-0.2-0.1-0.3-0.1c-0.1,0-0.3,0-0.4,0c-0.1,0-0.2,0-0.4,0.1c-0.2,0.1-0.3,0.1-0.4,0.2c-0.1,0.1-0.3,0.2-0.4,0.3
			c-0.1,0.1-0.2,0.2-0.3,0.4c-0.1,0.1-0.1,0.2-0.2,0.4c0,0.1-0.1,0.3-0.1,0.4c0,0.1,0,0.3,0.1,0.4c0,0.1,0.1,0.3,0.2,0.4
			c0.1,0.1,0.2,0.2,0.4,0.2c0.2,0,0.5,0,0.7,0c0.2,0,0.4-0.1,0.5-0.3c0.1,0.1,0.1,0.2,0.3,0.2c0.1,0.1,0.3,0.1,0.4,0
			c0.1,0,0.2,0,0.3-0.1c0.1-0.1,0.2-0.1,0.3-0.2c0.1-0.1,0.2-0.2,0.3-0.3c0,0.1,0,0.1,0.1,0.2c0.1,0.1,0.1,0.1,0.2,0.2
			c0.1,0.1,0.2,0.1,0.3,0.2c0.1,0,0.2,0,0.4,0c0.1,0,0.3,0,0.5,0c0.2,0,0.3-0.1,0.5-0.1c0.1-0.1,0.2-0.1,0.3-0.2l0.2-0.5
			c-0.1,0.1-0.3,0.1-0.4,0.2c-0.1,0-0.2,0.1-0.4,0.1c-0.1,0-0.3,0-0.4,0c-0.1,0-0.2-0.1-0.3-0.1c-0.1-0.1-0.1-0.2-0.1-0.2
			c0-0.1,0-0.2,0-0.2c0.1,0.1,0.2,0.2,0.3,0.2c0.1,0,0.2,0.1,0.4,0.1c0.2,0,0.4,0,0.6-0.1c0.2-0.1,0.3-0.2,0.4-0.3
			c0.1-0.1,0.1-0.2,0.2-0.3c0-0.1,0-0.2,0-0.4C35.7,12.7,35.6,12.6,35.6,12.5 M31.4,13.8c-0.3,0.4-0.8,0.6-1,0.5
			c-0.2-0.2-0.2-0.7,0.1-1.1c0.3-0.4,0.8-0.6,1-0.5C31.8,12.9,31.8,13.4,31.4,13.8 M35.1,13c0,0.1-0.1,0.2-0.1,0.2
			c-0.1,0.1-0.2,0.2-0.3,0.2c-0.1,0-0.2,0-0.3,0c-0.1-0.1-0.1-0.1-0.2-0.2c0-0.1,0-0.2,0.1-0.3c0.1-0.1,0.1-0.2,0.2-0.2
			c0.1,0,0.2-0.1,0.3,0c0.1,0,0.2,0.1,0.2,0.1C35.1,12.8,35.1,12.9,35.1,13"/>
		<path class="st0" d="M11.2,12.9c0.1-0.2,0.2-0.5,0.2-0.7c0-0.2,0.1-0.4,0.1-0.6c0-0.2,0-0.4-0.1-0.6c0-0.2-0.1-0.3-0.2-0.4
			c-0.1-0.1-0.2-0.2-0.3-0.2c-0.1-0.1-0.2-0.1-0.4-0.1c-0.2,0-0.4,0-0.5,0c-0.2,0-0.3,0.1-0.4,0.1c-0.1,0.1-0.2,0.1-0.3,0.2
			C9.1,10.7,9,10.8,9,10.9c-0.1,0.1-0.1,0.2-0.1,0.3c0,0.1-0.1,0.2-0.1,0.3c0,0.1,0,0.2,0,0.4c0,0.1,0.1,0.2,0.1,0.3
			c0.1,0.1,0.1,0.2,0.2,0.2c0.1,0.1,0.2,0.1,0.3,0.2c0.1,0,0.2,0,0.3,0c0.1,0,0.2,0,0.3-0.1c0.1,0,0.2-0.1,0.3-0.2
			c0.1-0.1,0.2-0.1,0.2-0.2c0.1-0.1,0.1-0.1,0.1-0.2c0-0.1,0.1-0.2,0.1-0.3c0-0.1,0-0.2,0-0.3c0-0.1,0-0.1-0.1-0.2
			c0,0-0.1,0.1-0.1,0.1c-0.1,0-0.1,0-0.2,0c-0.1,0-0.1,0-0.2-0.1c-0.1,0-0.1-0.1-0.2-0.2c0-0.1,0-0.1,0-0.2c0-0.1,0-0.1,0.1-0.2
			c0.1-0.1,0.1-0.1,0.2-0.1c0.1,0,0.2,0,0.3,0c0.1,0,0.1,0.1,0.2,0.1c0.1,0,0.1,0.1,0.2,0.2c0,0.1,0.1,0.2,0.1,0.3
			c0,0.1,0,0.2,0,0.3c0,0.1,0,0.2,0,0.4c0,0.2-0.1,0.3-0.1,0.5c-0.1,0.2-0.1,0.4-0.2,0.5c-0.1,0.2-0.2,0.3-0.3,0.4
			c-0.1,0.1-0.2,0.3-0.4,0.4c-0.1,0.1-0.2,0.2-0.4,0.2c-0.1,0.1-0.3,0.1-0.4,0.1c-0.1,0-0.3,0-0.5,0c-0.2,0-0.3-0.1-0.4-0.3
			c-0.1-0.1-0.2-0.3-0.3-0.5c-0.1-0.2-0.1-0.5-0.1-0.7c0-0.3,0.1-0.5,0.1-0.7s0.2-0.4,0.3-0.6c0.1-0.2,0.2-0.3,0.3-0.4
			c0.1-0.1,0.2-0.2,0.3-0.3c0.1-0.1,0.2-0.2,0.3-0.2c-0.1,0-0.3,0.1-0.4,0.2c-0.2,0.1-0.4,0.2-0.6,0.3C8.1,11,8,11.1,7.9,11.3
			c-0.1,0.1-0.2,0.3-0.3,0.4c-0.1,0.1-0.2,0.3-0.3,0.4c-0.1,0.2-0.1,0.3-0.2,0.5c0,0.2,0,0.3,0,0.5c0,0.2,0,0.3,0.1,0.4
			c0,0.1,0.1,0.3,0.2,0.4c0.1,0.1,0.2,0.3,0.3,0.4c0.1,0.1,0.2,0.2,0.3,0.2c0.1,0.1,0.2,0.1,0.3,0.2c0.1,0.1,0.2,0.1,0.4,0.1
			c0.1,0,0.3,0,0.5,0c0.2,0,0.3,0,0.5-0.1c0.1,0,0.3-0.1,0.4-0.2c0.1-0.1,0.2-0.1,0.3-0.2c0.1-0.1,0.2-0.2,0.3-0.4
			c0.1-0.1,0.2-0.3,0.3-0.5C11,13.4,11.1,13.2,11.2,12.9"/>
		<path class="st0" d="M28.2,12.4c0.1,0,0.1-0.1,0.2-0.1c0.1,0,0.2,0,0.3,0l-0.2-0.5c-0.3,0-0.6,0-0.8,0c-0.3,0-0.5,0.1-0.7,0.2
			c-0.2,0.1-0.4,0.2-0.6,0.3c-0.2,0.1-0.4,0.3-0.5,0.5c-0.2,0.2-0.4,0.6-0.5,0.8c-0.1,0.2-0.2,0.3-0.3,0.4c-0.1,0.1-0.1,0.1-0.2,0.1
			c0,0-0.1,0-0.1,0c0,0,0-0.1,0-0.1c0,0,0-0.1,0-0.1l1.1-1.9H25l-1,1.8c0,0-0.2,0.2-0.3,0.2c0,0-0.1,0-0.1,0c0,0,0,0-0.1,0
			c0,0-0.1,0-0.1-0.1c0,0,0-0.1,0-0.1l1.1-1.9h-0.9L23,13.1c-0.1,0.2-0.3,0.3-0.4,0.4c-0.1,0.1-0.2,0.1-0.2,0.2
			c0.1-0.2,0.2-0.5,0.2-0.7c0-0.2,0-0.3-0.1-0.5c-0.1-0.1-0.2-0.3-0.3-0.4C22.1,12,22,12,21.8,12c-0.2,0-0.3,0-0.4,0
			c-0.1,0-0.2,0.1-0.3,0.1l1-1.9l-0.9,0l-2.1,3.6c0,0-0.1,0.1-0.1,0.1c0,0-0.1,0.1-0.2,0.1c-0.1,0-0.1,0-0.2,0c0,0-0.1-0.1-0.1-0.1
			c0,0,0-0.1,0-0.2l1-1.8h-0.8l-1.1,2c0,0.1-0.1,0.1-0.2,0.1c-0.1,0-0.1,0-0.2,0c-0.1,0-0.1,0-0.1-0.1c0,0,0-0.1,0-0.1l0.6-1
			c0.1-0.1,0.1-0.2,0.1-0.2c0-0.1,0-0.3-0.1-0.4c0-0.1-0.1-0.1-0.2-0.2c-0.1,0-0.1-0.1-0.2-0.1c-0.1,0-0.2,0-0.3,0.1
			c-0.1,0-0.2,0.1-0.2,0.1l0.1-0.3h-0.9l-1.1,1.9c0,0.1-0.1,0.1-0.1,0.2c0,0-0.1,0.1-0.1,0.1c0,0-0.1,0-0.1,0c0,0-0.1,0-0.1-0.1
			c0,0,0-0.1,0-0.1c0,0,0-0.1,0-0.1l0.6-1c0-0.1,0.1-0.2,0.1-0.3c0-0.1,0-0.2-0.1-0.3c0-0.1-0.1-0.1-0.2-0.2C15,12,15,12,14.9,12
			c-0.1,0-0.1,0-0.2,0c-0.1,0-0.1,0-0.2,0c-0.1,0-0.1,0-0.2,0.1c-0.1,0-0.1,0.1-0.2,0.2c0-0.1-0.1-0.1-0.2-0.2
			c-0.1,0-0.1-0.1-0.2-0.1c-0.1,0-0.1,0-0.2,0c-0.1,0-0.1,0-0.2,0c-0.1,0-0.1,0.1-0.2,0.1c-0.1,0-0.1,0.1-0.2,0.2
			c0-0.1-0.1-0.1-0.1-0.1c-0.1,0-0.1-0.1-0.2-0.1c-0.1,0-0.2,0-0.2,0c-0.1,0-0.1,0-0.2,0c-0.1,0-0.2,0.1-0.3,0.1
			c-0.1,0-0.2,0.1-0.2,0.2c-0.1,0.1-0.1,0.1-0.2,0.2c-0.1,0.1-0.1,0.1-0.1,0.2l0,0c0,0,0,0.2,0,0.2c0,0,0.1,0,0.1,0c0,0,0.1,0,0.1,0
			c0,0,0.1,0,0.1,0.1c0,0,0,0.1,0,0.1c0,0.1-0.1,0.1-0.1,0.2l-0.9,1.6h0.9l0.9-1.7c0-0.1,0.1-0.1,0.1-0.2c0,0,0.1-0.1,0.1-0.1
			c0,0,0.1,0,0.1,0c0,0,0,0.1,0,0.1l-1,1.7h0.9l1-1.7c0,0,0-0.1,0.1-0.1c0,0,0.1-0.1,0.2-0.1c0.1,0,0.1,0,0.1,0.1c0,0.1,0,0.1,0,0.2
			c0,0.1-0.1,0.2-0.2,0.3l-0.4,0.7c0,0.1-0.1,0.2-0.1,0.3c0,0.1,0.1,0.2,0.1,0.3c0.1,0.1,0.2,0.1,0.3,0.1c0.1,0,0.2,0,0.3,0
			c0.1,0,0.2-0.1,0.2-0.1c0.1,0,0.1-0.1,0.2-0.1l-0.2,0.3h0.9l0.9-1.7c0,0,0-0.1,0.1-0.1c0,0,0.1-0.1,0.1-0.1c0,0,0.1,0,0.1,0
			c0,0,0.1,0,0.1,0.1c0,0,0,0.1,0,0.2L16.3,14c0,0.1-0.1,0.1-0.1,0.2c0,0.1,0,0.2,0,0.3c0,0.1,0.1,0.2,0.2,0.2
			c0.1,0.1,0.2,0.1,0.3,0.1c0.1,0,0.2,0,0.4-0.1c0.1-0.1,0.3-0.3,0.4-0.4c0,0.2,0.1,0.3,0.2,0.4c0.1,0.1,0.2,0.1,0.3,0.1
			c0.1,0,0.3,0,0.4-0.1c0.1-0.1,0.3-0.2,0.3-0.3l-0.2,0.4h1l0.3-0.7c0,0.2,0.2,0.4,0.3,0.5c0.1,0.1,0.3,0.1,0.4,0.2
			c0.2,0,0.3,0,0.5-0.1c0.2-0.1,0.3-0.1,0.4-0.2c0.2-0.1,0.3-0.2,0.4-0.2c0.2-0.1,0.3-0.2,0.4-0.3c0,0.1,0.1,0.3,0.1,0.3
			c0,0.1,0.1,0.2,0.2,0.3c0.1,0.1,0.1,0.1,0.2,0.2c0.1,0,0.1,0.1,0.2,0.1c0.1,0,0.3,0,0.3,0c0.1,0,0.2,0,0.2-0.1
			c0.1,0,0.1-0.1,0.2-0.1c0,0,0.1-0.1,0.1-0.1c0,0,0,0.1,0,0.1c0,0,0,0.1,0.1,0.1c0.1,0,0.1,0.1,0.2,0.1c0.1,0,0.4,0,0.4,0
			c0.1,0,0.2-0.1,0.3-0.2c0.1-0.1,0.2-0.2,0.3-0.3c0.1-0.1,0.2-0.4,0.3-0.6c0.1-0.2,0.3-0.5,0.5-0.7c0.2-0.2,0.4-0.3,0.5-0.4
			c0.2-0.1,0.3-0.2,0.4-0.2c0.1,0,0.2-0.1,0.3-0.1c-0.1,0.1-0.1,0.2-0.2,0.2c0,0.1-0.1,0.1-0.1,0.2c0,0.1,0,0.2,0,0.2
			c0,0.1,0,0.2,0.1,0.3c0.1,0.1,0.1,0.3,0.1,0.4c0,0.1,0,0.2,0,0.3c0,0.1-0.1,0.1-0.2,0.1c-0.1,0-0.2,0-0.2,0C27,14.1,27,14,27,14
			c0-0.1,0.1-0.1,0.1-0.1c0,0,0.1,0,0.2,0c0,0,0.1,0,0.2,0c0-0.1-0.1-0.2-0.2-0.2c-0.1-0.1-0.2-0.1-0.3-0.2c-0.1,0-0.3-0.1-0.4-0.1
			c-0.1,0-0.3,0.1-0.4,0.1c-0.1,0.1-0.2,0.2-0.2,0.3c0,0.1,0,0.2,0,0.3c0,0.1,0,0.2,0.1,0.3c0.1,0.1,0.1,0.1,0.2,0.2
			c0.1,0.1,0.2,0.1,0.3,0.2c0.1,0,0.3,0.1,0.5,0.1c0.2,0,0.5,0,0.6-0.1c0.2-0.1,0.2-0.1,0.3-0.2c0.1-0.1,0.2-0.2,0.3-0.3
			c0.1-0.1,0.1-0.2,0.1-0.4c0-0.1,0-0.3,0-0.4c0-0.1-0.1-0.2-0.2-0.4c-0.1-0.1-0.2-0.3-0.2-0.4c0-0.1,0-0.3,0.1-0.3
			C28.1,12.4,28.2,12.4,28.2,12.4 M21.7,13.2c0,0.1,0,0.1-0.1,0.2c0,0.1-0.1,0.3-0.2,0.4c-0.1,0.1-0.2,0.2-0.3,0.3
			c-0.1,0.1-0.2,0.1-0.2,0.1c-0.1,0-0.2,0-0.2,0c-0.1,0-0.1,0-0.2-0.1c-0.1,0-0.1-0.1-0.2-0.1c0-0.1-0.1-0.1-0.1-0.2
			c0-0.1,0-0.2,0-0.2c0-0.1,0.1-0.2,0.2-0.3c0.1-0.1,0.1-0.2,0.2-0.3c0-0.1,0.1-0.1,0.1-0.2c0.1-0.1,0.1-0.1,0.2-0.2
			c0.1,0,0.2-0.1,0.2-0.1c0.1,0,0.2,0,0.3,0c0.1,0,0.2,0.1,0.2,0.2c0,0.1,0.1,0.1,0.1,0.2C21.7,13.1,21.7,13.2,21.7,13.2"/>
		<path class="st0" d="M19.2,11.6c0.1,0.1,0.2,0.1,0.3,0.1c0.1,0,0.2,0,0.3-0.1c0.1-0.1,0.1-0.1,0.2-0.2c0-0.1,0-0.2,0-0.3
			c0-0.1-0.1-0.2-0.2-0.2c-0.1-0.1-0.2-0.1-0.3-0.1c-0.1,0-0.2,0-0.3,0.1c-0.1,0.1-0.1,0.1-0.2,0.2c0,0.1,0,0.2,0,0.3
			C19.1,11.5,19.1,11.5,19.2,11.6"/>
		<path class="st0" d="M56.2,12.8c-0.1,0-0.2,0-0.3,0c0-0.2-0.1-0.4-0.3-0.5c-0.1-0.1-0.3-0.2-0.4-0.3c-0.2-0.1-0.3-0.1-0.5,0
			c-0.2,0-0.4,0.1-0.6,0.3c-0.2,0.2-0.4,0.4-0.6,0.7c-0.2,0.3-0.3,0.6-0.5,0.9c-0.2,0.3-0.5,0.4-0.7,0.5c-0.2,0.1-0.4,0.1-0.5,0
			c-0.1,0-0.2-0.2-0.2-0.2c0-0.1-0.1-0.2-0.1-0.3c0-0.1,0-0.2,0.1-0.3c0-0.1,0.1-0.2,0.1-0.3c0.1-0.1,0.1-0.2,0.2-0.3
			c0.1-0.1,0.1-0.1,0.2-0.2c0,0,0.1-0.1,0.2-0.1c0.1,0,0.1,0,0.1,0.1c0,0,0,0.1,0,0.1c0,0-0.1,0.1-0.1,0.1c-0.1,0-0.2,0-0.2,0
			c0,0,0,0.2,0.1,0.3c0.1,0.1,0.2,0.2,0.4,0.3c0.2,0,0.3,0,0.4,0c0.1-0.1,0.2-0.2,0.3-0.2c0.1-0.1,0.1-0.2,0.1-0.3
			c0-0.1,0-0.2,0-0.3c0-0.1-0.1-0.2-0.2-0.3c-0.1-0.1-0.2-0.2-0.4-0.2c-0.2-0.1-0.4-0.1-0.6-0.1c-0.2,0-0.4,0.1-0.6,0.2
			c-0.2,0.1-0.3,0.2-0.5,0.4c-0.1,0.2-0.3,0.3-0.3,0.5c-0.1,0.1-0.2,0.3-0.3,0.4c-0.1,0.2-0.2,0.4-0.4,0.5c-0.1,0.1-0.2,0.2-0.2,0.2
			c-0.1,0-0.1,0-0.1,0c0,0-0.1,0-0.1,0c0,0,0,0,0-0.1c0,0,0.1-0.2,0.1-0.3l1.1-1.9h-0.9L49,13.6c-0.1,0.2-0.3,0.3-0.4,0.4
			c-0.1,0.1-0.2,0.1-0.3,0.2c-0.1,0-0.2,0.1-0.4,0c-0.1-0.1-0.2-0.2-0.2-0.3c0-0.1,0-0.3,0.1-0.4c0.1-0.2,0.2-0.4,0.3-0.5
			c0.1-0.1,0.1-0.2,0.2-0.2c0.1-0.1,0.2-0.1,0.2-0.1c0.1,0,0.1,0,0.1,0.1c0,0,0,0.1,0,0.1c0,0-0.1,0.1-0.1,0.1
			c0.1,0,0.2,0.1,0.3,0.1c0.1,0,0.2,0,0.3-0.1c0.1-0.1,0.1-0.1,0.2-0.2c0-0.1,0.1-0.2,0.1-0.3c0-0.1,0-0.2-0.1-0.3
			c0-0.1-0.1-0.2-0.2-0.2c-0.1-0.1-0.2-0.1-0.3-0.1c-0.1,0-0.2,0-0.3,0.1c-0.1,0-0.2,0.1-0.3,0.1c-0.1,0.1-0.1,0.1-0.2,0.2
			c-0.1,0.1-0.1,0.2-0.2,0.3c-0.1-0.1-0.1-0.3-0.1-0.3c-0.1-0.1-0.2-0.1-0.2-0.2c-0.1,0-0.2,0-0.3,0c-0.1,0-0.2,0-0.3,0
			c-0.1,0-0.3,0.1-0.4,0.2c-0.2,0.1-0.4,0.3-0.6,0.5c-0.2,0.3-0.5,0.6-0.7,0.8c-0.2,0.2-0.3,0.4-0.5,0.5c-0.1,0.1-0.3,0.1-0.4,0.2
			c-0.2,0-0.3,0-0.5,0c-0.1,0-0.3,0-0.4-0.1c-0.1-0.1-0.1-0.2-0.2-0.3c0-0.1,0-0.2,0.1-0.3c0.1,0.1,0.3,0.2,0.4,0.3
			c0.1,0,0.3,0,0.5,0c0.1,0,0.3-0.1,0.5-0.2c0.1-0.1,0.2-0.2,0.3-0.3c0.1-0.1,0.1-0.3,0.2-0.5c0-0.1,0-0.2,0-0.3
			c0-0.1-0.1-0.2-0.2-0.3c-0.1-0.1-0.2-0.2-0.3-0.2c-0.1-0.1-0.2-0.1-0.4-0.1c-0.1,0-0.2,0-0.4,0c-0.2,0-0.4,0.1-0.5,0.2
			c-0.2,0.1-0.3,0.2-0.4,0.4c-0.1,0.1-0.3,0.4-0.4,0.6c-0.1,0.2-0.2,0.5-0.3,0.7c-0.1,0.1-0.1,0.2-0.2,0.2c-0.1,0-0.1,0.1-0.2,0.1
			c-0.1,0-0.1,0-0.1-0.1c0-0.1,0-0.1,0-0.2c0-0.1,0.1-0.2,0.3-0.8c0.2-0.6,0.6-1.7,1-2.8h-0.9l-1,1.6l0.2-1.6h-0.8l-2.1,3.3
			c-0.1,0.1-0.2,0.2-0.2,0.3c-0.1,0.1-0.2,0.1-0.3,0.1c-0.1,0-0.2,0-0.3-0.1c-0.1-0.1-0.1-0.1-0.1-0.2c0-0.1,0.1-0.1,0.1-0.2
			c0.1,0,0.2-0.1,0.2-0.1c0.1,0,0.2,0,0.2,0.1v0c-0.1-0.1-0.2-0.3-0.3-0.4c-0.1-0.1-0.3-0.2-0.4-0.2c-0.2,0-0.3,0-0.5,0
			c-0.2,0-0.3,0.1-0.4,0.2c-0.1,0.1-0.2,0.2-0.2,0.4c0,0.1-0.1,0.3,0,0.4c0,0.1,0.1,0.3,0.2,0.4c0.1,0.1,0.2,0.2,0.4,0.3
			c0.2,0.1,0.3,0.1,0.5,0.1c0.2,0,0.4,0,0.7-0.1c0.2-0.1,0.4-0.2,0.7-0.5c0.2-0.2,0.4-0.5,0.6-0.8l0.8-1.3l-0.6,2.7l1.8-2.7
			c-0.2,0.6-0.4,1.1-0.5,1.5c-0.1,0.4-0.1,0.5-0.1,0.6c0,0.1,0.1,0.3,0.2,0.3c0.1,0.1,0.2,0.2,0.3,0.2c0.1,0,0.2,0,0.4,0
			c0.1,0,0.3-0.1,0.4-0.2c0.1-0.1,0.3-0.3,0.3-0.4c0,0.1,0.2,0.3,0.2,0.3c0.1,0.1,0.2,0.1,0.3,0.2c0.1,0,0.2,0.1,0.3,0.1
			c0.1,0,0.2,0,0.3,0c0.1,0,0.3,0,0.4-0.1c0.2-0.1,0.3-0.1,0.5-0.2c0.1-0.1,0.3-0.2,0.4-0.3c0.2-0.2,0.4-0.5,0.6-0.7
			c0.2-0.2,0.4-0.4,0.5-0.6c0.1-0.2,0.3-0.3,0.4-0.3c0.1,0,0.2,0,0.3,0c0.1,0,0.1,0,0.2,0.1c0.1,0.1,0.1,0.2,0.1,0.3
			c0,0.1,0,0.2,0,0.3c0,0.1-0.1,0.2-0.1,0.3c-0.1,0.1-0.1,0.3-0.2,0.4c-0.1,0.1-0.1,0.2-0.2,0.2c-0.1,0-0.1,0-0.2,0
			c0,0-0.1-0.1-0.1-0.1c0-0.1,0-0.1,0.1-0.2c0,0,0.1-0.1,0.2-0.1c-0.1-0.1-0.3-0.1-0.4-0.1c-0.1,0-0.3,0-0.4,0.1
			c-0.1,0.1-0.2,0.2-0.2,0.3c-0.1,0.1-0.1,0.2-0.1,0.3c0,0.1,0.1,0.2,0.1,0.3c0.1,0.1,0.2,0.2,0.3,0.2c0.1,0.1,0.3,0.1,0.4,0.1
			c0.1,0,0.3-0.1,0.4-0.2c0.1-0.1,0.2-0.2,0.3-0.3c0,0.1,0.1,0.1,0.2,0.2c0.1,0.1,0.2,0.2,0.4,0.2c0.2,0,0.3,0,0.5,0
			c0.2,0,0.3-0.1,0.4-0.1c0.1-0.1,0.2-0.1,0.3-0.2c0.1,0.1,0.1,0.2,0.3,0.3c0.2,0.1,0.4,0.1,0.6,0.1c0.2,0,0.4-0.1,0.5-0.2
			c0.1-0.1,0.3-0.3,0.3-0.6c0,0.1,0.3,0.4,0.4,0.5c0.1,0.1,0.3,0.2,0.4,0.3c0.2,0.1,0.4,0.1,0.6,0.1c0.2,0,0.5-0.1,0.7-0.2
			c0.2-0.1,0.4-0.3,0.5-0.5c0,0.1,0.1,0.2,0.2,0.3c0.1,0.1,0.2,0.2,0.5,0.3c0.2,0.1,0.5,0.1,0.7,0.1c0.2,0,0.5-0.1,0.6-0.3
			c0.2-0.1,0.3-0.2,0.4-0.3c0.1-0.1,0.2-0.3,0.3-0.5c0.1-0.2,0.1-0.3,0.1-0.5c0.1,0,0.2-0.1,0.3-0.1c0.1-0.1,0.2-0.1,0.2-0.2
			c0.1-0.1,0.2-0.3,0.2-0.3C56.5,12.7,56.3,12.8,56.2,12.8 M43.7,13.1c0-0.1,0.1-0.2,0.1-0.2c0.1-0.1,0.1-0.1,0.2-0.2
			c0.1,0,0.1-0.1,0.2-0.1c0.1,0,0.2,0,0.2,0c0.1,0,0.1,0.1,0.2,0.1c0,0.1,0.1,0.1,0.1,0.2c0,0.1,0,0.1-0.1,0.2
			c0,0.1-0.1,0.1-0.2,0.2c-0.1,0.1-0.1,0.1-0.2,0.1c-0.1,0-0.2,0-0.3,0c-0.1,0-0.1-0.1-0.2-0.1C43.7,13.2,43.7,13.1,43.7,13.1
			 M55.2,13.8L55.2,13.8c-0.1,0.1-0.2,0.2-0.2,0.3c-0.1,0.1-0.2,0.2-0.2,0.2c-0.1,0.1-0.2,0.1-0.3,0.1c-0.1,0-0.2,0-0.3,0
			c-0.1-0.1-0.2-0.2-0.2-0.3c0-0.1,0-0.3,0.1-0.5c0.1-0.1,0.1-0.3,0.2-0.4c0.1-0.1,0.1-0.2,0.2-0.3c0.1,0.1,0.1,0.2,0.2,0.3
			c0.1,0.1,0.2,0.2,0.3,0.2c0.1,0,0.4,0.1,0.4,0C55.3,13.5,55.2,13.7,55.2,13.8"/>
		<path class="st0" d="M50.6,10.7c-0.1,0-0.2,0-0.3,0.1c-0.1,0.1-0.1,0.1-0.2,0.2c0,0.1,0,0.2,0,0.3c0,0.1,0.1,0.2,0.2,0.2
			c0.1,0.1,0.2,0.1,0.3,0.1c0.1,0,0.2,0,0.3-0.1c0.1-0.1,0.1-0.1,0.2-0.2c0-0.1,0-0.2,0-0.3c0-0.1-0.1-0.2-0.2-0.2
			C50.8,10.7,50.7,10.7,50.6,10.7"/>
		<path class="st2" d="M19.5,9.9c4.8-4.9,13.6-7,24.9-3.2l-3.8,2.8C36.5,7.3,29.2,3.3,19.5,9.9"/>
		<path class="st3" d="M19.5,9.9c3.3-3.4,10-5.3,17.9-2.8L34.7,9C31.9,7.6,26.2,5.3,19.5,9.9"/>
		<path class="st4" d="M19.5,9.9c2.4-2.5,7.6-4.1,13.3-2.2l-1.9,1.4C28.8,8,24.4,6.5,19.5,9.9"/>
		<path class="st5" d="M19.5,9.9c1.9-2,5.5-3,10-1.5L28,9.5C26.4,8.7,23.4,7.2,19.5,9.9"/>
	</g>
</g>
</svg>
