<svg enable-background="new 0 0 175.3 22" viewBox="0 0 175.3 22" xmlns="http://www.w3.org/2000/svg"><g fill="#003565"><path d="m20.7 16.6h.2.1s0 0 0-.1h.1v.6h-.1c0-.1-.1-.2-.1-.3-.1-.1-.2-.2-.4-.2s-.3.1-.4.2-.2.3-.2.6c0 .2.1.4.2.5s.3.2.5.2c.1 0 .3 0 .4-.1.1 0 .1-.1.2-.2-.1.1-.1.1-.2.2s-.3.1-.5.1c-.3 0-.5-.1-.7-.3-.1-.2-.2-.4-.2-.6s.1-.5.2-.6c.2-.2.4-.3.6-.3.1.2.2.2.3.3"/><path d="m21.8 17.2c.1 0 .2.1.3.2s.1.3.1.4 0 .2-.1.3-.1.1-.2.1-.2-.1-.3-.2-.1-.3-.1-.4c0-.2 0-.3.1-.4zm-.5.5c0 .2.1.3.2.4s.2.2.4.2.3-.1.4-.2.2-.3.2-.4c0-.2-.1-.3-.2-.4s-.2-.2-.4-.2-.3.1-.4.2c-.2.1-.2.2-.2.4"/><path d="m22.5 18.2h.1v-.1-.6c0-.1 0-.1 0-.1s0 0-.1 0 .1 0 .2-.1h.1v.2c.1-.1.1-.1.2-.1s.1-.1.2-.1h.2c.1.1.1.2.1.3v.4.1h.1-.5.1s0-.1 0-.2v-.5c0-.1 0-.1 0-.2 0 0-.1-.1-.1-.1s-.1 0-.1.1c0 0-.1 0-.1.1v.7.1h.1z"/><path d="m23.8 18.2h.2s0-.1 0-.2v-.8h-.2v-.1h.2c0-.1 0-.2.1-.3.1-.2.2-.3.4-.3h.2c.1 0 .1.1.1.1v.1s0 0-.1 0c0 0 0 0-.1 0 0 0 0 0-.1-.1s0 0-.1 0-.1 0-.1.1v.1.3h.3v.1h-.3v.8.2h.2z"/><path d="m24.9 16.6c0-.1 0-.1 0 0h.2v.1.1h-.1-.1c-.1-.1-.1-.1 0-.2-.1 0-.1 0 0 0m-.2 1.6h.2s0-.1 0-.2v-.6c0-.1 0-.1 0-.1s0-.1-.1-.1 0 0-.1 0h.1c.1 0 .2-.1.3-.1v.9.2h.2z"/><path d="m26.1 18s0 .1-.1.1-.1 0-.2 0h-.1c-.1 0-.1-.1-.1-.2s.1-.2.2-.3c.1 0 .1-.1.2-.1v.5zm-.7 0c0 .1 0 .1.1.2s.1.1.2.1.1 0 .2-.1c0 0 .1-.1.2-.1v.1s.1.1.1.1h.1s.1 0 .1-.1v-.1h-.1-.1v-.1-.5c0-.1 0-.2 0-.2-.1-.1-.2-.2-.3-.2s-.2 0-.3.1-.1.1-.1.2v.1h.1.1v-.1s0 0 0-.1c0 0 0-.1.1-.1h.1c.1 0 .1 0 .2.1v.2.1c-.2.1-.4.2-.5.2s-.2.1-.2.2"/><path d="m26.5 18.2h.1v-.1-.6c0-.1 0-.1 0-.1s0 0-.1 0 .1 0 .2-.1h.1v.2c.1-.1.1-.1.2-.1s.1-.1.2-.1h.2c.1.1.1.2.1.3v.4.1h.1-.5.1s0-.1 0-.2v-.5c0-.1 0-.1 0-.2 0 0-.1-.1-.1-.1s-.1 0-.1.1c0 0-.1 0-.1.1v.7.1h.1z"/><path d="m28.8 17.1-.7 1.1h.4.2s.1-.1.1-.2v.3h-1l.7-1h-.3c-.1 0-.2 0-.2 0s0 .1-.1.2v-.3h.9z"/><path d="m29.6 18s0 .1-.1.1-.1 0-.2 0h-.1c-.1 0-.1-.1-.1-.2s.1-.2.2-.3c.1 0 .1-.1.2-.1v.5zm-.6 0c0 .1 0 .1.1.2s.1.1.2.1.1 0 .2-.1c0 0 .1-.1.2-.1v.1s.1.1.1.1h.1s.1 0 .1-.1v-.1h-.1-.1v-.1-.5c0-.1 0-.2 0-.2-.1-.1-.2-.2-.3-.2s-.2 0-.3.1-.1.1-.1.2v.1h.1.1v-.1s0 0 0-.1c0 0 0-.1.1-.1h.1c.1 0 .1 0 .2.1v.2.1c-.2.1-.4.2-.5.2-.2 0-.2.1-.2.2"/><path d="m31.2 17.2c.1 0 .2 0 .2.1v.2h-.5c0-.1 0-.1.1-.2 0-.1.1-.1.2-.1m0-.1c-.2 0-.3.1-.4.2s-.1.3-.1.4c0 .2 0 .3.1.4s.2.2.4.2c.1 0 .3 0 .3-.1.1-.1.2-.2.2-.3-.1.1-.1.1-.2.2-.1 0-.1.1-.2.1s-.2 0-.3-.1-.1-.2-.1-.4h.8c0-.1 0-.3-.1-.3-.1-.3-.2-.3-.4-.3"/><path d="m31.8 18.2h.1v-.1-.6c0-.1 0-.1 0-.1s0 0-.1 0 .1 0 .2-.1h.1v.2c.1-.1.1-.1.2-.1s.1-.1.2-.1h.2c.1.1.1.2.1.3v.4.1h.1-.5.1s0-.1 0-.2v-.5c0-.1 0-.1 0-.2 0 0-.1-.1-.1-.1s-.1 0-.1.1c0 0-.1 0-.1.1v.7.1h.1z"/><path d="m34.2 17.2c.1 0 .2 0 .2.1v.2h-.4c0-.1 0-.1.1-.2 0-.1 0-.1.1-.1m.1-.1c-.2 0-.3.1-.4.2s-.1.3-.1.4c0 .2 0 .3.1.4s.2.2.4.2c.1 0 .2 0 .3-.1s.2-.2.2-.3c-.1.1-.1.1-.2.2-.1 0-.1.1-.2.1s-.2 0-.3-.1c-.1-.2-.1-.4-.1-.6h.8c0-.1 0-.3-.1-.3-.2-.1-.3-.1-.4-.1"/><path d="m34.9 18.2h.2v-.1-1.2c0-.1 0-.1 0-.1s-.1-.1-.1-.1 0 0-.1 0c.1 0 .2-.1.4-.1v1.4.1h.2z"/><path d="m37.1 17.2c.1.1.1.1.1.2v.1s0 0-.1 0h-.1s0 0 0-.1v-.1s0-.1-.1-.1h-.1c-.1 0-.2 0-.2.1-.1.1-.1.2-.1.3s0 .2.1.3.2.1.3.1.2 0 .2-.1c0 0 .1-.1.1-.2 0 .1-.1.2-.1.2-.1.1-.2.2-.3.2s-.2-.1-.3-.2-.1-.2-.1-.4.1-.3.2-.4.2-.2.4-.2c-.1.2 0 .2.1.3"/><path d="m38.1 18s0 .1-.1.1-.1 0-.2 0h-.1s-.1-.1-.1-.2.1-.2.2-.3c.1 0 .1-.1.2-.1v.5zm-.7 0c0 .1 0 .1.1.2s.1.1.2.1.1 0 .2-.1c0 0 .1-.1.2-.1v.1s.1.1.1.1h.1s.1 0 .1-.1v-.1h-.1-.1v-.1-.5c0-.1 0-.2 0-.2-.1-.1-.2-.2-.3-.2s-.2 0-.3.1-.1.1-.1.2v.1h.1.1v-.1s0 0 0-.1c0 0 0-.1.1-.1h.1c.1 0 .1 0 .2.1v.2.1c-.2.1-.4.2-.5.2s-.2.1-.2.2"/><path d="m38.5 18.2h.1s.1-.1.1-.1v-.6c0-.1 0-.1 0-.1s0 0-.1 0h.1s.1 0 .2-.1h.1v.2c.1-.1.2-.1.2-.2h.2c.1 0 .2 0 .2.1 0 0 0 .1.1.1.1-.1.1-.1.2-.1.1-.1.2-.1.2-.1.1 0 .2.1.3.2v.3.5.1h.1-.6.1v-.1-.5c0-.1 0-.1 0-.2s-.1-.1-.2-.1-.1 0-.2.1c0 0-.1.1-.1.1v.3.1s.1.1.1.1h-.6c.1 0 .1 0 .2-.1 0 0 0-.1 0-.2v-.3c0-.1 0-.2 0-.3s-.1-.1-.2-.1-.1 0-.1 0-.1.1-.1.1v.7.1h.1z"/><path d="m40.7 16.6c0-.1.1-.1 0 0h.2v.1.1h-.1-.1c0-.1 0-.1 0-.2zm-.2 1.6h.2s0-.1 0-.2v-.6c0-.1 0-.1 0-.1s0-.1-.1-.1 0 0-.1 0h.1c.1 0 .2-.1.3-.1v.9.2h.2z"/><path d="m41.2 18.2h.1v-.1-.6c0-.1 0-.1 0-.1s0 0-.1 0 .1 0 .2-.1h.1v.2c.1-.1.1-.1.2-.1s.1-.1.2-.1h.2c.1.1.1.2.1.3v.4.1h.1-.5.1s0-.1 0-.2v-.5c0-.1 0-.1 0-.2 0 0-.1-.1-.1-.1-.1 0-.1 0-.1.1 0 0-.1 0-.1.1v.7.1h.1z"/><path d="m43.1 17.2c.1 0 .2.1.3.2s.1.3.1.4 0 .2-.1.3-.1.1-.2.1-.2-.1-.3-.2-.1-.3-.1-.4c0-.2 0-.3.1-.4zm-.6.5c0 .2.1.3.2.4s.2.2.4.2.3-.1.4-.2.2-.3.2-.4c0-.2-.1-.3-.2-.4s-.2-.2-.4-.2-.3.1-.4.2-.2.2-.2.4"/><path d="m44 18.2c-.1 0-.1 0 0 0 0-.1 0-.2 0-.2h.1.1v.1.1h-.1c-.1.1-.1.1-.1 0"/></g><path d="m7.1 15.7h49.5v.3h-49.5z" fill="#e63137"/><path d="m44.4 11.6h.4c.2 0 .3-.1.5-.2.1-.1.3-.2.4-.3l-.8-.5c0 .2 0 .4-.1.6s-.2.3-.4.4" fill="#003565"/><path d="m35.6 12.5c-.1-.1-.2-.3-.3-.3-.1-.1-.3-.2-.4-.2-.2 0-.4 0-.6.1-.2 0-.4.2-.5.3s-.3.2-.4.3-.2.2-.3.4-.2.5-.4.7c-.1.2-.2.2-.3.3s-.2.2-.3.2-.1 0-.1 0 0-.1 0-.2c.1-.1.2-.3.3-.5l1.8-3.3h-.8l-1.1 2.1c-.1-.1-.2-.2-.3-.2s-.2-.1-.3-.1-.3 0-.4 0-.2 0-.4.1-.3.1-.4.2-.3.2-.4.3-.2.2-.3.4c-.1.1-.1.2-.2.4 0 .1-.1.3-.1.4s0 .3.1.4c0 .1.1.3.2.4s.2.2.4.2h.7c.2 0 .4-.1.5-.3.1.1.1.2.3.2.1.1.3.1.4 0 .1 0 .2 0 .3-.1s.2-.1.3-.2.2-.2.3-.3c0 .1 0 .1.1.2s.1.1.2.2.2.1.3.2h.4.5c.2 0 .3-.1.5-.1.1-.1.2-.1.3-.2l.2-.5c-.1.1-.3.1-.4.2-.1 0-.2.1-.4.1-.1 0-.3 0-.4 0s-.2-.1-.3-.1c-.1-.1-.1-.2-.1-.2 0-.1 0-.2 0-.2.1.1.2.2.3.2s.2.1.4.1.4 0 .6-.1.3-.2.4-.3.1-.2.2-.3c0-.1 0-.2 0-.4 0-.3-.1-.4-.1-.5m-4.2 1.3c-.3.4-.8.6-1 .5-.2-.2-.2-.7.1-1.1s.8-.6 1-.5c.3.2.3.7-.1 1.1m3.7-.8c0 .1-.1.2-.1.2-.1.1-.2.2-.3.2s-.2 0-.3 0c-.1-.1-.1-.1-.2-.2 0-.1 0-.2.1-.3s.1-.2.2-.2.2-.1.3 0c.1 0 .2.1.2.1.1 0 .1.1.1.2" fill="#003565"/><path d="m11.2 12.9c.1-.2.2-.5.2-.7s.1-.4.1-.6 0-.4-.1-.6c0-.2-.1-.3-.2-.4s-.2-.2-.3-.2c-.1-.1-.2-.1-.4-.1s-.4 0-.5 0c-.2 0-.3.1-.4.1-.1.1-.2.1-.3.2-.2.1-.3.2-.3.3-.1.1-.1.2-.1.3s-.1.2-.1.3v.4c0 .1.1.2.1.3.1.1.1.2.2.2.1.1.2.1.3.2h.3c.1 0 .2 0 .3-.1.1 0 .2-.1.3-.2s.2-.1.2-.2c.1-.1.1-.1.1-.2s.1-.2.1-.3 0-.2 0-.3 0-.1-.1-.2c0 0-.1.1-.1.1-.1 0-.1 0-.2 0s-.1 0-.2-.1c-.1 0-.1-.1-.2-.2 0-.1 0-.1 0-.2s0-.1.1-.2.1-.1.2-.1h.3c.1 0 .1.1.2.1s.1.1.2.2c0 .1.1.2.1.3v.3.4c0 .2-.1.3-.1.5-.1.2-.1.4-.2.5-.1.2-.2.3-.3.4s-.2.3-.4.4c-.1.1-.2.2-.4.2-.1.1-.3.1-.4.1s-.3 0-.5 0-.3-.1-.4-.3c-.1-.1-.2-.3-.3-.5s-.1-.5-.1-.7c0-.3.1-.5.1-.7s.2-.4.3-.6.2-.3.3-.4.2-.2.3-.3.2-.2.3-.2c-.1 0-.3.1-.4.2-.2.1-.4.2-.6.3-.1.4-.2.5-.3.7-.1.1-.2.3-.3.4s-.2.3-.3.4c-.1.2-.1.3-.2.5v.5c0 .2 0 .3.1.4 0 .1.1.3.2.4s.2.3.3.4.2.2.3.2c.1.1.2.1.3.2s.2.1.4.1h.5c.2 0 .3 0 .5-.1.1 0 .3-.1.4-.2s.2-.1.3-.2.2-.2.3-.4c.1-.1.2-.3.3-.5 0 0 .1-.2.2-.5" fill="#003565"/><path d="m28.2 12.4c.1 0 .1-.1.2-.1h.3l-.2-.5c-.3 0-.6 0-.8 0-.3 0-.5.1-.7.2s-.4.2-.6.3-.4.3-.5.5c-.2.2-.4.6-.5.8s-.2.3-.3.4-.1.1-.2.1h-.1v-.1-.1l1.1-1.9h-.9l-1 1.8s-.2.2-.3.2h-.1s0 0-.1 0c0 0-.1 0-.1-.1v-.1l1.1-1.9h-.9l-.6 1.2c-.1.2-.3.3-.4.4s-.2.1-.2.2c.1-.2.2-.5.2-.7s0-.3-.1-.5c-.1-.1-.2-.3-.3-.4s-.2-.1-.4-.1-.3 0-.4 0-.2.1-.3.1l1-1.9h-.9l-2.1 3.6s-.1.1-.1.1-.1.1-.2.1-.1 0-.2 0c0 0-.1-.1-.1-.1s0-.1 0-.2l1-1.8h-.8l-1.1 2c0 .1-.1.1-.2.1s-.1 0-.2 0-.1 0-.1-.1v-.1l.6-1c.1-.1.1-.2.1-.2 0-.1 0-.3-.1-.4 0-.1-.1-.1-.2-.2-.1 0-.1-.1-.2-.1s-.2 0-.3.1c-.1 0-.2.1-.2.1l.1-.3h-.9l-1.1 1.9c0 .1-.1.1-.1.2 0 0-.1.1-.1.1h-.1s-.1 0-.1-.1v-.1-.1l.6-1c0-.1.1-.2.1-.3s0-.2-.1-.3c0-.1-.1-.1-.2-.2.1.1.1.1 0 .1s-.1 0-.2 0-.1 0-.2 0-.1 0-.2.1c-.1 0-.1.1-.2.2 0-.1-.1-.1-.2-.2-.1 0-.1-.1-.2-.1s-.1 0-.2 0-.1 0-.2 0-.1.1-.2.1-.1.1-.2.2c0-.1-.1-.1-.1-.1-.1 0-.1-.1-.2-.1s-.2 0-.2 0c-.1 0-.1 0-.2 0s-.2.1-.3.1-.2.1-.2.2c-.1.1-.1.1-.2.2s-.1.1-.1.2v.2h.1.1s.1 0 .1.1v.1c0 .1-.1.1-.1.2l-.9 1.6h.9l.9-1.7c0-.1.1-.1.1-.2 0 0 .1-.1.1-.1h.1v.1l-1 1.7h.9l1-1.7s0-.1.1-.1c0 0 .1-.1.2-.1s.1 0 .1.1v.2c0 .1-.1.2-.2.3l-.4.7c0 .1-.1.2-.1.3s.1.2.1.3c.1.1.2.1.3.1h.3c.1 0 .2-.1.2-.1.1 0 .1-.1.2-.1l-.2.3h.9l.9-1.7s0-.1.1-.1c0 0 .1-.1.1-.1h.1s.1 0 .1.1v.2l-.2.6c0 .1-.1.1-.1.2v.3c0 .1.1.2.2.2.1.1.2.1.3.1s.2 0 .4-.1c.1-.1.3-.3.4-.4 0 .2.1.3.2.4s.2.1.3.1.3 0 .4-.1.3-.2.3-.3l-.2.4h1l.3-.7c0 .2.2.4.3.5s.3.1.4.2c.2 0 .3 0 .5-.1s.3-.1.4-.2c.2-.1.3-.2.4-.2.2-.1.3-.2.4-.3 0 .1.1.3.1.3 0 .1.1.2.2.3s.1.1.2.2c.1 0 .1.1.2.1h.3c.1 0 .2 0 .2-.1.1 0 .1-.1.2-.1 0 0 .1-.1.1-.1v.1s0 .1.1.1.1.1.2.1h.4c.1 0 .2-.1.3-.2s.2-.2.3-.3.2-.4.3-.6.3-.5.5-.7.4-.3.5-.4c.2-.1.3-.2.4-.2s.2-.1.3-.1c-.1.1-.1.2-.2.2 0 .1-.1.1-.1.2v.2c0 .1 0 .2.1.3s.1.3.1.4v.3c0 .1-.1.1-.2.1s-.2 0-.2 0c.5 0 .5-.1.5-.1 0-.1.1-.1.1-.1h.2.2c0-.1-.1-.2-.2-.2-.1-.1-.2-.1-.3-.2-.1 0-.3-.1-.4-.1s-.3.1-.4.1c-.1.1-.2.2-.2.3v.3c0 .1 0 .2.1.3s.1.1.2.2.2.1.3.2c.1 0 .3.1.5.1s.5 0 .6-.1c.2-.1.2-.1.3-.2s.2-.2.3-.3.1-.2.1-.4c0-.1 0-.3 0-.4s-.1-.2-.2-.4c-.1-.1-.2-.3-.2-.4s0-.3.1-.3zm-6.5.8c0 .1 0 .1-.1.2 0 .1-.1.3-.2.4s-.2.2-.3.3-.2.1-.2.1c-.1 0-.2 0-.2 0-.1 0-.1 0-.2-.1-.1 0-.1-.1-.2-.1 0-.1-.1-.1-.1-.2s0-.2 0-.2c0-.1.1-.2.2-.3s.1-.2.2-.3c0-.1.1-.1.1-.2.1-.1.1-.1.2-.2.1 0 .2-.1.2-.1h.3c.1 0 .2.1.2.2s.1.1.1.2z" fill="#003565"/><path d="m19.2 11.6c.1.1.2.1.3.1s.2 0 .3-.1.1-.1.2-.2c0-.1 0-.2 0-.3s-.1-.2-.2-.2c-.1-.1-.2-.1-.3-.1s-.2 0-.3.1-.1.1-.2.2v.3c.1.1.1.1.2.2" fill="#003565"/><path d="m56.2 12.8c-.1 0-.2 0-.3 0 0-.2-.1-.4-.3-.5-.1-.1-.3-.2-.4-.3-.2-.1-.3-.1-.5 0-.2 0-.4.1-.6.3s-.4.4-.6.7-.3.6-.5.9-.5.4-.7.5-.4.1-.5 0c-.1 0-.2-.2-.2-.2 0-.1-.1-.2-.1-.3s0-.2.1-.3c0-.1.1-.2.1-.3.1-.1.1-.2.2-.3l.2-.2s.1-.1.2-.1.1 0 .1.1v.1s-.1.1-.1.1c-.1 0-.2 0-.2 0s0 .2.1.3.2.2.4.3h.4c.1-.1.2-.2.3-.2.1-.1.1-.2.1-.3s0-.2 0-.3-.1-.2-.2-.3-.2-.2-.4-.2c-.2-.1-.4-.1-.6-.1s-.4.1-.6.2-.3.2-.5.4c-.1.2-.3.3-.3.5-.1.1-.2.3-.3.4-.1.2-.2.4-.4.5-.1.1-.2.2-.2.2-.1 0-.1 0-.1 0h-.1s0 0 0-.1c0 0 .1-.2.1-.3l1.1-1.9h-.9l-1 1.5c-.1.2-.3.3-.4.4s-.2.1-.3.2c-.1 0-.2.1-.4 0-.1-.1-.2-.2-.2-.3s0-.3.1-.4c.1-.2.2-.4.3-.5s.1-.2.2-.2c.1-.1.2-.1.2-.1.1 0 .1 0 .1.1v.1s-.1.1-.1.1c.1 0 .2.1.3.1s.2 0 .3-.1l.2-.2c0-.1.1-.2.1-.3s0-.2-.1-.3c0-.1-.1-.2-.2-.2-.1-.1-.2-.1-.3-.1s-.2 0-.3.1c-.1 0-.2.1-.3.1-.1.1-.1.1-.2.2s-.1.2-.2.3c-.1-.1-.1-.3-.1-.3-.1-.1-.2-.1-.2-.2-.1 0-.2 0-.3 0s-.2 0-.3 0-.3.1-.4.2c-.2.1-.4.3-.6.5-.2.3-.5.6-.7.8s-.3.4-.5.5c-.1.1-.3.1-.4.2-.2 0-.3 0-.5 0-.1 0-.3 0-.4-.1s-.1-.2-.2-.3c0-.1 0-.2.1-.3.1.1.3.2.4.3h.5c.1 0 .3-.1.5-.2.1-.1.2-.2.3-.3s.1-.3.2-.5c0-.1 0-.2 0-.3s-.1-.2-.2-.3-.2-.2-.3-.2c-.1-.1-.2-.1-.4-.1-.1 0-.2 0-.4 0s-.4.1-.5.2c-.2.1-.3.2-.4.4-.1.1-.3.4-.4.6s-.2.5-.3.7c-.1.1-.1.2-.2.2s-.1.1-.2.1-.1 0-.1-.1 0-.1 0-.2.1-.2.3-.8.6-1.7 1-2.8h-.9l-1 1.6.2-1.6h-.8l-2.1 3.3c-.1.1-.2.2-.2.3-.1.1-.2.1-.3.1s-.2 0-.3-.1-.1-.1-.1-.2.1-.1.1-.2c.1 0 .2-.1.2-.1.1 0 .2 0 .2.1-.1-.1-.2-.3-.3-.4s-.3-.2-.4-.2c-.2 0-.3 0-.5 0s-.3.1-.4.2-.2.2-.2.4c0 .1-.1.3 0 .4 0 .1.1.3.2.4s.2.2.4.3.3.1.5.1.4 0 .7-.1c.2-.1.4-.2.7-.5.2-.2.4-.5.6-.8l.8-1.3-.6 2.7 1.8-2.7c-.2.6-.4 1.1-.5 1.5s-.1.5-.1.6.1.3.2.3c.1.1.2.2.3.2h.4c.1 0 .3-.1.4-.2s.3-.3.3-.4c0 .1.2.3.2.3.1.1.2.1.3.2.1 0 .2.1.3.1h.3c.1 0 .3 0 .4-.1.2-.1.3-.1.5-.2.1-.1.3-.2.4-.3.2-.2.4-.5.6-.7s.4-.4.5-.6.3-.3.4-.3h.3c.1 0 .1 0 .2.1s.1.2.1.3v.3c0 .1-.1.2-.1.3-.1.1-.1.3-.2.4s-.1.2-.2.2-.1 0-.2 0c0 0-.1-.1-.1-.1 0-.1 0-.1.1-.2 0 0 .1-.1.2-.1-.1-.1-.3-.1-.4-.1s-.3 0-.4.1-.2.2-.2.3c-.1.1-.1.2-.1.3s.1.2.1.3c.1.1.2.2.3.2.1.1.3.1.4.1s.3-.1.4-.2.2-.2.3-.3c0 .1.1.1.2.2s.2.2.4.2h.5c.2 0 .3-.1.4-.1.1-.1.2-.1.3-.2.1.1.1.2.3.3s.4.1.6.1.4-.1.5-.2.3-.3.3-.6c0 .1.3.4.4.5s.3.2.4.3c.2.1.4.1.6.1s.5-.1.7-.2.4-.3.5-.5c0 .1.1.2.2.3s.2.2.5.3c.2.1.5.1.7.1s.5-.1.6-.3c.2-.1.3-.2.4-.3s.2-.3.3-.5.1-.3.1-.5c.1 0 .2-.1.3-.1.1-.1.2-.1.2-.2.1-.1.2-.3.2-.3.1 0-.1.1-.2.1m-12.5.3c0-.1.1-.2.1-.2.1-.1.1-.1.2-.2.1 0 .1-.1.2-.1h.2c.1 0 .1.1.2.1 0 .1.1.1.1.2s0 .1-.1.2c0 .1-.1.1-.2.2s-.1.1-.2.1-.2 0-.3 0-.1-.1-.2-.1c0-.1 0-.2 0-.2m11.5.7c-.1.1-.2.2-.2.3-.1.1-.2.2-.2.2-.1.1-.2.1-.3.1s-.2 0-.3 0c-.1-.1-.2-.2-.2-.3s0-.3.1-.5c.1-.1.1-.3.2-.4s.1-.2.2-.3c.1.1.1.2.2.3s.2.2.3.2.4.1.4 0c-.1.1-.2.3-.2.4" fill="#003565"/><path d="m50.6 10.7c-.1 0-.2 0-.3.1s-.1.1-.2.2v.3c0 .1.1.2.2.2.1.1.2.1.3.1s.2 0 .3-.1.1-.1.2-.2c0-.1 0-.2 0-.3s-.1-.2-.2-.2c-.1-.1-.2-.1-.3-.1" fill="#003565"/><path d="m19.5 9.9c4.8-4.9 13.6-7 24.9-3.2l-3.8 2.8c-4.1-2.2-11.4-6.2-21.1.4" fill="#004a92"/><path d="m19.5 9.9c3.3-3.4 10-5.3 17.9-2.8l-2.7 1.9c-2.8-1.4-8.5-3.7-15.2.9" fill="#0c92d1"/><path d="m19.5 9.9c2.4-2.5 7.6-4.1 13.3-2.2l-1.9 1.4c-2.1-1.1-6.5-2.6-11.4.8" fill="#88c1ea"/><path d="m19.5 9.9c1.9-2 5.5-3 10-1.5l-1.5 1.1c-1.6-.8-4.6-2.3-8.5.4" fill="#bcdaf4"/><path d="m58.5 8.3h111v12.6h-111z" fill="none"/><text fill="#0a1c75" font-family="'Futura-CondensedExtraBold'" font-size="9" transform="translate(84.028 15.6887)">Primera Básico</text></svg>