<?xml version="1.0" encoding="utf-8"?>
<!-- Generator: Adobe Illustrator 25.0.1, SVG Export Plug-In . SVG Version: 6.00 Build 0)  -->
<svg version="1.1" id="Capa_1" xmlns="http://www.w3.org/2000/svg" xmlns:xlink="http://www.w3.org/1999/xlink" x="0px" y="0px"
	 viewBox="0 0 178.9 13.6" style="enable-background:new 0 0 178.9 13.6;" xml:space="preserve">
<style type="text/css">
	.st0{fill:#003468;}
	.st1{fill:#C02A35;}
</style>
<g>
	<g>
		<path class="st0" d="M81.9,6.4c-0.2-0.4-0.5-0.7-0.8-0.9c-0.3-0.2-0.7-0.4-1.2-0.4c-0.5,0-1.1,0.1-1.6,0.2c-0.5,0.1-1,0.5-1.4,0.7
			c-0.4,0.3-0.7,0.6-1,0.9c-0.3,0.3-0.5,0.7-0.9,1.3c-0.3,0.6-0.7,1.4-1.1,1.9c-0.4,0.6-0.6,0.7-0.8,0.9c-0.2,0.2-0.6,0.5-0.9,0.5
			c-0.2,0-0.3,0-0.4-0.1c-0.1-0.1-0.1-0.3,0-0.7c0.2-0.3,0.4-0.8,0.7-1.3L77.8,0h-2.4l-3.3,6.1c-0.2-0.2-0.6-0.5-0.9-0.6
			c-0.3-0.1-0.5-0.2-0.9-0.3c-0.3,0-0.7-0.1-1.1-0.1c-0.4,0-0.7,0.1-1.2,0.3c-0.5,0.1-0.9,0.4-1.3,0.7C66.3,6.4,66,6.7,65.6,7
			c-0.3,0.3-0.6,0.7-0.9,1c-0.2,0.4-0.4,0.7-0.5,1.1c-0.1,0.4-0.2,0.8-0.2,1.1c0,0.4,0.1,0.8,0.2,1.2c0.1,0.4,0.3,0.8,0.7,1.1
			c0.4,0.3,0.7,0.6,1.2,0.7c0.5,0.1,1.4,0.1,1.9,0c0.6-0.1,1-0.4,1.5-0.8c0.2,0.3,0.4,0.5,0.8,0.7c0.3,0.1,0.9,0.2,1.2,0.1
			c0.3-0.1,0.6-0.1,0.9-0.3c0.3-0.2,0.7-0.4,1-0.6c0.3-0.3,0.6-0.5,0.8-0.8c0.1,0.2,0.1,0.4,0.3,0.6c0.1,0.2,0.2,0.3,0.5,0.5
			c0.3,0.2,0.6,0.4,0.9,0.5c0.3,0.1,0.7,0.1,1.1,0.1c0.4,0,0.9,0,1.3-0.1c0.5-0.1,1-0.3,1.3-0.4c0.4-0.1,0.6-0.3,0.9-0.4l0.5-1.4
			c-0.4,0.2-0.8,0.4-1.2,0.5c-0.4,0.1-0.7,0.2-1,0.3c-0.3,0.1-0.7,0.1-1.1,0c-0.4-0.1-0.7-0.2-0.9-0.4c-0.2-0.2-0.3-0.4-0.3-0.7
			c0-0.2,0.1-0.6,0.1-0.7c0.3,0.2,0.5,0.5,0.8,0.6c0.3,0.1,0.7,0.2,1.2,0.2c0.5,0,1.1-0.1,1.6-0.3c0.5-0.2,0.9-0.6,1.2-0.9
			c0.3-0.3,0.4-0.6,0.5-0.9c0.1-0.3,0.1-0.7,0.1-1.1C82.1,7.1,82.1,6.7,81.9,6.4z M70,10.2c-0.9,1.3-2.3,1.9-3,1.4
			c-0.7-0.5-0.5-1.9,0.4-3.2c0.9-1.3,2.3-1.9,3-1.4C71.1,7.5,70.9,9,70,10.2z M80.4,7.9c0,0.3-0.2,0.5-0.4,0.7
			c-0.2,0.2-0.6,0.5-0.9,0.5c-0.3,0.1-0.7,0-0.9-0.1c-0.3-0.1-0.4-0.4-0.5-0.7c0-0.3,0.1-0.6,0.3-0.9c0.2-0.3,0.4-0.5,0.7-0.6
			c0.3-0.1,0.6-0.2,0.9-0.1c0.3,0,0.5,0.2,0.7,0.4C80.4,7.4,80.5,7.7,80.4,7.9z"/>
		<g>
			<path class="st0" d="M11.8,7.7c0.2-0.7,0.4-1.4,0.6-2.1c0.1-0.7,0.2-1.2,0.2-1.8c0-0.6-0.1-1.2-0.3-1.7c-0.1-0.4-0.3-0.8-0.6-1.1
				c-0.2-0.3-0.5-0.5-0.8-0.7C10.6,0.2,10.3,0.1,9.8,0C9.4,0,8.8,0,8.3,0.1C7.9,0.2,7.5,0.3,7.2,0.5c-0.3,0.2-0.7,0.4-1,0.7
				C5.9,1.4,5.7,1.7,5.5,2C5.3,2.3,5.2,2.6,5.1,3C5,3.3,4.9,3.6,4.9,3.9c0,0.3,0,0.7,0.1,1c0.1,0.3,0.2,0.6,0.4,0.9
				C5.6,6.1,5.8,6.3,6,6.5c0.2,0.2,0.5,0.3,0.8,0.4c0.3,0.1,0.6,0.1,1,0.1c0.3,0,0.6-0.1,0.9-0.1C9,6.8,9.3,6.7,9.5,6.5
				c0.3-0.2,0.5-0.4,0.7-0.6c0.2-0.2,0.3-0.4,0.4-0.6c0.1-0.3,0.2-0.6,0.2-0.8c0-0.3,0-0.6,0-0.8c0-0.2-0.1-0.3-0.2-0.5
				c-0.1,0.1-0.2,0.2-0.4,0.3c-0.2,0.1-0.3,0.1-0.5,0.1c-0.2,0-0.4-0.1-0.6-0.2C8.9,3.2,8.7,3.1,8.6,2.9C8.5,2.7,8.5,2.5,8.5,2.3
				c0-0.2,0.1-0.4,0.2-0.6c0.1-0.2,0.4-0.3,0.6-0.4c0.3-0.1,0.5,0,0.7,0c0.2,0.1,0.4,0.2,0.5,0.3c0.2,0.1,0.3,0.3,0.4,0.6
				c0.1,0.2,0.2,0.6,0.2,0.8c0,0.3,0.1,0.6,0.1,0.8c0,0.3,0,0.6-0.1,1.1c-0.1,0.4-0.2,1-0.4,1.5c-0.1,0.6-0.4,1-0.6,1.5
				c-0.2,0.4-0.5,0.9-0.8,1.2c-0.3,0.4-0.7,0.8-1,1.1c-0.4,0.3-0.6,0.5-1,0.7c-0.4,0.2-0.7,0.3-1.2,0.4c-0.4,0-0.9,0.1-1.3-0.1
				c-0.5-0.1-0.8-0.4-1.2-0.8C3.4,10.1,3.2,9.5,3,9C2.9,8.4,2.8,7.6,2.8,6.8C2.9,6.1,3,5.5,3.2,4.8C3.5,4.1,3.7,3.5,4,3.1
				c0.3-0.5,0.5-0.8,0.8-1.2C5.1,1.6,5.4,1.3,5.7,1c0.3-0.2,0.5-0.5,0.8-0.7C6.1,0.4,5.7,0.6,5.2,0.8C4.7,1,4.1,1.4,3.6,1.8
				C3.1,2.1,2.6,2.6,2.3,2.9c-0.4,0.4-0.7,0.7-1,1.1C1,4.4,0.8,4.8,0.6,5.3c-0.2,0.5-0.4,1-0.5,1.4C0,7.2,0,7.6,0,8.1
				c0,0.4,0.1,0.9,0.2,1.3c0.1,0.4,0.2,0.9,0.4,1.3c0.2,0.4,0.5,0.8,0.8,1.1c0.3,0.3,0.6,0.5,0.9,0.7c0.3,0.2,0.6,0.4,0.9,0.5
				c0.4,0.1,0.7,0.2,1.1,0.3c0.4,0.1,0.9,0.1,1.4,0c0.5,0,0.9-0.1,1.3-0.2c0.4-0.1,0.8-0.3,1.2-0.4c0.4-0.2,0.7-0.4,1-0.6
				c0.3-0.3,0.7-0.6,1-1c0.3-0.4,0.6-0.9,0.9-1.4C11.3,9,11.6,8.4,11.8,7.7z"/>
			<path class="st0" d="M60.8,6.1c0.2-0.1,0.4-0.2,0.6-0.2c0.2,0,0.5,0,0.7,0l-0.6-1.4c-0.8-0.1-1.6,0-2.3,0.1
				c-0.7,0.1-1.4,0.3-2,0.6c-0.6,0.3-1.2,0.6-1.7,1c-0.5,0.4-1,0.8-1.6,1.5c-0.5,0.7-1.1,1.6-1.5,2.2c-0.4,0.6-0.7,0.9-0.9,1.1
				c-0.2,0.2-0.3,0.2-0.5,0.3c-0.1,0-0.2,0-0.3-0.1c-0.1-0.1-0.1-0.2-0.1-0.3s0.1-0.2,0.1-0.3L54,5h-2.5l-2.9,5.3
				c-0.1,0.1-0.5,0.6-0.9,0.6c-0.1,0-0.2,0-0.3,0c-0.1,0-0.1,0-0.2,0c-0.1,0-0.2-0.1-0.2-0.2c-0.1-0.1-0.1-0.2,0-0.3L50.1,5h-2.6
				l-1.9,3.3c-0.3,0.5-0.8,0.8-1.1,1.1c-0.3,0.3-0.4,0.4-0.6,0.5c0.4-0.7,0.5-1.4,0.6-2c0-0.6,0-1-0.1-1.4c-0.2-0.4-0.5-0.9-0.8-1.1
				c-0.4-0.3-0.7-0.3-1.1-0.4c-0.4-0.1-0.8,0-1.2,0c-0.3,0.1-0.7,0.2-0.9,0.3l3-5.4h-2.6l-5.9,10.4c-0.1,0.1-0.2,0.3-0.3,0.4
				c-0.1,0.1-0.3,0.2-0.5,0.3c-0.2,0-0.3,0-0.5,0c-0.1-0.1-0.3-0.2-0.3-0.3c0-0.1,0-0.3,0.1-0.5L36.2,5h-2.4l-3.2,5.7
				c-0.1,0.2-0.3,0.3-0.4,0.4c-0.2,0.1-0.4,0.1-0.5,0c-0.2,0-0.3-0.1-0.3-0.2c0-0.1,0-0.3,0-0.4l1.7-3c0.2-0.3,0.3-0.6,0.3-0.7
				c0.1-0.3-0.1-0.9-0.2-1.1c-0.1-0.2-0.3-0.4-0.6-0.5c-0.2-0.1-0.4-0.2-0.7-0.2c-0.3,0-0.6,0.1-0.9,0.2c-0.3,0.1-0.5,0.3-0.7,0.4
				L28.8,5h-2.6l-3,5.5c-0.1,0.2-0.2,0.3-0.3,0.4c-0.1,0.1-0.2,0.2-0.4,0.2c-0.1,0-0.3,0-0.4,0c-0.1,0-0.2-0.1-0.2-0.2
				c0-0.1,0-0.2,0-0.3c0-0.1,0.1-0.2,0.1-0.3l1.7-3c0.1-0.2,0.2-0.5,0.2-0.7c0-0.3-0.1-0.5-0.3-0.7c-0.1-0.2-0.3-0.4-0.5-0.5
				c-0.2-0.1-0.3-0.2-0.5-0.2C22.4,5,22.2,5,22,5c-0.2,0-0.4,0-0.5,0.1c-0.2,0.1-0.3,0.1-0.5,0.2c-0.2,0.1-0.4,0.3-0.6,0.5
				c-0.1-0.2-0.4-0.4-0.5-0.5c-0.2-0.1-0.3-0.2-0.5-0.3C19.1,5,18.9,5,18.8,5c-0.2,0-0.4,0-0.6,0.1c-0.2,0.1-0.4,0.2-0.6,0.3
				c-0.2,0.1-0.3,0.3-0.5,0.5c-0.1-0.2-0.3-0.3-0.4-0.4c-0.1-0.1-0.4-0.2-0.6-0.3c-0.2-0.1-0.5-0.1-0.7-0.1c-0.2,0-0.4,0-0.7,0
				c-0.3,0.1-0.6,0.2-0.8,0.3c-0.3,0.1-0.5,0.3-0.7,0.4c-0.2,0.2-0.4,0.3-0.5,0.6c-0.1,0.2-0.2,0.4-0.3,0.6l0,0c0,0-0.1,0.7-0.1,0.7
				c0.1-0.1,0.1,0,0.3-0.1c0.1,0,0.3,0,0.4,0c0.1,0,0.2,0.1,0.3,0.2c0.1,0.1,0.1,0.1,0.1,0.3c0,0.2-0.1,0.4-0.3,0.6l-2.5,4.5h2.5
				l2.7-4.8C15.9,8.3,16,8.2,16.2,8c0.1-0.1,0.3-0.2,0.4-0.2c0.1,0,0.3,0,0.4,0.1C17,8.1,17,8.2,17,8.3l-2.8,5h2.6l2.8-5
				c0.1-0.1,0.1-0.2,0.2-0.3c0.1-0.1,0.3-0.2,0.5-0.3c0.2,0,0.3,0.1,0.4,0.2c0.1,0.1,0,0.3-0.1,0.6c-0.1,0.2-0.3,0.5-0.4,0.8l-1.1,2
				c-0.1,0.2-0.2,0.5-0.2,0.7c0,0.3,0.2,0.6,0.4,0.8c0.2,0.2,0.6,0.4,0.9,0.4c0.3,0,0.6,0,0.9-0.1c0.2-0.1,0.4-0.2,0.6-0.3
				c0.2-0.1,0.4-0.3,0.5-0.4l-0.5,0.9h2.6l2.7-4.9c0-0.1,0.1-0.1,0.2-0.3c0.1-0.1,0.2-0.2,0.3-0.3c0.1-0.1,0.3-0.1,0.4-0.1
				c0.1,0,0.2,0.1,0.3,0.2c0,0.1,0,0.3-0.1,0.5l-1.4,2.5c-0.1,0.2-0.2,0.4-0.2,0.6c0,0.3,0,0.6,0.1,0.8c0.1,0.3,0.3,0.5,0.5,0.7
				c0.2,0.2,0.6,0.3,0.9,0.3c0.4,0,0.7-0.1,1.1-0.3c0.4-0.2,0.9-0.7,1.2-1c0.1,0.6,0.3,0.9,0.5,1.1c0.2,0.2,0.5,0.2,0.9,0.2
				c0.4,0,0.9-0.1,1.2-0.3c0.3-0.2,0.8-0.6,0.9-0.8l-0.6,1.1H36l1-1.9c0.1,0.6,0.5,1.2,0.9,1.5c0.4,0.3,0.7,0.4,1.2,0.4
				c0.5,0,1,0,1.4-0.2c0.4-0.1,0.8-0.4,1.2-0.6c0.5-0.3,0.8-0.5,1.3-0.7c0.5-0.3,0.7-0.5,1.3-0.8c0.1,0.3,0.3,0.7,0.3,0.8
				c0.1,0.3,0.3,0.6,0.5,0.8c0.2,0.2,0.4,0.4,0.6,0.5c0.2,0.1,0.3,0.2,0.6,0.2c0.2,0,0.7,0,0.9,0c0.3,0,0.5-0.1,0.7-0.2
				c0.2-0.1,0.3-0.2,0.5-0.3c0.1-0.1,0.3-0.2,0.4-0.3c0,0.1,0,0.2,0.1,0.3c0.1,0.1,0.1,0.2,0.3,0.3c0.2,0.1,0.4,0.2,0.7,0.2
				c0.3,0.1,1.1,0.1,1.3,0c0.4-0.1,0.7-0.2,1-0.5c0.3-0.3,0.6-0.6,0.9-1c0.3-0.4,0.5-1,1-1.7c0.4-0.7,0.8-1.4,1.4-1.9
				c0.5-0.5,1-1,1.5-1.3c0.4-0.3,0.9-0.5,1.3-0.7c0.3-0.1,0.7-0.2,0.9-0.3c-0.2,0.1-0.4,0.4-0.5,0.6c-0.1,0.2-0.1,0.4-0.2,0.6
				c0,0.2,0,0.5,0,0.7c0,0.2,0.1,0.5,0.3,0.9c0.2,0.4,0.4,0.9,0.4,1.3c0.1,0.4,0,0.7-0.1,0.8c-0.1,0.2-0.3,0.3-0.5,0.3
				c-0.2,0-0.5,0-0.7-0.1c-0.2-0.1-0.2-0.4-0.2-0.5c0-0.2,0.2-0.3,0.3-0.4c0.1-0.1,0.3-0.1,0.5-0.1c0.1,0,0.4,0,0.5,0.1
				c-0.1-0.2-0.3-0.4-0.4-0.5c-0.2-0.2-0.5-0.4-0.8-0.5C57,9.1,56.6,9,56.2,9.1c-0.4,0-0.7,0.2-1,0.4c-0.3,0.2-0.5,0.5-0.6,0.8
				c-0.1,0.3-0.1,0.6-0.1,1c0,0.3,0.1,0.6,0.3,0.9c0.2,0.3,0.3,0.4,0.6,0.6c0.3,0.2,0.6,0.4,0.9,0.5c0.4,0.1,1,0.2,1.4,0.2
				c0.5,0,1.4,0,1.8-0.2c0.5-0.2,0.6-0.2,0.9-0.5c0.3-0.3,0.6-0.5,0.8-0.9c0.2-0.3,0.4-0.7,0.4-1.1c0-0.4,0-0.8-0.1-1.2
				c-0.1-0.4-0.3-0.7-0.6-1c-0.3-0.4-0.6-0.8-0.6-1.1c0-0.3,0-0.7,0.2-0.9C60.4,6.3,60.6,6.2,60.8,6.1z M42,8.6
				c0,0.2-0.1,0.4-0.2,0.7c-0.1,0.3-0.4,0.7-0.6,1.1c-0.2,0.3-0.5,0.6-0.7,0.8c-0.2,0.2-0.5,0.3-0.7,0.4c-0.2,0.1-0.5,0.1-0.7,0.1
				c-0.2,0-0.4-0.1-0.6-0.2c-0.2-0.1-0.3-0.2-0.4-0.4c-0.1-0.2-0.2-0.4-0.2-0.6c0-0.2,0-0.4,0.1-0.7c0.1-0.3,0.3-0.6,0.4-0.9
				c0.2-0.3,0.3-0.6,0.5-0.8c0.1-0.2,0.2-0.3,0.3-0.5c0.1-0.2,0.3-0.3,0.6-0.5c0.2-0.1,0.4-0.2,0.7-0.2c0.3,0,0.6,0,0.8,0.1
				c0.2,0.1,0.4,0.3,0.6,0.4C42,7.5,42,7.8,42,8C42.1,8.2,42,8.4,42,8.6z"/>
			<path class="st0" d="M34.9,3.9c0.2,0.2,0.5,0.3,0.8,0.3c0.3,0,0.6-0.1,0.8-0.3c0.2-0.2,0.4-0.4,0.5-0.7c0.1-0.3,0.1-0.6,0-0.8
				c-0.1-0.3-0.3-0.5-0.5-0.7c-0.2-0.2-0.5-0.3-0.8-0.3c-0.3,0-0.6,0.1-0.8,0.3c-0.2,0.2-0.4,0.4-0.5,0.7c-0.1,0.3-0.1,0.6,0,0.8
				C34.5,3.5,34.7,3.7,34.9,3.9z"/>
		</g>
		<g>
			<path class="st0" d="M107.3,4c0.4,0.1,0.7,0.1,1.2,0.1c0.4-0.1,0.9-0.2,1.3-0.4c0.4-0.2,0.8-0.5,1-0.8l-2.3-1.6
				c0.1,0.6,0,1.2-0.2,1.7C108.1,3.3,107.7,3.6,107.3,4"/>
			<path class="st0" d="M141.1,7.3c-0.3,0-0.6,0-0.9,0c-0.1-0.6-0.4-1.1-0.8-1.5c-0.4-0.4-0.8-0.6-1.3-0.8c-0.5-0.2-1-0.2-1.6-0.1
				c-0.6,0.1-1.2,0.4-1.8,0.8c-0.6,0.4-1.2,1.1-1.6,1.9c-0.5,0.8-0.9,1.8-1.5,2.5c-0.6,0.7-1.4,1.3-2,1.5c-0.6,0.2-1.1,0.2-1.4,0.1
				c-0.3-0.1-0.6-0.4-0.7-0.6c-0.1-0.2-0.2-0.7-0.2-1c0-0.3,0.1-0.6,0.2-0.9c0.1-0.3,0.2-0.6,0.4-0.9c0.2-0.3,0.4-0.6,0.6-0.9
				c0.2-0.2,0.4-0.4,0.5-0.5c0.1-0.1,0.3-0.2,0.6-0.2c0.2,0,0.3,0.1,0.4,0.2c0.1,0.1,0,0.3-0.1,0.4c-0.1,0.1-0.2,0.2-0.4,0.2
				c-0.2,0.1-0.6,0.1-0.7-0.1c0,0,0,0.5,0.3,0.9c0.2,0.3,0.6,0.6,1,0.7c0.4,0.1,0.9,0.1,1.2-0.1c0.4-0.2,0.7-0.4,0.9-0.7
				c0.2-0.3,0.3-0.6,0.3-0.9c0-0.3,0-0.6,0-0.9c-0.1-0.3-0.3-0.7-0.4-0.9c-0.3-0.3-0.6-0.5-1.1-0.6c-0.5-0.1-1.1-0.2-1.6-0.1
				c-0.6,0.1-1.1,0.3-1.6,0.6c-0.5,0.3-0.9,0.6-1.3,1.1c-0.4,0.4-0.7,1-1,1.4c-0.3,0.4-0.4,0.8-0.7,1.2c-0.3,0.5-0.7,1.1-1,1.5
				c-0.3,0.4-0.5,0.5-0.7,0.6c-0.2,0.1-0.3,0.1-0.4,0.1c-0.1,0-0.2,0-0.3,0c-0.1,0-0.1,0-0.1-0.2c0-0.1,0.3-0.5,0.4-0.7l3.1-5.6H123
				l-2.7,4.8c-0.4,0.6-0.7,0.9-1.1,1.2c-0.3,0.3-0.6,0.4-0.9,0.5c-0.3,0.1-0.6,0.2-1,0c-0.3-0.2-0.6-0.5-0.7-0.8
				c-0.1-0.4-0.1-0.7,0.2-1.2c0.3-0.5,0.6-1.1,0.8-1.4c0.2-0.3,0.3-0.5,0.5-0.7c0.2-0.2,0.5-0.3,0.7-0.3c0.2,0,0.3,0.1,0.4,0.3
				c0,0.1,0,0.3-0.1,0.4c-0.1,0.1-0.2,0.3-0.3,0.4c0.3,0.1,0.6,0.2,0.9,0.2c0.3,0,0.6-0.1,0.9-0.3c0.2-0.1,0.4-0.4,0.6-0.6
				c0.1-0.3,0.2-0.6,0.2-0.9c0-0.3,0-0.5-0.2-0.8c-0.1-0.2-0.3-0.4-0.6-0.6c-0.3-0.2-0.7-0.2-1-0.2c-0.3,0-0.6,0-0.9,0.2
				c-0.3,0.1-0.5,0.2-0.7,0.4c-0.2,0.1-0.4,0.3-0.5,0.4c-0.2,0.2-0.4,0.5-0.6,0.7c-0.1-0.4-0.2-0.7-0.4-1c-0.2-0.3-0.5-0.3-0.7-0.5
				C115.6,5,115.3,5,115,5c-0.2,0-0.5,0.1-0.8,0.1c-0.3,0.1-0.8,0.3-1.3,0.5c-0.6,0.3-1,0.8-1.7,1.6c-0.7,0.8-1.3,1.7-1.9,2.4
				c-0.5,0.7-0.9,1.1-1.3,1.4c-0.4,0.3-0.8,0.4-1.2,0.5c-0.4,0.1-1,0.1-1.3,0.1c-0.4,0-0.9-0.1-1.1-0.2c-0.3-0.1-0.4-0.5-0.4-0.7
				c0-0.2,0.1-0.6,0.2-0.7c0.3,0.2,0.9,0.7,1.2,0.7c0.4,0.1,0.9,0.1,1.4,0c0.4-0.1,0.9-0.3,1.3-0.5c0.4-0.2,0.7-0.6,1-0.9
				c0.3-0.4,0.4-0.9,0.5-1.3c0.1-0.4,0-0.6,0-1c0-0.3-0.2-0.7-0.4-1c-0.2-0.3-0.5-0.5-0.9-0.7c-0.3-0.2-0.7-0.3-1.1-0.4
				c-0.2,0-0.7,0-1.1,0.1c-0.4,0.1-1.1,0.4-1.5,0.7c-0.4,0.3-0.8,0.5-1.2,1c-0.4,0.4-0.9,1.1-1.3,1.8c-0.4,0.7-0.7,1.5-0.9,2
				c-0.2,0.4-0.3,0.5-0.5,0.7c-0.2,0.1-0.4,0.2-0.6,0.2c-0.1,0-0.3-0.1-0.3-0.2c0-0.1,0-0.3,0.1-0.6c0.1-0.2,0.2-0.5,0.9-2.3
				c0.7-1.8,1.7-4.9,3-8.2h-2.6l-3,4.6L99,0h-2.3l-6.1,9.6c-0.2,0.3-0.4,0.5-0.7,0.7c-0.3,0.2-0.5,0.3-0.9,0.3
				c-0.3,0-0.7-0.1-0.9-0.2c-0.2-0.2-0.3-0.4-0.3-0.6c0-0.2,0.2-0.4,0.4-0.5c0.2-0.1,0.5-0.2,0.7-0.2c0.2,0,0.5,0.1,0.7,0.1v0
				c-0.2-0.4-0.6-0.8-0.9-1.1c-0.3-0.3-0.8-0.4-1.2-0.5c-0.4-0.1-0.9,0-1.3,0.1c-0.4,0.1-0.9,0.4-1.2,0.7c-0.3,0.3-0.5,0.7-0.7,1.1
				c-0.1,0.4-0.2,0.9-0.1,1.3c0.1,0.4,0.3,0.9,0.5,1.2c0.3,0.4,0.6,0.7,1.1,0.9c0.4,0.2,1,0.4,1.6,0.4c0.6,0,1.2-0.1,1.9-0.4
				c0.6-0.2,1.3-0.7,1.9-1.3c0.6-0.6,1.1-1.5,1.6-2.4l2.4-3.6l-1.6,7.7l5.3-7.7c-0.6,1.6-1.1,3.2-1.4,4.3c-0.3,1-0.2,1.4-0.2,1.7
				c0.1,0.4,0.3,0.7,0.5,1c0.3,0.3,0.5,0.5,0.8,0.6c0.3,0.1,0.7,0.1,1.1,0.1c0.4-0.1,0.7-0.3,1.1-0.5c0.4-0.3,0.8-0.8,0.9-1.2
				c-0.1,0.2,0.5,0.8,0.7,1c0.2,0.2,0.4,0.4,0.7,0.5c0.3,0.1,0.6,0.2,1,0.3c0.3,0.1,0.6,0.1,1,0.1c0.4,0,0.8-0.1,1.3-0.3
				c0.5-0.2,0.9-0.4,1.3-0.6c0.4-0.2,0.8-0.4,1.3-1c0.5-0.5,1.2-1.3,1.8-2c0.6-0.7,1.1-1.3,1.5-1.8c0.4-0.5,0.7-0.9,1.1-1
				c0.4-0.1,0.7-0.1,1,0c0.2,0.1,0.3,0.1,0.5,0.3c0.2,0.1,0.3,0.5,0.4,0.7c0.1,0.3,0,0.5-0.1,0.8c-0.1,0.3-0.3,0.5-0.4,0.8
				c-0.2,0.4-0.4,0.7-0.6,1.1c-0.2,0.3-0.3,0.5-0.5,0.6c-0.2,0.1-0.4,0.1-0.5,0c-0.1-0.1-0.2-0.2-0.2-0.4c0-0.2,0.1-0.3,0.2-0.5
				c0.1-0.1,0.3-0.2,0.5-0.3c-0.4-0.2-0.9-0.4-1.3-0.4s-0.8,0.1-1.1,0.3c-0.3,0.2-0.5,0.4-0.6,0.7c-0.1,0.3-0.2,0.6-0.2,1
				c0,0.3,0.2,0.6,0.4,0.9c0.2,0.3,0.5,0.5,0.8,0.7c0.3,0.1,0.7,0.3,1.1,0.2c0.4,0,0.8-0.2,1.1-0.5c0.3-0.2,0.7-0.5,0.9-0.9
				c0.1,0.2,0.2,0.4,0.5,0.7c0.3,0.2,0.7,0.6,1.2,0.7c0.5,0.1,1,0,1.4-0.1c0.4-0.1,0.8-0.2,1.1-0.4c0.3-0.2,0.6-0.4,0.9-0.6
				c0.1,0.4,0.4,0.7,0.8,0.9c0.5,0.2,1.1,0.3,1.6,0.1c0.5-0.1,1.1-0.3,1.5-0.7c0.3-0.3,0.8-0.8,1-1.7c0,0.4,0.7,1,1,1.3
				c0.3,0.3,0.8,0.7,1.2,0.8c0.5,0.2,1.2,0.3,1.9,0.3c0.7-0.1,1.3-0.3,1.9-0.6c0.6-0.3,1.1-0.8,1.5-1.3c0.1,0.3,0.4,0.6,0.7,0.9
				c0.3,0.3,0.7,0.7,1.3,0.9c0.6,0.2,1.3,0.3,2,0.2c0.7-0.1,1.3-0.4,1.8-0.7c0.4-0.3,0.8-0.6,1-1c0.3-0.4,0.6-0.8,0.8-1.3
				c0.2-0.5,0.2-0.9,0.2-1.4c0.3-0.1,0.6-0.2,0.9-0.4c0.3-0.2,0.5-0.4,0.7-0.6c0.3-0.3,0.5-1,0.5-1C141.9,7,141.4,7.3,141.1,7.3z
				 M105.2,8.1c0-0.2,0.2-0.5,0.3-0.7c0.2-0.2,0.4-0.4,0.6-0.5c0.2-0.1,0.4-0.2,0.6-0.2c0.2,0,0.4,0,0.6,0.1
				c0.2,0.1,0.4,0.2,0.5,0.3c0.1,0.2,0.2,0.4,0.2,0.5c0,0.2-0.1,0.3-0.2,0.5c-0.1,0.2-0.3,0.4-0.5,0.5c-0.2,0.2-0.4,0.3-0.7,0.4
				c-0.2,0.1-0.5,0-0.8,0c-0.2-0.1-0.4-0.1-0.6-0.3C105.2,8.6,105.1,8.3,105.2,8.1z M138.2,10.2L138.2,10.2
				c-0.2,0.4-0.4,0.5-0.6,0.8c-0.2,0.2-0.4,0.4-0.7,0.6c-0.2,0.2-0.5,0.2-0.8,0.3c-0.3,0.1-0.7,0-1-0.1c-0.3-0.2-0.4-0.5-0.5-0.9
				c0-0.4,0-0.9,0.2-1.4c0.2-0.4,0.3-0.8,0.5-1.1c0.2-0.3,0.4-0.5,0.6-0.8c0.2,0.2,0.3,0.6,0.6,0.8c0.3,0.2,0.6,0.4,1,0.5
				c0.3,0.1,1.2,0.2,1.2,0C138.7,9.4,138.4,9.9,138.2,10.2z"/>
			<path class="st0" d="M125.1,1.3c-0.3,0-0.6,0.1-0.8,0.3c-0.2,0.2-0.4,0.4-0.5,0.7c-0.1,0.3-0.1,0.6,0,0.8
				c0.1,0.3,0.3,0.5,0.5,0.7c0.2,0.2,0.5,0.3,0.8,0.3c0.3,0,0.6-0.1,0.8-0.3c0.2-0.2,0.4-0.4,0.5-0.7c0.1-0.3,0.1-0.6,0-0.8
				c-0.1-0.3-0.3-0.5-0.5-0.7C125.6,1.4,125.4,1.3,125.1,1.3"/>
		</g>
	</g>
	<g>
		<g>
			<g>
				<path class="st1" d="M150.9,13.4V0.1h3.3c3.3,0,5,1.4,5,4.2c0,0.5,0,1-0.1,1.5c-0.4,2.1-1.7,3.4-3.9,3.4l-0.6,0v4.3H150.9z
					 M154.7,6c0.7,0,0.9-0.3,1-1.2c0-0.9-0.3-1.3-0.8-1.3l-0.3,0V6C154.6,6,154.7,6,154.7,6z"/>
				<path class="st1" d="M159.8,13.4V0.1h3.6v13.3H159.8z"/>
				<path class="st1" d="M164.2,10.1V4.1h3.6v5.2v0.3c0,0,0,0.1,0,0.1c0.1,0.3,0.2,0.4,0.4,0.4c0.3-0.1,0.4-0.2,0.4-0.4V4.1h3.6v9.3
					h-3.5v-0.6c-0.4,0.5-1.1,0.8-2.1,0.8c-1.5,0-2.3-0.9-2.4-2.4l0-0.8V10.1z"/>
				<path class="st1" d="M178.6,4.4v3.4c-0.2-0.3-0.5-0.4-0.8-0.6c-0.5-0.3-0.8-0.4-1-0.4c-0.3,0-0.4,0.1-0.5,0.3
					c0,0.2,0,0.2,0.3,0.4l0.1,0.1l0.7,0.3c0.3,0.2,0.6,0.3,0.8,0.5c0.5,0.5,0.7,1.2,0.7,1.9c0,0.8-0.3,1.7-0.9,2.4
					c-0.5,0.6-1.3,0.9-2.4,0.9c-0.3,0-0.7,0-1-0.1c-0.5-0.1-1.1-0.3-1.6-0.5V9.1c0.1,0.1,0.1,0.2,0.2,0.3c0.3,0.4,0.7,0.7,1.1,0.9
					c0.2,0.1,0.4,0.1,0.6,0.1c0.1,0,0.2,0,0.2-0.1c0.1-0.1,0.2-0.2,0.2-0.3c0-0.1,0-0.1-0.1-0.2c-0.1-0.1-0.1-0.1-0.2-0.1l-0.5-0.3
					l-0.1-0.1c-1-0.4-1.6-1.2-1.6-2.3c0-0.4,0.1-0.8,0.2-1.2c0.4-1.3,1.5-2.1,3.2-2.1c0.2,0,0.5,0,0.8,0.1
					C177.5,3.9,178,4.1,178.6,4.4z"/>
			</g>
			<path class="st1" d="M148.9,9.6c0,0.8-0.7,1.5-1.5,1.5c-0.9,0-1.5-0.7-1.5-1.5c0-0.9,0.7-1.5,1.5-1.5
				C148.2,8.1,148.9,8.7,148.9,9.6z"/>
		</g>
	</g>
</g>
</svg>
