<?xml version="1.0" encoding="utf-8"?>
<!-- Generator: Adobe Illustrator 25.0.1, SVG Export Plug-In . SVG Version: 6.00 Build 0)  -->
<svg version="1.1" id="Capa_1" xmlns="http://www.w3.org/2000/svg" xmlns:xlink="http://www.w3.org/1999/xlink" x="0px" y="0px"
	 viewBox="0 0 85.5 12.9" style="enable-background:new 0 0 85.5 12.9;" xml:space="preserve">
<style type="text/css">
	.st0{fill:#003468;}
</style>
<g>
	<g>
		<path class="st0" d="M5.3,0.3h4.4l0.4,3.9c0.1,0.6,0.2,1.4,0.1,2.5L13,0.3h4.4l-5.3,12.3H7.7L7,6.2C6.8,7.1,6.4,8.1,5.9,9.1
			l-1.5,3.4H0L5.3,0.3z"/>
		<path class="st0" d="M17.2,11.5c-0.9-1-1.2-2.6-0.8-4.3c0.5-1.8,1.4-3.4,2.8-4.7C20.9,0.9,23,0,25.2,0c3.7,0,5.5,2.4,4.7,5.8
			c-0.4,1.8-1.4,3.5-2.8,4.7c-1.7,1.6-3.8,2.4-6,2.4C19.3,12.9,18,12.4,17.2,11.5z M20.9,6.7c-0.3,1.3,0.3,2.1,1.5,2.1
			c1.4,0,2.7-1.2,3.1-2.7c0.3-1.2-0.4-2.1-1.5-2.1C22.5,4.1,21.2,5.2,20.9,6.7z"/>
		<path class="st0" d="M34.1,0.3h4.7c3.5,0,5,1.3,4.4,3.7c-0.5,2-1.9,3.5-3.9,3.9l0.6,4.7h-4.5l-0.2-4.5l-1.9,4.5h-4.4L34.1,0.3z
			 M36.5,5.7c1.3,0,2.1-0.4,2.3-1.4c0.2-0.7-0.2-1-1.3-1c-0.1,0-0.2,0-0.3,0l-1,2.4C36.3,5.7,36.4,5.7,36.5,5.7z"/>
		<path class="st0" d="M46.8,0.3h8.3l-1.4,3.3h-4l-0.5,1.2h3.7l-1.3,3.1h-3.7l-0.6,1.3h4.3l-1.4,3.3h-8.7L46.8,0.3z"/>
		<path class="st0" d="M54.7,7.4c0.7,1.2,1.7,1.9,2.7,1.9c0.5,0,0.8-0.2,0.9-0.5c0.1-0.4-0.3-0.5-1.1-0.9c-1.8-0.8-2.5-1.9-2.1-3.6
			c0.6-2.5,3-4.3,6.1-4.3c1.7,0,3,0.5,4,1.5l-2.4,3c-0.8-0.9-1.4-1.3-2.1-1.3c-0.4,0-0.7,0.2-0.8,0.5c-0.1,0.5,0.4,0.7,1.3,1.1
			c1.6,0.8,2.2,1.7,1.7,3.5c-0.6,2.5-3.2,4.5-6.3,4.5c-1.9,0-3.6-0.8-4.9-2.2L54.7,7.4z"/>
		<path class="st0" d="M67.3,4h-2.6l1.6-3.7h9.5L74.3,4h-2.5l-3.7,8.5h-4.4L67.3,4z"/>
		<path class="st0" d="M77.2,0.3h8.3l-1.4,3.3h-4l-0.5,1.2h3.7l-1.3,3.1h-3.7l-0.6,1.3h4.3l-1.4,3.3H72L77.2,0.3z"/>
	</g>
</g>
</svg>
