<?xml version="1.0" encoding="utf-8"?>
<!-- Generator: Adobe Illustrator 25.0.1, SVG Export Plug-In . SVG Version: 6.00 Build 0)  -->
<svg version="1.1" id="Capa_1" xmlns="http://www.w3.org/2000/svg" xmlns:xlink="http://www.w3.org/1999/xlink" x="0px" y="0px"
	 viewBox="0 0 195.4 21.9" style="enable-background:new 0 0 195.4 21.9;" xml:space="preserve">
<style type="text/css">
	.st0{fill:#003468;}
	.st1{fill:#C02A35;}
</style>
<g>
	<g>
		<g>
			<path class="st0" d="M8.8,0.5h7.4L16.9,7c0.1,1,0.3,2.3,0.2,4.1l4.6-10.6H29l-8.8,20.4h-7.4l-1.1-10.5c-0.4,1.5-1.1,3.1-1.8,4.8
				l-2.5,5.7H0L8.8,0.5z"/>
			<path class="st0" d="M28.5,19c-1.5-1.7-2-4.3-1.3-7.2C28,8.8,29.6,6.2,31.9,4c2.8-2.5,6.3-4,9.9-4c6.2,0,9.2,4,7.8,9.6
				c-0.7,3-2.3,5.7-4.7,7.9c-2.8,2.6-6.3,4-10,4C32.1,21.4,30,20.6,28.5,19z M34.7,11.1c-0.5,2.1,0.4,3.6,2.5,3.6
				c2.3,0,4.5-2,5.1-4.4c0.5-2.1-0.6-3.5-2.5-3.5C37.4,6.8,35.3,8.7,34.7,11.1z"/>
			<path class="st0" d="M56.7,0.5h7.8c5.9,0,8.4,2.2,7.4,6.1c-0.8,3.4-3.2,5.7-6.5,6.4l1,7.8h-7.5l-0.4-7.4l-3.2,7.4H48L56.7,0.5z
				 M60.7,9.5c2.2,0,3.4-0.7,3.8-2.3c0.3-1.2-0.4-1.7-2.2-1.7c-0.1,0-0.3,0-0.4,0l-1.7,4C60.3,9.5,60.5,9.5,60.7,9.5z"/>
			<path class="st0" d="M77.8,0.5h13.8L89.2,6h-6.6l-0.9,2H88l-2.2,5.2h-6.2l-0.9,2.2h7.2l-2.4,5.5H69L77.8,0.5z"/>
			<path class="st0" d="M90.9,12.3c1.1,2.1,2.8,3.1,4.5,3.1c0.8,0,1.4-0.3,1.5-0.8c0.2-0.7-0.5-0.9-1.8-1.4c-3-1.4-4.2-3.2-3.5-6
				c1-4.1,5-7.2,10.1-7.2c2.9,0,5.1,0.9,6.7,2.6l-4.1,5c-1.3-1.4-2.4-2.1-3.5-2.1c-0.7,0-1.2,0.4-1.3,0.9c-0.2,0.8,0.7,1.1,2.1,1.8
				c2.6,1.3,3.6,2.9,2.9,5.8c-1,4.2-5.4,7.5-10.5,7.5c-3.1,0-5.9-1.3-8.1-3.7L90.9,12.3z"/>
			<path class="st0" d="M112,6.7h-4.3l2.7-6.2h15.9l-2.7,6.2h-4.2l-6.1,14.2h-7.4L112,6.7z"/>
			<path class="st0" d="M128.4,0.5h13.8L139.9,6h-6.6l-0.9,2h6.2l-2.2,5.2h-6.2l-0.9,2.2h7.2l-2.4,5.5h-14.5L128.4,0.5z"/>
		</g>
	</g>
	<g>
		<g>
			<g>
				<g>
					<path class="st1" d="M150.4,21.6V0.1h5.3c5.3,0,8.1,2.3,8.1,6.8c0,0.7-0.1,1.5-0.2,2.4c-0.6,3.4-2.7,5.5-6.3,5.5l-1,0v6.9
						H150.4z M156.6,9.7c1.1,0,1.5-0.4,1.6-2c0-1.4-0.4-2.1-1.3-2.1l-0.5,0v4.1C156.4,9.7,156.5,9.7,156.6,9.7z"/>
					<path class="st1" d="M164.7,21.6V0.1h5.8v21.5H164.7z"/>
					<path class="st1" d="M171.8,16.3V6.6h5.8V15v0.5c0,0.1,0,0.1,0,0.1c0.1,0.5,0.3,0.6,0.7,0.6c0.4-0.1,0.6-0.3,0.6-0.6V6.6h5.8
						v15H179v-1c-0.6,0.8-1.7,1.3-3.4,1.3c-2.5,0-3.7-1.4-3.8-3.9l0-1.3V16.3z"/>
					<path class="st1" d="M194.8,7.1v5.5c-0.4-0.4-0.8-0.7-1.2-1c-0.7-0.5-1.2-0.6-1.6-0.6c-0.5,0-0.7,0.1-0.8,0.4
						c0,0.3,0,0.4,0.4,0.6l0.2,0.1l1.1,0.5c0.5,0.2,0.9,0.5,1.3,0.9c0.8,0.8,1.2,1.9,1.2,3.1c0,1.3-0.5,2.7-1.5,3.8
						c-0.9,0.9-2.1,1.4-3.8,1.4c-0.5,0-1.1,0-1.6-0.1c-0.9-0.2-1.8-0.5-2.6-0.9v-6.1c0.1,0.2,0.2,0.4,0.4,0.5
						c0.5,0.7,1.2,1.2,1.7,1.4c0.4,0.2,0.6,0.2,0.9,0.2c0.2,0,0.2,0,0.4-0.1c0.2-0.1,0.3-0.3,0.3-0.5c0-0.1,0-0.2-0.1-0.3
						c-0.1-0.1-0.2-0.2-0.4-0.2l-0.8-0.4l-0.2-0.1c-1.6-0.7-2.5-2-2.5-3.7c0-0.6,0.1-1.3,0.3-2c0.6-2.1,2.4-3.5,5.1-3.5
						c0.4,0,0.8,0,1.2,0.1C193,6.3,194,6.6,194.8,7.1z"/>
				</g>
				<path class="st1" d="M147.2,15.4c0,1.4-1.1,2.5-2.5,2.5c-1.4,0-2.5-1.1-2.5-2.5c0-1.4,1.1-2.5,2.5-2.5
					C146.1,13,147.2,14.1,147.2,15.4z"/>
			</g>
		</g>
	</g>
</g>
</svg>
