<?xml version="1.0" encoding="utf-8"?>
<!-- Generator: Adobe Illustrator 25.0.1, SVG Export Plug-In . SVG Version: 6.00 Build 0)  -->
<svg version="1.1" id="Capa_1" xmlns="http://www.w3.org/2000/svg" xmlns:xlink="http://www.w3.org/1999/xlink" x="0px" y="0px"
	 viewBox="0 0 123.4 16.1" style="enable-background:new 0 0 123.4 16.1;" xml:space="preserve">
<style type="text/css">
	.st0{fill:none;}
	.st1{fill:#003468;}
	.st2{font-family:'AvenirNext-DemiBold';}
	.st3{font-size:8.0197px;}
	.st4{fill:#EE3E42;}
	.st5{fill:#00539A;}
	.st6{fill:#0094D2;}
	.st7{fill:#79BCE7;}
	.st8{fill:#ACD4F0;}
</style>
<path class="st0" d="M44.5,5.3h111v12.6h-111V5.3z"/>
<g>
	<g>
		<text transform="matrix(1 0 0 1 68.7021 12.069)" class="st1 st2 st3">Primera Básico</text>
	</g>
	<g>
		<g>
			<g>
				<path class="st1" d="M16.2,14c0.1,0,0.2,0,0.2,0c0,0,0.1,0,0.1,0c0,0,0,0,0.1-0.1h0.1l0,0.7h-0.1c0-0.1-0.1-0.2-0.2-0.3
					c-0.1-0.2-0.3-0.2-0.5-0.2c-0.2,0-0.4,0.1-0.5,0.2c-0.1,0.2-0.2,0.4-0.2,0.7c0,0.3,0.1,0.5,0.2,0.6c0.1,0.2,0.3,0.2,0.5,0.2
					c0.2,0,0.3,0,0.4-0.1c0.1,0,0.2-0.1,0.2-0.2l0.1,0.1c-0.1,0.1-0.2,0.2-0.3,0.2c-0.2,0.1-0.4,0.2-0.6,0.2c-0.3,0-0.6-0.1-0.8-0.3
					c-0.2-0.2-0.3-0.4-0.3-0.7c0-0.3,0.1-0.5,0.3-0.7c0.2-0.2,0.5-0.3,0.8-0.3C15.9,14,16.1,14,16.2,14"/>
				<path class="st1" d="M17.4,14.7c0.1,0,0.3,0.1,0.3,0.2c0.1,0.2,0.1,0.3,0.1,0.5c0,0.2,0,0.3-0.1,0.4c-0.1,0.1-0.1,0.2-0.3,0.2
					c-0.1,0-0.3-0.1-0.3-0.2c-0.1-0.2-0.1-0.3-0.1-0.5c0-0.2,0-0.4,0.1-0.5C17.3,14.8,17.3,14.7,17.4,14.7 M16.8,15.3
					c0,0.2,0.1,0.4,0.2,0.5c0.1,0.1,0.3,0.2,0.5,0.2c0.2,0,0.4-0.1,0.5-0.2c0.1-0.1,0.2-0.3,0.2-0.5c0-0.2-0.1-0.4-0.2-0.5
					c-0.1-0.1-0.3-0.2-0.5-0.2c-0.2,0-0.4,0.1-0.5,0.2C16.9,15,16.8,15.2,16.8,15.3"/>
				<path class="st1" d="M18.3,16c0.1,0,0.1,0,0.1-0.1c0,0,0-0.1,0-0.2V15c0-0.1,0-0.1,0-0.1c0,0-0.1-0.1-0.1-0.1c0,0,0,0,0,0
					c0,0,0,0,0,0v-0.1c0,0,0.1,0,0.3-0.1l0.1,0c0,0,0,0,0,0c0,0,0,0,0,0v0.2c0.1-0.1,0.2-0.1,0.2-0.2c0.1,0,0.2-0.1,0.2-0.1
					c0.1,0,0.1,0,0.2,0.1c0.1,0.1,0.2,0.2,0.2,0.4v0.7c0,0.1,0,0.1,0,0.2c0,0,0.1,0,0.1,0v0h-0.6v0c0.1,0,0.1,0,0.2-0.1
					c0,0,0-0.1,0-0.2v-0.6c0-0.1,0-0.2,0-0.2c0-0.1-0.1-0.1-0.2-0.1c-0.1,0-0.1,0-0.2,0.1c0,0-0.1,0.1-0.1,0.1v0.8
					c0,0.1,0,0.1,0,0.1c0,0,0.1,0,0.1,0v0L18.3,16L18.3,16z"/>
				<path class="st1" d="M19.8,16c0.1,0,0.2,0,0.2-0.1c0,0,0.1-0.1,0.1-0.2v-0.9h-0.3v-0.1h0.3c0-0.2,0-0.3,0.1-0.4
					c0.1-0.2,0.2-0.3,0.4-0.3c0.1,0,0.2,0,0.2,0.1c0.1,0,0.1,0.1,0.1,0.1c0,0,0,0.1,0,0.1c0,0-0.1,0-0.1,0c0,0-0.1,0-0.1,0
					c0,0,0,0-0.1-0.1l0,0c0,0,0,0,0-0.1c0,0,0,0-0.1,0c-0.1,0-0.1,0-0.2,0.1c0,0,0,0.1,0,0.2v0.4h0.4v0.1h-0.4v0.9
					c0,0.1,0,0.2,0,0.2c0,0,0.1,0.1,0.2,0.1v0L19.8,16L19.8,16z"/>
				<path class="st1" d="M21.1,14c0,0,0.1,0,0.1,0c0,0,0.1,0,0.1,0c0,0,0,0.1,0,0.1c0,0,0,0.1,0,0.1c0,0-0.1,0-0.1,0
					c0,0-0.1,0-0.1,0c0,0,0-0.1,0-0.1C21,14.1,21,14.1,21.1,14 M20.8,16c0.1,0,0.2,0,0.2-0.1c0,0,0-0.1,0-0.2V15c0-0.1,0-0.1,0-0.1
					c0,0,0-0.1-0.1-0.1c0,0,0,0,0,0c0,0,0,0-0.1,0v0l0.1,0c0.2-0.1,0.3-0.1,0.4-0.1c0,0,0,0,0.1,0c0,0,0,0,0,0v1c0,0.1,0,0.2,0,0.2
					c0,0,0.1,0,0.2,0.1v0L20.8,16L20.8,16z"/>
				<path class="st1" d="M22.5,15.7c0,0.1,0,0.1-0.1,0.1c-0.1,0-0.1,0.1-0.2,0.1c0,0-0.1,0-0.1,0c-0.1,0-0.1-0.1-0.1-0.2
					c0-0.1,0.1-0.2,0.2-0.3c0.1,0,0.2-0.1,0.3-0.1V15.7z M21.7,15.7c0,0.1,0,0.2,0.1,0.2c0.1,0.1,0.1,0.1,0.2,0.1
					c0.1,0,0.2,0,0.3-0.1c0.1,0,0.1-0.1,0.2-0.1c0,0.1,0,0.1,0.1,0.2c0,0,0.1,0.1,0.1,0.1c0.1,0,0.1,0,0.2-0.1c0,0,0.1-0.1,0.1-0.1
					v-0.1c0,0-0.1,0-0.1,0.1c0,0,0,0-0.1,0c0,0-0.1,0-0.1-0.1c0,0,0-0.1,0-0.1v-0.6c0-0.1,0-0.2-0.1-0.3c-0.1-0.1-0.2-0.2-0.4-0.2
					c-0.2,0-0.3,0-0.4,0.1c-0.1,0.1-0.1,0.1-0.1,0.2c0,0,0,0.1,0,0.1c0,0,0.1,0,0.1,0c0,0,0.1,0,0.1,0c0,0,0.1-0.1,0.1-0.1
					c0,0,0,0,0-0.1c0,0,0,0,0-0.1c0,0,0-0.1,0.1-0.1c0,0,0.1,0,0.1,0c0.1,0,0.2,0,0.2,0.1c0,0,0,0.1,0,0.2v0.1
					c-0.3,0.1-0.5,0.2-0.5,0.2C21.8,15.5,21.7,15.6,21.7,15.7"/>
				<path class="st1" d="M23,16c0.1,0,0.1,0,0.1-0.1c0,0,0-0.1,0-0.2V15c0-0.1,0-0.1,0-0.1c0,0-0.1-0.1-0.1-0.1c0,0,0,0,0,0
					c0,0,0,0,0,0v-0.1c0,0,0.1,0,0.3-0.1l0.1,0c0,0,0,0,0,0c0,0,0,0,0,0v0.2c0.1-0.1,0.2-0.1,0.2-0.2c0.1,0,0.2-0.1,0.2-0.1
					c0.1,0,0.1,0,0.2,0.1c0.1,0.1,0.2,0.2,0.2,0.4v0.7c0,0.1,0,0.1,0,0.2c0,0,0.1,0,0.1,0v0h-0.6v0c0.1,0,0.1,0,0.2-0.1
					c0,0,0-0.1,0-0.2v-0.6c0-0.1,0-0.2,0-0.2c0-0.1-0.1-0.1-0.2-0.1c-0.1,0-0.1,0-0.2,0.1c0,0-0.1,0.1-0.1,0.1v0.8
					c0,0.1,0,0.1,0,0.1c0,0,0.1,0,0.2,0v0L23,16L23,16z"/>
				<path class="st1" d="M25.7,14.7L25.7,14.7l-0.8,1.3h0.4c0.1,0,0.2,0,0.3-0.1c0,0,0.1-0.1,0.1-0.3l0.1,0l0,0.4h-1.1v0l0.8-1.2H25
					c-0.1,0-0.2,0-0.2,0.1c0,0-0.1,0.1-0.1,0.2h-0.1l0-0.4H25.7z"/>
				<path class="st1" d="M26.7,15.7c0,0.1,0,0.1-0.1,0.1c-0.1,0-0.1,0.1-0.2,0.1c0,0-0.1,0-0.1,0c-0.1,0-0.1-0.1-0.1-0.2
					c0-0.1,0.1-0.2,0.2-0.3c0.1,0,0.2-0.1,0.3-0.1V15.7z M25.9,15.7c0,0.1,0,0.2,0.1,0.2c0.1,0.1,0.1,0.1,0.2,0.1
					c0.1,0,0.2,0,0.3-0.1c0.1,0,0.1-0.1,0.2-0.1c0,0.1,0,0.1,0,0.2c0,0,0.1,0.1,0.1,0.1c0.1,0,0.1,0,0.2-0.1c0,0,0.1-0.1,0.1-0.1
					v-0.1c0,0-0.1,0-0.1,0.1c0,0,0,0-0.1,0c0,0-0.1,0-0.1-0.1c0,0,0-0.1,0-0.1v-0.6c0-0.1,0-0.2-0.1-0.3c-0.1-0.1-0.2-0.2-0.4-0.2
					c-0.2,0-0.3,0-0.4,0.1C26,14.8,26,14.9,26,15c0,0,0,0.1,0,0.1c0,0,0.1,0,0.1,0c0,0,0.1,0,0.1,0c0,0,0.1-0.1,0.1-0.1
					c0,0,0,0,0-0.1c0,0,0,0,0-0.1c0,0,0-0.1,0.1-0.1c0,0,0.1,0,0.1,0c0.1,0,0.2,0,0.2,0.1c0,0,0,0.1,0,0.2v0.1
					c-0.3,0.1-0.5,0.2-0.5,0.2C26,15.5,25.9,15.6,25.9,15.7"/>
				<path class="st1" d="M28.5,14.8c0.1,0,0.2,0,0.2,0.1c0,0,0,0.1,0.1,0.2h-0.6c0-0.1,0-0.1,0.1-0.2C28.3,14.8,28.4,14.8,28.5,14.8
					 M28.6,14.7c-0.2,0-0.3,0.1-0.5,0.2C28,15,28,15.2,28,15.4c0,0.2,0.1,0.3,0.2,0.5c0.1,0.1,0.2,0.2,0.4,0.2
					c0.2,0,0.3-0.1,0.4-0.2c0.1-0.1,0.2-0.2,0.2-0.3l-0.1,0c-0.1,0.1-0.1,0.2-0.2,0.2c-0.1,0.1-0.2,0.1-0.3,0.1
					c-0.1,0-0.2-0.1-0.3-0.2c-0.1-0.1-0.1-0.3-0.2-0.5h0.9c0-0.2-0.1-0.3-0.2-0.4C28.9,14.7,28.8,14.7,28.6,14.7"/>
				<path class="st1" d="M29.3,16c0.1,0,0.1,0,0.1-0.1c0,0,0-0.1,0-0.2V15c0-0.1,0-0.1,0-0.1c0,0-0.1-0.1-0.1-0.1c0,0,0,0,0,0
					c0,0,0,0,0,0v-0.1c0,0,0.1,0,0.3-0.1l0.1,0c0,0,0,0,0,0c0,0,0,0,0,0v0.2c0.1-0.1,0.2-0.1,0.2-0.2c0.1,0,0.2-0.1,0.2-0.1
					c0.1,0,0.1,0,0.2,0.1c0.1,0.1,0.2,0.2,0.2,0.4v0.7c0,0.1,0,0.1,0,0.2c0,0,0.1,0,0.1,0v0h-0.6v0c0.1,0,0.1,0,0.2-0.1
					c0,0,0-0.1,0-0.2v-0.6c0-0.1,0-0.2,0-0.2c0-0.1-0.1-0.1-0.2-0.1c-0.1,0-0.1,0-0.2,0.1c0,0-0.1,0.1-0.1,0.1v0.8
					c0,0.1,0,0.1,0,0.1c0,0,0.1,0,0.2,0v0L29.3,16L29.3,16z"/>
				<path class="st1" d="M32.2,14.8c0.1,0,0.2,0,0.2,0.1c0,0,0,0.1,0.1,0.2h-0.6c0-0.1,0-0.1,0.1-0.2C32,14.8,32,14.8,32.2,14.8
					 M32.2,14.7c-0.2,0-0.3,0.1-0.5,0.2c-0.1,0.1-0.2,0.3-0.2,0.5c0,0.2,0.1,0.3,0.2,0.5c0.1,0.1,0.2,0.2,0.4,0.2
					c0.2,0,0.3-0.1,0.4-0.2c0.1-0.1,0.2-0.2,0.2-0.3l-0.1,0c-0.1,0.1-0.1,0.2-0.2,0.2c-0.1,0.1-0.2,0.1-0.3,0.1
					c-0.1,0-0.2-0.1-0.3-0.2c-0.1-0.1-0.1-0.3-0.2-0.5h0.9c0-0.2-0.1-0.3-0.2-0.4C32.5,14.7,32.4,14.7,32.2,14.7"/>
				<path class="st1" d="M33,16c0.1,0,0.2,0,0.2-0.1c0,0,0.1-0.1,0.1-0.2v-1.4c0-0.1,0-0.1,0-0.1c0,0-0.1-0.1-0.1-0.1c0,0,0,0,0,0
					c0,0,0,0-0.1,0v0c0.1,0,0.3-0.1,0.5-0.1c0,0,0,0,0,0c0,0,0,0,0,0v1.8c0,0.1,0,0.1,0,0.2c0,0,0.1,0,0.2,0v0L33,16L33,16z"/>
				<path class="st1" d="M35.6,14.7c0.1,0.1,0.1,0.1,0.1,0.2c0,0,0,0.1,0,0.1c0,0-0.1,0-0.1,0c0,0-0.1,0-0.1,0c0,0,0-0.1-0.1-0.1
					l0-0.1c0-0.1,0-0.1-0.1-0.1c0,0-0.1,0-0.1,0c-0.1,0-0.2,0-0.3,0.1c-0.1,0.1-0.1,0.2-0.1,0.4c0,0.1,0,0.3,0.1,0.4
					c0.1,0.1,0.2,0.2,0.3,0.2c0.1,0,0.2,0,0.3-0.1c0,0,0.1-0.1,0.2-0.2l0,0c-0.1,0.1-0.1,0.2-0.2,0.3c-0.1,0.1-0.3,0.2-0.4,0.2
					c-0.2,0-0.3-0.1-0.4-0.2c-0.1-0.1-0.2-0.3-0.2-0.5c0-0.2,0.1-0.4,0.2-0.5c0.1-0.1,0.3-0.2,0.5-0.2
					C35.4,14.6,35.5,14.7,35.6,14.7"/>
				<path class="st1" d="M36.7,15.7c0,0.1,0,0.1-0.1,0.1c-0.1,0-0.1,0.1-0.2,0.1c0,0-0.1,0-0.1,0c-0.1,0-0.1-0.1-0.1-0.2
					c0-0.1,0.1-0.2,0.2-0.3c0.1,0,0.2-0.1,0.3-0.1V15.7z M36,15.7c0,0.1,0,0.2,0.1,0.2c0.1,0.1,0.1,0.1,0.2,0.1c0.1,0,0.2,0,0.3-0.1
					c0.1,0,0.1-0.1,0.2-0.1c0,0.1,0,0.1,0,0.2c0,0,0.1,0.1,0.1,0.1c0.1,0,0.1,0,0.2-0.1c0,0,0.1-0.1,0.1-0.1v-0.1c0,0-0.1,0-0.1,0.1
					c0,0,0,0-0.1,0c0,0-0.1,0-0.1-0.1c0,0,0-0.1,0-0.1v-0.6c0-0.1,0-0.2-0.1-0.3c-0.1-0.1-0.2-0.2-0.4-0.2c-0.2,0-0.3,0-0.4,0.1
					C36.1,14.8,36,14.9,36,15c0,0,0,0.1,0,0.1c0,0,0.1,0,0.1,0c0,0,0.1,0,0.1,0c0,0,0.1-0.1,0.1-0.1c0,0,0,0,0-0.1c0,0,0,0,0-0.1
					c0,0,0-0.1,0.1-0.1c0,0,0.1,0,0.1,0c0.1,0,0.2,0,0.2,0.1c0,0,0,0.1,0,0.2v0.1c-0.3,0.1-0.5,0.2-0.5,0.2C36,15.5,36,15.6,36,15.7
					"/>
				<path class="st1" d="M37.2,16c0.1,0,0.1,0,0.2,0c0,0,0.1-0.1,0.1-0.2V15c0-0.1,0-0.1,0-0.1c0,0-0.1,0-0.1,0c0,0,0,0,0,0
					c0,0,0,0,0,0v0l0.1,0c0,0,0.1,0,0.2-0.1c0.1,0,0.1-0.1,0.1-0.1c0,0,0,0,0,0c0,0,0,0,0,0v0.2c0.1-0.1,0.2-0.2,0.3-0.2
					c0.1,0,0.1-0.1,0.2-0.1c0.1,0,0.2,0,0.2,0.1c0,0,0.1,0.1,0.1,0.2c0.1-0.1,0.1-0.1,0.2-0.2c0.1-0.1,0.2-0.1,0.3-0.1
					c0.2,0,0.3,0.1,0.3,0.2c0,0.1,0,0.2,0,0.3v0.6c0,0.1,0,0.1,0,0.1c0,0,0.1,0,0.2,0v0h-0.7v0c0.1,0,0.1,0,0.2-0.1c0,0,0-0.1,0-0.2
					v-0.6c0-0.1,0-0.2,0-0.2c0-0.1-0.1-0.1-0.2-0.1c-0.1,0-0.1,0-0.2,0.1c0,0-0.1,0.1-0.1,0.1v0.8c0,0.1,0,0.1,0,0.2
					c0,0,0.1,0.1,0.2,0.1v0h-0.7v0c0.1,0,0.2,0,0.2-0.1c0,0,0-0.1,0-0.2v-0.4c0-0.1,0-0.3,0-0.3c0-0.1-0.1-0.1-0.2-0.1
					c-0.1,0-0.1,0-0.2,0c-0.1,0-0.1,0.1-0.2,0.1v0.8c0,0.1,0,0.1,0,0.1c0,0,0.1,0,0.2,0v0L37.2,16L37.2,16z"/>
				<path class="st1" d="M39.8,14c0,0,0.1,0,0.1,0c0,0,0.1,0,0.1,0c0,0,0,0.1,0,0.1c0,0,0,0.1,0,0.1c0,0-0.1,0-0.1,0
					c0,0-0.1,0-0.1,0c0,0,0-0.1,0-0.1C39.8,14.1,39.8,14.1,39.8,14 M39.6,16c0.1,0,0.2,0,0.2-0.1c0,0,0-0.1,0-0.2V15
					c0-0.1,0-0.1,0-0.1c0,0,0-0.1-0.1-0.1c0,0,0,0,0,0c0,0,0,0-0.1,0v0l0.1,0c0.2-0.1,0.3-0.1,0.4-0.1c0,0,0,0,0.1,0c0,0,0,0,0,0v1
					c0,0.1,0,0.2,0,0.2c0,0,0.1,0,0.2,0.1v0L39.6,16L39.6,16z"/>
				<path class="st1" d="M40.5,16c0.1,0,0.1,0,0.1-0.1c0,0,0-0.1,0-0.2V15c0-0.1,0-0.1,0-0.1c0,0-0.1-0.1-0.1-0.1c0,0,0,0,0,0
					c0,0,0,0,0,0v-0.1c0,0,0.1,0,0.3-0.1l0.1,0c0,0,0,0,0,0c0,0,0,0,0,0v0.2c0.1-0.1,0.2-0.1,0.2-0.2c0.1,0,0.2-0.1,0.2-0.1
					c0.1,0,0.1,0,0.2,0.1c0.1,0.1,0.2,0.2,0.2,0.4v0.7c0,0.1,0,0.1,0,0.2c0,0,0.1,0,0.1,0v0h-0.6v0c0.1,0,0.1,0,0.2-0.1
					c0,0,0-0.1,0-0.2v-0.6c0-0.1,0-0.2,0-0.2c0-0.1-0.1-0.1-0.2-0.1c-0.1,0-0.1,0-0.2,0.1c0,0-0.1,0.1-0.1,0.1v0.8
					c0,0.1,0,0.1,0,0.1c0,0,0.1,0,0.1,0v0L40.5,16L40.5,16z"/>
				<path class="st1" d="M42.6,14.7c0.1,0,0.3,0.1,0.3,0.2c0.1,0.2,0.1,0.3,0.1,0.5c0,0.2,0,0.3-0.1,0.4c-0.1,0.1-0.1,0.2-0.3,0.2
					c-0.1,0-0.3-0.1-0.3-0.2c-0.1-0.2-0.1-0.3-0.1-0.5c0-0.2,0-0.4,0.1-0.5C42.5,14.8,42.5,14.7,42.6,14.7 M42,15.3
					c0,0.2,0.1,0.4,0.2,0.5c0.1,0.1,0.3,0.2,0.5,0.2c0.2,0,0.4-0.1,0.5-0.2c0.1-0.1,0.2-0.3,0.2-0.5c0-0.2-0.1-0.4-0.2-0.5
					c-0.1-0.1-0.3-0.2-0.5-0.2c-0.2,0-0.4,0.1-0.5,0.2C42,15,42,15.2,42,15.3"/>
				<path class="st1" d="M43.7,16c0,0-0.1-0.1-0.1-0.1c0,0,0-0.1,0.1-0.1c0,0,0.1,0,0.1,0c0,0,0.1,0,0.1,0c0,0,0.1,0.1,0.1,0.1
					c0,0,0,0.1,0,0.1c0,0-0.1,0-0.1,0C43.7,16.1,43.7,16,43.7,16"/>
				<rect y="13" class="st4" width="58.6" height="0.4"/>
				<path class="st1" d="M44.2,8.2c0.1,0,0.3,0,0.5,0c0.2,0,0.4-0.1,0.6-0.2c0.2-0.1,0.3-0.2,0.4-0.3l-0.9-0.6c0,0.2,0,0.5-0.1,0.7
					C44.5,7.9,44.4,8.1,44.2,8.2"/>
				<path class="st1" d="M33.7,9.2c-0.1-0.1-0.2-0.3-0.3-0.4c-0.1-0.1-0.3-0.1-0.5-0.2c-0.2,0-0.4,0-0.7,0.1C32,8.8,31.8,8.9,31.7,9
					c-0.2,0.1-0.3,0.2-0.4,0.4c-0.1,0.1-0.2,0.3-0.4,0.5c-0.1,0.2-0.3,0.6-0.4,0.8c-0.2,0.2-0.2,0.3-0.3,0.4
					c-0.1,0.1-0.2,0.2-0.4,0.2c-0.1,0-0.1,0-0.2,0c0,0-0.1-0.1,0-0.3c0.1-0.1,0.2-0.3,0.3-0.6l2.2-3.9h-1l-1.4,2.5
					c-0.1-0.1-0.2-0.2-0.4-0.2c-0.1-0.1-0.2-0.1-0.4-0.1c-0.1,0-0.3,0-0.5,0c-0.2,0-0.3,0.1-0.5,0.1c-0.2,0.1-0.4,0.2-0.5,0.3
					c-0.2,0.1-0.3,0.2-0.5,0.4c-0.1,0.1-0.3,0.3-0.4,0.4c-0.1,0.1-0.2,0.3-0.2,0.4c0,0.2-0.1,0.3-0.1,0.5c0,0.2,0,0.3,0.1,0.5
					c0.1,0.2,0.1,0.3,0.3,0.4c0.1,0.1,0.3,0.2,0.5,0.3c0.2,0,0.6,0,0.8,0c0.2-0.1,0.4-0.2,0.6-0.3c0.1,0.1,0.2,0.2,0.3,0.3
					c0.1,0.1,0.4,0.1,0.5,0c0.1,0,0.2,0,0.4-0.1c0.1-0.1,0.3-0.2,0.4-0.3c0.1-0.1,0.2-0.2,0.3-0.3c0,0.1,0.1,0.1,0.1,0.2
					c0.1,0.1,0.1,0.1,0.2,0.2c0.1,0.1,0.2,0.2,0.4,0.2c0.1,0,0.3,0.1,0.5,0.1c0.2,0,0.4,0,0.5,0c0.2,0,0.4-0.1,0.5-0.2
					c0.2-0.1,0.3-0.1,0.4-0.2l0.2-0.6c-0.2,0.1-0.4,0.2-0.5,0.2c-0.1,0.1-0.3,0.1-0.4,0.1c-0.1,0-0.3,0-0.5,0
					c-0.1,0-0.3-0.1-0.4-0.2c-0.1-0.1-0.1-0.2-0.1-0.3c0-0.1,0-0.2,0.1-0.3c0.1,0.1,0.2,0.2,0.3,0.2c0.1,0,0.3,0.1,0.5,0.1
					c0.2,0,0.4,0,0.7-0.1c0.2-0.1,0.4-0.3,0.5-0.4c0.1-0.1,0.2-0.2,0.2-0.4c0-0.1,0.1-0.3,0.1-0.4S33.8,9.3,33.7,9.2 M28.8,10.8
					c-0.4,0.5-0.9,0.8-1.2,0.6c-0.3-0.2-0.2-0.8,0.2-1.3c0.4-0.5,0.9-0.8,1.2-0.6C29.3,9.6,29.2,10.2,28.8,10.8 M33.1,9.8
					c0,0.1-0.1,0.2-0.2,0.3c-0.1,0.1-0.2,0.2-0.4,0.2c-0.1,0-0.3,0-0.4-0.1c-0.1-0.1-0.2-0.2-0.2-0.3c0-0.1,0-0.3,0.1-0.4
					c0.1-0.1,0.2-0.2,0.3-0.3c0.1-0.1,0.2-0.1,0.4-0.1c0.1,0,0.2,0.1,0.3,0.2C33.1,9.6,33.2,9.7,33.1,9.8"/>
				<path class="st1" d="M4.9,9.7C5,9.4,5.1,9.1,5.1,8.9c0.1-0.3,0.1-0.5,0.1-0.7c0-0.2-0.1-0.5-0.1-0.7C5,7.3,4.9,7.1,4.8,7
					C4.8,6.9,4.6,6.8,4.5,6.7C4.4,6.6,4.2,6.6,4,6.6c-0.2,0-0.4,0-0.6,0C3.2,6.6,3.1,6.7,3,6.8C2.8,6.8,2.7,6.9,2.5,7
					C2.4,7.1,2.3,7.3,2.3,7.4C2.2,7.5,2.1,7.6,2.1,7.8C2,7.9,2,8,2,8.2c0,0.1,0,0.3,0.1,0.4c0,0.1,0.1,0.3,0.1,0.4
					c0.1,0.1,0.2,0.2,0.3,0.3c0.1,0.1,0.2,0.1,0.3,0.2c0.1,0,0.3,0.1,0.4,0.1c0.1,0,0.2,0,0.4-0.1c0.1,0,0.3-0.1,0.4-0.2
					C4,9.2,4.1,9.1,4.2,9c0.1-0.1,0.1-0.2,0.2-0.3c0-0.1,0.1-0.2,0.1-0.3c0-0.1,0-0.2,0-0.3c0-0.1-0.1-0.1-0.1-0.2
					C4.3,7.9,4.3,7.9,4.2,8C4.1,8,4.1,8,4,8C3.9,8,3.8,8,3.8,7.9c-0.1,0-0.2-0.1-0.2-0.2c0-0.1-0.1-0.2,0-0.3c0-0.1,0-0.2,0.1-0.2
					c0.1-0.1,0.2-0.1,0.3-0.2c0.1,0,0.2,0,0.3,0c0.1,0,0.2,0.1,0.2,0.1c0.1,0.1,0.1,0.1,0.2,0.2c0,0.1,0.1,0.2,0.1,0.3
					c0,0.1,0,0.2,0,0.3c0,0.1,0,0.3,0,0.4c0,0.2-0.1,0.4-0.1,0.6C4.5,9.4,4.4,9.6,4.3,9.8c-0.1,0.2-0.2,0.4-0.3,0.5
					c-0.1,0.2-0.3,0.3-0.4,0.4c-0.2,0.1-0.3,0.2-0.4,0.3c-0.2,0.1-0.3,0.1-0.5,0.2c-0.2,0-0.4,0-0.6,0c-0.2-0.1-0.3-0.2-0.5-0.3
					c-0.2-0.2-0.3-0.4-0.3-0.6C1.2,10,1.1,9.7,1.2,9.4c0-0.3,0.1-0.6,0.2-0.8C1.4,8.2,1.5,8,1.7,7.8C1.8,7.6,1.9,7.5,2,7.3
					C2.1,7.2,2.2,7.1,2.3,7c0.1-0.1,0.2-0.2,0.3-0.3c-0.2,0-0.3,0.1-0.5,0.2C1.9,7,1.7,7.1,1.5,7.3C1.3,7.4,1.1,7.6,0.9,7.8
					C0.8,7.9,0.6,8.1,0.5,8.2C0.4,8.4,0.3,8.5,0.2,8.7C0.1,8.9,0.1,9.1,0,9.3c0,0.2,0,0.4,0,0.6c0,0.2,0,0.4,0.1,0.5
					c0,0.2,0.1,0.4,0.2,0.5c0.1,0.2,0.2,0.3,0.3,0.5c0.1,0.1,0.2,0.2,0.4,0.3c0.1,0.1,0.2,0.2,0.4,0.2C1.5,12,1.6,12,1.8,12
					c0.2,0,0.4,0,0.6,0c0.2,0,0.4,0,0.6-0.1c0.2,0,0.3-0.1,0.5-0.2c0.1-0.1,0.3-0.2,0.4-0.3c0.1-0.1,0.3-0.3,0.4-0.4
					c0.1-0.2,0.2-0.4,0.4-0.6C4.7,10.3,4.8,10,4.9,9.7"/>
				<path class="st1" d="M25,9C25.1,9,25.2,9,25.3,9c0.1,0,0.2,0,0.3,0l-0.3-0.6c-0.3,0-0.7,0-1,0c-0.3,0-0.6,0.1-0.8,0.2
					c-0.2,0.1-0.5,0.2-0.7,0.4c-0.2,0.2-0.4,0.4-0.6,0.6c-0.2,0.3-0.4,0.7-0.6,0.9c-0.2,0.3-0.3,0.4-0.4,0.5
					c-0.1,0.1-0.1,0.1-0.2,0.1c-0.1,0-0.1,0-0.1,0c0,0,0-0.1,0-0.1c0,0,0-0.1,0-0.1l1.3-2.3h-1L20,10.8c0,0-0.2,0.2-0.4,0.3
					c0,0-0.1,0-0.1,0c0,0-0.1,0-0.1,0c0,0-0.1,0-0.1-0.1c0,0,0-0.1,0-0.1l1.3-2.3h-1.1L18.8,10c-0.1,0.2-0.3,0.3-0.5,0.5
					c-0.1,0.1-0.2,0.1-0.3,0.2c0.1-0.3,0.2-0.6,0.2-0.8c0-0.2,0-0.4-0.1-0.6c-0.1-0.2-0.2-0.4-0.3-0.5c-0.1-0.1-0.3-0.1-0.5-0.2
					c-0.2,0-0.3,0-0.5,0c-0.1,0-0.3,0.1-0.4,0.1l1.2-2.2l-1.1,0l-2.4,4.3c0,0.1-0.1,0.1-0.1,0.2c-0.1,0-0.1,0.1-0.2,0.1
					c-0.1,0-0.1,0-0.2,0c-0.1,0-0.1-0.1-0.1-0.1c0-0.1,0-0.1,0.1-0.2l1.2-2.1h-1L12.6,11c0,0.1-0.1,0.1-0.2,0.2c-0.1,0-0.2,0-0.2,0
					c-0.1,0-0.1,0-0.1-0.1c0,0,0-0.1,0-0.2l0.7-1.2C12.9,9.5,13,9.4,13,9.4c0-0.1,0-0.4-0.1-0.5c0-0.1-0.1-0.2-0.2-0.2
					c-0.1,0-0.2-0.1-0.3-0.1c-0.1,0-0.3,0-0.4,0.1c-0.1,0.1-0.2,0.1-0.3,0.2l0.2-0.3h-1.1l-1.3,2.3c0,0.1-0.1,0.1-0.1,0.2
					c0,0-0.1,0.1-0.2,0.1c-0.1,0-0.1,0-0.2,0c0,0-0.1,0-0.1-0.1c0,0,0-0.1,0-0.1c0,0,0-0.1,0.1-0.1l0.7-1.2c0-0.1,0.1-0.2,0.1-0.3
					C9.8,9.2,9.8,9,9.7,9c0-0.1-0.1-0.2-0.2-0.2C9.4,8.7,9.4,8.7,9.3,8.6c-0.1,0-0.2,0-0.2,0c-0.1,0-0.1,0-0.2,0
					c-0.1,0-0.1,0-0.2,0.1C8.6,8.8,8.5,8.9,8.4,9c0-0.1-0.2-0.2-0.2-0.2C8.1,8.7,8,8.7,8,8.7c-0.1,0-0.1,0-0.2,0c-0.1,0-0.2,0-0.3,0
					c-0.1,0-0.2,0.1-0.3,0.1C7.1,8.9,7.1,8.9,7,9c0-0.1-0.1-0.1-0.2-0.2c-0.1,0-0.1-0.1-0.2-0.1c-0.1,0-0.2,0-0.3-0.1
					c-0.1,0-0.2,0-0.3,0C6,8.7,5.8,8.7,5.7,8.8C5.6,8.8,5.5,8.9,5.4,9C5.4,9,5.3,9.1,5.2,9.2C5.2,9.3,5.2,9.4,5.1,9.5l0,0
					c0,0,0,0.3,0,0.3c0.1,0,0.1,0,0.1,0c0.1,0,0.1,0,0.2,0c0,0,0.1,0,0.1,0.1c0,0,0.1,0.1,0,0.1c0,0.1-0.1,0.2-0.1,0.3l-1,1.8h1
					l1.1-2c0-0.1,0.1-0.2,0.1-0.2c0.1,0,0.1-0.1,0.2-0.1c0.1,0,0.1,0,0.2,0.1c0,0,0,0.1,0,0.2L5.8,12h1.1L8,10c0,0,0-0.1,0.1-0.1
					c0.1,0,0.1-0.1,0.2-0.1c0.1,0,0.1,0,0.2,0.1c0,0.1,0,0.1,0,0.2c0,0.1-0.1,0.2-0.2,0.3l-0.5,0.8c0,0.1-0.1,0.2-0.1,0.3
					c0,0.1,0.1,0.2,0.2,0.3C8,12,8.2,12,8.3,12c0.1,0,0.3,0,0.4-0.1c0.1,0,0.2-0.1,0.2-0.1c0.1,0,0.2-0.1,0.2-0.2L8.9,12H10l1.1-2
					c0,0,0-0.1,0.1-0.1c0,0,0.1-0.1,0.1-0.1c0.1,0,0.1,0,0.2,0c0.1,0,0.1,0,0.1,0.1c0,0.1,0,0.1,0,0.2L11,11c0,0.1-0.1,0.2-0.1,0.3
					c0,0.1,0,0.2,0,0.3c0,0.1,0.1,0.2,0.2,0.3c0.1,0.1,0.2,0.1,0.4,0.1c0.1,0,0.3,0,0.5-0.1c0.2-0.1,0.3-0.3,0.5-0.4
					c0,0.2,0.1,0.4,0.2,0.4C12.8,12,12.9,12,13,12c0.2,0,0.4-0.1,0.5-0.1c0.1-0.1,0.3-0.2,0.4-0.3L13.7,12h1.1l0.4-0.8
					c0,0.2,0.2,0.5,0.4,0.6c0.2,0.1,0.3,0.2,0.5,0.2c0.2,0,0.4,0,0.6-0.1c0.2-0.1,0.3-0.1,0.5-0.2c0.2-0.1,0.3-0.2,0.5-0.3
					c0.2-0.1,0.3-0.2,0.5-0.3c0,0.1,0.1,0.3,0.1,0.3c0,0.1,0.1,0.2,0.2,0.3c0.1,0.1,0.2,0.2,0.2,0.2C18.9,12,18.9,12,19,12
					c0.1,0,0.3,0,0.4,0c0.1,0,0.2-0.1,0.3-0.1c0.1,0,0.1-0.1,0.2-0.1c0.1,0,0.1-0.1,0.2-0.1c0,0,0,0.1,0,0.1c0,0,0,0.1,0.1,0.1
					c0.1,0,0.1,0.1,0.3,0.1c0.1,0,0.5,0,0.5,0c0.1,0,0.3-0.1,0.4-0.2c0.1-0.1,0.3-0.2,0.4-0.4c0.1-0.2,0.2-0.4,0.4-0.7
					c0.2-0.3,0.3-0.6,0.6-0.8c0.2-0.2,0.4-0.4,0.6-0.5c0.2-0.1,0.4-0.2,0.5-0.3c0.1,0,0.3-0.1,0.4-0.1C24.1,9.1,24,9.2,24,9.3
					c0,0.1-0.1,0.2-0.1,0.3c0,0.1,0,0.2,0,0.3c0,0.1,0,0.2,0.1,0.4c0.1,0.2,0.1,0.4,0.2,0.5c0,0.2,0,0.3,0,0.3
					c0,0.1-0.1,0.1-0.2,0.1c-0.1,0-0.2,0-0.3,0c-0.1-0.1-0.1-0.1-0.1-0.2c0-0.1,0.1-0.1,0.1-0.2c0.1,0,0.1-0.1,0.2-0.1
					c0.1,0,0.2,0,0.2,0c0-0.1-0.1-0.2-0.2-0.2c-0.1-0.1-0.2-0.2-0.3-0.2c-0.1-0.1-0.3-0.1-0.5-0.1c-0.2,0-0.3,0.1-0.4,0.2
					c-0.1,0.1-0.2,0.2-0.2,0.3c-0.1,0.1-0.1,0.3,0,0.4c0,0.1,0.1,0.3,0.1,0.4c0.1,0.1,0.1,0.1,0.2,0.2c0.1,0.1,0.2,0.2,0.4,0.2
					c0.2,0,0.4,0.1,0.6,0.1c0.2,0,0.6,0,0.7-0.1c0.2-0.1,0.2-0.1,0.4-0.2c0.1-0.1,0.2-0.2,0.3-0.4c0.1-0.1,0.1-0.3,0.2-0.4
					c0-0.1,0-0.3-0.1-0.5c-0.1-0.2-0.1-0.3-0.3-0.4c-0.1-0.2-0.2-0.3-0.2-0.4c0-0.1,0-0.3,0.1-0.4C24.9,9.1,25,9.1,25,9 M17.3,10.1
					c0,0.1,0,0.1-0.1,0.3c-0.1,0.1-0.1,0.3-0.2,0.4c-0.1,0.1-0.2,0.3-0.3,0.3c-0.1,0.1-0.2,0.1-0.3,0.1c-0.1,0-0.2,0-0.3,0
					c-0.1,0-0.2,0-0.2-0.1c-0.1,0-0.1-0.1-0.2-0.1c-0.1-0.1-0.1-0.2-0.1-0.3c0-0.1,0-0.2,0-0.3c0-0.1,0.1-0.2,0.2-0.4
					c0.1-0.1,0.1-0.2,0.2-0.3c0.1-0.1,0.1-0.1,0.1-0.2c0.1-0.1,0.1-0.1,0.2-0.2c0.1-0.1,0.2-0.1,0.3-0.1c0.1,0,0.2,0,0.3,0
					c0.1,0,0.2,0.1,0.2,0.2c0.1,0.1,0.1,0.2,0.1,0.3C17.3,9.9,17.3,10,17.3,10.1"/>
				<path class="st1" d="M14.4,8.2c0.1,0.1,0.2,0.1,0.3,0.1c0.1,0,0.2,0,0.3-0.1c0.1-0.1,0.2-0.2,0.2-0.3c0-0.1,0-0.2,0-0.3
					c0-0.1-0.1-0.2-0.2-0.3c-0.1-0.1-0.2-0.1-0.3-0.1c-0.1,0-0.2,0-0.3,0.1c-0.1,0.1-0.2,0.2-0.2,0.3c0,0.1,0,0.2,0,0.3
					C14.2,8,14.3,8.1,14.4,8.2"/>
				<path class="st1" d="M58.1,9.6c-0.1,0-0.2,0-0.4,0c-0.1-0.2-0.2-0.4-0.3-0.6c-0.1-0.2-0.3-0.3-0.5-0.3c-0.2-0.1-0.4-0.1-0.6,0
					c-0.2,0-0.5,0.2-0.7,0.3c-0.2,0.2-0.5,0.5-0.7,0.8c-0.2,0.3-0.4,0.7-0.6,1c-0.2,0.3-0.6,0.5-0.8,0.6c-0.3,0.1-0.5,0.1-0.6,0
					c-0.1-0.1-0.2-0.2-0.3-0.3c0-0.1-0.1-0.3-0.1-0.4c0-0.1,0-0.2,0.1-0.4c0-0.1,0.1-0.2,0.2-0.4c0.1-0.1,0.2-0.3,0.2-0.4
					c0.1-0.1,0.1-0.2,0.2-0.2c0.1,0,0.1-0.1,0.3-0.1c0.1,0,0.1,0,0.2,0.1c0,0.1,0,0.1,0,0.2c0,0-0.1,0.1-0.2,0.1c-0.1,0-0.3,0-0.3,0
					c0,0,0,0.2,0.1,0.3c0.1,0.1,0.2,0.3,0.4,0.3c0.2,0,0.3,0,0.5,0c0.2-0.1,0.3-0.2,0.4-0.3c0.1-0.1,0.1-0.2,0.1-0.4
					c0-0.1,0-0.2,0-0.4c0-0.1-0.1-0.3-0.2-0.4c-0.1-0.1-0.2-0.2-0.4-0.3c-0.2-0.1-0.4-0.1-0.7-0.1c-0.2,0-0.5,0.1-0.7,0.2
					c-0.2,0.1-0.4,0.3-0.5,0.4c-0.2,0.2-0.3,0.4-0.4,0.6c-0.1,0.2-0.2,0.3-0.3,0.5c-0.1,0.2-0.3,0.4-0.4,0.6
					c-0.1,0.2-0.2,0.2-0.3,0.3c-0.1,0-0.1,0-0.2,0.1c-0.1,0-0.1,0-0.1,0c0,0,0,0,0-0.1c0,0,0.1-0.2,0.2-0.3l1.3-2.3h-1.1l-1.1,2
					c-0.2,0.2-0.3,0.4-0.4,0.5c-0.1,0.1-0.2,0.2-0.4,0.2c-0.1,0-0.3,0.1-0.4,0c-0.1-0.1-0.2-0.2-0.3-0.3c0-0.2,0-0.3,0.1-0.5
					c0.1-0.2,0.2-0.5,0.3-0.6c0.1-0.1,0.1-0.2,0.2-0.3c0.1-0.1,0.2-0.1,0.3-0.1c0.1,0,0.1,0,0.2,0.1c0,0.1,0,0.1,0,0.2
					c0,0.1-0.1,0.1-0.1,0.2c0.1,0,0.2,0.1,0.4,0.1c0.1,0,0.3,0,0.4-0.1c0.1-0.1,0.2-0.2,0.2-0.3C50,9.5,50,9.3,50,9.2
					C50,9.1,50,9,50,8.9c0-0.1-0.1-0.2-0.2-0.2c-0.1-0.1-0.3-0.1-0.4-0.1c-0.1,0-0.3,0-0.4,0.1c-0.1,0-0.2,0.1-0.3,0.2
					c-0.1,0.1-0.2,0.1-0.2,0.2c-0.1,0.1-0.2,0.2-0.2,0.3c-0.1-0.2-0.1-0.3-0.2-0.4c-0.1-0.1-0.2-0.1-0.3-0.2c-0.1,0-0.2-0.1-0.3-0.1
					c-0.1,0-0.2,0-0.3,0c-0.1,0-0.3,0.1-0.5,0.2c-0.2,0.1-0.4,0.3-0.7,0.6c-0.3,0.3-0.5,0.7-0.8,1c-0.2,0.3-0.4,0.5-0.5,0.6
					c-0.2,0.1-0.3,0.2-0.5,0.2c-0.2,0-0.4,0-0.6,0.1c-0.1,0-0.4,0-0.5-0.1c-0.1-0.1-0.2-0.2-0.2-0.3c0-0.1,0-0.2,0.1-0.3
					c0.1,0.1,0.4,0.3,0.5,0.3c0.2,0,0.4,0,0.6,0c0.2,0,0.4-0.1,0.5-0.2c0.1-0.1,0.3-0.2,0.4-0.4c0.1-0.1,0.2-0.4,0.2-0.5
					c0-0.2,0-0.3,0-0.4C45.1,9.3,45,9.1,45,9c-0.1-0.1-0.2-0.2-0.4-0.3c-0.1-0.1-0.3-0.1-0.4-0.1c-0.1,0-0.3,0-0.4,0
					c-0.2,0-0.4,0.2-0.6,0.3c-0.2,0.1-0.3,0.2-0.5,0.4c-0.2,0.2-0.4,0.5-0.5,0.7c-0.2,0.3-0.3,0.6-0.4,0.8c-0.1,0.2-0.1,0.2-0.2,0.3
					c-0.1,0.1-0.2,0.1-0.2,0.1c-0.1,0-0.1,0-0.1-0.1c0-0.1,0-0.1,0.1-0.2c0-0.1,0.1-0.2,0.4-1c0.3-0.7,0.7-2,1.2-3.4h-1.1l-1.2,1.9
					l0.3-1.9h-0.9l-2.5,4c-0.1,0.1-0.2,0.2-0.3,0.3c-0.1,0.1-0.2,0.1-0.4,0.1c-0.1,0-0.3,0-0.4-0.1c-0.1-0.1-0.1-0.2-0.1-0.3
					c0-0.1,0.1-0.2,0.2-0.2c0.1,0,0.2-0.1,0.3-0.1c0.1,0,0.2,0.1,0.3,0.1v0c-0.1-0.2-0.2-0.3-0.4-0.4c-0.1-0.1-0.3-0.2-0.5-0.2
					c-0.2,0-0.4,0-0.6,0C35.3,9.8,35.1,9.9,35,10c-0.1,0.1-0.2,0.3-0.3,0.5c0,0.2-0.1,0.4,0,0.5c0,0.2,0.1,0.4,0.2,0.5
					c0.1,0.1,0.3,0.3,0.4,0.4C35.6,12,35.8,12,36,12c0.2,0,0.5-0.1,0.8-0.2c0.3-0.1,0.5-0.3,0.8-0.5c0.2-0.3,0.4-0.6,0.7-1l1-1.5
					L38.5,12l2.2-3.2c-0.3,0.7-0.5,1.3-0.6,1.8c-0.1,0.4-0.1,0.6-0.1,0.7c0,0.1,0.1,0.3,0.2,0.4c0.1,0.1,0.2,0.2,0.3,0.2
					c0.1,0,0.3,0.1,0.4,0c0.2,0,0.3-0.1,0.5-0.2c0.2-0.1,0.3-0.3,0.4-0.5c0,0.1,0.2,0.3,0.3,0.4c0.1,0.1,0.2,0.1,0.3,0.2
					c0.1,0.1,0.3,0.1,0.4,0.1c0.1,0,0.3,0,0.4,0c0.2,0,0.3-0.1,0.5-0.1c0.2-0.1,0.4-0.1,0.5-0.2c0.2-0.1,0.3-0.2,0.5-0.4
					c0.2-0.2,0.5-0.5,0.7-0.8c0.2-0.3,0.4-0.5,0.6-0.7c0.2-0.2,0.3-0.4,0.4-0.4c0.2-0.1,0.3,0,0.4,0c0.1,0,0.1,0.1,0.2,0.1
					c0.1,0.1,0.1,0.2,0.2,0.3c0,0.1,0,0.2,0,0.3c0,0.1-0.1,0.2-0.2,0.3c-0.1,0.1-0.2,0.3-0.3,0.4c-0.1,0.1-0.1,0.2-0.2,0.3
					c-0.1,0-0.1,0-0.2,0c-0.1,0-0.1-0.1-0.1-0.2c0-0.1,0-0.1,0.1-0.2c0.1-0.1,0.1-0.1,0.2-0.1c-0.2-0.1-0.4-0.2-0.5-0.2
					c-0.2,0-0.3,0-0.5,0.1c-0.1,0.1-0.2,0.2-0.3,0.3c-0.1,0.1-0.1,0.3-0.1,0.4c0,0.1,0.1,0.3,0.2,0.4c0.1,0.1,0.2,0.2,0.3,0.3
					c0.1,0.1,0.3,0.1,0.5,0.1c0.2,0,0.3-0.1,0.5-0.2c0.1-0.1,0.3-0.2,0.4-0.4c0,0.1,0.1,0.2,0.2,0.3c0.1,0.1,0.3,0.2,0.5,0.3
					c0.2,0,0.4,0,0.6,0c0.2,0,0.3-0.1,0.5-0.2c0.1-0.1,0.3-0.1,0.4-0.2c0.1,0.1,0.2,0.3,0.3,0.4c0.2,0.1,0.5,0.1,0.7,0.1
					c0.2,0,0.4-0.1,0.6-0.3c0.1-0.1,0.3-0.3,0.4-0.7c0,0.1,0.3,0.4,0.4,0.5c0.1,0.1,0.4,0.3,0.5,0.3c0.2,0.1,0.5,0.1,0.8,0.1
					c0.3,0,0.5-0.1,0.8-0.3c0.3-0.1,0.4-0.3,0.6-0.6c0,0.1,0.1,0.2,0.3,0.4c0.1,0.1,0.3,0.3,0.5,0.4c0.2,0.1,0.6,0.1,0.8,0.1
					c0.3-0.1,0.5-0.2,0.7-0.3c0.2-0.1,0.3-0.2,0.4-0.4c0.1-0.2,0.2-0.4,0.3-0.5c0.1-0.2,0.1-0.4,0.1-0.6c0.1,0,0.2-0.1,0.4-0.2
					c0.1-0.1,0.2-0.2,0.3-0.3c0.1-0.1,0.2-0.4,0.2-0.4C58.5,9.4,58.3,9.6,58.1,9.6 M43.3,9.9c0-0.1,0.1-0.2,0.1-0.3
					c0.1-0.1,0.2-0.2,0.3-0.2c0.1-0.1,0.2-0.1,0.3-0.1c0.1,0,0.2,0,0.3,0c0.1,0,0.1,0.1,0.2,0.1c0,0.1,0.1,0.1,0.1,0.2
					c0,0.1,0,0.1-0.1,0.2c-0.1,0.1-0.1,0.2-0.2,0.2c-0.1,0.1-0.2,0.1-0.3,0.1c-0.1,0-0.2,0-0.3,0c-0.1,0-0.2-0.1-0.2-0.1
					C43.3,10.1,43.3,10,43.3,9.9 M56.9,10.8L56.9,10.8c-0.1,0.2-0.2,0.2-0.3,0.3c-0.1,0.1-0.2,0.2-0.3,0.2c-0.1,0.1-0.2,0.1-0.3,0.1
					c-0.1,0-0.3,0-0.4-0.1c-0.1-0.1-0.2-0.2-0.2-0.4c0-0.2,0-0.4,0.1-0.6c0.1-0.2,0.1-0.3,0.2-0.4c0.1-0.1,0.2-0.2,0.3-0.3
					c0.1,0.1,0.1,0.2,0.3,0.3c0.1,0.1,0.3,0.2,0.4,0.2c0.1,0,0.5,0.1,0.5,0C57.1,10.4,57,10.6,56.9,10.8"/>
				<path class="st1" d="M51.5,7.1c-0.1,0-0.2,0-0.3,0.1C51.1,7.3,51,7.4,51,7.5c0,0.1,0,0.2,0,0.3c0,0.1,0.1,0.2,0.2,0.3
					c0.1,0.1,0.2,0.1,0.3,0.1c0.1,0,0.2,0,0.3-0.1C52,8,52,7.9,52.1,7.8c0-0.1,0-0.2,0-0.3c0-0.1-0.1-0.2-0.2-0.3
					C51.8,7.1,51.7,7.1,51.5,7.1"/>
				<path class="st5" d="M14.7,6.1c5.7-5.8,16-8.2,29.4-3.8l-4.5,3.3C34.9,3,26.2-1.7,14.7,6.1"/>
				<path class="st6" d="M14.7,6.1c3.9-4,11.9-6.3,21.1-3.3l-3.1,2.3C29.4,3.4,22.7,0.7,14.7,6.1"/>
				<path class="st7" d="M14.7,6.1c2.9-2.9,9-4.8,15.7-2.6l-2.2,1.7C25.7,3.9,20.5,2.2,14.7,6.1"/>
				<path class="st8" d="M14.7,6.1c2.3-2.4,6.5-3.5,11.9-1.7l-1.8,1.3C22.8,4.7,19.4,2.9,14.7,6.1"/>
			</g>
		</g>
	</g>
</g>
</svg>
