<?xml version="1.0" encoding="utf-8"?>
<!-- Generator: Adobe Illustrator 25.0.1, SVG Export Plug-In . SVG Version: 6.00 Build 0)  -->
<svg version="1.1" id="Capa_1" xmlns="http://www.w3.org/2000/svg" xmlns:xlink="http://www.w3.org/1999/xlink" x="0px" y="0px"
	 viewBox="0 0 153.4 16.1" style="enable-background:new 0 0 153.4 16.1;" xml:space="preserve">
<style type="text/css">
	.st0{fill:none;}
	.st1{fill:#003468;}
	.st2{font-family:'AvenirNext-DemiBold';}
	.st3{font-size:8.0197px;}
	.st4{fill:#EE3E42;}
	.st5{fill:#00539A;}
	.st6{fill:#0094D2;}
	.st7{fill:#79BCE7;}
	.st8{fill:#ACD4F0;}
</style>
<rect x="53.5" y="5.7" class="st0" width="111" height="12.6"/>
<g>
	<g>
		<text transform="matrix(1 0 0 1 68.7207 12.0807)" class="st1 st2 st3">Primera Clase Equipado</text>
	</g>
	<g>
		<g>
			<g>
				<path class="st1" d="M16.2,14.1c0.1,0,0.2,0,0.2,0c0,0,0.1,0,0.1,0c0,0,0,0,0.1-0.1h0.1l0,0.7h-0.1c0-0.1-0.1-0.2-0.2-0.3
					c-0.1-0.2-0.3-0.2-0.5-0.2c-0.2,0-0.4,0.1-0.5,0.3c-0.1,0.2-0.2,0.4-0.2,0.7c0,0.3,0.1,0.5,0.2,0.6c0.1,0.2,0.3,0.2,0.5,0.2
					c0.2,0,0.3,0,0.4-0.1c0.1,0,0.2-0.1,0.3-0.2l0.1,0.1c-0.1,0.1-0.2,0.2-0.3,0.2c-0.2,0.1-0.4,0.2-0.6,0.2c-0.3,0-0.6-0.1-0.8-0.3
					c-0.2-0.2-0.3-0.4-0.3-0.7c0-0.3,0.1-0.5,0.3-0.7c0.2-0.2,0.5-0.3,0.8-0.3C16,14,16.1,14.1,16.2,14.1"/>
				<path class="st1" d="M17.5,14.8c0.1,0,0.3,0.1,0.3,0.2c0.1,0.2,0.1,0.3,0.1,0.5c0,0.2,0,0.3-0.1,0.4C17.8,16,17.7,16,17.6,16
					c-0.1,0-0.3-0.1-0.3-0.2c-0.1-0.2-0.1-0.3-0.1-0.5c0-0.2,0-0.4,0.1-0.5C17.3,14.8,17.4,14.8,17.5,14.8 M16.8,15.4
					c0,0.2,0.1,0.4,0.2,0.5c0.1,0.1,0.3,0.2,0.5,0.2c0.2,0,0.4-0.1,0.5-0.2c0.1-0.1,0.2-0.3,0.2-0.5c0-0.2-0.1-0.4-0.2-0.5
					c-0.1-0.1-0.3-0.2-0.5-0.2c-0.2,0-0.4,0.1-0.5,0.2C16.9,15,16.8,15.2,16.8,15.4"/>
				<path class="st1" d="M18.4,16c0.1,0,0.1,0,0.1-0.1c0,0,0-0.1,0-0.2v-0.7c0-0.1,0-0.1,0-0.1c0,0-0.1-0.1-0.1-0.1c0,0,0,0,0,0
					c0,0,0,0,0,0v-0.1c0,0,0.1,0,0.3-0.1l0.1,0c0,0,0,0,0,0c0,0,0,0,0,0v0.2c0.1-0.1,0.2-0.1,0.2-0.2c0.1,0,0.2-0.1,0.2-0.1
					c0.1,0,0.1,0,0.2,0.1c0.1,0.1,0.2,0.2,0.2,0.4v0.7c0,0.1,0,0.1,0,0.2c0,0,0.1,0,0.1,0v0h-0.6v0c0.1,0,0.1,0,0.2-0.1
					c0,0,0-0.1,0-0.2v-0.6c0-0.1,0-0.2,0-0.2c0-0.1-0.1-0.1-0.2-0.1c-0.1,0-0.1,0-0.2,0.1c0,0-0.1,0.1-0.1,0.1v0.8
					c0,0.1,0,0.1,0,0.1c0,0,0.1,0,0.1,0v0L18.4,16L18.4,16z"/>
				<path class="st1" d="M19.9,16c0.1,0,0.2,0,0.2-0.1c0,0,0.1-0.1,0.1-0.2v-0.9h-0.3v-0.1h0.3c0-0.2,0-0.3,0.1-0.4
					c0.1-0.2,0.2-0.3,0.4-0.3c0.1,0,0.2,0,0.2,0.1c0.1,0,0.1,0.1,0.1,0.1c0,0,0,0.1,0,0.1c0,0-0.1,0-0.1,0c0,0-0.1,0-0.1,0
					c0,0,0,0-0.1-0.1l0,0c0,0,0,0,0-0.1c0,0,0,0-0.1,0c-0.1,0-0.1,0-0.2,0.1c0,0,0,0.1,0,0.2v0.4h0.4v0.1h-0.4v0.9
					c0,0.1,0,0.2,0,0.2c0,0,0.1,0.1,0.2,0.1v0L19.9,16L19.9,16z"/>
				<path class="st1" d="M21.1,14.1c0,0,0.1,0,0.1,0c0,0,0.1,0,0.1,0c0,0,0,0.1,0,0.1c0,0,0,0.1,0,0.1c0,0-0.1,0-0.1,0
					c0,0-0.1,0-0.1,0c0,0,0-0.1,0-0.1C21.1,14.1,21.1,14.1,21.1,14.1 M20.9,16c0.1,0,0.2,0,0.2-0.1c0,0,0-0.1,0-0.2v-0.7
					c0-0.1,0-0.1,0-0.1c0,0,0-0.1-0.1-0.1c0,0,0,0,0,0c0,0,0,0-0.1,0v0l0.1,0c0.2-0.1,0.3-0.1,0.4-0.1c0,0,0,0,0.1,0c0,0,0,0,0,0
					v1.1c0,0.1,0,0.2,0,0.2c0,0,0.1,0,0.2,0.1v0L20.9,16L20.9,16z"/>
				<path class="st1" d="M22.5,15.7c0,0.1,0,0.1-0.1,0.1c-0.1,0-0.1,0.1-0.2,0.1c0,0-0.1,0-0.1,0c-0.1,0-0.1-0.1-0.1-0.2
					c0-0.1,0.1-0.2,0.2-0.3c0.1,0,0.2-0.1,0.3-0.1V15.7z M21.8,15.8c0,0.1,0,0.2,0.1,0.2c0.1,0.1,0.1,0.1,0.2,0.1
					c0.1,0,0.2,0,0.3-0.1c0.1,0,0.1-0.1,0.2-0.1c0,0.1,0,0.1,0.1,0.2c0,0,0.1,0.1,0.1,0.1c0.1,0,0.1,0,0.2-0.1c0,0,0.1-0.1,0.1-0.1
					v-0.1c0,0-0.1,0-0.1,0.1c0,0,0,0-0.1,0c0,0-0.1,0-0.1-0.1c0,0,0-0.1,0-0.1v-0.6c0-0.1,0-0.2-0.1-0.3c-0.1-0.1-0.2-0.2-0.4-0.2
					c-0.2,0-0.3,0-0.4,0.1c-0.1,0.1-0.1,0.1-0.1,0.2c0,0,0,0.1,0,0.1c0,0,0.1,0,0.1,0c0,0,0.1,0,0.1,0c0,0,0.1-0.1,0.1-0.1
					c0,0,0,0,0-0.1c0,0,0,0,0-0.1c0,0,0-0.1,0.1-0.1c0,0,0.1,0,0.1,0c0.1,0,0.2,0,0.2,0.1c0,0,0,0.1,0,0.2v0.1
					c-0.3,0.1-0.5,0.2-0.5,0.2C21.9,15.5,21.8,15.6,21.8,15.8"/>
				<path class="st1" d="M23.1,16c0.1,0,0.1,0,0.1-0.1c0,0,0-0.1,0-0.2v-0.7c0-0.1,0-0.1,0-0.1c0,0-0.1-0.1-0.1-0.1c0,0,0,0,0,0
					c0,0,0,0,0,0v-0.1c0,0,0.1,0,0.3-0.1l0.1,0c0,0,0,0,0,0c0,0,0,0,0,0v0.2c0.1-0.1,0.2-0.1,0.2-0.2c0.1,0,0.2-0.1,0.2-0.1
					c0.1,0,0.1,0,0.2,0.1c0.1,0.1,0.2,0.2,0.2,0.4v0.7c0,0.1,0,0.1,0,0.2c0,0,0.1,0,0.1,0v0h-0.6v0c0.1,0,0.1,0,0.2-0.1
					c0,0,0-0.1,0-0.2v-0.6c0-0.1,0-0.2,0-0.2c0-0.1-0.1-0.1-0.2-0.1c-0.1,0-0.1,0-0.2,0.1c0,0-0.1,0.1-0.1,0.1v0.8
					c0,0.1,0,0.1,0,0.1c0,0,0.1,0,0.2,0v0L23.1,16L23.1,16z"/>
				<path class="st1" d="M25.8,14.7L25.8,14.7L24.9,16h0.4c0.1,0,0.2,0,0.3-0.1c0,0,0.1-0.1,0.1-0.3l0.1,0l0,0.4h-1.1v0l0.8-1.2H25
					c-0.1,0-0.2,0-0.2,0.1c0,0-0.1,0.1-0.1,0.2h-0.1l0-0.4H25.8z"/>
				<path class="st1" d="M26.8,15.7c0,0.1,0,0.1-0.1,0.1c-0.1,0-0.1,0.1-0.2,0.1c0,0-0.1,0-0.1,0c-0.1,0-0.1-0.1-0.1-0.2
					c0-0.1,0.1-0.2,0.2-0.3c0.1,0,0.2-0.1,0.3-0.1V15.7z M26,15.8c0,0.1,0,0.2,0.1,0.2c0.1,0.1,0.1,0.1,0.2,0.1c0.1,0,0.2,0,0.3-0.1
					c0.1,0,0.1-0.1,0.2-0.1c0,0.1,0,0.1,0,0.2c0,0,0.1,0.1,0.1,0.1c0.1,0,0.1,0,0.2-0.1c0,0,0.1-0.1,0.1-0.1v-0.1c0,0-0.1,0-0.1,0.1
					c0,0,0,0-0.1,0c0,0-0.1,0-0.1-0.1c0,0,0-0.1,0-0.1v-0.6c0-0.1,0-0.2-0.1-0.3c-0.1-0.1-0.2-0.2-0.4-0.2c-0.2,0-0.3,0-0.4,0.1
					c-0.1,0.1-0.1,0.1-0.1,0.2c0,0,0,0.1,0,0.1c0,0,0.1,0,0.1,0c0,0,0.1,0,0.1,0c0,0,0.1-0.1,0.1-0.1c0,0,0,0,0-0.1c0,0,0,0,0-0.1
					c0,0,0-0.1,0.1-0.1c0,0,0.1,0,0.1,0c0.1,0,0.2,0,0.2,0.1c0,0,0,0.1,0,0.2v0.1c-0.3,0.1-0.5,0.2-0.5,0.2
					C26.1,15.5,26,15.6,26,15.8"/>
				<path class="st1" d="M28.6,14.8c0.1,0,0.2,0,0.2,0.1c0,0,0,0.1,0.1,0.2h-0.6c0-0.1,0-0.1,0.1-0.2C28.4,14.8,28.5,14.8,28.6,14.8
					 M28.7,14.7c-0.2,0-0.3,0.1-0.5,0.2c-0.1,0.1-0.2,0.3-0.2,0.5c0,0.2,0.1,0.3,0.2,0.5c0.1,0.1,0.2,0.2,0.4,0.2
					c0.2,0,0.3-0.1,0.4-0.2c0.1-0.1,0.2-0.2,0.2-0.3l-0.1,0c-0.1,0.1-0.1,0.2-0.2,0.2c-0.1,0.1-0.2,0.1-0.3,0.1
					c-0.1,0-0.2-0.1-0.3-0.2c-0.1-0.1-0.1-0.3-0.2-0.5h0.9c0-0.2-0.1-0.3-0.2-0.4C29,14.7,28.8,14.7,28.7,14.7"/>
				<path class="st1" d="M29.4,16c0.1,0,0.1,0,0.1-0.1c0,0,0-0.1,0-0.2v-0.7c0-0.1,0-0.1,0-0.1c0,0-0.1-0.1-0.1-0.1c0,0,0,0,0,0
					c0,0,0,0,0,0v-0.1c0,0,0.1,0,0.3-0.1l0.1,0c0,0,0,0,0,0c0,0,0,0,0,0v0.2c0.1-0.1,0.2-0.1,0.2-0.2c0.1,0,0.2-0.1,0.2-0.1
					c0.1,0,0.1,0,0.2,0.1c0.1,0.1,0.2,0.2,0.2,0.4v0.7c0,0.1,0,0.1,0,0.2c0,0,0.1,0,0.1,0v0h-0.6v0c0.1,0,0.1,0,0.2-0.1
					c0,0,0-0.1,0-0.2v-0.6c0-0.1,0-0.2,0-0.2c0-0.1-0.1-0.1-0.2-0.1c-0.1,0-0.1,0-0.2,0.1c0,0-0.1,0.1-0.1,0.1v0.8
					c0,0.1,0,0.1,0,0.1c0,0,0.1,0,0.2,0v0L29.4,16L29.4,16z"/>
				<path class="st1" d="M32.2,14.8c0.1,0,0.2,0,0.2,0.1c0,0,0,0.1,0.1,0.2h-0.6c0-0.1,0-0.1,0.1-0.2C32,14.8,32.1,14.8,32.2,14.8
					 M32.3,14.7c-0.2,0-0.3,0.1-0.5,0.2c-0.1,0.1-0.2,0.3-0.2,0.5c0,0.2,0.1,0.3,0.2,0.5c0.1,0.1,0.2,0.2,0.4,0.2
					c0.2,0,0.3-0.1,0.4-0.2c0.1-0.1,0.2-0.2,0.2-0.3l-0.1,0c-0.1,0.1-0.1,0.2-0.2,0.2c-0.1,0.1-0.2,0.1-0.3,0.1
					c-0.1,0-0.2-0.1-0.3-0.2c-0.1-0.1-0.1-0.3-0.2-0.5h0.9c0-0.2-0.1-0.3-0.2-0.4C32.6,14.7,32.5,14.7,32.3,14.7"/>
				<path class="st1" d="M33,16c0.1,0,0.2,0,0.2-0.1c0,0,0.1-0.1,0.1-0.2v-1.4c0-0.1,0-0.1,0-0.1c0,0-0.1-0.1-0.1-0.1c0,0,0,0,0,0
					c0,0,0,0-0.1,0v0c0.1,0,0.3-0.1,0.5-0.1c0,0,0,0,0,0c0,0,0,0,0,0v1.8c0,0.1,0,0.1,0,0.2c0,0,0.1,0,0.2,0v0L33,16L33,16z"/>
				<path class="st1" d="M35.7,14.8c0.1,0.1,0.1,0.1,0.1,0.2c0,0,0,0.1,0,0.1c0,0-0.1,0-0.1,0c0,0-0.1,0-0.1,0c0,0,0-0.1-0.1-0.1
					l0-0.1c0-0.1,0-0.1-0.1-0.1c0,0-0.1,0-0.1,0c-0.1,0-0.2,0-0.3,0.1c-0.1,0.1-0.1,0.2-0.1,0.4c0,0.1,0,0.3,0.1,0.4
					c0.1,0.1,0.2,0.2,0.3,0.2c0.1,0,0.2,0,0.3-0.1c0,0,0.1-0.1,0.2-0.2l0,0c-0.1,0.1-0.1,0.2-0.2,0.3c-0.1,0.1-0.3,0.2-0.4,0.2
					c-0.2,0-0.3-0.1-0.4-0.2c-0.1-0.1-0.2-0.3-0.2-0.5c0-0.2,0.1-0.4,0.2-0.5c0.1-0.1,0.3-0.2,0.5-0.2
					C35.5,14.7,35.6,14.7,35.7,14.8"/>
				<path class="st1" d="M36.8,15.7c0,0.1,0,0.1-0.1,0.1c-0.1,0-0.1,0.1-0.2,0.1c0,0-0.1,0-0.1,0c-0.1,0-0.1-0.1-0.1-0.2
					c0-0.1,0.1-0.2,0.2-0.3c0.1,0,0.2-0.1,0.3-0.1V15.7z M36.1,15.8c0,0.1,0,0.2,0.1,0.2c0.1,0.1,0.1,0.1,0.2,0.1
					c0.1,0,0.2,0,0.3-0.1c0.1,0,0.1-0.1,0.2-0.1c0,0.1,0,0.1,0,0.2c0,0,0.1,0.1,0.1,0.1c0.1,0,0.1,0,0.2-0.1c0,0,0.1-0.1,0.1-0.1
					v-0.1c0,0-0.1,0-0.1,0.1c0,0,0,0-0.1,0c0,0-0.1,0-0.1-0.1c0,0,0-0.1,0-0.1v-0.6c0-0.1,0-0.2-0.1-0.3c-0.1-0.1-0.2-0.2-0.4-0.2
					c-0.2,0-0.3,0-0.4,0.1c-0.1,0.1-0.1,0.1-0.1,0.2c0,0,0,0.1,0,0.1c0,0,0.1,0,0.1,0c0,0,0.1,0,0.1,0c0,0,0.1-0.1,0.1-0.1
					c0,0,0,0,0-0.1c0,0,0,0,0-0.1c0,0,0-0.1,0.1-0.1c0,0,0.1,0,0.1,0c0.1,0,0.2,0,0.2,0.1c0,0,0,0.1,0,0.2v0.1
					c-0.3,0.1-0.5,0.2-0.5,0.2C36.1,15.5,36.1,15.6,36.1,15.8"/>
				<path class="st1" d="M37.3,16c0.1,0,0.1,0,0.2,0c0,0,0.1-0.1,0.1-0.2v-0.8c0-0.1,0-0.1,0-0.1c0,0-0.1,0-0.1,0c0,0,0,0,0,0
					c0,0,0,0,0,0v0l0.1,0c0,0,0.1,0,0.2-0.1c0.1,0,0.1-0.1,0.1-0.1c0,0,0,0,0,0c0,0,0,0,0,0v0.2c0.1-0.1,0.2-0.2,0.3-0.2
					c0.1,0,0.1-0.1,0.2-0.1c0.1,0,0.2,0,0.2,0.1c0,0,0.1,0.1,0.1,0.2c0.1-0.1,0.1-0.1,0.2-0.2c0.1-0.1,0.2-0.1,0.3-0.1
					c0.2,0,0.3,0.1,0.3,0.2c0,0.1,0,0.2,0,0.3v0.6c0,0.1,0,0.1,0,0.1c0,0,0.1,0,0.2,0v0H39v0c0.1,0,0.1,0,0.2-0.1c0,0,0-0.1,0-0.2
					v-0.6c0-0.1,0-0.2,0-0.2c0-0.1-0.1-0.1-0.2-0.1c-0.1,0-0.1,0-0.2,0.1c0,0-0.1,0.1-0.1,0.1v0.8c0,0.1,0,0.1,0,0.2
					c0,0,0.1,0.1,0.2,0.1v0h-0.7v0c0.1,0,0.2,0,0.2-0.1c0,0,0-0.1,0-0.2v-0.4c0-0.1,0-0.3,0-0.3c0-0.1-0.1-0.1-0.2-0.1
					c-0.1,0-0.1,0-0.2,0c-0.1,0-0.1,0.1-0.2,0.1v0.8c0,0.1,0,0.1,0,0.2c0,0,0.1,0,0.2,0v0L37.3,16L37.3,16z"/>
				<path class="st1" d="M39.9,14.1c0,0,0.1,0,0.1,0c0,0,0.1,0,0.1,0c0,0,0,0.1,0,0.1c0,0,0,0.1,0,0.1c0,0-0.1,0-0.1,0
					c0,0-0.1,0-0.1,0c0,0,0-0.1,0-0.1C39.9,14.1,39.9,14.1,39.9,14.1 M39.7,16c0.1,0,0.2,0,0.2-0.1c0,0,0-0.1,0-0.2v-0.7
					c0-0.1,0-0.1,0-0.1c0,0,0-0.1-0.1-0.1c0,0,0,0,0,0c0,0,0,0-0.1,0v0l0.1,0c0.2-0.1,0.3-0.1,0.4-0.1c0,0,0,0,0.1,0c0,0,0,0,0,0
					v1.1c0,0.1,0,0.2,0,0.2c0,0,0.1,0,0.2,0.1v0L39.7,16L39.7,16z"/>
				<path class="st1" d="M40.6,16c0.1,0,0.1,0,0.1-0.1c0,0,0-0.1,0-0.2v-0.7c0-0.1,0-0.1,0-0.1c0,0-0.1-0.1-0.1-0.1c0,0,0,0,0,0
					c0,0,0,0,0,0v-0.1c0,0,0.1,0,0.3-0.1l0.1,0c0,0,0,0,0,0c0,0,0,0,0,0v0.2c0.1-0.1,0.2-0.1,0.2-0.2c0.1,0,0.2-0.1,0.2-0.1
					c0.1,0,0.1,0,0.2,0.1c0.1,0.1,0.2,0.2,0.2,0.4v0.7c0,0.1,0,0.1,0,0.2c0,0,0.1,0,0.1,0v0h-0.6v0c0.1,0,0.1,0,0.2-0.1
					c0,0,0-0.1,0-0.2v-0.6c0-0.1,0-0.2,0-0.2c0-0.1-0.1-0.1-0.2-0.1c-0.1,0-0.1,0-0.2,0.1c0,0-0.1,0.1-0.1,0.1v0.8
					c0,0.1,0,0.1,0,0.1c0,0,0.1,0,0.1,0v0L40.6,16L40.6,16z"/>
				<path class="st1" d="M42.7,14.8c0.1,0,0.3,0.1,0.3,0.2c0.1,0.2,0.1,0.3,0.1,0.5c0,0.2,0,0.3-0.1,0.4C43,16,42.9,16,42.8,16
					c-0.1,0-0.3-0.1-0.3-0.2c-0.1-0.2-0.1-0.3-0.1-0.5c0-0.2,0-0.4,0.1-0.5C42.6,14.8,42.7,14.8,42.7,14.8 M42.1,15.4
					c0,0.2,0.1,0.4,0.2,0.5c0.1,0.1,0.3,0.2,0.5,0.2c0.2,0,0.4-0.1,0.5-0.2c0.1-0.1,0.2-0.3,0.2-0.5c0-0.2-0.1-0.4-0.2-0.5
					c-0.1-0.1-0.3-0.2-0.5-0.2c-0.2,0-0.4,0.1-0.5,0.2C42.2,15,42.1,15.2,42.1,15.4"/>
				<path class="st1" d="M43.8,16.1c0,0-0.1-0.1-0.1-0.1c0,0,0-0.1,0.1-0.1c0,0,0.1,0,0.1,0c0,0,0.1,0,0.1,0c0,0,0.1,0.1,0.1,0.1
					c0,0,0,0.1,0,0.1c0,0-0.1,0-0.1,0C43.9,16.1,43.8,16.1,43.8,16.1"/>
				<rect y="13.1" class="st4" width="58.7" height="0.4"/>
				<path class="st1" d="M44.3,8.2c0.2,0,0.3,0,0.5,0c0.2,0,0.4-0.1,0.6-0.2c0.2-0.1,0.3-0.2,0.4-0.3l-1-0.6c0,0.2,0,0.5-0.1,0.7
					C44.7,7.9,44.5,8.1,44.3,8.2"/>
				<path class="st1" d="M33.8,9.2c-0.1-0.1-0.2-0.3-0.3-0.4c-0.1-0.1-0.3-0.2-0.5-0.2c-0.2,0-0.4,0-0.7,0.1
					c-0.2,0.1-0.4,0.2-0.6,0.3c-0.2,0.1-0.3,0.2-0.4,0.4c-0.1,0.1-0.2,0.3-0.4,0.5c-0.1,0.2-0.3,0.6-0.5,0.8
					c-0.2,0.2-0.2,0.3-0.3,0.4c-0.1,0.1-0.2,0.2-0.4,0.2c-0.1,0-0.1,0-0.2,0c0,0-0.1-0.1,0-0.3c0.1-0.1,0.2-0.3,0.3-0.6l2.2-3.9h-1
					l-1.4,2.5c-0.1-0.1-0.2-0.2-0.4-0.2c-0.1-0.1-0.2-0.1-0.4-0.1c-0.1,0-0.3,0-0.5,0c-0.2,0-0.3,0.1-0.5,0.1
					c-0.2,0.1-0.4,0.2-0.5,0.3c-0.2,0.1-0.3,0.2-0.5,0.4c-0.1,0.1-0.3,0.3-0.4,0.4c-0.1,0.1-0.2,0.3-0.2,0.4c0,0.2-0.1,0.3-0.1,0.5
					c0,0.2,0,0.3,0.1,0.5c0.1,0.2,0.1,0.3,0.3,0.4c0.1,0.1,0.3,0.2,0.5,0.3c0.2,0,0.6,0,0.8,0c0.2-0.1,0.4-0.2,0.6-0.3
					c0.1,0.1,0.2,0.2,0.3,0.3c0.1,0.1,0.4,0.1,0.5,0c0.1,0,0.2,0,0.4-0.1c0.1-0.1,0.3-0.2,0.4-0.3c0.1-0.1,0.2-0.2,0.3-0.3
					c0,0.1,0.1,0.1,0.1,0.2c0.1,0.1,0.1,0.1,0.2,0.2c0.1,0.1,0.2,0.2,0.4,0.2c0.1,0,0.3,0.1,0.5,0.1c0.2,0,0.4,0,0.6,0
					c0.2,0,0.4-0.1,0.5-0.2c0.2-0.1,0.3-0.1,0.4-0.2l0.2-0.6c-0.2,0.1-0.4,0.2-0.5,0.2c-0.1,0.1-0.3,0.1-0.4,0.1c-0.1,0-0.3,0-0.5,0
					c-0.1,0-0.3-0.1-0.4-0.2c-0.1-0.1-0.1-0.2-0.1-0.3c0-0.1,0-0.2,0.1-0.3c0.1,0.1,0.2,0.2,0.3,0.2c0.1,0,0.3,0.1,0.5,0.1
					c0.2,0,0.4,0,0.7-0.1c0.2-0.1,0.4-0.3,0.5-0.4c0.1-0.1,0.2-0.2,0.2-0.4c0-0.1,0.1-0.3,0.1-0.4C33.9,9.5,33.9,9.3,33.8,9.2
					 M28.9,10.8c-0.4,0.5-0.9,0.8-1.2,0.6c-0.3-0.2-0.2-0.8,0.2-1.3c0.4-0.5,0.9-0.8,1.2-0.6C29.4,9.7,29.3,10.3,28.9,10.8
					 M33.2,9.9c0,0.1-0.1,0.2-0.2,0.3c-0.1,0.1-0.2,0.2-0.4,0.2c-0.1,0-0.3,0-0.4-0.1c-0.1-0.1-0.2-0.2-0.2-0.3c0-0.1,0-0.3,0.1-0.4
					c0.1-0.1,0.2-0.2,0.3-0.3c0.1-0.1,0.2-0.1,0.4-0.1c0.1,0,0.2,0.1,0.3,0.2C33.2,9.6,33.3,9.7,33.2,9.9"/>
				<path class="st1" d="M4.9,9.8C5,9.5,5.1,9.2,5.1,8.9c0.1-0.3,0.1-0.5,0.1-0.7c0-0.2-0.1-0.5-0.1-0.7C5,7.3,5,7.1,4.9,7
					C4.8,6.9,4.7,6.8,4.5,6.7C4.4,6.7,4.2,6.6,4.1,6.6c-0.2,0-0.4,0-0.6,0C3.3,6.6,3.1,6.7,3,6.8C2.8,6.8,2.7,6.9,2.6,7
					C2.4,7.2,2.3,7.3,2.3,7.4C2.2,7.5,2.1,7.7,2.1,7.8C2.1,7.9,2,8,2,8.2c0,0.1,0,0.3,0.1,0.4c0,0.1,0.1,0.3,0.1,0.4
					c0.1,0.1,0.2,0.2,0.3,0.3c0.1,0.1,0.2,0.1,0.3,0.2c0.1,0,0.3,0.1,0.4,0.1c0.1,0,0.2,0,0.4-0.1c0.1,0,0.3-0.1,0.4-0.2
					C4.1,9.2,4.2,9.1,4.2,9c0.1-0.1,0.1-0.2,0.2-0.3c0-0.1,0.1-0.2,0.1-0.3c0-0.1,0-0.2,0-0.3c0-0.1-0.1-0.1-0.1-0.2
					C4.3,7.9,4.3,8,4.2,8C4.2,8,4.1,8,4,8C3.9,8,3.8,8,3.8,8c-0.1,0-0.2-0.1-0.2-0.2c0-0.1-0.1-0.2,0-0.3c0-0.1,0-0.2,0.1-0.2
					c0.1-0.1,0.2-0.1,0.3-0.2c0.1,0,0.2,0,0.3,0c0.1,0,0.2,0.1,0.2,0.1c0.1,0.1,0.1,0.1,0.2,0.2c0,0.1,0.1,0.2,0.1,0.3
					c0,0.1,0,0.2,0,0.3c0,0.1,0,0.3,0,0.4c0,0.2-0.1,0.4-0.1,0.6C4.5,9.5,4.4,9.7,4.3,9.8c-0.1,0.2-0.2,0.4-0.3,0.5
					c-0.1,0.2-0.3,0.3-0.4,0.4c-0.2,0.1-0.3,0.2-0.4,0.3c-0.2,0.1-0.3,0.1-0.5,0.2c-0.2,0-0.4,0-0.6,0c-0.2-0.1-0.3-0.2-0.5-0.3
					c-0.2-0.2-0.3-0.4-0.3-0.6c-0.1-0.2-0.1-0.6-0.1-0.9c0-0.3,0.1-0.6,0.2-0.9C1.4,8.2,1.5,8,1.7,7.8C1.8,7.7,1.9,7.5,2,7.3
					C2.1,7.2,2.2,7.1,2.3,7c0.1-0.1,0.2-0.2,0.3-0.3c-0.2,0-0.3,0.1-0.5,0.2C1.9,7,1.7,7.2,1.5,7.3C1.3,7.4,1.1,7.6,0.9,7.8
					C0.8,7.9,0.7,8.1,0.5,8.2C0.4,8.4,0.3,8.6,0.2,8.7C0.1,8.9,0.1,9.1,0,9.3c0,0.2,0,0.4,0,0.6c0,0.2,0,0.4,0.1,0.5
					c0,0.2,0.1,0.4,0.2,0.5c0.1,0.2,0.2,0.3,0.3,0.5c0.1,0.1,0.2,0.2,0.4,0.3c0.1,0.1,0.2,0.2,0.4,0.2C1.5,12,1.6,12,1.8,12
					c0.2,0,0.4,0,0.6,0c0.2,0,0.4,0,0.6-0.1c0.2,0,0.3-0.1,0.5-0.2c0.1-0.1,0.3-0.2,0.4-0.3c0.1-0.1,0.3-0.3,0.4-0.4
					c0.1-0.2,0.2-0.4,0.4-0.6C4.7,10.3,4.8,10,4.9,9.8"/>
				<path class="st1" d="M25.1,9.1C25.2,9,25.3,9,25.4,9c0.1,0,0.2,0,0.3,0l-0.3-0.6c-0.3,0-0.7,0-1,0c-0.3,0-0.6,0.1-0.8,0.2
					c-0.2,0.1-0.5,0.2-0.7,0.4c-0.2,0.2-0.4,0.4-0.6,0.6c-0.2,0.3-0.4,0.7-0.6,0.9c-0.2,0.3-0.3,0.4-0.4,0.5
					c-0.1,0.1-0.1,0.1-0.2,0.1c-0.1,0-0.1,0-0.1,0c0,0,0-0.1,0-0.1c0,0,0-0.1,0-0.1l1.3-2.3h-1l-1.2,2.2c0,0-0.2,0.2-0.4,0.3
					c0,0-0.1,0-0.1,0c0,0-0.1,0-0.1,0c0,0-0.1,0-0.1-0.1c0,0,0-0.1,0-0.1l1.3-2.3h-1.1L18.9,10c-0.1,0.2-0.3,0.3-0.5,0.5
					c-0.1,0.1-0.2,0.2-0.3,0.2c0.1-0.3,0.2-0.6,0.2-0.8c0-0.2,0-0.4-0.1-0.6c-0.1-0.2-0.2-0.4-0.3-0.5c-0.1-0.1-0.3-0.1-0.5-0.2
					c-0.2,0-0.3,0-0.5,0c-0.1,0-0.3,0.1-0.4,0.1l1.2-2.2l-1.1,0l-2.4,4.3c0,0.1-0.1,0.1-0.1,0.2c-0.1,0-0.1,0.1-0.2,0.1
					c-0.1,0-0.1,0-0.2,0c-0.1,0-0.1-0.1-0.1-0.1c0-0.1,0-0.1,0.1-0.2L15,8.7h-1L12.7,11c0,0.1-0.1,0.1-0.2,0.2c-0.1,0-0.2,0-0.2,0
					c-0.1,0-0.1,0-0.1-0.1c0,0,0-0.1,0-0.2l0.7-1.2C12.9,9.6,13,9.4,13,9.4c0-0.1,0-0.4-0.1-0.5c0-0.1-0.1-0.2-0.2-0.2
					c-0.1,0-0.2-0.1-0.3-0.1c-0.1,0-0.3,0-0.4,0.1c-0.1,0.1-0.2,0.1-0.3,0.2l0.2-0.3h-1.1l-1.3,2.3c0,0.1-0.1,0.1-0.1,0.2
					c0,0-0.1,0.1-0.2,0.1c-0.1,0-0.1,0-0.2,0c0,0-0.1,0-0.1-0.1C9,11,9,11,9,11c0,0,0-0.1,0.1-0.1l0.7-1.2c0-0.1,0.1-0.2,0.1-0.3
					c0-0.1-0.1-0.2-0.1-0.3c0-0.1-0.1-0.2-0.2-0.2C9.5,8.7,9.4,8.7,9.3,8.7c-0.1,0-0.2,0-0.2,0c-0.1,0-0.1,0-0.2,0
					c-0.1,0-0.1,0-0.2,0.1C8.6,8.8,8.5,8.9,8.4,9c0-0.1-0.2-0.2-0.2-0.2C8.1,8.7,8,8.7,8,8.7c-0.1,0-0.1,0-0.2,0c-0.1,0-0.2,0-0.3,0
					c-0.1,0-0.2,0.1-0.3,0.1C7.1,8.9,7.1,8.9,7,9c0-0.1-0.1-0.1-0.2-0.2c-0.1,0-0.1-0.1-0.2-0.1c-0.1,0-0.2,0-0.3-0.1
					c-0.1,0-0.2,0-0.3,0C6,8.7,5.8,8.8,5.7,8.8C5.6,8.9,5.5,8.9,5.5,9C5.4,9.1,5.3,9.1,5.3,9.2C5.2,9.3,5.2,9.4,5.1,9.5l0,0
					c0,0,0,0.3,0,0.3c0.1,0,0.1,0,0.1,0c0.1,0,0.1,0,0.2,0c0,0,0.1,0,0.1,0.1c0,0,0.1,0.1,0,0.1c0,0.1-0.1,0.2-0.1,0.3l-1,1.8h1
					l1.1-2c0-0.1,0.1-0.2,0.1-0.2c0.1,0,0.1-0.1,0.2-0.1c0.1,0,0.1,0,0.2,0.1c0,0,0,0.1,0,0.2l-1.2,2.1h1.1l1.1-2c0,0,0-0.1,0.1-0.1
					c0.1,0,0.1-0.1,0.2-0.1c0.1,0,0.1,0,0.2,0.1c0,0.1,0,0.1,0,0.2c0,0.1-0.1,0.2-0.2,0.3l-0.5,0.8c0,0.1-0.1,0.2-0.1,0.3
					c0,0.1,0.1,0.2,0.2,0.3C8,12,8.2,12,8.3,12.1c0.1,0,0.3,0,0.4-0.1c0.1,0,0.2-0.1,0.2-0.1c0.1,0,0.2-0.1,0.2-0.2L9,12.1H10l1.1-2
					c0,0,0-0.1,0.1-0.1c0,0,0.1-0.1,0.1-0.1c0.1,0,0.1,0,0.2,0c0.1,0,0.1,0,0.1,0.1c0,0.1,0,0.1,0,0.2l-0.6,1c0,0.1-0.1,0.2-0.1,0.3
					c0,0.1,0,0.2,0,0.3c0,0.1,0.1,0.2,0.2,0.3c0.1,0.1,0.2,0.1,0.4,0.1c0.1,0,0.3,0,0.5-0.1c0.2-0.1,0.3-0.3,0.5-0.4
					c0,0.2,0.1,0.4,0.2,0.5c0.1,0.1,0.2,0.1,0.4,0.1c0.2,0,0.4-0.1,0.5-0.1c0.1-0.1,0.3-0.2,0.4-0.3l-0.2,0.4h1.1l0.4-0.8
					c0,0.3,0.2,0.5,0.4,0.6c0.2,0.1,0.3,0.2,0.5,0.2c0.2,0,0.4,0,0.6-0.1c0.2-0.1,0.3-0.1,0.5-0.2c0.2-0.1,0.3-0.2,0.5-0.3
					c0.2-0.1,0.3-0.2,0.5-0.3c0,0.1,0.1,0.3,0.1,0.3c0,0.1,0.1,0.2,0.2,0.3c0.1,0.1,0.2,0.2,0.2,0.2c0.1,0.1,0.1,0.1,0.2,0.1
					c0.1,0,0.3,0,0.4,0c0.1,0,0.2-0.1,0.3-0.1c0.1,0,0.1-0.1,0.2-0.1c0.1,0,0.1-0.1,0.2-0.1c0,0,0,0.1,0,0.1c0,0,0,0.1,0.1,0.1
					c0.1,0,0.1,0.1,0.3,0.1c0.1,0,0.5,0,0.5,0c0.1,0,0.3-0.1,0.4-0.2c0.1-0.1,0.3-0.2,0.4-0.4c0.1-0.2,0.2-0.4,0.4-0.7
					c0.2-0.3,0.3-0.6,0.6-0.8c0.2-0.2,0.4-0.4,0.6-0.5c0.2-0.1,0.4-0.2,0.5-0.3c0.1,0,0.3-0.1,0.4-0.1c-0.1,0.1-0.2,0.2-0.2,0.3
					C24,9.4,24,9.5,24,9.6c0,0.1,0,0.2,0,0.3c0,0.1,0,0.2,0.1,0.4c0.1,0.2,0.1,0.4,0.2,0.5c0,0.2,0,0.3,0,0.3c0,0.1-0.1,0.1-0.2,0.1
					c-0.1,0-0.2,0-0.3,0c-0.1-0.1-0.1-0.1-0.1-0.2c0-0.1,0.1-0.1,0.1-0.2c0.1,0,0.1-0.1,0.2-0.1c0.1,0,0.2,0,0.2,0
					c0-0.1-0.1-0.2-0.2-0.2c-0.1-0.1-0.2-0.2-0.3-0.2c-0.1-0.1-0.3-0.1-0.5-0.1c-0.2,0-0.3,0.1-0.4,0.2c-0.1,0.1-0.2,0.2-0.2,0.3
					c-0.1,0.1-0.1,0.3,0,0.4c0,0.1,0.1,0.3,0.1,0.4c0.1,0.1,0.1,0.1,0.2,0.2c0.1,0.1,0.2,0.2,0.4,0.2c0.2,0,0.4,0.1,0.6,0.1
					c0.2,0,0.6,0,0.7-0.1c0.2-0.1,0.2-0.1,0.4-0.2c0.1-0.1,0.2-0.2,0.3-0.4c0.1-0.1,0.1-0.3,0.2-0.4c0-0.1,0-0.3-0.1-0.5
					c-0.1-0.2-0.1-0.3-0.3-0.4c-0.1-0.2-0.2-0.3-0.2-0.4c0-0.1,0-0.3,0.1-0.4C25,9.2,25,9.1,25.1,9.1 M17.3,10.1
					c0,0.1,0,0.1-0.1,0.3c-0.1,0.1-0.2,0.3-0.2,0.5c-0.1,0.1-0.2,0.3-0.3,0.3c-0.1,0.1-0.2,0.1-0.3,0.2c-0.1,0-0.2,0-0.3,0
					c-0.1,0-0.2,0-0.2-0.1c-0.1,0-0.1-0.1-0.2-0.1c-0.1-0.1-0.1-0.2-0.1-0.3c0-0.1,0-0.2,0-0.3c0-0.1,0.1-0.2,0.2-0.4
					C15.9,10.1,16,10,16,9.9c0.1-0.1,0.1-0.1,0.1-0.2c0.1-0.1,0.1-0.1,0.2-0.2c0.1-0.1,0.2-0.1,0.3-0.1c0.1,0,0.2,0,0.3,0
					c0.1,0,0.2,0.1,0.2,0.2c0.1,0.1,0.1,0.2,0.1,0.3C17.4,9.9,17.4,10,17.3,10.1"/>
				<path class="st1" d="M14.4,8.2c0.1,0.1,0.2,0.1,0.3,0.1s0.2,0,0.3-0.1c0.1-0.1,0.2-0.2,0.2-0.3c0-0.1,0-0.2,0-0.3
					c0-0.1-0.1-0.2-0.2-0.3c-0.1-0.1-0.2-0.1-0.3-0.1s-0.2,0-0.3,0.1c-0.1,0.1-0.2,0.2-0.2,0.3c0,0.1,0,0.2,0,0.3
					C14.3,8,14.3,8.1,14.4,8.2"/>
				<path class="st1" d="M58.3,9.6c-0.1,0-0.2,0-0.4,0c-0.1-0.2-0.2-0.4-0.3-0.6c-0.1-0.2-0.3-0.3-0.5-0.3c-0.2-0.1-0.4-0.1-0.6,0
					c-0.2,0-0.5,0.2-0.7,0.3c-0.2,0.2-0.5,0.5-0.7,0.8c-0.2,0.3-0.4,0.7-0.6,1c-0.2,0.3-0.6,0.5-0.8,0.6c-0.3,0.1-0.5,0.1-0.6,0
					c-0.1-0.1-0.2-0.2-0.3-0.3c0-0.1-0.1-0.3-0.1-0.4c0-0.1,0-0.2,0.1-0.4c0-0.1,0.1-0.2,0.2-0.4c0.1-0.1,0.2-0.3,0.2-0.4
					c0.1-0.1,0.1-0.2,0.2-0.2c0.1,0,0.1-0.1,0.3-0.1c0.1,0,0.1,0,0.2,0.1c0,0.1,0,0.1,0,0.2c0,0-0.1,0.1-0.2,0.1c-0.1,0-0.3,0-0.3,0
					c0,0,0,0.2,0.1,0.4c0.1,0.1,0.2,0.3,0.4,0.3c0.2,0,0.3,0,0.5,0c0.2-0.1,0.3-0.2,0.4-0.3c0.1-0.1,0.1-0.2,0.1-0.4
					c0-0.1,0-0.2,0-0.4c0-0.1-0.1-0.3-0.2-0.4c-0.1-0.1-0.2-0.2-0.4-0.3c-0.2-0.1-0.4-0.1-0.7-0.1c-0.2,0-0.5,0.1-0.7,0.2
					c-0.2,0.1-0.4,0.3-0.5,0.4c-0.2,0.2-0.3,0.4-0.4,0.6c-0.1,0.2-0.2,0.3-0.3,0.5c-0.1,0.2-0.3,0.4-0.4,0.6
					c-0.1,0.2-0.2,0.2-0.3,0.3c-0.1,0-0.1,0-0.2,0.1c-0.1,0-0.1,0-0.1,0c0,0,0,0,0-0.1c0,0,0.1-0.2,0.2-0.3l1.3-2.3h-1.1l-1.1,2
					c-0.2,0.2-0.3,0.4-0.4,0.5c-0.1,0.1-0.2,0.2-0.4,0.2c-0.1,0-0.3,0.1-0.4,0c-0.1-0.1-0.2-0.2-0.3-0.3c0-0.2,0-0.3,0.1-0.5
					c0.1-0.2,0.2-0.5,0.3-0.6c0.1-0.1,0.1-0.2,0.2-0.3c0.1-0.1,0.2-0.1,0.3-0.1c0.1,0,0.1,0,0.2,0.1c0,0.1,0,0.1,0,0.2
					c0,0.1-0.1,0.1-0.1,0.2c0.1,0,0.2,0.1,0.4,0.1c0.1,0,0.3,0,0.4-0.1c0.1-0.1,0.2-0.2,0.2-0.3c0.1-0.1,0.1-0.2,0.1-0.3
					c0-0.1,0-0.2-0.1-0.3c0-0.1-0.1-0.2-0.2-0.2c-0.1-0.1-0.3-0.1-0.4-0.1c-0.1,0-0.3,0-0.4,0.1c-0.1,0-0.2,0.1-0.3,0.2
					c-0.1,0.1-0.2,0.1-0.2,0.2c-0.1,0.1-0.2,0.2-0.2,0.3c-0.1-0.2-0.1-0.3-0.2-0.4c-0.1-0.1-0.2-0.1-0.3-0.2c-0.1,0-0.2-0.1-0.3-0.1
					c-0.1,0-0.2,0-0.3,0c-0.1,0-0.3,0.1-0.5,0.2C46.4,9,46.2,9.2,46,9.5c-0.3,0.3-0.6,0.7-0.8,1c-0.2,0.3-0.4,0.5-0.5,0.6
					c-0.2,0.1-0.3,0.2-0.5,0.2c-0.2,0-0.4,0-0.6,0.1c-0.1,0-0.4,0-0.5-0.1c-0.1-0.1-0.2-0.2-0.2-0.3c0-0.1,0-0.2,0.1-0.3
					c0.1,0.1,0.4,0.3,0.5,0.3c0.2,0,0.4,0,0.6,0c0.2,0,0.4-0.1,0.5-0.2c0.1-0.1,0.3-0.2,0.4-0.4c0.1-0.1,0.2-0.4,0.2-0.5
					c0-0.2,0-0.3,0-0.4c0-0.1-0.1-0.3-0.2-0.4c-0.1-0.1-0.2-0.2-0.4-0.3c-0.1-0.1-0.3-0.1-0.4-0.1c-0.1,0-0.3,0-0.4,0
					c-0.2,0-0.4,0.2-0.6,0.3C43,9,42.9,9.1,42.7,9.3c-0.2,0.2-0.4,0.5-0.5,0.8c-0.2,0.3-0.3,0.6-0.4,0.8c-0.1,0.2-0.1,0.2-0.2,0.3
					c-0.1,0.1-0.2,0.1-0.2,0.1c-0.1,0-0.1,0-0.1-0.1c0-0.1,0-0.1,0.1-0.2c0-0.1,0.1-0.2,0.4-1c0.3-0.7,0.7-2,1.2-3.4h-1.1l-1.2,1.9
					l0.3-1.9H40l-2.5,4c-0.1,0.1-0.2,0.2-0.3,0.3c-0.1,0.1-0.2,0.1-0.4,0.1c-0.1,0-0.3,0-0.4-0.1c-0.1-0.1-0.1-0.2-0.1-0.3
					c0-0.1,0.1-0.2,0.2-0.2c0.1,0,0.2-0.1,0.3-0.1c0.1,0,0.2,0.1,0.3,0.1v0c-0.1-0.2-0.2-0.3-0.4-0.4c-0.1-0.1-0.3-0.2-0.5-0.2
					c-0.2,0-0.4,0-0.6,0c-0.2,0.1-0.4,0.1-0.5,0.3c-0.1,0.1-0.2,0.3-0.3,0.5c0,0.2-0.1,0.4,0,0.5c0,0.2,0.1,0.4,0.2,0.5
					c0.1,0.1,0.3,0.3,0.4,0.4c0.2,0.1,0.4,0.1,0.6,0.1c0.2,0,0.5-0.1,0.8-0.2c0.3-0.1,0.5-0.3,0.8-0.5c0.2-0.3,0.4-0.6,0.7-1l1-1.5
					l-0.7,3.2l2.2-3.2c-0.3,0.7-0.5,1.3-0.6,1.8c-0.1,0.4-0.1,0.6-0.1,0.7c0,0.1,0.1,0.3,0.2,0.4c0.1,0.1,0.2,0.2,0.3,0.2
					c0.1,0,0.3,0.1,0.4,0c0.2,0,0.3-0.1,0.5-0.2c0.2-0.1,0.3-0.3,0.4-0.5c0,0.1,0.2,0.3,0.3,0.4c0.1,0.1,0.2,0.1,0.3,0.2
					C42.7,12,42.9,12,43,12c0.1,0,0.3,0,0.4,0c0.2,0,0.3-0.1,0.5-0.1c0.2-0.1,0.4-0.1,0.5-0.2c0.2-0.1,0.3-0.2,0.5-0.4
					c0.2-0.2,0.5-0.5,0.7-0.8c0.2-0.3,0.4-0.5,0.6-0.7c0.2-0.2,0.3-0.4,0.4-0.4c0.2-0.1,0.3,0,0.4,0c0.1,0,0.1,0.1,0.2,0.1
					c0.1,0.1,0.1,0.2,0.2,0.3c0,0.1,0,0.2,0,0.3c0,0.1-0.1,0.2-0.2,0.3c-0.1,0.2-0.2,0.3-0.3,0.4C47,11,47,11.1,46.9,11.1
					c-0.1,0-0.1,0-0.2,0c-0.1,0-0.1-0.1-0.1-0.2c0-0.1,0-0.1,0.1-0.2c0.1-0.1,0.1-0.1,0.2-0.1c-0.2-0.1-0.4-0.2-0.5-0.2
					c-0.2,0-0.3,0-0.5,0.1c-0.1,0.1-0.2,0.2-0.3,0.3c-0.1,0.1-0.1,0.3-0.1,0.4c0,0.1,0.1,0.3,0.2,0.4c0.1,0.1,0.2,0.2,0.3,0.3
					c0.1,0.1,0.3,0.1,0.5,0.1c0.2,0,0.3-0.1,0.5-0.2c0.1-0.1,0.3-0.2,0.4-0.4c0,0.1,0.1,0.2,0.2,0.3c0.1,0.1,0.3,0.2,0.5,0.3
					c0.2,0,0.4,0,0.6,0c0.2,0,0.3-0.1,0.5-0.2c0.1-0.1,0.3-0.1,0.4-0.2c0.1,0.1,0.2,0.3,0.3,0.4c0.2,0.1,0.5,0.1,0.7,0.1
					c0.2,0,0.4-0.1,0.6-0.3c0.1-0.1,0.3-0.3,0.4-0.7c0,0.1,0.3,0.4,0.4,0.5c0.1,0.1,0.4,0.3,0.5,0.3c0.2,0.1,0.5,0.1,0.8,0.1
					c0.3,0,0.5-0.1,0.8-0.3c0.3-0.1,0.4-0.3,0.6-0.6c0,0.1,0.1,0.2,0.3,0.4c0.1,0.1,0.3,0.3,0.5,0.4c0.2,0.1,0.6,0.1,0.8,0.1
					c0.3-0.1,0.5-0.2,0.7-0.3c0.2-0.1,0.3-0.2,0.4-0.4c0.1-0.2,0.3-0.4,0.3-0.5c0.1-0.2,0.1-0.4,0.1-0.6c0.1,0,0.2-0.1,0.4-0.2
					c0.1-0.1,0.2-0.2,0.3-0.3c0.1-0.1,0.2-0.4,0.2-0.4C58.6,9.5,58.4,9.6,58.3,9.6 M43.5,9.9c0-0.1,0.1-0.2,0.1-0.3
					c0.1-0.1,0.2-0.2,0.3-0.2c0.1-0.1,0.2-0.1,0.3-0.1c0.1,0,0.2,0,0.3,0c0.1,0,0.1,0.1,0.2,0.1c0,0.1,0.1,0.1,0.1,0.2
					c0,0.1,0,0.1-0.1,0.2c-0.1,0.1-0.1,0.2-0.2,0.2c-0.1,0.1-0.2,0.1-0.3,0.1c-0.1,0-0.2,0-0.3,0c-0.1,0-0.2-0.1-0.2-0.1
					C43.5,10.1,43.4,10,43.5,9.9 M57.1,10.8L57.1,10.8c-0.1,0.2-0.2,0.2-0.3,0.3c-0.1,0.1-0.2,0.2-0.3,0.2c-0.1,0.1-0.2,0.1-0.3,0.1
					c-0.1,0-0.3,0-0.4-0.1c-0.1-0.1-0.2-0.2-0.2-0.4c0-0.2,0-0.4,0.1-0.6c0.1-0.2,0.1-0.3,0.2-0.4c0.1-0.1,0.2-0.2,0.3-0.3
					c0.1,0.1,0.1,0.2,0.3,0.3c0.1,0.1,0.3,0.2,0.4,0.2c0.1,0,0.5,0.1,0.5,0C57.3,10.5,57.2,10.6,57.1,10.8"/>
				<path class="st1" d="M51.7,7.1c-0.1,0-0.2,0-0.3,0.1c-0.1,0.1-0.2,0.2-0.2,0.3c0,0.1,0,0.2,0,0.3c0,0.1,0.1,0.2,0.2,0.3
					c0.1,0.1,0.2,0.1,0.3,0.1c0.1,0,0.2,0,0.3-0.1c0.1-0.1,0.2-0.2,0.2-0.3c0-0.1,0-0.2,0-0.3c0-0.1-0.1-0.2-0.2-0.3
					C51.9,7.1,51.8,7.1,51.7,7.1"/>
				<path class="st5" d="M14.7,6.1c5.7-5.8,16.1-8.3,29.5-3.8l-4.5,3.3C35,3.1,26.3-1.7,14.7,6.1"/>
				<path class="st6" d="M14.7,6.1c3.9-4.1,11.9-6.3,21.2-3.3l-3.1,2.3C29.5,3.4,22.8,0.7,14.7,6.1"/>
				<path class="st7" d="M14.7,6.1c2.9-2.9,9-4.8,15.7-2.6l-2.3,1.7C25.8,3.9,20.6,2.2,14.7,6.1"/>
				<path class="st8" d="M14.8,6.1c2.3-2.4,6.5-3.5,11.9-1.7l-1.8,1.3C22.9,4.7,19.4,3,14.8,6.1"/>
			</g>
		</g>
	</g>
</g>
</svg>
