<?xml version="1.0" encoding="utf-8"?>
<!-- Generator: Adobe Illustrator 25.0.1, SVG Export Plug-In . SVG Version: 6.00 Build 0)  -->
<svg version="1.1" id="Capa_1" xmlns="http://www.w3.org/2000/svg" xmlns:xlink="http://www.w3.org/1999/xlink" x="0px" y="0px"
	 viewBox="0 0 172.7 10.5" style="enable-background:new 0 0 172.7 10.5;" xml:space="preserve">
<style type="text/css">
	.st0{fill:none;}
	.st1{fill:#003468;}
	.st2{font-family:'AvenirNext-DemiBold';}
	.st3{font-size:8.7926px;}
	.st4{fill:#C02A35;}
</style>
<rect x="136.4" y="0.9" class="st0" width="32.7" height="12.6"/>
<g>
	<rect x="140.1" y="2" class="st0" width="32.6" height="7.9"/>
	<text transform="matrix(1 0 0 1 140.0505 9.4891)" class="st1 st2 st3">2 PISOS</text>
	<g>
		<g>
			<path class="st1" d="M59.7,4.6c-0.1-0.3-0.4-0.5-0.6-0.7c-0.2-0.1-0.5-0.3-0.8-0.3c-0.3,0-0.8,0-1.2,0.1c-0.4,0.1-0.7,0.3-1,0.5
				c-0.3,0.2-0.5,0.4-0.7,0.7c-0.2,0.2-0.4,0.5-0.6,0.9c-0.3,0.4-0.5,1-0.8,1.4c-0.3,0.4-0.4,0.5-0.6,0.7c-0.2,0.2-0.4,0.4-0.6,0.4
				c-0.1,0-0.2,0-0.3-0.1c-0.1-0.1-0.1-0.2,0-0.5c0.1-0.2,0.3-0.6,0.5-1L56.7,0H55l-2.4,4.4c-0.2-0.2-0.4-0.3-0.6-0.4
				c-0.2-0.1-0.4-0.2-0.6-0.2c-0.2,0-0.5-0.1-0.8,0c-0.3,0-0.5,0.1-0.8,0.2c-0.3,0.1-0.6,0.3-0.9,0.5c-0.3,0.2-0.6,0.4-0.8,0.7
				c-0.2,0.2-0.5,0.5-0.6,0.8c-0.2,0.3-0.3,0.5-0.4,0.8c-0.1,0.3-0.1,0.5-0.1,0.8c0,0.3,0.1,0.6,0.2,0.9c0.1,0.3,0.2,0.5,0.5,0.8
				c0.3,0.2,0.5,0.4,0.9,0.5c0.4,0.1,1.1,0.1,1.4,0c0.4-0.1,0.8-0.3,1.1-0.6c0.1,0.3,0.3,0.4,0.5,0.5c0.2,0.1,0.6,0.1,0.9,0.1
				c0.3,0,0.4-0.1,0.7-0.2c0.2-0.1,0.5-0.3,0.7-0.5c0.2-0.2,0.4-0.4,0.6-0.6c0,0.1,0.1,0.3,0.2,0.4c0.1,0.1,0.1,0.2,0.3,0.4
				c0.2,0.1,0.4,0.3,0.6,0.4c0.2,0.1,0.5,0.1,0.8,0.1c0.3,0,0.6,0,1,0c0.3-0.1,0.7-0.2,1-0.3c0.3-0.1,0.5-0.2,0.7-0.3l0.4-1
				c-0.3,0.1-0.6,0.3-0.9,0.4c-0.3,0.1-0.5,0.2-0.8,0.2c-0.3,0-0.5,0-0.8,0c-0.3,0-0.5-0.1-0.7-0.3c-0.1-0.1-0.2-0.3-0.2-0.5
				c0-0.2,0.1-0.4,0.1-0.5c0.2,0.1,0.4,0.3,0.6,0.4c0.2,0.1,0.5,0.1,0.9,0.1c0.4,0,0.8,0,1.2-0.2c0.4-0.2,0.7-0.4,0.9-0.7
				c0.2-0.2,0.3-0.4,0.4-0.7c0.1-0.2,0.1-0.5,0.1-0.8C59.9,5.2,59.9,4.9,59.7,4.6z M51.1,7.4c-0.7,0.9-1.6,1.4-2.2,1
				c-0.5-0.4-0.4-1.4,0.3-2.3c0.7-0.9,1.6-1.4,2.2-1C51.9,5.5,51.7,6.5,51.1,7.4z M58.7,5.8c0,0.2-0.1,0.4-0.3,0.5
				c-0.2,0.2-0.4,0.3-0.6,0.4c-0.2,0.1-0.5,0-0.7-0.1c-0.2-0.1-0.3-0.3-0.3-0.5c0-0.2,0.1-0.5,0.2-0.7c0.1-0.2,0.3-0.4,0.5-0.4
				c0.2-0.1,0.4-0.1,0.6-0.1c0.2,0,0.4,0.1,0.5,0.3C58.7,5.4,58.7,5.6,58.7,5.8z"/>
			<g>
				<path class="st1" d="M8.6,5.6C8.8,5.1,8.9,4.6,9,4.1c0.1-0.5,0.1-0.9,0.1-1.3c0-0.4-0.1-0.9-0.2-1.2C8.9,1.3,8.7,1,8.6,0.8
					C8.4,0.6,8.2,0.5,8,0.3C7.7,0.2,7.5,0.1,7.2,0C6.8,0,6.4,0,6.1,0.1C5.7,0.1,5.5,0.2,5.2,0.4C5,0.5,4.7,0.7,4.5,0.9
					C4.3,1,4.1,1.3,4,1.5C3.8,1.7,3.8,1.9,3.7,2.2C3.6,2.4,3.6,2.6,3.6,2.9c0,0.2,0,0.5,0.1,0.7c0.1,0.2,0.1,0.5,0.3,0.7
					c0.1,0.2,0.3,0.4,0.5,0.5C4.6,4.9,4.8,5,5,5.1c0.2,0.1,0.5,0.1,0.7,0.1c0.2,0,0.4-0.1,0.6-0.1C6.5,5,6.8,4.9,7,4.7
					c0.2-0.1,0.4-0.3,0.5-0.4C7.6,4.2,7.7,4,7.7,3.8c0.1-0.2,0.1-0.4,0.1-0.6c0-0.2,0-0.4,0-0.6c0-0.2-0.1-0.2-0.1-0.4
					C7.6,2.4,7.6,2.4,7.4,2.5C7.3,2.5,7.2,2.6,7.1,2.6c-0.1,0-0.3-0.1-0.4-0.1C6.5,2.4,6.4,2.2,6.3,2.1C6.2,2,6.2,1.8,6.2,1.6
					c0-0.2,0.1-0.3,0.2-0.4C6.5,1.1,6.7,1,6.9,0.9c0.2,0,0.4,0,0.5,0c0.2,0,0.3,0.1,0.4,0.2C7.9,1.3,8,1.4,8.1,1.6
					C8.2,1.8,8.2,2,8.3,2.2c0,0.2,0.1,0.4,0.1,0.6c0,0.2,0,0.5-0.1,0.8c0,0.3-0.1,0.7-0.3,1.1C7.9,5.1,7.7,5.5,7.6,5.8
					C7.4,6.1,7.2,6.4,7,6.7C6.7,7,6.5,7.3,6.2,7.5C5.9,7.7,5.7,7.9,5.5,8C5.2,8.1,4.9,8.2,4.6,8.3c-0.3,0-0.6,0-1-0.1
					C3.3,8.1,3.1,7.9,2.8,7.6C2.5,7.4,2.3,6.9,2.2,6.5C2.1,6.1,2,5.5,2.1,5c0.1-0.6,0.1-1,0.3-1.5C2.5,3,2.7,2.6,2.9,2.2
					c0.2-0.3,0.4-0.6,0.6-0.9c0.2-0.2,0.4-0.5,0.6-0.6c0.2-0.2,0.4-0.4,0.6-0.5c-0.3,0-0.5,0.2-0.9,0.3C3.4,0.8,3,1,2.6,1.3
					c-0.4,0.3-0.7,0.6-1,0.8C1.4,2.4,1.1,2.7,0.9,3C0.7,3.2,0.6,3.5,0.4,3.8C0.3,4.2,0.1,4.6,0.1,4.9C0,5.2,0,5.6,0,5.9
					c0,0.3,0.1,0.6,0.1,0.9c0.1,0.3,0.2,0.6,0.3,0.9C0.6,8,0.8,8.3,1,8.5c0.2,0.2,0.4,0.4,0.6,0.5c0.2,0.2,0.4,0.3,0.7,0.4
					c0.3,0.1,0.5,0.2,0.8,0.2c0.3,0,0.7,0.1,1,0c0.3,0,0.7-0.1,1-0.2C5.4,9.4,5.7,9.3,6,9.2c0.3-0.1,0.5-0.3,0.7-0.5
					C6.9,8.5,7.2,8.3,7.4,8c0.2-0.3,0.4-0.6,0.6-1C8.3,6.6,8.5,6.1,8.6,5.6z"/>
				<path class="st1" d="M44.3,4.4c0.1-0.1,0.3-0.1,0.4-0.1c0.2,0,0.3,0,0.5,0l-0.5-1c-0.6,0-1.2,0-1.7,0.1c-0.5,0.1-1,0.2-1.4,0.4
					c-0.4,0.2-0.8,0.4-1.2,0.7c-0.4,0.3-0.8,0.6-1.1,1.1c-0.4,0.5-0.8,1.2-1.1,1.6c-0.3,0.4-0.5,0.7-0.6,0.8
					c-0.1,0.1-0.2,0.2-0.3,0.2c-0.1,0-0.2,0-0.2-0.1C37,8.1,37,8,37,7.9c0-0.1,0-0.1,0.1-0.2l2.3-4h-1.8l-2.1,3.8
					c0,0.1-0.4,0.4-0.6,0.5c-0.1,0-0.1,0-0.2,0c-0.1,0-0.1,0-0.1,0c-0.1,0-0.1-0.1-0.1-0.1c0-0.1-0.1-0.1,0-0.2l2.3-4h-1.9l-1.4,2.4
					c-0.2,0.4-0.6,0.6-0.8,0.8c-0.2,0.2-0.3,0.3-0.5,0.3c0.3-0.5,0.4-1,0.4-1.5c0-0.4,0-0.7-0.1-1c-0.1-0.3-0.3-0.6-0.6-0.8
					c-0.3-0.2-0.5-0.2-0.8-0.3c-0.3,0-0.6,0-0.8,0c-0.2,0-0.5,0.2-0.7,0.2L31.5,0h-1.9l-4.3,7.6c-0.1,0.1-0.1,0.2-0.2,0.3
					C25,8,24.9,8,24.8,8.1c-0.1,0-0.2,0-0.3,0c-0.1,0-0.2-0.1-0.2-0.2c0-0.1,0-0.2,0.1-0.4l2.1-3.8h-1.8l-2.3,4.2
					C22.3,8,22.2,8.1,22,8.1c-0.1,0.1-0.3,0-0.4,0c-0.1,0-0.2-0.1-0.2-0.2c0-0.1,0-0.2,0-0.3l1.3-2.2c0.1-0.2,0.2-0.4,0.2-0.5
					c0.1-0.2-0.1-0.6-0.2-0.8c-0.1-0.2-0.2-0.3-0.4-0.4c-0.2-0.1-0.3-0.1-0.5-0.1c-0.2,0-0.5,0.1-0.6,0.2C21,4,20.8,4.1,20.7,4.2
					L21,3.7h-1.9l-2.2,4c-0.1,0.1-0.2,0.2-0.2,0.3c-0.1,0.1-0.2,0.1-0.3,0.1c-0.1,0-0.2,0-0.3,0C16.1,8.1,16,8,16,8
					c0-0.1,0-0.1,0-0.2c0-0.1,0-0.2,0.1-0.2l1.2-2.2c0.1-0.2,0.1-0.3,0.1-0.5c0-0.2-0.1-0.4-0.2-0.5C17.1,4.1,17,4,16.8,3.9
					c-0.1-0.1-0.2-0.1-0.3-0.2c-0.1,0-0.3,0-0.4,0c-0.1,0-0.3,0-0.4,0.1c-0.1,0-0.2,0.1-0.4,0.2C15.1,4,15,4.1,14.8,4.3
					c-0.1-0.2-0.3-0.3-0.4-0.4c-0.1-0.1-0.3-0.2-0.4-0.2c-0.1,0-0.3-0.1-0.4-0.1c-0.1,0-0.3,0-0.5,0.1c-0.2,0-0.3,0.1-0.5,0.2
					c-0.1,0.1-0.2,0.2-0.3,0.3c-0.1-0.1-0.2-0.2-0.3-0.3c-0.1-0.1-0.3-0.1-0.4-0.2c-0.1-0.1-0.4-0.1-0.5-0.1c-0.2,0-0.3,0-0.5,0
					c-0.2,0-0.4,0.1-0.6,0.2C9.9,4.1,9.8,4.2,9.6,4.3C9.5,4.4,9.4,4.5,9.3,4.7C9.2,4.9,9.1,5,9,5.2l0,0C9,5.2,9,5.7,9,5.7
					c0.1-0.1,0.1,0,0.2,0c0.1,0,0.2,0,0.3,0c0.1,0,0.1,0.1,0.2,0.1c0.1,0,0.1,0.1,0.1,0.2c0,0.1-0.1,0.3-0.2,0.5L7.7,9.7h1.8l2-3.5
					c0.1-0.1,0.2-0.3,0.3-0.4c0.1-0.1,0.2-0.1,0.3-0.1c0.1,0,0.2,0,0.3,0.1c0.1,0.1,0.1,0.2,0,0.3l-2,3.6h1.9l2-3.6
					c0-0.1,0.1-0.2,0.2-0.2c0.1-0.1,0.2-0.2,0.3-0.2c0.1,0,0.2,0.1,0.3,0.2c0,0.1,0,0.3-0.1,0.4c-0.1,0.2-0.2,0.4-0.3,0.6l-0.8,1.4
					c-0.1,0.2-0.1,0.3-0.1,0.5c0,0.2,0.1,0.4,0.3,0.6c0.2,0.2,0.4,0.3,0.7,0.3c0.2,0,0.5,0,0.7-0.1c0.2-0.1,0.3-0.1,0.4-0.2
					c0.1-0.1,0.3-0.2,0.4-0.3l-0.4,0.6h1.9l2-3.6c0-0.1,0.1-0.1,0.1-0.2c0.1-0.1,0.1-0.2,0.2-0.2c0.1-0.1,0.2-0.1,0.3-0.1
					c0.1,0,0.2,0.1,0.2,0.1c0,0.1,0,0.2-0.1,0.3l-1,1.8c-0.1,0.1-0.1,0.3-0.1,0.5c0,0.2,0,0.4,0,0.6c0.1,0.2,0.2,0.4,0.4,0.5
					c0.2,0.1,0.4,0.2,0.7,0.2c0.3,0,0.5-0.1,0.8-0.2c0.3-0.1,0.6-0.5,0.9-0.8c0.1,0.4,0.2,0.7,0.4,0.8c0.2,0.1,0.4,0.1,0.6,0.2
					c0.3,0,0.7-0.1,0.9-0.2c0.2-0.1,0.6-0.4,0.7-0.6l-0.4,0.8h2L27,8.3c0.1,0.4,0.3,0.9,0.7,1.1c0.3,0.2,0.5,0.3,0.9,0.3
					c0.3,0,0.7,0,1-0.1c0.3-0.1,0.6-0.3,0.9-0.4c0.4-0.2,0.6-0.3,0.9-0.5c0.3-0.2,0.5-0.3,0.9-0.6c0.1,0.2,0.2,0.5,0.2,0.6
					c0.1,0.2,0.2,0.4,0.3,0.5c0.1,0.1,0.3,0.3,0.4,0.4c0.2,0.1,0.2,0.1,0.4,0.2c0.2,0,0.5,0,0.7,0c0.2,0,0.3-0.1,0.5-0.2
					c0.1-0.1,0.2-0.2,0.3-0.2c0.1-0.1,0.2-0.1,0.3-0.2c0,0.1,0,0.1,0.1,0.2c0,0.1,0.1,0.1,0.2,0.2c0.1,0.1,0.3,0.1,0.5,0.2
					c0.2,0.1,0.8,0,0.9,0c0.3,0,0.5-0.2,0.7-0.3c0.2-0.2,0.5-0.4,0.7-0.7c0.2-0.3,0.4-0.7,0.7-1.2c0.3-0.5,0.6-1,1-1.4
					c0.4-0.4,0.8-0.7,1.1-0.9c0.3-0.2,0.7-0.4,0.9-0.5c0.3-0.1,0.5-0.2,0.6-0.2c-0.1,0.1-0.3,0.3-0.3,0.5c-0.1,0.1-0.1,0.3-0.1,0.4
					c0,0.1,0,0.3,0,0.5c0,0.2,0.1,0.3,0.2,0.6c0.1,0.3,0.3,0.6,0.3,0.9c0.1,0.3,0,0.5-0.1,0.6c-0.1,0.1-0.2,0.2-0.4,0.2
					c-0.2,0-0.4,0-0.5-0.1c-0.1-0.1-0.2-0.3-0.1-0.4c0-0.1,0.1-0.2,0.2-0.3c0.1-0.1,0.2-0.1,0.3-0.1c0.1,0,0.3,0,0.4,0.1
					c0-0.1-0.2-0.3-0.3-0.4c-0.1-0.1-0.4-0.3-0.6-0.4c-0.2-0.1-0.5-0.1-0.8-0.1c-0.3,0-0.5,0.1-0.8,0.3c-0.2,0.2-0.3,0.3-0.4,0.5
					c-0.1,0.2-0.1,0.5-0.1,0.7c0,0.2,0.1,0.5,0.2,0.7c0.1,0.2,0.2,0.3,0.4,0.4c0.2,0.2,0.4,0.3,0.6,0.3c0.3,0.1,0.7,0.1,1.1,0.1
					c0.3,0,1,0,1.3-0.1c0.4-0.1,0.4-0.2,0.7-0.3c0.3-0.2,0.4-0.4,0.6-0.6c0.1-0.2,0.3-0.5,0.3-0.8c0-0.3,0-0.6-0.1-0.9
					c-0.1-0.3-0.2-0.5-0.5-0.8c-0.3-0.3-0.4-0.6-0.4-0.8c0-0.2,0-0.5,0.1-0.7C44.1,4.6,44.2,4.5,44.3,4.4z M30.6,6.2
					c0,0.1-0.1,0.3-0.2,0.5c-0.1,0.2-0.3,0.5-0.4,0.8c-0.2,0.3-0.4,0.4-0.5,0.6c-0.2,0.1-0.3,0.2-0.5,0.3c-0.2,0-0.3,0.1-0.5,0
					c-0.2,0-0.3-0.1-0.4-0.1c-0.1-0.1-0.2-0.1-0.3-0.3c-0.1-0.1-0.2-0.3-0.2-0.5c0-0.2,0-0.3,0.1-0.5c0.1-0.2,0.2-0.4,0.3-0.6
					c0.1-0.2,0.3-0.4,0.4-0.6c0.1-0.2,0.2-0.2,0.3-0.4c0.1-0.1,0.3-0.3,0.4-0.3C29.1,5,29.3,5,29.5,5c0.2,0,0.4,0,0.6,0.1
					c0.2,0.1,0.3,0.2,0.4,0.3c0.1,0.1,0.1,0.3,0.2,0.5C30.7,6,30.6,6.1,30.6,6.2z"/>
				<path class="st1" d="M25.5,2.8C25.7,3,25.9,3,26.1,3c0.2,0,0.4-0.1,0.6-0.2C26.8,2.7,27,2.5,27,2.3c0.1-0.2,0.1-0.4,0-0.6
					c-0.1-0.2-0.2-0.4-0.4-0.5C26.5,1.1,26.3,1,26.1,1c-0.2,0-0.4,0.1-0.6,0.2c-0.2,0.1-0.3,0.3-0.4,0.5c-0.1,0.2-0.1,0.4,0,0.6
					C25.2,2.5,25.3,2.7,25.5,2.8z"/>
			</g>
			<g>
				<path class="st1" d="M78.2,2.9c0.3,0.1,0.5,0.1,0.9,0c0.3,0,0.7-0.2,1-0.3c0.3-0.2,0.6-0.4,0.8-0.6l-1.7-1.1
					c0.1,0.4,0,0.9-0.2,1.2C78.8,2.4,78.5,2.7,78.2,2.9"/>
				<path class="st1" d="M102.9,5.3c-0.2,0-0.4,0-0.6,0c-0.1-0.4-0.3-0.8-0.6-1.1c-0.3-0.3-0.6-0.5-0.9-0.6
					c-0.3-0.1-0.7-0.2-1.1-0.1c-0.4,0.1-0.9,0.3-1.3,0.6c-0.4,0.3-0.8,0.8-1.2,1.4c-0.4,0.6-0.7,1.3-1.1,1.8c-0.4,0.5-1,0.9-1.5,1.1
					c-0.4,0.2-0.8,0.1-1.1,0c-0.2-0.1-0.4-0.3-0.5-0.5c-0.1-0.2-0.1-0.5-0.1-0.7c0-0.2,0-0.4,0.1-0.6c0.1-0.2,0.2-0.4,0.3-0.6
					c0.1-0.2,0.3-0.5,0.4-0.6c0.1-0.2,0.3-0.3,0.4-0.4c0.1-0.1,0.3-0.2,0.4-0.1c0.1,0,0.2,0.1,0.3,0.2c0,0.1,0,0.2-0.1,0.3
					c-0.1,0.1-0.1,0.1-0.3,0.2c-0.1,0.1-0.5,0-0.5-0.1c0,0,0,0.4,0.2,0.6c0.1,0.2,0.4,0.5,0.7,0.5c0.3,0.1,0.6,0.1,0.9-0.1
					c0.3-0.1,0.5-0.3,0.6-0.5c0.1-0.2,0.2-0.4,0.2-0.6c0-0.2,0-0.4,0-0.6c0-0.2-0.2-0.5-0.3-0.6c-0.2-0.2-0.4-0.3-0.8-0.4
					c-0.3-0.1-0.8-0.2-1.2-0.1c-0.4,0.1-0.8,0.2-1.2,0.4c-0.4,0.2-0.7,0.5-1,0.8c-0.3,0.3-0.5,0.7-0.7,1c-0.2,0.3-0.3,0.6-0.5,0.9
					c-0.2,0.3-0.5,0.8-0.7,1.1C90,8,89.8,8.1,89.7,8.2c-0.1,0.1-0.2,0.1-0.3,0.1c-0.1,0-0.1,0-0.2,0c-0.1,0-0.1,0-0.1-0.2
					c0-0.1,0.2-0.4,0.3-0.5l2.2-4.1h-1.9L87.8,7c-0.3,0.4-0.5,0.7-0.8,0.9c-0.2,0.2-0.4,0.3-0.7,0.4c-0.2,0.1-0.5,0.1-0.8,0
					c-0.2-0.1-0.4-0.3-0.5-0.6c-0.1-0.3-0.1-0.5,0.1-0.8c0.2-0.3,0.4-0.8,0.6-1c0.1-0.2,0.2-0.4,0.4-0.5c0.1-0.1,0.3-0.2,0.5-0.3
					c0.1,0,0.3,0.1,0.3,0.2c0,0.1,0,0.2-0.1,0.3c-0.1,0.1-0.1,0.2-0.2,0.3C86.9,6,87.1,6,87.3,6c0.2,0,0.5-0.1,0.6-0.2
					c0.2-0.1,0.3-0.3,0.4-0.5c0.1-0.2,0.2-0.4,0.2-0.6c0-0.2,0-0.4-0.1-0.6C88.3,4,88.2,3.8,88,3.7c-0.2-0.1-0.5-0.2-0.7-0.2
					c-0.2,0-0.5,0-0.7,0.1c-0.2,0.1-0.4,0.2-0.5,0.3C86,4,85.8,4.1,85.7,4.2c-0.1,0.1-0.3,0.4-0.4,0.5C85.2,4.5,85.2,4.2,85,4
					c-0.2-0.2-0.3-0.2-0.5-0.3c-0.2-0.1-0.4-0.1-0.6-0.1c-0.1,0-0.4,0-0.6,0.1c-0.2,0.1-0.6,0.2-0.9,0.4c-0.4,0.2-0.8,0.6-1.3,1.1
					c-0.5,0.6-1,1.2-1.4,1.7c-0.4,0.5-0.7,0.8-1,1c-0.3,0.2-0.6,0.3-0.9,0.4c-0.3,0.1-0.7,0.1-1,0.1c-0.3,0-0.7-0.1-0.8-0.2
					c-0.2-0.1-0.3-0.4-0.3-0.5c0-0.2,0.1-0.4,0.2-0.5c0.2,0.2,0.6,0.5,0.9,0.5c0.3,0,0.7,0.1,1,0c0.3-0.1,0.7-0.2,1-0.4
					c0.3-0.2,0.5-0.4,0.7-0.7c0.2-0.3,0.3-0.7,0.4-0.9c0.1-0.3,0-0.5,0-0.7c0-0.3-0.2-0.5-0.3-0.7c-0.1-0.2-0.4-0.4-0.6-0.5
					c-0.2-0.1-0.5-0.2-0.8-0.3c-0.1,0-0.5,0-0.8,0c-0.3,0.1-0.8,0.3-1.1,0.5c-0.3,0.2-0.6,0.4-0.9,0.8c-0.3,0.3-0.7,0.8-0.9,1.3
					c-0.3,0.5-0.5,1.1-0.7,1.4c-0.2,0.3-0.3,0.4-0.4,0.5c-0.1,0.1-0.3,0.2-0.4,0.2c-0.1,0-0.2-0.1-0.2-0.2c0-0.1,0-0.2,0.1-0.4
					C73,7.5,73.1,7.3,73.6,6c0.5-1.3,1.3-3.5,2.2-6h-1.9l-2.2,3.3L72.2,0h-1.7l-4.4,7c-0.1,0.2-0.3,0.4-0.5,0.5
					c-0.2,0.1-0.4,0.2-0.6,0.2c-0.2,0-0.5-0.1-0.7-0.2c-0.2-0.1-0.2-0.3-0.2-0.4c0-0.2,0.1-0.3,0.3-0.4c0.2-0.1,0.4-0.1,0.5-0.1
					c0.1,0,0.4,0.1,0.5,0.1v0C65.2,6.5,65,6.2,64.7,6c-0.2-0.2-0.6-0.3-0.9-0.4c-0.3-0.1-0.7,0-1,0.1c-0.3,0.1-0.6,0.3-0.9,0.5
					c-0.2,0.2-0.4,0.5-0.5,0.8c-0.1,0.3-0.1,0.6-0.1,0.9c0.1,0.3,0.2,0.6,0.4,0.9c0.2,0.3,0.5,0.5,0.8,0.6c0.3,0.1,0.7,0.3,1.1,0.3
					c0.4,0,0.9-0.1,1.4-0.3c0.5-0.2,0.9-0.5,1.4-0.9c0.4-0.4,0.8-1.1,1.2-1.7l1.7-2.7l-1.2,5.6l3.9-5.6c-0.5,1.2-0.8,2.4-1,3.1
					c-0.2,0.7-0.2,1-0.1,1.3c0,0.3,0.2,0.5,0.4,0.7c0.2,0.2,0.3,0.3,0.6,0.4c0.3,0.1,0.5,0.1,0.8,0c0.3-0.1,0.5-0.2,0.8-0.4
					c0.3-0.2,0.6-0.6,0.7-0.9c-0.1,0.1,0.4,0.6,0.5,0.7c0.1,0.2,0.3,0.3,0.5,0.4c0.2,0.1,0.5,0.2,0.7,0.2c0.2,0,0.5,0.1,0.7,0.1
					c0.3,0,0.6-0.1,0.9-0.2c0.3-0.1,0.7-0.3,1-0.4c0.3-0.2,0.6-0.3,0.9-0.7c0.4-0.4,0.9-1,1.3-1.5c0.4-0.5,0.8-0.9,1.1-1.3
					c0.3-0.3,0.5-0.6,0.8-0.7c0.3-0.1,0.5-0.1,0.7,0c0.1,0,0.2,0.1,0.4,0.2c0.1,0.1,0.2,0.3,0.3,0.5c0,0.2,0,0.4-0.1,0.6
					c-0.1,0.2-0.2,0.3-0.3,0.6c-0.1,0.3-0.3,0.5-0.4,0.8C83,7.8,82.9,7.9,82.7,8c-0.1,0.1-0.3,0.1-0.4,0c-0.1-0.1-0.1-0.2-0.1-0.3
					c0-0.1,0.1-0.2,0.2-0.3c0.1-0.1,0.2-0.2,0.4-0.2c-0.3-0.2-0.6-0.3-0.9-0.3c-0.3,0-0.6,0.1-0.8,0.2c-0.2,0.1-0.4,0.3-0.5,0.5
					c-0.1,0.2-0.1,0.5-0.1,0.7c0,0.2,0.1,0.5,0.3,0.7c0.2,0.2,0.4,0.4,0.6,0.5c0.2,0.1,0.5,0.2,0.8,0.2c0.3,0,0.6-0.2,0.8-0.3
					c0.2-0.2,0.5-0.4,0.6-0.7C83.7,8.9,83.8,9,84,9.2c0.2,0.2,0.5,0.4,0.8,0.5c0.3,0.1,0.7,0,1,0c0.3-0.1,0.6-0.2,0.8-0.3
					c0.2-0.1,0.5-0.3,0.6-0.4c0.1,0.3,0.3,0.5,0.6,0.6c0.3,0.1,0.8,0.2,1.2,0.1c0.4-0.1,0.8-0.2,1.1-0.5c0.3-0.2,0.6-0.6,0.7-1.2
					c0,0.3,0.5,0.7,0.8,0.9c0.2,0.2,0.6,0.5,0.9,0.6c0.3,0.1,0.9,0.2,1.4,0.2c0.5,0,1-0.2,1.4-0.5c0.5-0.2,0.8-0.6,1.1-1
					c0.1,0.2,0.3,0.4,0.5,0.7c0.2,0.2,0.5,0.5,1,0.6c0.4,0.1,1,0.2,1.5,0.1c0.5-0.1,1-0.3,1.3-0.5c0.3-0.2,0.6-0.4,0.7-0.7
					c0.2-0.3,0.4-0.6,0.6-1c0.1-0.3,0.1-0.7,0.2-1c0.2-0.1,0.4-0.2,0.6-0.3c0.2-0.1,0.4-0.3,0.5-0.5c0.2-0.2,0.3-0.7,0.4-0.7
					C103.5,5.1,103.1,5.3,102.9,5.3z M76.7,5.9c0-0.2,0.1-0.3,0.2-0.5c0.1-0.2,0.3-0.3,0.4-0.4c0.1-0.1,0.3-0.1,0.4-0.2
					c0.1,0,0.3,0,0.5,0.1c0.1,0.1,0.3,0.1,0.3,0.2c0.1,0.1,0.1,0.3,0.1,0.4c0,0.1-0.1,0.3-0.1,0.4c-0.1,0.1-0.2,0.3-0.4,0.4
					c-0.1,0.1-0.3,0.2-0.5,0.3c-0.2,0-0.4,0-0.6,0c-0.2,0-0.3-0.1-0.4-0.2C76.7,6.3,76.7,6.1,76.7,5.9z M100.8,7.4L100.8,7.4
					c-0.2,0.3-0.3,0.4-0.5,0.6c-0.2,0.2-0.3,0.3-0.5,0.4c-0.2,0.1-0.4,0.2-0.6,0.2c-0.2,0.1-0.5,0-0.7-0.1c-0.2-0.1-0.3-0.4-0.4-0.7
					c0-0.3,0-0.7,0.2-1c0.1-0.3,0.2-0.6,0.4-0.8c0.1-0.2,0.3-0.4,0.5-0.6c0.1,0.2,0.2,0.4,0.5,0.6c0.2,0.1,0.5,0.3,0.7,0.4
					c0.2,0.1,0.9,0.2,0.9,0C101.1,6.9,100.9,7.2,100.8,7.4z"/>
				<path class="st1" d="M91.2,0.9c-0.2,0-0.4,0.1-0.6,0.2c-0.2,0.1-0.3,0.3-0.4,0.5c-0.1,0.2-0.1,0.4,0,0.6
					c0.1,0.2,0.2,0.4,0.4,0.5c0.2,0.1,0.4,0.2,0.6,0.2c0.2,0,0.4-0.1,0.6-0.2c0.2-0.1,0.3-0.3,0.4-0.5c0.1-0.2,0.1-0.4,0-0.6
					c-0.1-0.2-0.2-0.4-0.4-0.5C91.6,1,91.4,0.9,91.2,0.9"/>
			</g>
		</g>
		<g>
			<g>
				<g>
					<path class="st4" d="M110.1,9.8V0.1h2.4c2.4,0,3.7,1,3.7,3.1c0,0.3,0,0.7-0.1,1.1c-0.3,1.6-1.2,2.5-2.8,2.5l-0.4,0v3.1H110.1z
						 M112.9,4.4c0.5,0,0.7-0.2,0.7-0.9c0-0.6-0.2-0.9-0.6-1l-0.2,0v1.9C112.8,4.4,112.8,4.4,112.9,4.4z"/>
					<path class="st4" d="M116.6,9.8V0.1h2.6v9.7H116.6z"/>
					<path class="st4" d="M119.8,7.4V3h2.6v3.8V7c0,0,0,0,0,0.1c0,0.2,0.1,0.3,0.3,0.3c0.2,0,0.3-0.1,0.3-0.3V3h2.6v6.8h-2.5V9.3
						c-0.3,0.4-0.8,0.6-1.5,0.6c-1.1,0-1.7-0.7-1.7-1.7l0-0.6V7.4z"/>
					<path class="st4" d="M130.2,3.2v2.5c-0.2-0.2-0.4-0.3-0.6-0.4C129.3,5,129.1,5,129,5c-0.2,0-0.3,0.1-0.3,0.2
						c0,0.1,0,0.2,0.2,0.3l0.1,0l0.5,0.2c0.2,0.1,0.4,0.2,0.6,0.4c0.3,0.3,0.5,0.9,0.5,1.4c0,0.6-0.2,1.2-0.7,1.7
						c-0.4,0.4-1,0.7-1.7,0.7c-0.2,0-0.5,0-0.7-0.1c-0.4-0.1-0.8-0.2-1.2-0.4V6.7c0.1,0.1,0.1,0.2,0.2,0.2c0.2,0.3,0.5,0.5,0.8,0.7
						c0.2,0.1,0.3,0.1,0.4,0.1c0.1,0,0.1,0,0.2,0c0.1-0.1,0.1-0.1,0.1-0.2c0-0.1,0-0.1-0.1-0.1c0,0-0.1-0.1-0.2-0.1l-0.4-0.2l-0.1,0
						C126.4,6.6,126,6,126,5.2c0-0.3,0.1-0.6,0.1-0.9c0.3-1,1.1-1.6,2.3-1.6c0.2,0,0.4,0,0.6,0C129.4,2.9,129.8,3,130.2,3.2z"/>
				</g>
				<path class="st4" d="M108.6,7c0,0.6-0.5,1.1-1.1,1.1c-0.6,0-1.1-0.5-1.1-1.1c0-0.6,0.5-1.1,1.1-1.1C108.1,5.9,108.6,6.4,108.6,7
					z"/>
			</g>
		</g>
	</g>
</g>
</svg>
