<?xml version="1.0" encoding="utf-8"?>
<!-- Generator: Adobe Illustrator 24.2.3, SVG Export Plug-In . SVG Version: 6.00 Build 0)  -->
<svg version="1.1" id="Capa_1" xmlns="http://www.w3.org/2000/svg" xmlns:xlink="http://www.w3.org/1999/xlink" x="0px" y="0px"
	 viewBox="0 0 175.3 22" style="enable-background:new 0 0 175.3 22;" xml:space="preserve">
<style type="text/css">
	.st0{fill:#1A3762;}
	.st1{fill:#C02A35;}
</style>
<g>
	<polygon class="st0" points="29.1,9.1 31.4,5.1 16.3,5.1 13.9,9.1 19.5,9.1 14.3,17.8 19.1,17.8 24,9.1 	"/>
	<path class="st0" d="M29.5,9.8l-1.9,0l-4.7,8h4.4l2-3.3H33l0,3.3h4.5V5.1h-5.3L29.5,9.8z M33,11.8h-2.1l2-3.4L33,11.8z"/>
	<path class="st0" d="M50.3,5.1h-9.5L38.4,11v6.8h2.2l1.1-3.3h5.9c2.9-0.7,4.5-3.2,4.8-5.7C52.6,6.2,50.3,5.1,50.3,5.1z M47.3,9.6
		c-0.1,1.3-1.6,1.9-1.6,1.9h-2.9l1.3-3.3h2C46.1,8.2,47.4,8.3,47.3,9.6z"/>
</g>
<g>
	<g>
		<g>
			<g>
				<g>
					<path class="st1" d="M57,17.7V8.1h2.4c2.4,0,3.6,1,3.6,3c0,0.3,0,0.7-0.1,1.1c-0.3,1.5-1.2,2.4-2.8,2.4l-0.4,0v3.1H57z
						 M59.7,12.4c0.5,0,0.7-0.2,0.7-0.9c0-0.6-0.2-0.9-0.6-0.9l-0.2,0v1.8C59.7,12.4,59.7,12.4,59.7,12.4z"/>
					<path class="st1" d="M63.4,17.7V8.1h2.6v9.6H63.4z"/>
					<path class="st1" d="M66.5,15.3V11h2.6v3.8V15c0,0,0,0,0,0.1c0,0.2,0.1,0.3,0.3,0.3c0.2,0,0.3-0.1,0.3-0.3V11h2.6v6.7h-2.5
						v-0.5c-0.3,0.4-0.8,0.6-1.5,0.6c-1.1,0-1.7-0.6-1.7-1.7l0-0.6V15.3z"/>
					<path class="st1" d="M76.8,11.2v2.5c-0.2-0.2-0.4-0.3-0.6-0.4c-0.3-0.2-0.6-0.3-0.7-0.3c-0.2,0-0.3,0.1-0.3,0.2
						c0,0.1,0,0.2,0.2,0.3l0.1,0l0.5,0.2c0.2,0.1,0.4,0.2,0.6,0.4c0.3,0.3,0.5,0.9,0.5,1.4c0,0.6-0.2,1.2-0.7,1.7
						c-0.4,0.4-1,0.6-1.7,0.6c-0.2,0-0.5,0-0.7-0.1c-0.4-0.1-0.8-0.2-1.2-0.4v-2.7c0.1,0.1,0.1,0.2,0.2,0.2c0.2,0.3,0.5,0.5,0.8,0.6
						c0.2,0.1,0.3,0.1,0.4,0.1c0.1,0,0.1,0,0.2,0c0.1-0.1,0.1-0.1,0.1-0.2c0-0.1,0-0.1-0.1-0.1c0,0-0.1-0.1-0.2-0.1l-0.4-0.2l-0.1,0
						c-0.7-0.3-1.1-0.9-1.1-1.7c0-0.3,0.1-0.6,0.1-0.9c0.3-0.9,1.1-1.5,2.3-1.5c0.2,0,0.4,0,0.5,0C76,10.8,76.4,11,76.8,11.2z"/>
				</g>
				<path class="st1" d="M55.5,14.9c0,0.6-0.5,1.1-1.1,1.1c-0.6,0-1.1-0.5-1.1-1.1c0-0.6,0.5-1.1,1.1-1.1
					C55,13.8,55.5,14.3,55.5,14.9z"/>
			</g>
		</g>
	</g>
</g>
</svg>
