<?xml version="1.0" encoding="utf-8"?>
<!-- Generator: Adobe Illustrator 25.0.1, SVG Export Plug-In . SVG Version: 6.00 Build 0)  -->
<svg version="1.1" id="Capa_1" xmlns="http://www.w3.org/2000/svg" xmlns:xlink="http://www.w3.org/1999/xlink" x="0px" y="0px"
	 viewBox="0 0 91.3 18.5" style="enable-background:new 0 0 91.3 18.5;" xml:space="preserve">
<style type="text/css">
	.st0{fill:#003468;}
	.st1{fill:#C02A35;}
</style>
<g>
	<g>
		<polygon class="st0" points="25.6,0 22.2,5.7 14.8,5.7 7.4,18.5 0.7,18.5 8.1,5.7 0,5.7 3.3,0 		"/>
		<path class="st0" d="M45,13.9h-4.9l-1.7,4.7l-3.2,0V9.2L38.7,0H45l5.4,0c3.4-0.1,5,1.8,5.2,4.3v0.9c-0.3,3.9-3.8,8.6-9.1,8.6H45z
			 M45,9.2c3.8-0.2,4.4-4.7,1-4.7h-1h-1.5l-1.7,4.7l3,0C44.9,9.2,44.9,9.2,45,9.2"/>
		<path class="st0" d="M25.8,7.5l-1,1.7l0.9,0l0,0l1.8,0l0-4.8L25.8,7.5L25.8,7.5z M25.8,1.6L26.7,0h7.5l0,18.5l-6.6,0l0-4.7l-1.9,0
			h-3.6l-2.7,4.7l-6.7,0l6.8-11.8h3.2L25.8,1.6z"/>
	</g>
	<g>
		<g>
			<g>
				<path class="st1" d="M62,18.3V4.4h3.5c3.5,0,5.3,1.5,5.3,4.4c0,0.5-0.1,1-0.2,1.5c-0.4,2.2-1.7,3.5-4.1,3.5l-0.6,0v4.5H62z
					 M66,10.7c0.7,0,1-0.3,1-1.3c0-0.9-0.3-1.3-0.9-1.4l-0.3,0v2.7C65.9,10.7,66,10.7,66,10.7z"/>
				<path class="st1" d="M71.3,18.3V4.4h3.7v13.9H71.3z"/>
				<path class="st1" d="M75.9,14.9V8.6h3.7v5.5v0.3c0,0,0,0.1,0,0.1c0.1,0.3,0.2,0.4,0.5,0.4c0.3-0.1,0.4-0.2,0.4-0.4V8.6h3.7v9.7
					h-3.6v-0.7c-0.4,0.5-1.1,0.9-2.2,0.9c-1.6,0-2.4-0.9-2.5-2.5l0-0.8V14.9z"/>
				<path class="st1" d="M90.9,9v3.6c-0.3-0.3-0.5-0.5-0.8-0.6c-0.5-0.3-0.8-0.4-1-0.4c-0.3,0-0.5,0.1-0.5,0.3c0,0.2,0,0.2,0.3,0.4
					l0.1,0.1l0.7,0.3c0.3,0.2,0.6,0.3,0.8,0.6c0.5,0.5,0.8,1.2,0.8,2c0,0.9-0.3,1.8-1,2.5c-0.6,0.6-1.4,0.9-2.5,0.9
					c-0.3,0-0.7,0-1.1-0.1c-0.6-0.1-1.1-0.3-1.7-0.6v-4c0.1,0.1,0.2,0.2,0.3,0.3c0.4,0.4,0.8,0.8,1.1,0.9c0.2,0.1,0.4,0.1,0.6,0.1
					c0.1,0,0.2,0,0.2-0.1c0.1-0.1,0.2-0.2,0.2-0.3c0-0.1,0-0.2-0.1-0.2c-0.1-0.1-0.1-0.1-0.2-0.2l-0.5-0.3l-0.1-0.1
					c-1.1-0.5-1.7-1.3-1.7-2.4c0-0.4,0.1-0.8,0.2-1.3c0.4-1.4,1.5-2.2,3.3-2.2c0.3,0,0.5,0,0.8,0.1C89.7,8.5,90.3,8.7,90.9,9z"/>
			</g>
			<path class="st1" d="M60,14.4c0,0.9-0.7,1.6-1.6,1.6c-0.9,0-1.6-0.7-1.6-1.6c0-0.9,0.7-1.6,1.6-1.6C59.2,12.8,60,13.5,60,14.4z"
				/>
		</g>
	</g>
</g>
</svg>
