<?xml version="1.0" encoding="utf-8"?>
<!-- Generator: Adobe Illustrator 24.2.3, SVG Export Plug-In . SVG Version: 6.00 Build 0)  -->
<svg version="1.1" id="Capa_1" xmlns="http://www.w3.org/2000/svg" xmlns:xlink="http://www.w3.org/1999/xlink" x="0px" y="0px"
	 viewBox="0 0 175.3 22" style="enable-background:new 0 0 175.3 22;" xml:space="preserve">
<style type="text/css">
	.st0{fill:#C02A35;}
	.st1{fill:#003565;}
</style>
<g>
	<g>
		<g>
			<g>
				<g>
					<g>
						<path class="st0" d="M91.2,17.9V5.2h3.2c3.1,0,4.8,1.4,4.8,4c0,0.4,0,0.9-0.1,1.4c-0.4,2-1.6,3.2-3.7,3.2l-0.6,0v4.1H91.2z
							 M94.9,10.8c0.7,0,0.9-0.3,0.9-1.2c0-0.8-0.3-1.2-0.8-1.2l-0.3,0v2.4C94.8,10.8,94.8,10.8,94.9,10.8z"/>
						<path class="st0" d="M99.7,17.9V5.2h3.4v12.7H99.7z"/>
						<path class="st0" d="M103.9,14.8V9h3.4v5v0.3c0,0,0,0.1,0,0.1c0.1,0.3,0.2,0.3,0.4,0.3c0.2-0.1,0.4-0.2,0.4-0.3V9h3.4v8.9
							h-3.3v-0.6c-0.4,0.5-1,0.8-2,0.8c-1.5,0-2.2-0.9-2.3-2.3l0-0.8V14.8z"/>
						<path class="st0" d="M117.5,9.3v3.2c-0.2-0.2-0.5-0.4-0.7-0.6c-0.4-0.3-0.7-0.4-0.9-0.4c-0.3,0-0.4,0.1-0.4,0.3
							c0,0.2,0,0.2,0.3,0.4l0.1,0.1l0.6,0.3c0.3,0.1,0.5,0.3,0.7,0.5c0.5,0.5,0.7,1.1,0.7,1.9c0,0.8-0.3,1.6-0.9,2.3
							c-0.5,0.5-1.3,0.9-2.3,0.9c-0.3,0-0.6,0-1-0.1c-0.5-0.1-1-0.3-1.5-0.5v-3.6c0.1,0.1,0.1,0.2,0.2,0.3c0.3,0.4,0.7,0.7,1,0.9
							c0.2,0.1,0.4,0.1,0.5,0.1c0.1,0,0.1,0,0.2-0.1c0.1-0.1,0.2-0.2,0.2-0.3c0-0.1,0-0.1-0.1-0.2c-0.1-0.1-0.1-0.1-0.2-0.1
							l-0.5-0.2l-0.1-0.1c-1-0.4-1.5-1.2-1.5-2.2c0-0.4,0.1-0.8,0.2-1.2c0.4-1.3,1.4-2,3-2c0.2,0,0.5,0,0.7,0.1
							C116.5,8.8,117,9,117.5,9.3z"/>
					</g>
					<path class="st0" d="M89.3,14.2c0,0.8-0.7,1.5-1.5,1.5c-0.8,0-1.5-0.7-1.5-1.5c0-0.8,0.7-1.5,1.5-1.5
						C88.7,12.8,89.3,13.4,89.3,14.2z"/>
				</g>
			</g>
		</g>
	</g>
	<g>
		<path class="st1" d="M14.4,5.4h4l0.4,3.9c0.1,0.6,0.2,1.4,0.1,2.5l2.4-6.3h3.9l-4.7,12.2h-4L16,11.3c-0.2,0.9-0.6,1.8-1,2.9
			l-1.3,3.4h-4L14.4,5.4z"/>
		<path class="st1" d="M25,16.4c-0.8-1-1.1-2.6-0.7-4.3c0.4-1.8,1.3-3.4,2.5-4.7c1.5-1.5,3.4-2.4,5.3-2.4c3.3,0,4.9,2.4,4.2,5.7
			c-0.4,1.8-1.3,3.4-2.5,4.7c-1.5,1.5-3.4,2.4-5.3,2.4C26.9,17.9,25.8,17.4,25,16.4z M28.3,11.7c-0.3,1.3,0.2,2.1,1.3,2.1
			c1.2,0,2.4-1.2,2.7-2.6c0.3-1.2-0.3-2.1-1.3-2.1C29.8,9.1,28.6,10.3,28.3,11.7z"/>
		<path class="st1" d="M40.1,5.4h4.2c3.2,0,4.5,1.3,4,3.7c-0.4,2-1.7,3.4-3.5,3.8l0.5,4.7h-4l-0.2-4.4l-1.7,4.4h-3.9L40.1,5.4z
			 M42.3,10.8c1.2,0,1.8-0.4,2-1.3c0.2-0.7-0.2-1-1.2-1c-0.1,0-0.2,0-0.2,0L42,10.8C42.1,10.8,42.2,10.8,42.3,10.8z"/>
		<path class="st1" d="M51.4,5.4h7.4l-1.3,3.3h-3.5l-0.5,1.2h3.3l-1.2,3.1h-3.3l-0.5,1.3h3.8l-1.3,3.3h-7.8L51.4,5.4z"/>
		<path class="st1" d="M58.5,12.4c0.6,1.2,1.5,1.9,2.4,1.9c0.5,0,0.8-0.2,0.8-0.5c0.1-0.4-0.3-0.5-0.9-0.9c-1.6-0.8-2.2-1.9-1.9-3.6
			c0.5-2.5,2.7-4.3,5.4-4.3c1.5,0,2.7,0.5,3.6,1.5l-2.2,3c-0.7-0.9-1.3-1.3-1.9-1.3c-0.4,0-0.7,0.2-0.7,0.5
			c-0.1,0.5,0.4,0.6,1.1,1.1c1.4,0.8,1.9,1.7,1.6,3.4c-0.6,2.5-2.9,4.5-5.6,4.5c-1.7,0-3.2-0.7-4.3-2.2L58.5,12.4z"/>
		<path class="st1" d="M69.8,9.1h-2.3l1.4-3.7h8.5L76,9.1h-2.2l-3.3,8.5h-4L69.8,9.1z"/>
		<path class="st1" d="M78.6,5.4H86l-1.3,3.3h-3.5l-0.5,1.2h3.3l-1.2,3.1h-3.3l-0.5,1.3H83l-1.3,3.3h-7.8L78.6,5.4z"/>
	</g>
</g>
</svg>
