<?xml version="1.0" encoding="utf-8"?>
<!-- Generator: Adobe Illustrator 24.2.3, SVG Export Plug-In . SVG Version: 6.00 Build 0)  -->
<svg version="1.1" id="Capa_1" xmlns="http://www.w3.org/2000/svg" xmlns:xlink="http://www.w3.org/1999/xlink" x="0px" y="0px"
	 viewBox="0 0 175.3 22" style="enable-background:new 0 0 175.3 22;" xml:space="preserve">
<style type="text/css">
	.st0{fill:none;}
	.st1{fill:#0A1C75;}
	.st2{font-family:'Futura-CondensedExtraBold';}
	.st3{font-size:9px;}
	.st4{fill:#002D5D;}
	.st5{fill:#C02A35;}
</style>
<rect x="138.1" y="8" class="st0" width="32.7" height="12.6"/>
<text transform="matrix(1 0 0 1 139.4384 15.3969)" class="st1 st2 st3">2 PISOS</text>
<g>
	<g>
		<path class="st4" d="M84.4,8.9c0.3,0.1,0.5,0.1,0.9,0c0.3,0,0.7-0.2,1-0.3C86.6,8.4,86.8,8.2,87,8l-1.7-1.1c0.1,0.4,0,0.9-0.2,1.2
			C85,8.4,84.7,8.6,84.4,8.9"/>
		<path class="st4" d="M65.9,10.6c-0.1-0.3-0.4-0.5-0.6-0.7c-0.2-0.1-0.5-0.3-0.8-0.3c-0.3,0-0.8,0-1.2,0.1c-0.4,0.1-0.7,0.3-1,0.5
			c-0.3,0.2-0.5,0.4-0.7,0.7c-0.2,0.2-0.4,0.5-0.6,0.9c-0.3,0.4-0.5,1-0.8,1.4c-0.3,0.4-0.4,0.5-0.6,0.7c-0.2,0.2-0.4,0.4-0.6,0.4
			c-0.1,0-0.2,0-0.3-0.1c-0.1-0.1-0.1-0.2,0-0.5c0.1-0.2,0.3-0.6,0.5-1L62.9,6h-1.8l-2.4,4.4c-0.2-0.2-0.4-0.3-0.6-0.4
			c-0.2-0.1-0.4-0.2-0.6-0.2c-0.2,0-0.5-0.1-0.8,0c-0.3,0-0.5,0.1-0.8,0.2c-0.3,0.1-0.6,0.3-0.9,0.5c-0.3,0.2-0.6,0.4-0.8,0.7
			c-0.2,0.2-0.5,0.5-0.6,0.8c-0.2,0.3-0.3,0.5-0.4,0.8c-0.1,0.3-0.1,0.5-0.1,0.8c0,0.3,0.1,0.6,0.2,0.9c0.1,0.3,0.2,0.5,0.5,0.8
			c0.3,0.2,0.5,0.4,0.9,0.5c0.4,0.1,1.1,0.1,1.4,0c0.4-0.1,0.8-0.3,1.1-0.6c0.1,0.3,0.3,0.4,0.5,0.5c0.2,0.1,0.6,0.1,0.9,0.1
			c0.3,0,0.4-0.1,0.7-0.2c0.2-0.1,0.5-0.3,0.7-0.5c0.2-0.2,0.4-0.4,0.6-0.6c0,0.1,0.1,0.3,0.2,0.4c0.1,0.1,0.1,0.2,0.3,0.4
			c0.2,0.1,0.4,0.3,0.6,0.4c0.2,0.1,0.5,0.1,0.8,0.1c0.3,0,0.6,0,1,0c0.3-0.1,0.7-0.2,1-0.3c0.3-0.1,0.5-0.2,0.7-0.3l0.4-1
			c-0.3,0.1-0.6,0.3-0.9,0.4c-0.3,0.1-0.5,0.2-0.8,0.2c-0.3,0-0.5,0-0.8,0c-0.3,0-0.5-0.1-0.7-0.3c-0.1-0.1-0.2-0.3-0.2-0.5
			c0-0.2,0.1-0.4,0.1-0.5c0.2,0.1,0.4,0.3,0.6,0.4c0.2,0.1,0.5,0.1,0.9,0.1c0.4,0,0.8,0,1.2-0.2c0.4-0.2,0.7-0.4,0.9-0.7
			c0.2-0.2,0.3-0.4,0.4-0.7c0.1-0.2,0.1-0.5,0.1-0.8C66.1,11.1,66.1,10.8,65.9,10.6z M57.2,13.4c-0.7,0.9-1.6,1.4-2.2,1
			C54.6,14,54.7,13,55.4,12c0.7-0.9,1.6-1.4,2.2-1C58.1,11.4,57.9,12.5,57.2,13.4z M64.8,11.7c0,0.2-0.1,0.4-0.3,0.5
			c-0.2,0.2-0.4,0.3-0.6,0.4c-0.2,0.1-0.5,0-0.7-0.1c-0.2-0.1-0.3-0.3-0.3-0.5c0-0.2,0.1-0.5,0.2-0.7c0.1-0.2,0.3-0.4,0.5-0.4
			c0.2-0.1,0.4-0.1,0.6-0.1c0.2,0,0.4,0.1,0.5,0.3C64.9,11.3,64.9,11.6,64.8,11.7z"/>
		<path class="st4" d="M14.8,11.6c0.2-0.5,0.3-1.1,0.4-1.5c0.1-0.5,0.1-0.9,0.1-1.3c0-0.4-0.1-0.9-0.2-1.2c-0.1-0.3-0.3-0.6-0.4-0.8
			c-0.2-0.2-0.3-0.4-0.6-0.5C13.9,6.1,13.7,6,13.4,6c-0.3,0-0.8,0-1.1,0.1c-0.3,0.1-0.6,0.2-0.8,0.3c-0.3,0.1-0.5,0.3-0.7,0.5
			c-0.2,0.2-0.4,0.4-0.5,0.6C10,7.6,10,7.9,9.9,8.1C9.8,8.3,9.8,8.6,9.8,8.8c0,0.2,0,0.5,0.1,0.7c0.1,0.2,0.1,0.5,0.3,0.7
			c0.1,0.2,0.3,0.4,0.5,0.5c0.2,0.1,0.4,0.2,0.6,0.3c0.2,0.1,0.5,0.1,0.7,0.1c0.2,0,0.4-0.1,0.6-0.1c0.2-0.1,0.5-0.2,0.6-0.3
			c0.2-0.1,0.4-0.3,0.5-0.4c0.1-0.2,0.2-0.3,0.3-0.5c0.1-0.2,0.1-0.4,0.1-0.6c0-0.2,0-0.4,0-0.6c0-0.2-0.1-0.2-0.1-0.4
			c-0.1,0.1-0.2,0.1-0.3,0.2c-0.1,0.1-0.2,0.1-0.4,0.1c-0.1,0-0.3-0.1-0.4-0.1c-0.1-0.1-0.3-0.2-0.3-0.3c-0.1-0.1-0.1-0.3-0.1-0.5
			c0-0.2,0.1-0.3,0.2-0.4c0.1-0.1,0.3-0.2,0.5-0.3c0.2,0,0.4,0,0.5,0C13.8,7,13.9,7,14,7.1c0.1,0.1,0.2,0.2,0.3,0.4
			c0.1,0.2,0.1,0.4,0.1,0.6c0,0.2,0.1,0.4,0.1,0.6c0,0.2,0,0.5-0.1,0.8c0,0.3-0.1,0.7-0.3,1.1c-0.1,0.4-0.3,0.8-0.4,1.1
			c-0.2,0.3-0.4,0.6-0.6,0.9c-0.2,0.3-0.5,0.6-0.8,0.8c-0.3,0.2-0.5,0.4-0.7,0.5c-0.3,0.1-0.5,0.2-0.8,0.3c-0.3,0-0.6,0-1-0.1
			C9.5,14,9.3,13.9,9,13.6c-0.3-0.3-0.5-0.7-0.6-1.1c-0.1-0.4-0.2-1-0.1-1.6c0.1-0.6,0.1-1,0.3-1.5c0.2-0.5,0.4-0.9,0.6-1.2
			c0.2-0.3,0.4-0.6,0.6-0.9c0.2-0.2,0.4-0.5,0.6-0.6c0.2-0.2,0.4-0.4,0.6-0.5c-0.3,0-0.5,0.2-0.9,0.3C9.6,6.7,9.2,7,8.8,7.2
			c-0.4,0.3-0.7,0.6-1,0.8C7.6,8.3,7.3,8.6,7.1,8.9C6.9,9.2,6.8,9.5,6.6,9.8c-0.1,0.3-0.3,0.7-0.3,1.1c-0.1,0.3-0.1,0.7-0.1,1
			c0,0.3,0.1,0.6,0.1,0.9c0.1,0.3,0.2,0.6,0.3,0.9C6.8,14,7,14.2,7.2,14.5c0.2,0.2,0.4,0.4,0.6,0.5c0.2,0.2,0.4,0.3,0.7,0.4
			c0.3,0.1,0.5,0.2,0.8,0.2c0.3,0,0.7,0.1,1,0c0.3,0,0.7-0.1,1-0.2c0.3-0.1,0.6-0.2,0.9-0.3c0.3-0.1,0.5-0.3,0.7-0.5
			c0.2-0.2,0.5-0.4,0.7-0.7c0.2-0.3,0.4-0.6,0.6-1C14.5,12.5,14.7,12.1,14.8,11.6z"/>
		<path class="st4" d="M50.5,10.4c0.1-0.1,0.3-0.1,0.4-0.1c0.2,0,0.3,0,0.5,0l-0.5-1c-0.6,0-1.2,0-1.7,0.1c-0.5,0.1-1,0.2-1.4,0.4
			c-0.4,0.2-0.8,0.4-1.2,0.7c-0.4,0.3-0.8,0.6-1.1,1.1c-0.4,0.5-0.8,1.2-1.1,1.6c-0.3,0.4-0.5,0.7-0.6,0.8c-0.1,0.1-0.2,0.2-0.3,0.2
			c-0.1,0-0.2,0-0.2-0.1c-0.1-0.1-0.1-0.1-0.1-0.2c0-0.1,0-0.1,0.1-0.2l2.3-4h-1.8l-2.1,3.8c0,0.1-0.4,0.4-0.6,0.5
			c-0.1,0-0.1,0-0.2,0c-0.1,0-0.1,0-0.1,0c-0.1,0-0.1-0.1-0.1-0.1c0-0.1-0.1-0.1,0-0.2l2.3-4h-1.9L39.5,12c-0.2,0.4-0.6,0.6-0.8,0.8
			c-0.2,0.2-0.3,0.3-0.5,0.3c0.3-0.5,0.4-1,0.4-1.5c0-0.4,0-0.7-0.1-1c-0.1-0.3-0.3-0.6-0.6-0.8c-0.3-0.2-0.5-0.2-0.8-0.3
			c-0.3,0-0.6,0-0.8,0c-0.2,0-0.5,0.2-0.7,0.2L37.7,6h-1.9l-4.3,7.6c-0.1,0.1-0.1,0.2-0.2,0.3C31.2,13.9,31.1,14,31,14
			c-0.1,0-0.2,0-0.3,0c-0.1,0-0.2-0.1-0.2-0.2c0-0.1,0-0.2,0.1-0.4l2.1-3.8h-1.8l-2.3,4.2c-0.1,0.1-0.2,0.2-0.3,0.3
			c-0.1,0.1-0.3,0-0.4,0c-0.1,0-0.2-0.1-0.2-0.2c0-0.1,0-0.2,0-0.3l1.3-2.2c0.1-0.2,0.2-0.4,0.2-0.5c0.1-0.2-0.1-0.6-0.2-0.8
			c-0.1-0.2-0.2-0.3-0.4-0.4c-0.2-0.1-0.3-0.1-0.5-0.1c-0.2,0-0.5,0.1-0.6,0.2c-0.2,0.1-0.3,0.2-0.5,0.3l0.3-0.5h-1.9l-2.2,4
			c-0.1,0.1-0.2,0.2-0.2,0.3c-0.1,0.1-0.2,0.1-0.3,0.1c-0.1,0-0.2,0-0.3,0c-0.1,0-0.1-0.1-0.1-0.2c0-0.1,0-0.1,0-0.2
			c0-0.1,0-0.2,0.1-0.2l1.2-2.2c0.1-0.2,0.1-0.3,0.1-0.5c0-0.2-0.1-0.4-0.2-0.5c-0.1-0.2-0.2-0.3-0.4-0.4c-0.1-0.1-0.2-0.1-0.3-0.2
			c-0.1,0-0.3,0-0.4,0c-0.1,0-0.3,0-0.4,0.1c-0.1,0-0.2,0.1-0.4,0.2c-0.2,0.1-0.3,0.2-0.4,0.4c-0.1-0.2-0.3-0.3-0.4-0.4
			c-0.1-0.1-0.3-0.2-0.4-0.2c-0.1,0-0.3-0.1-0.4-0.1c-0.1,0-0.3,0-0.5,0.1c-0.2,0-0.3,0.1-0.5,0.2c-0.1,0.1-0.2,0.2-0.3,0.3
			c-0.1-0.1-0.2-0.2-0.3-0.3c-0.1-0.1-0.3-0.1-0.4-0.2c-0.1-0.1-0.4-0.1-0.5-0.1c-0.2,0-0.3,0-0.5,0c-0.2,0-0.4,0.1-0.6,0.2
			c-0.2,0.1-0.3,0.2-0.5,0.3c-0.1,0.1-0.3,0.2-0.4,0.4c-0.1,0.2-0.2,0.3-0.2,0.5l0,0c0,0-0.1,0.5-0.1,0.5c0.1-0.1,0.1,0,0.2,0
			c0.1,0,0.2,0,0.3,0c0.1,0,0.1,0.1,0.2,0.1c0.1,0,0.1,0.1,0.1,0.2c0,0.1-0.1,0.3-0.2,0.5l-1.8,3.3h1.8l2-3.5
			c0.1-0.1,0.2-0.3,0.3-0.4c0.1-0.1,0.2-0.1,0.3-0.1c0.1,0,0.2,0,0.3,0.1c0.1,0.1,0.1,0.2,0,0.3l-2,3.6h1.9l2-3.6
			c0-0.1,0.1-0.2,0.2-0.2c0.1-0.1,0.2-0.2,0.3-0.2c0.1,0,0.2,0.1,0.3,0.2c0,0.1,0,0.3-0.1,0.4c-0.1,0.2-0.2,0.4-0.3,0.6L20,14.2
			c-0.1,0.2-0.1,0.3-0.1,0.5c0,0.2,0.1,0.4,0.3,0.6c0.2,0.2,0.4,0.3,0.7,0.3c0.2,0,0.5,0,0.7-0.1c0.2-0.1,0.3-0.1,0.4-0.2
			c0.1-0.1,0.3-0.2,0.4-0.3L22,15.7h1.9l2-3.6c0-0.1,0.1-0.1,0.1-0.2c0.1-0.1,0.1-0.2,0.2-0.2c0.1-0.1,0.2-0.1,0.3-0.1
			c0.1,0,0.2,0.1,0.2,0.1c0,0.1,0,0.2-0.1,0.3l-1,1.8c-0.1,0.1-0.1,0.3-0.1,0.5c0,0.2,0,0.4,0,0.6c0.1,0.2,0.2,0.4,0.4,0.5
			c0.2,0.1,0.4,0.2,0.7,0.2c0.3,0,0.5-0.1,0.8-0.2c0.3-0.1,0.6-0.5,0.9-0.8c0.1,0.4,0.2,0.7,0.4,0.8c0.2,0.1,0.4,0.1,0.6,0.2
			c0.3,0,0.7-0.1,0.9-0.2c0.2-0.1,0.6-0.4,0.7-0.6l-0.4,0.8h2l0.7-1.4c0.1,0.4,0.3,0.9,0.7,1.1c0.3,0.2,0.5,0.3,0.9,0.3
			c0.3,0,0.7,0,1-0.1c0.3-0.1,0.6-0.3,0.9-0.4c0.4-0.2,0.6-0.3,0.9-0.5c0.3-0.2,0.5-0.3,0.9-0.6c0.1,0.2,0.2,0.5,0.2,0.6
			c0.1,0.2,0.2,0.4,0.3,0.5c0.1,0.1,0.3,0.3,0.4,0.4c0.2,0.1,0.2,0.1,0.4,0.2c0.2,0,0.5,0,0.7,0c0.2,0,0.3-0.1,0.5-0.2
			c0.1-0.1,0.2-0.2,0.3-0.2c0.1-0.1,0.2-0.1,0.3-0.2c0,0.1,0,0.1,0.1,0.2c0,0.1,0.1,0.1,0.2,0.2c0.1,0.1,0.3,0.1,0.5,0.2
			c0.2,0.1,0.8,0,0.9,0c0.3,0,0.5-0.2,0.7-0.3c0.2-0.2,0.5-0.4,0.7-0.7c0.2-0.3,0.4-0.7,0.7-1.2c0.3-0.5,0.6-1,1-1.4
			c0.4-0.4,0.8-0.7,1.1-0.9c0.3-0.2,0.7-0.4,0.9-0.5c0.3-0.1,0.5-0.2,0.6-0.2c-0.1,0.1-0.3,0.3-0.3,0.5c-0.1,0.1-0.1,0.3-0.1,0.4
			c0,0.1,0,0.3,0,0.5c0,0.2,0.1,0.3,0.2,0.6c0.1,0.3,0.3,0.6,0.3,0.9c0.1,0.3,0,0.5-0.1,0.6c-0.1,0.1-0.2,0.2-0.4,0.2
			c-0.2,0-0.4,0-0.5-0.1c-0.1-0.1-0.2-0.3-0.1-0.4c0-0.1,0.1-0.2,0.2-0.3c0.1-0.1,0.2-0.1,0.3-0.1c0.1,0,0.3,0,0.4,0.1
			c0-0.1-0.2-0.3-0.3-0.4c-0.1-0.1-0.4-0.3-0.6-0.4c-0.2-0.1-0.5-0.1-0.8-0.1c-0.3,0-0.5,0.1-0.8,0.3c-0.2,0.2-0.3,0.3-0.4,0.5
			c-0.1,0.2-0.1,0.5-0.1,0.7c0,0.2,0.1,0.5,0.2,0.7c0.1,0.2,0.2,0.3,0.4,0.4c0.2,0.2,0.4,0.3,0.6,0.3c0.3,0.1,0.7,0.1,1.1,0.1
			c0.3,0,1,0,1.3-0.1c0.4-0.1,0.4-0.2,0.7-0.3c0.3-0.2,0.4-0.4,0.6-0.6c0.1-0.2,0.3-0.5,0.3-0.8c0-0.3,0-0.6-0.1-0.9
			c-0.1-0.3-0.2-0.5-0.5-0.8c-0.3-0.3-0.4-0.6-0.4-0.8c0-0.2,0-0.5,0.1-0.7C50.3,10.5,50.4,10.4,50.5,10.4z M36.8,12.2
			c0,0.1-0.1,0.3-0.2,0.5c-0.1,0.2-0.3,0.5-0.4,0.8c-0.2,0.3-0.4,0.4-0.5,0.6c-0.2,0.1-0.3,0.2-0.5,0.3c-0.2,0-0.3,0.1-0.5,0
			c-0.2,0-0.3-0.1-0.4-0.1c-0.1-0.1-0.2-0.1-0.3-0.3c-0.1-0.1-0.2-0.3-0.2-0.5c0-0.2,0-0.3,0.1-0.5c0.1-0.2,0.2-0.4,0.3-0.6
			c0.1-0.2,0.3-0.4,0.4-0.6c0.1-0.2,0.2-0.2,0.3-0.4c0.1-0.1,0.3-0.3,0.4-0.3c0.2-0.1,0.3-0.1,0.5-0.2c0.2,0,0.4,0,0.6,0.1
			c0.2,0.1,0.3,0.2,0.4,0.3c0.1,0.1,0.1,0.3,0.2,0.5C36.9,11.9,36.8,12.1,36.8,12.2z"/>
		<path class="st4" d="M31.7,8.8C31.8,8.9,32.1,9,32.3,9c0.2,0,0.4-0.1,0.6-0.2c0.2-0.1,0.3-0.3,0.4-0.5c0.1-0.2,0.1-0.4,0-0.6
			c-0.1-0.2-0.2-0.4-0.4-0.5C32.7,7,32.5,7,32.3,7c-0.2,0-0.4,0.1-0.6,0.2c-0.2,0.1-0.3,0.3-0.4,0.5c-0.1,0.2-0.1,0.4,0,0.6
			C31.4,8.5,31.5,8.7,31.7,8.8z"/>
		<path class="st4" d="M109.1,11.3c-0.2,0-0.4,0-0.6,0c-0.1-0.4-0.3-0.8-0.6-1.1c-0.3-0.3-0.6-0.5-0.9-0.6c-0.3-0.1-0.7-0.2-1.1-0.1
			c-0.4,0.1-0.9,0.3-1.3,0.6c-0.4,0.3-0.8,0.8-1.2,1.4c-0.4,0.6-0.7,1.3-1.1,1.8c-0.4,0.5-1,0.9-1.5,1.1c-0.4,0.2-0.8,0.1-1.1,0
			c-0.2-0.1-0.4-0.3-0.5-0.5c-0.1-0.2-0.1-0.5-0.1-0.7c0-0.2,0-0.4,0.1-0.6c0.1-0.2,0.2-0.4,0.3-0.6c0.1-0.2,0.3-0.5,0.4-0.6
			c0.1-0.2,0.3-0.3,0.4-0.4c0.1-0.1,0.3-0.2,0.4-0.1c0.1,0,0.2,0.1,0.3,0.2c0,0.1,0,0.2-0.1,0.3c-0.1,0.1-0.1,0.1-0.3,0.2
			c-0.1,0.1-0.5,0-0.5-0.1c0,0,0,0.4,0.2,0.6c0.1,0.2,0.4,0.5,0.7,0.5c0.3,0.1,0.6,0.1,0.9-0.1c0.3-0.1,0.5-0.3,0.6-0.5
			c0.1-0.2,0.2-0.4,0.2-0.6c0-0.2,0-0.4,0-0.6c0-0.2-0.2-0.5-0.3-0.6c-0.2-0.2-0.4-0.3-0.8-0.4c-0.3-0.1-0.8-0.2-1.2-0.1
			c-0.4,0.1-0.8,0.2-1.2,0.4c-0.4,0.2-0.7,0.5-1,0.8c-0.3,0.3-0.5,0.7-0.7,1c-0.2,0.3-0.3,0.6-0.5,0.9c-0.2,0.3-0.5,0.8-0.7,1.1
			c-0.2,0.3-0.4,0.4-0.5,0.5c-0.1,0.1-0.2,0.1-0.3,0.1c-0.1,0-0.1,0-0.2,0c-0.1,0-0.1,0-0.1-0.2c0-0.1,0.2-0.4,0.3-0.5l2.2-4.1h-1.9
			L94,13c-0.3,0.4-0.5,0.7-0.8,0.9c-0.2,0.2-0.4,0.3-0.7,0.4c-0.2,0.1-0.5,0.1-0.8,0c-0.2-0.1-0.4-0.3-0.5-0.6
			c-0.1-0.3-0.1-0.5,0.1-0.8c0.2-0.3,0.4-0.8,0.6-1c0.1-0.2,0.2-0.4,0.4-0.5c0.1-0.1,0.3-0.2,0.5-0.3c0.1,0,0.3,0.1,0.3,0.2
			c0,0.1,0,0.2-0.1,0.3c-0.1,0.1-0.1,0.2-0.2,0.3c0.2,0.1,0.4,0.1,0.7,0.1c0.2,0,0.5-0.1,0.6-0.2c0.2-0.1,0.3-0.3,0.4-0.5
			c0.1-0.2,0.2-0.4,0.2-0.6c0-0.2,0-0.4-0.1-0.6c-0.1-0.2-0.2-0.3-0.4-0.4c-0.2-0.1-0.5-0.2-0.7-0.2c-0.2,0-0.5,0-0.7,0.1
			c-0.2,0.1-0.4,0.2-0.5,0.3c-0.1,0.1-0.3,0.2-0.4,0.3c-0.1,0.1-0.3,0.4-0.4,0.5c-0.1-0.3-0.1-0.5-0.3-0.7c-0.2-0.2-0.3-0.2-0.5-0.3
			c-0.2-0.1-0.4-0.1-0.6-0.1c-0.1,0-0.4,0-0.6,0.1c-0.2,0.1-0.6,0.2-0.9,0.4c-0.4,0.2-0.8,0.6-1.3,1.1c-0.5,0.6-1,1.2-1.4,1.7
			c-0.4,0.5-0.7,0.8-1,1c-0.3,0.2-0.6,0.3-0.9,0.4c-0.3,0.1-0.7,0.1-1,0.1c-0.3,0-0.7-0.1-0.8-0.2c-0.2-0.1-0.3-0.4-0.3-0.5
			c0-0.2,0.1-0.4,0.2-0.5c0.2,0.2,0.6,0.5,0.9,0.5c0.3,0,0.7,0.1,1,0c0.3-0.1,0.7-0.2,1-0.4c0.3-0.2,0.5-0.4,0.7-0.7
			c0.2-0.3,0.3-0.7,0.4-0.9c0.1-0.3,0-0.5,0-0.7c0-0.3-0.2-0.5-0.3-0.7c-0.1-0.2-0.4-0.4-0.6-0.5c-0.2-0.1-0.5-0.2-0.8-0.3
			c-0.1,0-0.5,0-0.8,0c-0.3,0.1-0.8,0.3-1.1,0.5c-0.3,0.2-0.6,0.4-0.9,0.8c-0.3,0.3-0.7,0.8-0.9,1.3c-0.3,0.5-0.5,1.1-0.7,1.4
			c-0.2,0.3-0.3,0.4-0.4,0.5c-0.1,0.1-0.3,0.2-0.4,0.2c-0.1,0-0.2-0.1-0.2-0.2c0-0.1,0-0.2,0.1-0.4c0.1-0.2,0.1-0.4,0.6-1.7
			c0.5-1.3,1.3-3.5,2.2-6h-1.9l-2.2,3.3L78.4,6h-1.7l-4.4,7c-0.1,0.2-0.3,0.4-0.5,0.5c-0.2,0.1-0.4,0.2-0.6,0.2
			c-0.2,0-0.5-0.1-0.7-0.2c-0.2-0.1-0.2-0.3-0.2-0.4c0-0.2,0.1-0.3,0.3-0.4c0.2-0.1,0.4-0.1,0.5-0.1c0.1,0,0.4,0.1,0.5,0.1v0
			c-0.1-0.3-0.4-0.6-0.7-0.8c-0.2-0.2-0.6-0.3-0.9-0.4c-0.3-0.1-0.7,0-1,0.1c-0.3,0.1-0.6,0.3-0.9,0.5c-0.2,0.2-0.4,0.5-0.5,0.8
			c-0.1,0.3-0.1,0.6-0.1,0.9c0.1,0.3,0.2,0.6,0.4,0.9c0.2,0.3,0.5,0.5,0.8,0.6c0.3,0.1,0.7,0.3,1.1,0.3c0.4,0,0.9-0.1,1.4-0.3
			c0.5-0.2,0.9-0.5,1.4-0.9c0.4-0.4,0.8-1.1,1.2-1.7l1.7-2.7l-1.2,5.6l3.9-5.6c-0.5,1.2-0.8,2.4-1,3.1c-0.2,0.7-0.2,1-0.1,1.3
			c0,0.3,0.2,0.5,0.4,0.7c0.2,0.2,0.3,0.3,0.6,0.4c0.3,0.1,0.5,0.1,0.8,0c0.3-0.1,0.5-0.2,0.8-0.4c0.3-0.2,0.6-0.6,0.7-0.9
			c-0.1,0.1,0.4,0.6,0.5,0.7c0.1,0.2,0.3,0.3,0.5,0.4c0.2,0.1,0.5,0.2,0.7,0.2c0.2,0,0.5,0.1,0.7,0.1c0.3,0,0.6-0.1,0.9-0.2
			c0.3-0.1,0.7-0.3,1-0.4c0.3-0.2,0.6-0.3,0.9-0.7c0.4-0.4,0.9-1,1.3-1.5c0.4-0.5,0.8-0.9,1.1-1.3c0.3-0.3,0.5-0.6,0.8-0.7
			c0.3-0.1,0.5-0.1,0.7,0c0.1,0,0.2,0.1,0.4,0.2c0.1,0.1,0.2,0.3,0.3,0.5c0,0.2,0,0.4-0.1,0.6c-0.1,0.2-0.2,0.3-0.3,0.6
			c-0.1,0.3-0.3,0.5-0.4,0.8c-0.1,0.2-0.2,0.4-0.4,0.5c-0.1,0.1-0.3,0.1-0.4,0c-0.1-0.1-0.1-0.2-0.1-0.3c0-0.1,0.1-0.2,0.2-0.3
			c0.1-0.1,0.2-0.2,0.4-0.2c-0.3-0.2-0.6-0.3-0.9-0.3s-0.6,0.1-0.8,0.2c-0.2,0.1-0.4,0.3-0.5,0.5c-0.1,0.2-0.1,0.5-0.1,0.7
			c0,0.2,0.1,0.5,0.3,0.7c0.2,0.2,0.4,0.4,0.6,0.5c0.2,0.1,0.5,0.2,0.8,0.2c0.3,0,0.6-0.2,0.8-0.3c0.2-0.2,0.5-0.4,0.6-0.7
			c0.1,0.2,0.2,0.3,0.4,0.5c0.2,0.2,0.5,0.4,0.8,0.5c0.3,0.1,0.7,0,1,0c0.3-0.1,0.6-0.2,0.8-0.3c0.2-0.1,0.5-0.3,0.6-0.4
			c0.1,0.3,0.3,0.5,0.6,0.6c0.3,0.1,0.8,0.2,1.2,0.1c0.4-0.1,0.8-0.2,1.1-0.5c0.3-0.2,0.6-0.6,0.7-1.2c0,0.3,0.5,0.7,0.8,0.9
			c0.2,0.2,0.6,0.5,0.9,0.6c0.3,0.1,0.9,0.2,1.4,0.2c0.5,0,1-0.2,1.4-0.5c0.5-0.2,0.8-0.6,1.1-1c0.1,0.2,0.3,0.4,0.5,0.7
			c0.2,0.2,0.5,0.5,1,0.6c0.4,0.1,1,0.2,1.5,0.1c0.5-0.1,1-0.3,1.3-0.5c0.3-0.2,0.6-0.4,0.7-0.7c0.2-0.3,0.4-0.6,0.6-1
			c0.1-0.3,0.1-0.7,0.2-1c0.2-0.1,0.4-0.2,0.6-0.3c0.2-0.1,0.4-0.3,0.5-0.5c0.2-0.2,0.3-0.7,0.4-0.7C109.7,11,109.3,11.3,109.1,11.3
			z M82.9,11.9c0-0.2,0.1-0.3,0.2-0.5c0.1-0.2,0.3-0.3,0.4-0.4c0.1-0.1,0.3-0.1,0.4-0.2c0.1,0,0.3,0,0.5,0.1
			c0.1,0.1,0.3,0.1,0.3,0.2c0.1,0.1,0.1,0.3,0.1,0.4c0,0.1-0.1,0.3-0.1,0.4c-0.1,0.1-0.2,0.3-0.4,0.4c-0.1,0.1-0.3,0.2-0.5,0.3
			c-0.2,0-0.4,0-0.6,0c-0.2,0-0.3-0.1-0.4-0.2C82.9,12.2,82.9,12,82.9,11.9z M107,13.4L107,13.4c-0.2,0.3-0.3,0.4-0.5,0.6
			c-0.2,0.2-0.3,0.3-0.5,0.4c-0.2,0.1-0.4,0.2-0.6,0.2c-0.2,0.1-0.5,0-0.7-0.1c-0.2-0.1-0.3-0.4-0.4-0.7c0-0.3,0-0.7,0.2-1
			c0.1-0.3,0.2-0.6,0.4-0.8c0.1-0.2,0.3-0.4,0.5-0.6c0.1,0.2,0.2,0.4,0.5,0.6c0.2,0.1,0.5,0.3,0.7,0.4c0.2,0.1,0.9,0.2,0.9,0
			C107.3,12.8,107.1,13.1,107,13.4z"/>
		<path class="st4" d="M97.4,6.9c-0.2,0-0.4,0.1-0.6,0.2c-0.2,0.1-0.3,0.3-0.4,0.5c-0.1,0.2-0.1,0.4,0,0.6c0.1,0.2,0.2,0.4,0.4,0.5
			c0.2,0.1,0.4,0.2,0.6,0.2c0.2,0,0.4-0.1,0.6-0.2c0.2-0.1,0.3-0.3,0.4-0.5c0.1-0.2,0.1-0.4,0-0.6c-0.1-0.2-0.2-0.4-0.4-0.5
			C97.8,7,97.6,6.9,97.4,6.9"/>
	</g>
	<g>
		<g>
			<g>
				<path class="st5" d="M116.2,15.7V6h2.4c2.4,0,3.7,1,3.7,3.1c0,0.3,0,0.7-0.1,1.1c-0.3,1.5-1.2,2.5-2.8,2.5l-0.4,0v3.1H116.2z
					 M119,10.4c0.5,0,0.7-0.2,0.7-0.9c0-0.6-0.2-0.9-0.6-1l-0.2,0v1.9C119,10.4,119,10.4,119,10.4z"/>
				<path class="st5" d="M122.7,15.7V6h2.6v9.7H122.7z"/>
				<path class="st5" d="M125.9,13.3V8.9h2.6v3.8V13c0,0,0,0,0,0.1c0,0.2,0.1,0.3,0.3,0.3c0.2,0,0.3-0.1,0.3-0.3V8.9h2.6v6.8h-2.5
					v-0.5c-0.3,0.4-0.8,0.6-1.5,0.6c-1.1,0-1.7-0.7-1.7-1.7l0-0.6V13.3z"/>
				<path class="st5" d="M136.4,9.2v2.5c-0.2-0.2-0.4-0.3-0.6-0.4c-0.3-0.2-0.6-0.3-0.7-0.3c-0.2,0-0.3,0.1-0.3,0.2
					c0,0.1,0,0.2,0.2,0.3l0.1,0l0.5,0.2c0.2,0.1,0.4,0.2,0.6,0.4c0.3,0.3,0.5,0.9,0.5,1.4c0,0.6-0.2,1.2-0.7,1.7
					c-0.4,0.4-1,0.7-1.7,0.7c-0.2,0-0.5,0-0.7-0.1c-0.4-0.1-0.8-0.2-1.2-0.4v-2.8c0.1,0.1,0.1,0.2,0.2,0.2c0.2,0.3,0.5,0.5,0.8,0.7
					c0.2,0.1,0.3,0.1,0.4,0.1c0.1,0,0.1,0,0.2,0c0.1-0.1,0.1-0.1,0.1-0.2c0-0.1,0-0.1-0.1-0.1c0,0-0.1-0.1-0.2-0.1l-0.4-0.2l-0.1,0
					c-0.7-0.3-1.2-0.9-1.2-1.7c0-0.3,0.1-0.6,0.1-0.9c0.3-1,1.1-1.6,2.3-1.6c0.2,0,0.4,0,0.6,0C135.6,8.8,136,9,136.4,9.2z"/>
			</g>
			<path class="st5" d="M114.8,12.9c0,0.6-0.5,1.1-1.1,1.1c-0.6,0-1.1-0.5-1.1-1.1c0-0.6,0.5-1.1,1.1-1.1
				C114.3,11.8,114.8,12.3,114.8,12.9z"/>
		</g>
	</g>
</g>
</svg>
